<?xml version="1.0" standalone="no"?>
<!DOCTYPE svg PUBLIC "-//W3C//DTD SVG 1.1//EN" "http://www.w3.org/Graphics/SVG/1.1/DTD/svg11.dtd" >
<svg>
<metadata>
Created by FontForge 20120731 at Tue Mar  5 17:58:02 2019
 By www-data
v1.0 Created by ShyWedge, 1999.  (http://welcome.to/Shyfonts)
</metadata>
<defs>
<font id="AlienEncountersBold" horiz-adv-x="660" >
  <font-face 
    font-family="Alien Encounters"
    font-weight="700"
    font-stretch="normal"
    units-per-em="1000"
    panose-1="0 0 7 0 0 0 0 0 0 0"
    ascent="800"
    descent="-200"
    x-height="705"
    cap-height="705"
    bbox="-7 -85 1057 800"
    underline-thickness="20"
    underline-position="-123"
    unicode-range="U+0020-201E"
  />
<missing-glyph horiz-adv-x="500" 
d="M63 0v800h375v-800h-375zM125 63h250v675h-250v-675z" />
    <glyph glyph-name=".notdef" horiz-adv-x="500" 
d="M63 0v800h375v-800h-375zM125 63h250v675h-250v-675z" />
    <glyph glyph-name=".null" horiz-adv-x="0" 
 />
    <glyph glyph-name="nonmarkingreturn" horiz-adv-x="250" 
 />
    <glyph glyph-name="space" unicode=" " horiz-adv-x="250" 
 />
    <glyph glyph-name="exclam" unicode="!" horiz-adv-x="210" 
d="M185 635h-160v70h160v-70zM185 555h-160v70h160v-70zM185 475h-160v70h160v-70zM185 395h-160v70h160v-70zM185 315h-160v70h160v-70zM185 235h-160v70h160v-70zM185 75h-160v70h160v-70zM185 -5h-160v70h160v-70z" />
    <glyph glyph-name="quotedbl" unicode="&#x22;" horiz-adv-x="400" 
d="M375 635h-160v70h160v-70zM375 555h-160v70h160v-70zM375 475h-85v70h85v-70zM185 635h-160v70h160v-70zM185 555h-160v70h160v-70zM185 475h-85v70h85v-70z" />
    <glyph glyph-name="quotesingle" unicode="'" horiz-adv-x="210" 
d="M185 635h-160v70h160v-70zM185 555h-160v70h160v-70zM185 475h-85v70h85v-70z" />
    <glyph glyph-name="comma" unicode="," horiz-adv-x="210" 
d="M185 75h-160v70h160v-70zM185 -5h-160v70h160v-70zM185 -85h-85v70h85v-70z" />
    <glyph glyph-name="period" unicode="." horiz-adv-x="210" 
d="M185 75h-160v70h160v-70zM185 -5h-160v70h160v-70z" />
    <glyph glyph-name="zero" unicode="0" horiz-adv-x="610" 
d="M585 475h-160v70h160v-70zM580 635h-550q31 70 100 70h350q69 0 100 -70zM585 395h-160v70h160v-70zM585 555h-560v45q0 11 3 25h554q3 -14 3 -25v-45zM585 315h-160v70h160v-70zM585 235h-160v70h160v-70zM585 155h-160v70h160v-70zM185 475h-160v70h160v-70zM185 395
h-160v70h160v-70zM185 315h-160v70h160v-70zM585 100q0 -11 -3 -25h-554q-3 14 -3 25v45h560v-45zM185 235h-160v70h160v-70zM580 65q-31 -70 -100 -70h-350q-69 0 -100 70h550zM185 155h-160v70h160v-70z" />
    <glyph glyph-name="one" unicode="1" horiz-adv-x="310" 
d="M285 635h-260v70h260v-70zM285 555h-260v70h260v-70zM285 475h-160v70h160v-70zM285 395h-160v70h160v-70zM285 315h-160v70h160v-70zM285 235h-160v70h160v-70zM285 155h-160v70h160v-70zM285 75h-160v70h160v-70zM285 -5h-160v70h160v-70z" />
    <glyph glyph-name="two" unicode="2" horiz-adv-x="610" 
d="M585 475h-160v70h160v-70zM580 635h-555v70h455q69 0 100 -70zM585 555h-560v70h557q3 -14 3 -25v-45zM585 420q0 -11 -3 -25h-552q31 70 100 70h455v-45zM580 385q-31 -70 -100 -70h-455v45q0 11 3 25h552zM585 75h-560v70h560v-70zM185 235h-160v70h160v-70zM585 -5
h-560v70h560v-70zM185 155h-160v70h160v-70z" />
    <glyph glyph-name="three" unicode="3" horiz-adv-x="610" 
d="M585 500q0 -11 -3 -25h-157v70h160v-45zM580 635h-555v70h455q69 0 100 -70zM585 555h-560v70h557q3 -14 3 -25v-45zM580 465q-31 -70 -100 -70h-255v70h355zM585 235h-160v70h157q3 -14 3 -25v-45zM580 315h-355v70h255q69 0 100 -70zM585 155h-160v70h160v-70zM585 100
q0 -11 -3 -25h-557v70h560v-45zM580 65q-31 -70 -100 -70h-455v70h555z" />
    <glyph glyph-name="four" unicode="4" horiz-adv-x="610" 
d="M535 635h-160v70h160v-70zM535 555h-160v70h160v-70zM535 475h-160v70h160v-70zM185 635h-160v70h160v-70zM585 395h-560v70h560v-70zM535 235h-160v70h160v-70zM185 555h-160v70h160v-70zM585 315h-560v70h560v-70zM535 155h-160v70h160v-70zM185 475h-160v70h160v-70z
M535 75h-160v70h160v-70zM535 -5h-160v70h160v-70z" />
    <glyph glyph-name="five" unicode="5" horiz-adv-x="610" 
d="M585 635h-560v70h560v-70zM585 555h-560v70h560v-70zM585 235h-160v70h160v-70zM580 395h-552q-3 14 -3 25v45h455q69 0 100 -70zM585 155h-160v70h160v-70zM585 315h-455q-69 0 -100 70h552q3 -14 3 -25v-45zM185 475h-160v70h160v-70zM585 100q0 -11 -3 -25h-557v70
h560v-45zM580 65q-31 -70 -100 -70h-455v70h555z" />
    <glyph glyph-name="six" unicode="6" horiz-adv-x="610" 
d="M535 635h-505q31 70 100 70h405v-70zM535 555h-510v45q0 11 3 25h507v-70zM585 235h-160v70h160v-70zM580 395h-555v70h455q69 0 100 -70zM585 155h-160v70h160v-70zM585 315h-560v70h557q3 -14 3 -25v-45zM185 475h-160v70h160v-70zM585 100q0 -11 -3 -25h-554
q-3 14 -3 25v45h560v-45zM185 235h-160v70h160v-70zM580 65q-31 -70 -100 -70h-350q-69 0 -100 70h550zM185 155h-160v70h160v-70z" />
    <glyph glyph-name="seven" unicode="7" horiz-adv-x="610" 
d="M585 475h-160v70h160v-70zM580 635h-555v70h455q69 0 100 -70zM585 395h-160v70h160v-70zM585 555h-560v70h557q3 -14 3 -25v-45zM585 315h-160v70h160v-70zM585 235h-160v70h160v-70zM585 155h-160v70h160v-70zM585 75h-160v70h160v-70zM585 -5h-160v70h160v-70z" />
    <glyph glyph-name="eight" unicode="8" horiz-adv-x="610" 
d="M585 500q0 -11 -3 -25h-157v70h160v-45zM580 635h-550q31 70 100 70h350q69 0 100 -70zM585 555h-560v45q0 11 3 25h554q3 -14 3 -25v-45zM585 235h-160v70h157q3 -14 3 -25v-45zM580 465q-31 -70 -100 -70h-350q-69 0 -100 70h550zM585 155h-160v70h160v-70zM580 315
h-550q31 70 100 70h350q69 0 100 -70zM185 475h-157q-3 14 -3 25v45h160v-70zM585 100q0 -11 -3 -25h-554q-3 14 -3 25v45h560v-45zM185 235h-160v45q0 11 3 25h157v-70zM580 65q-31 -70 -100 -70h-350q-69 0 -100 70h550zM185 155h-160v70h160v-70z" />
    <glyph glyph-name="nine" unicode="9" horiz-adv-x="610" 
d="M585 475h-160v70h160v-70zM580 635h-550q31 70 100 70h350q69 0 100 -70zM585 395h-160v70h160v-70zM585 555h-560v45q0 11 3 25h554q3 -14 3 -25v-45zM585 155h-160v70h160v-70zM585 315h-557q-3 14 -3 25v45h560v-70zM185 475h-160v70h160v-70zM585 235h-455
q-69 0 -100 70h555v-70zM185 395h-160v70h160v-70zM585 100q0 -11 -3 -25h-507v70h510v-45zM580 65q-31 -70 -100 -70h-405v70h505z" />
    <glyph glyph-name="colon" unicode=":" horiz-adv-x="210" 
d="M185 395h-160v70h160v-70zM185 315h-160v70h160v-70zM185 75h-160v70h160v-70zM185 -5h-160v70h160v-70z" />
    <glyph glyph-name="semicolon" unicode=";" horiz-adv-x="210" 
d="M185 395h-160v70h160v-70zM185 315h-160v70h160v-70zM185 75h-160v70h160v-70zM185 -5h-160v70h160v-70zM185 -85h-85v70h85v-70z" />
    <glyph glyph-name="question" unicode="?" horiz-adv-x="510" 
d="M480 635h-455v70h355q69 0 100 -70zM485 475h-160v70h160v-70zM485 555h-460v70h457q3 -14 3 -25v-45zM485 420q0 -11 -3 -25h-452q31 70 100 70h355v-45zM480 385q-31 -70 -100 -70h-355v45q0 11 3 25h452zM185 235h-160v70h160v-70zM185 75h-160v70h160v-70zM185 -5
h-160v70h160v-70z" />
    <glyph glyph-name="A" unicode="A" horiz-adv-x="750" 
d="M501 635h-252l28 70h196zM533 555h-316l28 70h260zM597 395h-180l-28 70h180zM565 475h-180l-10 24l-10 -24h-180l28 70h324zM629 315h-180l-28 70h180zM725 75h-180l-28 70h180zM361 465l-28 -70h-180l28 70h180zM757 -5h-180l-28 70h180zM661 235h-572l28 70h516z
M329 385l-28 -70h-180l28 70h180zM693 155h-636l28 70h580zM233 145l-28 -70h-180l28 70h180zM201 65l-28 -70h-180l28 70h180z" />
    <glyph glyph-name="B" unicode="B" 
d="M635 500q0 -11 -3 -25h-157v70h160v-45zM630 635h-605v70h505q69 0 100 -70zM635 555h-610v70h607q3 -14 3 -25v-45zM635 235h-160v70h157q3 -14 3 -25v-45zM630 465q-31 -70 -100 -70h-505v70h605zM635 155h-160v70h160v-70zM630 315h-605v70h505q69 0 100 -70zM185 475
h-160v70h160v-70zM635 100q0 -11 -3 -25h-607v70h610v-45zM185 235h-160v70h160v-70zM630 65q-31 -70 -100 -70h-505v70h605zM185 155h-160v70h160v-70z" />
    <glyph glyph-name="C" unicode="C" horiz-adv-x="610" 
d="M585 635h-555q31 70 100 70h455v-70zM585 555h-560v45q0 11 3 25h557v-70zM185 475h-160v70h160v-70zM185 395h-160v70h160v-70zM185 315h-160v70h160v-70zM585 75h-557q-3 14 -3 25v45h560v-70zM185 235h-160v70h160v-70zM585 -5h-455q-69 0 -100 70h555v-70zM185 155
h-160v70h160v-70z" />
    <glyph glyph-name="D" unicode="D" 
d="M635 475h-160v70h160v-70zM630 635h-605v70h505q69 0 100 -70zM635 395h-160v70h160v-70zM635 555h-610v70h607q3 -14 3 -25v-45zM635 315h-160v70h160v-70zM635 235h-160v70h160v-70zM635 155h-160v70h160v-70zM185 475h-160v70h160v-70zM185 395h-160v70h160v-70z
M185 315h-160v70h160v-70zM635 100q0 -11 -3 -25h-607v70h610v-45zM185 235h-160v70h160v-70zM630 65q-31 -70 -100 -70h-505v70h605zM185 155h-160v70h160v-70z" />
    <glyph glyph-name="E" unicode="E" horiz-adv-x="610" 
d="M585 635h-555q31 70 100 70h455v-70zM585 555h-560v45q0 11 3 25h557v-70zM585 395h-560v70h560v-70zM585 315h-560v70h560v-70zM185 475h-160v70h160v-70zM585 75h-557q-3 14 -3 25v45h560v-70zM185 235h-160v70h160v-70zM585 -5h-455q-69 0 -100 70h555v-70zM185 155
h-160v70h160v-70z" />
    <glyph glyph-name="F" unicode="F" horiz-adv-x="610" 
d="M585 635h-555q31 70 100 70h455v-70zM585 555h-560v45q0 11 3 25h557v-70zM585 395h-560v70h560v-70zM585 315h-560v70h560v-70zM185 475h-160v70h160v-70zM185 235h-160v70h160v-70zM185 155h-160v70h160v-70zM185 75h-160v70h160v-70zM185 -5h-160v70h160v-70z" />
    <glyph glyph-name="G" unicode="G" 
d="M635 635h-605q31 70 100 70h505v-70zM635 555h-610v45q0 11 3 25h607v-70zM635 395h-360v70h360v-70zM635 235h-160v70h160v-70zM635 315h-360v70h360v-70zM635 155h-160v70h160v-70zM185 475h-160v70h160v-70zM185 395h-160v70h160v-70zM185 315h-160v70h160v-70z
M635 75h-607q-3 14 -3 25v45h610v-70zM185 235h-160v70h160v-70zM635 -5h-505q-69 0 -100 70h605v-70zM185 155h-160v70h160v-70z" />
    <glyph glyph-name="H" unicode="H" 
d="M635 635h-160v70h160v-70zM635 555h-160v70h160v-70zM635 475h-160v70h160v-70zM635 235h-160v70h160v-70zM185 635h-160v70h160v-70zM635 395h-610v70h610v-70zM635 155h-160v70h160v-70zM185 555h-160v70h160v-70zM635 315h-610v70h610v-70zM635 75h-160v70h160v-70z
M185 475h-160v70h160v-70zM635 -5h-160v70h160v-70zM185 235h-160v70h160v-70zM185 155h-160v70h160v-70zM185 75h-160v70h160v-70zM185 -5h-160v70h160v-70z" />
    <glyph glyph-name="I" unicode="I" horiz-adv-x="210" 
d="M185 635h-160v70h160v-70zM185 555h-160v70h160v-70zM185 475h-160v70h160v-70zM185 395h-160v70h160v-70zM185 315h-160v70h160v-70zM185 235h-160v70h160v-70zM185 155h-160v70h160v-70zM185 75h-160v70h160v-70zM185 -5h-160v70h160v-70z" />
    <glyph glyph-name="J" unicode="J" 
d="M635 635h-160v70h160v-70zM635 555h-160v70h160v-70zM635 475h-160v70h160v-70zM635 395h-160v70h160v-70zM635 315h-160v70h160v-70zM635 235h-160v70h160v-70zM635 155h-160v70h160v-70zM635 100q0 -11 -3 -25h-604q-3 14 -3 25v45h610v-45zM185 235h-160v70h160v-70z
M630 65q-31 -70 -100 -70h-400q-69 0 -100 70h600zM185 155h-160v70h160v-70z" />
    <glyph glyph-name="K" unicode="K" horiz-adv-x="720" 
d="M700 705l-51 -70h-203l51 70h203zM642 625l-51 -70h-203l51 70h203zM583 545l-50 -70h-203l50 70h203zM525 465l-51 -70h-203l51 70h203zM185 635h-160v70h160v-70zM185 555h-160v70h160v-70zM467 315h-254l51 70h203l-26 -35zM642 75h-203l-51 70h203zM185 475h-160v70
h160v-70zM700 -5h-203l-51 70h203zM525 235h-500v70h160v-29l21 29h268zM185 395h-160v70h160v-70zM583 155h-203l-40 56l-40 -56h-275v70h508zM185 315h-160v70h160v-70zM292 145l-51 -70h-216v70h267zM234 65l-51 -70h-158v70h209z" />
    <glyph glyph-name="L" unicode="L" horiz-adv-x="610" 
d="M185 635h-160v70h160v-70zM185 555h-160v70h160v-70zM185 475h-160v70h160v-70zM185 395h-160v70h160v-70zM185 315h-160v70h160v-70zM585 75h-557q-3 14 -3 25v45h560v-70zM185 235h-160v70h160v-70zM585 -5h-455q-69 0 -100 70h555v-70zM185 155h-160v70h160v-70z" />
    <glyph glyph-name="M" unicode="M" horiz-adv-x="820" 
d="M795 635h-192l34 70h158v-70zM795 555h-231l34 70h197v-70zM795 475h-270l34 70h236v-70zM795 395h-309l34 70h275v-70zM795 235h-160v70h160v-70zM795 315h-160v14l-7 -14h-181l35 70h313v-70zM795 155h-160v70h160v-70zM795 75h-160v70h160v-70zM217 635h-192v70h158z
M624 305l-34 -70h-181l34 70h181zM795 -5h-160v70h160v-70zM256 555h-231v70h197zM295 475h-270v70h236zM334 395h-309v70h275zM585 225l-34 -70h-282l-34 70h350zM411 235h-181l-34 70h181zM373 315h-181l-7 14v-14h-160v70h313zM546 145l-34 -70h-204l-34 70h272zM507 65
l-34 -70h-126l-34 70h194zM185 235h-160v70h160v-70zM185 155h-160v70h160v-70zM185 75h-160v70h160v-70zM185 -5h-160v70h160v-70z" />
    <glyph glyph-name="N" unicode="N" 
d="M635 635h-160v70h160v-70zM635 555h-160v70h160v-70zM635 475h-160v70h160v-70zM635 395h-160v70h160v-70zM635 315h-160v70h160v-70zM233 635h-208v70h158zM290 555h-265v70h215zM635 235h-329l-50 70h213l6 -9v9h160v-70zM347 475h-322v70h272zM461 315h-213l-49 70
h213zM635 155h-272l-50 70h322v-70zM404 395h-213l-6 9v-9h-160v70h329zM635 75h-215l-50 70h265v-70zM635 -5h-158l-50 70h208v-70zM185 315h-160v70h160v-70zM185 235h-160v70h160v-70zM185 155h-160v70h160v-70zM185 75h-160v70h160v-70zM185 -5h-160v70h160v-70z" />
    <glyph glyph-name="O" unicode="O" 
d="M635 475h-160v70h160v-70zM630 635h-600q31 70 100 70h400q69 0 100 -70zM635 395h-160v70h160v-70zM635 555h-610v45q0 11 3 25h604q3 -14 3 -25v-45zM635 315h-160v70h160v-70zM635 235h-160v70h160v-70zM635 155h-160v70h160v-70zM185 475h-160v70h160v-70zM185 395
h-160v70h160v-70zM185 315h-160v70h160v-70zM635 100q0 -11 -3 -25h-604q-3 14 -3 25v45h610v-45zM185 235h-160v70h160v-70zM630 65q-31 -70 -100 -70h-400q-69 0 -100 70h600zM185 155h-160v70h160v-70z" />
    <glyph glyph-name="P" unicode="P" 
d="M635 475h-160v70h160v-70zM630 635h-605v70h505q69 0 100 -70zM635 555h-610v70h607q3 -14 3 -25v-45zM635 420q0 -11 -3 -25h-607v70h610v-45zM630 385q-31 -70 -100 -70h-505v70h605zM185 475h-160v70h160v-70zM185 235h-160v70h160v-70zM185 155h-160v70h160v-70z
M185 75h-160v70h160v-70zM185 -5h-160v70h160v-70z" />
    <glyph glyph-name="Q" unicode="Q" horiz-adv-x="760" 
d="M635 475h-160v70h160v-70zM630 635h-600q31 70 100 70h400q69 0 100 -70zM635 395h-160v70h160v-70zM635 555h-610v45q0 11 3 25h604q3 -14 3 -25v-45zM635 315h-160v70h160v-70zM635 235h-160v70h160v-70zM635 155h-160v70h160v-70zM185 475h-160v70h160v-70zM185 395
h-160v70h160v-70zM735 75h-707q-3 14 -3 25v45h710v-70zM185 315h-160v70h160v-70zM735 -5h-605q-69 0 -100 70h705v-70zM185 235h-160v70h160v-70zM185 155h-160v70h160v-70z" />
    <glyph glyph-name="R" unicode="R" 
d="M635 500q0 -11 -3 -25h-157v70h160v-45zM630 635h-605v70h505q69 0 100 -70zM635 555h-610v70h607q3 -14 3 -25v-45zM635 235h-160v70h157q3 -14 3 -25v-45zM630 465q-31 -70 -100 -70h-505v70h605zM635 155h-160v70h160v-70zM630 315h-605v70h505q69 0 100 -70zM635 75
h-160v70h160v-70zM185 475h-160v70h160v-70zM635 -5h-160v70h160v-70zM185 235h-160v70h160v-70zM185 155h-160v70h160v-70zM185 75h-160v70h160v-70zM185 -5h-160v70h160v-70z" />
    <glyph glyph-name="S" unicode="S" 
d="M635 635h-605q31 70 100 70h505v-70zM635 555h-610v45q0 11 3 25h607v-70zM635 235h-160v70h160v-70zM630 395h-602q-3 14 -3 25v45h505q69 0 100 -70zM635 155h-160v70h160v-70zM635 315h-505q-69 0 -100 70h602q3 -14 3 -25v-45zM185 475h-160v70h160v-70zM635 100
q0 -11 -3 -25h-607v70h610v-45zM630 65q-31 -70 -100 -70h-505v70h605z" />
    <glyph glyph-name="T" unicode="T" 
d="M635 635h-610v70h610v-70zM635 555h-610v70h610v-70zM420 475h-160v70h160v-70zM420 395h-160v70h160v-70zM420 315h-160v70h160v-70zM420 235h-160v70h160v-70zM420 155h-160v70h160v-70zM420 75h-160v70h160v-70zM420 -5h-160v70h160v-70z" />
    <glyph glyph-name="U" unicode="U" 
d="M635 635h-160v70h160v-70zM635 555h-160v70h160v-70zM635 475h-160v70h160v-70zM635 395h-160v70h160v-70zM635 315h-160v70h160v-70zM635 235h-160v70h160v-70zM185 635h-160v70h160v-70zM635 155h-160v70h160v-70zM185 555h-160v70h160v-70zM185 475h-160v70h160v-70z
M185 395h-160v70h160v-70zM185 315h-160v70h160v-70zM635 100q0 -11 -3 -25h-604q-3 14 -3 25v45h610v-45zM185 235h-160v70h160v-70zM630 65q-31 -70 -100 -70h-400q-69 0 -100 70h600zM185 155h-160v70h160v-70z" />
    <glyph glyph-name="V" unicode="V" horiz-adv-x="750" 
d="M757 705l-28 -70h-180l28 70h180zM725 625l-28 -70h-180l28 70h180zM693 545l-28 -70h-180l28 70h180zM661 465l-28 -70h-180l28 70h180zM629 385l-28 -70h-180l28 70h180zM201 635h-180l-28 70h180zM597 305l-28 -70h-180l28 70h180zM233 555h-180l-28 70h180zM265 475
h-180l-28 70h180zM297 395h-180l-28 70h180zM329 315h-180l-28 70h180zM565 225l-28 -70h-324l-28 70h180l10 -24l10 24h180zM361 235h-180l-28 70h180zM533 145l-28 -70h-260l-28 70h316zM501 65l-28 -70h-196l-28 70h252z" />
    <glyph glyph-name="W" unicode="W" horiz-adv-x="1050" 
d="M1057 705l-28 -70h-180l28 70h180zM1025 625l-28 -70h-180l28 70h180zM993 545l-28 -70h-180l28 70h180zM757 705l-28 -70h-180l28 70h180zM961 465l-28 -70h-180l28 70h180zM929 385l-28 -70h-180l28 70h180zM725 625l-28 -70h-344l-28 70h180l20 -49l20 49h180z
M501 635h-180l-28 70h180zM897 305l-28 -70h-180l28 70h180zM693 545l-28 -70h-280l-28 70h336zM661 465l-28 -70h-216l-28 70h272zM629 315h-208l14 35l-14 35h208l-14 -35zM661 235h-272l28 70h216zM201 635h-180l-28 70h180zM233 555h-180l-28 70h180zM865 225l-28 -70
h-624l-28 70h180l10 -24l10 24h280l10 -24l10 24h180zM801 65l-28 -70h-196l-28 70h252zM265 475h-180l-28 70h180zM833 145l-28 -70h-260l-20 49l-20 -49h-260l-28 70h616zM297 395h-180l-28 70h180zM329 315h-180l-28 70h180zM361 235h-180l-28 70h180zM501 65l-28 -70
h-196l-28 70h252z" />
    <glyph glyph-name="X" unicode="X" horiz-adv-x="760" 
d="M740 705l-51 -70h-203l51 70h203zM682 625l-51 -70h-203l51 70h203zM623 545l-50 -70h-386l-50 70h203l40 -56l40 56h203zM274 635h-203l-51 70h203zM565 465l-51 -70h-268l-51 70h370zM332 555h-203l-51 70h203zM507 315h-254l26 35l-26 35h254l-26 -35zM682 75h-203
l-51 70h203zM565 235h-370l51 70h268zM740 -5h-203l-51 70h203zM623 155h-203l-40 56l-40 -56h-203l50 70h386zM332 145l-51 -70h-203l51 70h203zM274 65l-51 -70h-203l51 70h203z" />
    <glyph glyph-name="Y" unicode="Y" horiz-adv-x="760" 
d="M740 705l-51 -70h-203l51 70h203zM682 625l-51 -70h-203l51 70h203zM623 545l-50 -70h-386l-50 70h203l40 -56l40 56h203zM274 635h-203l-51 70h203zM565 465l-51 -70h-268l-51 70h370zM332 555h-203l-51 70h203zM507 385l-49 -70h-156l-49 70h254zM460 235h-160v70h160
v-70zM460 155h-160v70h160v-70zM460 75h-160v70h160v-70zM460 -5h-160v70h160v-70z" />
    <glyph glyph-name="Z" unicode="Z" 
d="M635 635h-610v70h610v-70zM623 545l-63 -70h-233l63 70h233zM635 555h-610v70h610v-70zM551 465l-64 -70h-233l64 70h233zM478 385l-63 -70h-233l63 70h233zM406 305l-64 -70h-233l64 70h233zM635 75h-610v70h610v-70zM333 225l-63 -70h-233l63 70h233zM635 -5h-610v70
h610v-70z" />
    <glyph glyph-name="a" unicode="a" horiz-adv-x="750" 
d="M501 635h-252l28 70h196zM533 555h-316l28 70h260zM597 395h-180l-28 70h180zM565 475h-180l-10 24l-10 -24h-180l28 70h324zM629 315h-180l-28 70h180zM725 75h-180l-28 70h180zM361 465l-28 -70h-180l28 70h180zM757 -5h-180l-28 70h180zM661 235h-572l28 70h516z
M329 385l-28 -70h-180l28 70h180zM693 155h-636l28 70h580zM233 145l-28 -70h-180l28 70h180zM201 65l-28 -70h-180l28 70h180z" />
    <glyph glyph-name="b" unicode="b" 
d="M635 500q0 -11 -3 -25h-157v70h160v-45zM630 635h-605v70h505q69 0 100 -70zM635 555h-610v70h607q3 -14 3 -25v-45zM635 235h-160v70h157q3 -14 3 -25v-45zM630 465q-31 -70 -100 -70h-505v70h605zM635 155h-160v70h160v-70zM630 315h-605v70h505q69 0 100 -70zM185 475
h-160v70h160v-70zM635 100q0 -11 -3 -25h-607v70h610v-45zM185 235h-160v70h160v-70zM630 65q-31 -70 -100 -70h-505v70h605zM185 155h-160v70h160v-70z" />
    <glyph glyph-name="c" unicode="c" horiz-adv-x="610" 
d="M585 635h-555q31 70 100 70h455v-70zM585 555h-560v45q0 11 3 25h557v-70zM185 475h-160v70h160v-70zM185 395h-160v70h160v-70zM185 315h-160v70h160v-70zM585 75h-557q-3 14 -3 25v45h560v-70zM185 235h-160v70h160v-70zM585 -5h-455q-69 0 -100 70h555v-70zM185 155
h-160v70h160v-70z" />
    <glyph glyph-name="d" unicode="d" 
d="M635 475h-160v70h160v-70zM630 635h-605v70h505q69 0 100 -70zM635 395h-160v70h160v-70zM635 555h-610v70h607q3 -14 3 -25v-45zM635 315h-160v70h160v-70zM635 235h-160v70h160v-70zM635 155h-160v70h160v-70zM185 475h-160v70h160v-70zM185 395h-160v70h160v-70z
M185 315h-160v70h160v-70zM635 100q0 -11 -3 -25h-607v70h610v-45zM185 235h-160v70h160v-70zM630 65q-31 -70 -100 -70h-505v70h605zM185 155h-160v70h160v-70z" />
    <glyph glyph-name="e" unicode="e" horiz-adv-x="610" 
d="M585 635h-555q31 70 100 70h455v-70zM585 555h-560v45q0 11 3 25h557v-70zM585 395h-560v70h560v-70zM585 315h-560v70h560v-70zM185 475h-160v70h160v-70zM585 75h-557q-3 14 -3 25v45h560v-70zM185 235h-160v70h160v-70zM585 -5h-455q-69 0 -100 70h555v-70zM185 155
h-160v70h160v-70z" />
    <glyph glyph-name="f" unicode="f" horiz-adv-x="610" 
d="M585 635h-555q31 70 100 70h455v-70zM585 555h-560v45q0 11 3 25h557v-70zM585 395h-560v70h560v-70zM585 315h-560v70h560v-70zM185 475h-160v70h160v-70zM185 235h-160v70h160v-70zM185 155h-160v70h160v-70zM185 75h-160v70h160v-70zM185 -5h-160v70h160v-70z" />
    <glyph glyph-name="g" unicode="g" 
d="M635 635h-605q31 70 100 70h505v-70zM635 555h-610v45q0 11 3 25h607v-70zM635 395h-360v70h360v-70zM635 235h-160v70h160v-70zM635 315h-360v70h360v-70zM635 155h-160v70h160v-70zM185 475h-160v70h160v-70zM185 395h-160v70h160v-70zM185 315h-160v70h160v-70z
M635 75h-607q-3 14 -3 25v45h610v-70zM185 235h-160v70h160v-70zM635 -5h-505q-69 0 -100 70h605v-70zM185 155h-160v70h160v-70z" />
    <glyph glyph-name="h" unicode="h" 
d="M635 635h-160v70h160v-70zM635 555h-160v70h160v-70zM635 475h-160v70h160v-70zM635 235h-160v70h160v-70zM185 635h-160v70h160v-70zM635 395h-610v70h610v-70zM635 155h-160v70h160v-70zM185 555h-160v70h160v-70zM635 315h-610v70h610v-70zM635 75h-160v70h160v-70z
M185 475h-160v70h160v-70zM635 -5h-160v70h160v-70zM185 235h-160v70h160v-70zM185 155h-160v70h160v-70zM185 75h-160v70h160v-70zM185 -5h-160v70h160v-70z" />
    <glyph glyph-name="i" unicode="i" horiz-adv-x="210" 
d="M185 635h-160v70h160v-70zM185 555h-160v70h160v-70zM185 475h-160v70h160v-70zM185 395h-160v70h160v-70zM185 315h-160v70h160v-70zM185 235h-160v70h160v-70zM185 155h-160v70h160v-70zM185 75h-160v70h160v-70zM185 -5h-160v70h160v-70z" />
    <glyph glyph-name="j" unicode="j" 
d="M635 635h-160v70h160v-70zM635 555h-160v70h160v-70zM635 475h-160v70h160v-70zM635 395h-160v70h160v-70zM635 315h-160v70h160v-70zM635 235h-160v70h160v-70zM635 155h-160v70h160v-70zM635 100q0 -11 -3 -25h-604q-3 14 -3 25v45h610v-45zM185 235h-160v70h160v-70z
M630 65q-31 -70 -100 -70h-400q-69 0 -100 70h600zM185 155h-160v70h160v-70z" />
    <glyph glyph-name="k" unicode="k" horiz-adv-x="720" 
d="M700 705l-51 -70h-203l51 70h203zM642 625l-51 -70h-203l51 70h203zM583 545l-50 -70h-203l50 70h203zM525 465l-51 -70h-203l51 70h203zM185 635h-160v70h160v-70zM185 555h-160v70h160v-70zM467 315h-254l51 70h203l-26 -35zM642 75h-203l-51 70h203zM185 475h-160v70
h160v-70zM700 -5h-203l-51 70h203zM525 235h-500v70h160v-29l21 29h268zM185 395h-160v70h160v-70zM583 155h-203l-40 56l-40 -56h-275v70h508zM185 315h-160v70h160v-70zM292 145l-51 -70h-216v70h267zM234 65l-51 -70h-158v70h209z" />
    <glyph glyph-name="l" unicode="l" horiz-adv-x="610" 
d="M185 635h-160v70h160v-70zM185 555h-160v70h160v-70zM185 475h-160v70h160v-70zM185 395h-160v70h160v-70zM185 315h-160v70h160v-70zM585 75h-557q-3 14 -3 25v45h560v-70zM185 235h-160v70h160v-70zM585 -5h-455q-69 0 -100 70h555v-70zM185 155h-160v70h160v-70z" />
    <glyph glyph-name="m" unicode="m" horiz-adv-x="820" 
d="M795 635h-192l34 70h158v-70zM795 555h-231l34 70h197v-70zM795 475h-270l34 70h236v-70zM795 395h-309l34 70h275v-70zM795 235h-160v70h160v-70zM795 315h-160v14l-7 -14h-181l35 70h313v-70zM795 155h-160v70h160v-70zM795 75h-160v70h160v-70zM217 635h-192v70h158z
M624 305l-34 -70h-181l34 70h181zM795 -5h-160v70h160v-70zM256 555h-231v70h197zM295 475h-270v70h236zM334 395h-309v70h275zM585 225l-34 -70h-282l-34 70h350zM411 235h-181l-34 70h181zM373 315h-181l-7 14v-14h-160v70h313zM546 145l-34 -70h-204l-34 70h272zM507 65
l-34 -70h-126l-34 70h194zM185 235h-160v70h160v-70zM185 155h-160v70h160v-70zM185 75h-160v70h160v-70zM185 -5h-160v70h160v-70z" />
    <glyph glyph-name="n" unicode="n" 
d="M635 635h-160v70h160v-70zM635 555h-160v70h160v-70zM635 475h-160v70h160v-70zM635 395h-160v70h160v-70zM635 315h-160v70h160v-70zM233 635h-208v70h158zM290 555h-265v70h215zM635 235h-329l-50 70h213l6 -9v9h160v-70zM347 475h-322v70h272zM461 315h-213l-49 70
h213zM635 155h-272l-50 70h322v-70zM404 395h-213l-6 9v-9h-160v70h329zM635 75h-215l-50 70h265v-70zM635 -5h-158l-50 70h208v-70zM185 315h-160v70h160v-70zM185 235h-160v70h160v-70zM185 155h-160v70h160v-70zM185 75h-160v70h160v-70zM185 -5h-160v70h160v-70z" />
    <glyph glyph-name="o" unicode="o" 
d="M635 475h-160v70h160v-70zM630 635h-600q31 70 100 70h400q69 0 100 -70zM635 395h-160v70h160v-70zM635 555h-610v45q0 11 3 25h604q3 -14 3 -25v-45zM635 315h-160v70h160v-70zM635 235h-160v70h160v-70zM635 155h-160v70h160v-70zM185 475h-160v70h160v-70zM185 395
h-160v70h160v-70zM185 315h-160v70h160v-70zM635 100q0 -11 -3 -25h-604q-3 14 -3 25v45h610v-45zM185 235h-160v70h160v-70zM630 65q-31 -70 -100 -70h-400q-69 0 -100 70h600zM185 155h-160v70h160v-70z" />
    <glyph glyph-name="p" unicode="p" 
d="M635 475h-160v70h160v-70zM630 635h-605v70h505q69 0 100 -70zM635 555h-610v70h607q3 -14 3 -25v-45zM635 420q0 -11 -3 -25h-607v70h610v-45zM630 385q-31 -70 -100 -70h-505v70h605zM185 475h-160v70h160v-70zM185 235h-160v70h160v-70zM185 155h-160v70h160v-70z
M185 75h-160v70h160v-70zM185 -5h-160v70h160v-70z" />
    <glyph glyph-name="q" unicode="q" horiz-adv-x="760" 
d="M635 475h-160v70h160v-70zM630 635h-600q31 70 100 70h400q69 0 100 -70zM635 395h-160v70h160v-70zM635 555h-610v45q0 11 3 25h604q3 -14 3 -25v-45zM635 315h-160v70h160v-70zM635 235h-160v70h160v-70zM635 155h-160v70h160v-70zM185 475h-160v70h160v-70zM185 395
h-160v70h160v-70zM735 75h-707q-3 14 -3 25v45h710v-70zM185 315h-160v70h160v-70zM735 -5h-605q-69 0 -100 70h705v-70zM185 235h-160v70h160v-70zM185 155h-160v70h160v-70z" />
    <glyph glyph-name="r" unicode="r" 
d="M635 500q0 -11 -3 -25h-157v70h160v-45zM630 635h-605v70h505q69 0 100 -70zM635 555h-610v70h607q3 -14 3 -25v-45zM635 235h-160v70h157q3 -14 3 -25v-45zM630 465q-31 -70 -100 -70h-505v70h605zM635 155h-160v70h160v-70zM630 315h-605v70h505q69 0 100 -70zM635 75
h-160v70h160v-70zM185 475h-160v70h160v-70zM635 -5h-160v70h160v-70zM185 235h-160v70h160v-70zM185 155h-160v70h160v-70zM185 75h-160v70h160v-70zM185 -5h-160v70h160v-70z" />
    <glyph glyph-name="s" unicode="s" 
d="M635 635h-605q31 70 100 70h505v-70zM635 555h-610v45q0 11 3 25h607v-70zM635 235h-160v70h160v-70zM630 395h-602q-3 14 -3 25v45h505q69 0 100 -70zM635 155h-160v70h160v-70zM635 315h-505q-69 0 -100 70h602q3 -14 3 -25v-45zM185 475h-160v70h160v-70zM635 100
q0 -11 -3 -25h-607v70h610v-45zM630 65q-31 -70 -100 -70h-505v70h605z" />
    <glyph glyph-name="t" unicode="t" 
d="M635 635h-610v70h610v-70zM635 555h-610v70h610v-70zM420 475h-160v70h160v-70zM420 395h-160v70h160v-70zM420 315h-160v70h160v-70zM420 235h-160v70h160v-70zM420 155h-160v70h160v-70zM420 75h-160v70h160v-70zM420 -5h-160v70h160v-70z" />
    <glyph glyph-name="u" unicode="u" 
d="M635 635h-160v70h160v-70zM635 555h-160v70h160v-70zM635 475h-160v70h160v-70zM635 395h-160v70h160v-70zM635 315h-160v70h160v-70zM635 235h-160v70h160v-70zM185 635h-160v70h160v-70zM635 155h-160v70h160v-70zM185 555h-160v70h160v-70zM185 475h-160v70h160v-70z
M185 395h-160v70h160v-70zM185 315h-160v70h160v-70zM635 100q0 -11 -3 -25h-604q-3 14 -3 25v45h610v-45zM185 235h-160v70h160v-70zM630 65q-31 -70 -100 -70h-400q-69 0 -100 70h600zM185 155h-160v70h160v-70z" />
    <glyph glyph-name="v" unicode="v" horiz-adv-x="750" 
d="M757 705l-28 -70h-180l28 70h180zM725 625l-28 -70h-180l28 70h180zM693 545l-28 -70h-180l28 70h180zM661 465l-28 -70h-180l28 70h180zM629 385l-28 -70h-180l28 70h180zM201 635h-180l-28 70h180zM597 305l-28 -70h-180l28 70h180zM233 555h-180l-28 70h180zM265 475
h-180l-28 70h180zM297 395h-180l-28 70h180zM329 315h-180l-28 70h180zM565 225l-28 -70h-324l-28 70h180l10 -24l10 24h180zM361 235h-180l-28 70h180zM533 145l-28 -70h-260l-28 70h316zM501 65l-28 -70h-196l-28 70h252z" />
    <glyph glyph-name="w" unicode="w" horiz-adv-x="1050" 
d="M1057 705l-28 -70h-180l28 70h180zM1025 625l-28 -70h-180l28 70h180zM993 545l-28 -70h-180l28 70h180zM757 705l-28 -70h-180l28 70h180zM961 465l-28 -70h-180l28 70h180zM929 385l-28 -70h-180l28 70h180zM725 625l-28 -70h-344l-28 70h180l20 -49l20 49h180z
M501 635h-180l-28 70h180zM897 305l-28 -70h-180l28 70h180zM693 545l-28 -70h-280l-28 70h336zM661 465l-28 -70h-216l-28 70h272zM629 315h-208l14 35l-14 35h208l-14 -35zM661 235h-272l28 70h216zM201 635h-180l-28 70h180zM233 555h-180l-28 70h180zM865 225l-28 -70
h-624l-28 70h180l10 -24l10 24h280l10 -24l10 24h180zM801 65l-28 -70h-196l-28 70h252zM265 475h-180l-28 70h180zM833 145l-28 -70h-260l-20 49l-20 -49h-260l-28 70h616zM297 395h-180l-28 70h180zM329 315h-180l-28 70h180zM361 235h-180l-28 70h180zM501 65l-28 -70
h-196l-28 70h252z" />
    <glyph glyph-name="x" unicode="x" horiz-adv-x="760" 
d="M740 705l-51 -70h-203l51 70h203zM682 625l-51 -70h-203l51 70h203zM623 545l-50 -70h-386l-50 70h203l40 -56l40 56h203zM274 635h-203l-51 70h203zM565 465l-51 -70h-268l-51 70h370zM332 555h-203l-51 70h203zM507 315h-254l26 35l-26 35h254l-26 -35zM682 75h-203
l-51 70h203zM565 235h-370l51 70h268zM740 -5h-203l-51 70h203zM623 155h-203l-40 56l-40 -56h-203l50 70h386zM332 145l-51 -70h-203l51 70h203zM274 65l-51 -70h-203l51 70h203z" />
    <glyph glyph-name="y" unicode="y" horiz-adv-x="760" 
d="M740 705l-51 -70h-203l51 70h203zM682 625l-51 -70h-203l51 70h203zM623 545l-50 -70h-386l-50 70h203l40 -56l40 56h203zM274 635h-203l-51 70h203zM565 465l-51 -70h-268l-51 70h370zM332 555h-203l-51 70h203zM507 385l-49 -70h-156l-49 70h254zM460 235h-160v70h160
v-70zM460 155h-160v70h160v-70zM460 75h-160v70h160v-70zM460 -5h-160v70h160v-70z" />
    <glyph glyph-name="z" unicode="z" 
d="M635 635h-610v70h610v-70zM623 545l-63 -70h-233l63 70h233zM635 555h-610v70h610v-70zM551 465l-64 -70h-233l64 70h233zM478 385l-63 -70h-233l63 70h233zM406 305l-64 -70h-233l64 70h233zM635 75h-610v70h610v-70zM333 225l-63 -70h-233l63 70h233zM635 -5h-610v70
h610v-70z" />
    <glyph glyph-name="quoteleft" unicode="&#x2018;" horiz-adv-x="210" 
d="M110 635h-85v70h85v-70zM185 555h-160v70h160v-70zM185 475h-160v70h160v-70z" />
    <glyph glyph-name="quoteright" unicode="&#x2019;" horiz-adv-x="210" 
d="M185 635h-160v70h160v-70zM185 555h-160v70h160v-70zM185 475h-85v70h85v-70z" />
    <glyph glyph-name="quotesinglbase" unicode="&#x201a;" horiz-adv-x="210" 
d="M185 75h-160v70h160v-70zM185 -5h-160v70h160v-70zM185 -85h-85v70h85v-70z" />
    <glyph glyph-name="quotereversed" unicode="&#x201b;" horiz-adv-x="210" 
d="M185 635h-160v70h160v-70zM185 555h-160v70h160v-70zM110 475h-85v70h85v-70z" />
    <glyph glyph-name="quotedblleft" unicode="&#x201c;" horiz-adv-x="400" 
d="M300 635h-85v70h85v-70zM375 555h-160v70h160v-70zM375 475h-160v70h160v-70zM110 635h-85v70h85v-70zM185 555h-160v70h160v-70zM185 475h-160v70h160v-70z" />
    <glyph glyph-name="quotedblright" unicode="&#x201d;" horiz-adv-x="400" 
d="M375 635h-160v70h160v-70zM375 555h-160v70h160v-70zM375 475h-85v70h85v-70zM185 635h-160v70h160v-70zM185 555h-160v70h160v-70zM185 475h-85v70h85v-70z" />
    <glyph glyph-name="quotedblbase" unicode="&#x201e;" horiz-adv-x="400" 
d="M375 75h-160v70h160v-70zM375 -5h-160v70h160v-70zM375 -85h-85v70h85v-70zM185 75h-160v70h160v-70zM185 -5h-160v70h160v-70zM185 -85h-85v70h85v-70z" />
    </font>
</defs>
</svg>
