<svg xmlns="http://www.w3.org/2000/svg">
<defs>
<font id="3270Medium" horiz-adv-x="536" >
  <font-face 
    font-family="IBM 3270"
    font-weight="500"
    font-stretch="normal"
    units-per-em="1000"
    panose-1="2 0 6 9 0 0 0 0 0 0"
    ascent="800"
    descent="-200"
    x-height="470"
    cap-height="598"
    bbox="-2 -200 537 802"
    underline-thickness="55"
    underline-position="-99"
    unicode-range="U+0001-1F55C"
  />
<missing-glyph 
d="M33 0v666h265v-666h-265zM66 33h199v600h-199v-600z" />
    <glyph glyph-name=".notdef" 
d="M33 0v666h265v-666h-265zM66 33h199v600h-199v-600z" />
    <glyph glyph-name=".null" horiz-adv-x="0" 
 />
    <glyph glyph-name="uni000D" unicode="&#xd;" 
d="M273 598h-60v19l-12 11h-42l-8 -8v-162l10 -12h42l9 10v20h60v-31q0 -11 -8 -20l-26 -29q-10 -10 -22 -10h-68q-13 0 -22 10l-27 30q-8 8 -8 20v186q0 12 9 21l26 26q9 9 21 9h66q12 0 20 -8l30 -28q10 -10 10 -23v-31zM244 18v304h123q12 0 21 -9l29 -30q8 -8 8 -21v-31
q0 -13 -8 -21l-45 -46l50 -101q3 -5 3 -13v-32h-60v25l-48 99h-13v-124h-60zM304 201h20l41 42v8l-11 12l-50 -1v-61z" />
    <glyph glyph-name="uni0001" 
 />
    <glyph glyph-name="uni0002" 
 />
    <glyph glyph-name="uni0003" 
 />
    <glyph glyph-name="uni0004" 
 />
    <glyph glyph-name="uni0005" 
 />
    <glyph glyph-name="uni0006" 
 />
    <glyph glyph-name="uni0007" 
 />
    <glyph glyph-name="uni0008" 
 />
    <glyph glyph-name="uni0009" unicode="&#x9;" 
d="M244 326h182v-60h-122v-62h92v-61h-92v-121h-60v304zM92 689h60v-244h122v-60h-182v304z" />
    <glyph glyph-name="uni000A" unicode="&#xa;" 
 />
    <glyph glyph-name="uni000B" 
 />
    <glyph glyph-name="uni000C" 
 />
    <glyph glyph-name="uni000E" 
 />
    <glyph glyph-name="uni000F" 
 />
    <glyph glyph-name="uni0010" 
 />
    <glyph glyph-name="uni0011" 
 />
    <glyph glyph-name="uni0012" 
 />
    <glyph glyph-name="uni0013" 
 />
    <glyph glyph-name="uni0014" 
 />
    <glyph glyph-name="uni0015" 
 />
    <glyph glyph-name="uni0016" 
 />
    <glyph glyph-name="uni0017" 
 />
    <glyph glyph-name="uni0018" 
 />
    <glyph glyph-name="uni0019" 
 />
    <glyph glyph-name="uni001A" 
 />
    <glyph glyph-name="uni001B" 
 />
    <glyph glyph-name="uni001C" 
 />
    <glyph glyph-name="uni001D" 
 />
    <glyph glyph-name="uni001E" 
 />
    <glyph glyph-name="uni001F" 
 />
    <glyph glyph-name="space" unicode=" " 
 />
    <glyph glyph-name="exclam" unicode="!" 
d="M237 110h62v-61h-62v61zM237 659h61v-428h-61v428z" />
    <glyph glyph-name="quotedbl" unicode="&#x22;" 
d="M115 659h62v-183h-62v183zM298 659h61v-183h-61v183z" />
    <glyph glyph-name="numbersign" unicode="#" 
d="M298 476h-121v-123h121v123zM115 598h62v-61h121v61h61v-62h61v-60h-61v-123h61v-60h-61v-60h-61v60h-121v-61h-62v61h-62v61h62v122h-62v61h62v61z" />
    <glyph glyph-name="dollar" unicode="$" 
d="M486 538v-60h-184v-123h90q13 0 22 -9l62 -62q8 -8 8 -21v-64q0 -13 -8 -21l-60 -60q-9 -9 -22 -9h-92v-120h-60v120h-178v60h178v126h-91q-12 0 -21 9l-60 60q-9 9 -9 21v63q0 12 9 21l60 60q9 9 21 9h91v120h60v-120h184zM242 478h-78l-43 -43v-38l43 -42h78v123z
M302 169h80l42 42v39l-44 45h-78v-126z" />
    <glyph glyph-name="percent" unicode="%" 
d="M70 118q-9 9 -9 21t9 21l365 365q7 9 21 9q12 0 21 -9q9 -7 9 -21q0 -13 -9 -21l-365 -365q-9 -9 -21 -9t-21 9zM360 81q0 -15 10 -25.5t25 -10.5q14 0 24.5 10.5t10.5 25.5t-10 24.5t-25 9.5t-25 -9.5t-10 -24.5zM303 80q0 38 27 65.5t64 27.5t64 -27.5t27 -65.5
t-27 -65.5t-64 -27.5t-64 27.5t-27 65.5zM117 564q0 -15 10 -25.5t25 -10.5q14 0 24.5 10.5t10.5 25.5t-10 24.5t-25 9.5t-25 -9.5t-10 -24.5zM60 563q0 38 27 65.5t64 27.5t64 -27.5t27 -65.5t-27 -65.5t-64 -27.5t-64 27.5t-27 65.5z" />
    <glyph glyph-name="ampersand" unicode="&#x26;" 
d="M186 242l-5 5q-1 1 -2 3t-2 3v7v38h-36l-27 -39v-107l41 -42h101l31 31zM65 368q-1 1 -3 2.5t-2 2.5v2v3v3v3v123v4v3v4v3q1 1 4 3l3 3l55 59q4 4 6 5q1 1 3.5 2t3.5 1h8h67q5 0 7 -1q1 -1 3.5 -2t3.5 -1l1 -1q1 -1 2 -1t1 -1l2 -1l56 -55q0 -1 1 -1l1 -2q2 -2 2 -3
t1 -3.5t2 -3.5q1 -2 1 -7v-124q0 -1 1.5 -2t1.5 -2t-0.5 -2t-0.5 -2t-1 -3.5t-1 -3.5l-1 -1q-1 -1 -1 -2l-3 -3l-56 -57v-34l95 -93l105 104l41 -40l-106 -105l103 -102l-40 -39l-103 101l-40 -40q-4 -4 -6 -5q-1 0 -3.5 -1t-3.5 -2h-8h-124h-7q-1 1 -3 2t-3 2q0 1 -1 1
t-2 1l-1 1q-2 0 -2 1l-60 59q-2 2 -4 6q0 1 -2 3.5t-2 3.5q-1 2 0 4.5t1 3.5v127v3v3l1 1q2 1 2 2v2v2.5v2.5l32 44zM237 398v100l-39 40h-43l-39 -42v-103l23 -33h62z" />
    <glyph glyph-name="quotesingle" unicode="'" 
d="M244 659h61v-183h-61v183z" />
    <glyph glyph-name="parenleft" unicode="(" 
d="M192 470l125 119q11 9 20 9q12 0 20 -10q9 -9 9 -21q0 -11 -9 -20l-116 -113v-220l117 -116q9 -7 9 -21q0 -11 -9 -19q-9 -9 -20 -9q-12 0 -20 9l-125 125q-9 9 -9 19v244q0 16 8 24z" />
    <glyph glyph-name="parenright" unicode=")" 
d="M359 470q8 -8 8 -24v-244q0 -10 -9 -19l-125 -125q-8 -9 -20 -9q-11 0 -20 9q-9 8 -9 19q0 13 9 21l117 116v220l-116 113q-9 9 -9 20q0 12 9 21q8 10 20 10q9 0 20 -9z" />
    <glyph glyph-name="asterisk" unicode="*" 
d="M237 354h61v-184h-61v184zM237 598h61v-184h-61v184zM431 528l43 -42l-99 -100l101 -104l-43 -42l-143 146zM105 528l141 -142l-143 -146l-42 42l101 104l-99 100z" />
    <glyph glyph-name="plus" unicode="+" 
d="M237 537h61v-183h183v-61h-183v-184h-61v184h-183v61h183v183z" />
    <glyph glyph-name="comma" unicode="," 
d="M358 83q0 -1 0.5 -4t0.5 -4q0 -3 -2 -7l-6 -12l-3 -6q-1 -2 -5 -6l-116 -115l-83 79l93 99v64h121v-88z" />
    <glyph glyph-name="hyphen" unicode="-" 
d="M115 354h306v-61h-306v61z" />
    <glyph glyph-name="period" unicode="." 
d="M177 171h121v-122h-121v122z" />
    <glyph glyph-name="slash" unicode="/" 
d="M70 118q-9 9 -9 21t9 21l365 365q7 9 21 9q12 0 21 -9q9 -7 9 -21q0 -13 -9 -21l-365 -365q-9 -9 -21 -9t-21 9z" />
    <glyph glyph-name="zero" unicode="0" 
d="M265 444q12 0 21 -9t9 -21v-123q0 -12 -9 -21t-21 -9q-13 0 -21.5 9t-8.5 21v123q0 12 8.5 21t21.5 9zM117 495v-282l104 -104h92l103 102v284l-106 105h-87zM66 528l124 123q8 9 21 9h112q12 0 21 -9l123 -123q9 -8 9 -21v-308q0 -14 -9 -21l-120 -120q-9 -9 -21 -9
h-117q-14 0 -21 9l-122 122q-9 9 -9 21v306q0 14 9 21z" />
    <glyph glyph-name="one" unicode="1" 
d="M249 648q10 10 20 10q3 0 11 -4q18 -8 18 -26v-579h-57v508l-89 -92l-42 39z" />
    <glyph glyph-name="two" unicode="2" 
d="M117 476h-60v32q0 12 9 21l121 122q9 9 21 9h177q12 0 21 -9l61 -61q9 -9 9 -21v-125q0 -12 -9 -21l-307 -314h316v-60h-389q-12 0 -21 9t-9 21t9 21l350 356v101l-43 43h-152l-104 -104v-20z" />
    <glyph glyph-name="three" unicode="3" 
d="M119 600v60h357v-93q0 -12 -9 -21l-133 -133q5 -1 10 -6l122 -122q9 -9 9 -21v-67q0 -12 -9 -21l-117 -117q-9 -9 -21 -9h-184q-12 0 -21 9l-66 66l42 42l57 -57h160l99 99v42l-104 105h-47q-12 0 -21 9t-9 21t9 21l173 172v21h-297z" />
    <glyph glyph-name="four" unicode="4" 
d="M419 292h56v-60h-56v-183h-60v183h-272q-12 0 -21 9t-9 21v124q0 12 9 21l240 244q7 9 21 9h62q12 0 21 -9t9 -21v-338zM359 292v308h-19l-223 -226v-82h242z" />
    <glyph glyph-name="five" unicode="5" 
d="M476 660v-60h-359v-123h209q12 0 21 -9l120 -120q9 -7 9 -21v-126q0 -12 -9 -21l-121 -121q-7 -9 -21 -9h-265v60h253l103 104v101l-102 102h-257v243h419z" />
    <glyph glyph-name="six" unicode="6" 
d="M57 198v1v306q0 12 9 21l133 133l42 -42l-124 -124v-161l75 75q9 9 21 9h125q12 0 21 -9l119 -121q9 -9 9 -21v-64q0 -12 -9 -21l-124 -124q-9 -9 -21 -9h-124q-12 0 -21 9l-122 122zM117 247v-36l104 -104h100l106 106v40l-102 103h-100z" />
    <glyph glyph-name="seven" unicode="7" 
d="M230 49h-60v275q0 14 9 21l237 237v18h-359v60h419v-90q0 -14 -9 -21l-237 -237v-263z" />
    <glyph glyph-name="eight" unicode="8" 
d="M126 583l57 66q1 1 3 2.5t3 2.5q1 0 3 2t4 3h9h122h8q1 -1 4 -2t4 -1l5 -5l58 -60q4 -4 5 -6q1 -1 2 -3.5t1 -3.5q1 -2 1 -7v-125q0 -4 -2 -8l-3 -6q-1 -2 -5 -6l-36 -34l100 -107q1 -1 4 -7q1 -1 1 -3.5t1 -3.5q1 -3 1 -6v-65q0 -1 -3 -7l-3 -6l-3 -6l-121 -119
q-1 -1 -2.5 -3.5t-2.5 -3.5t-3.5 0t-3.5 0h-7h-123h-8q-1 1 -3.5 2.5t-3.5 1.5l-6 3l-117 119q-3 3 -5 7q0 1 -1.5 3t-2.5 3q-1 0 -0.5 3t0.5 4v65v6q1 1 3 3.5t2 3.5q1 2 5 6l98 105l-38 34q-1 1 -2.5 2t-2.5 2t-1 2l-4 8v8v119l3 6q0 1 1 3.5t1 3.5q1 2 4 5zM117 254v-41
l99 -103h99l103 104v40l-103 109h-95zM176 554v-96l43 -39h97l40 39v102l-41 42h-97z" />
    <glyph glyph-name="nine" unicode="9" 
d="M416 433l-130 -130q-7 -9 -21 -9h-121q-12 0 -21 9l-57 57q-9 7 -9 21v127q0 14 9 21l122 122q7 9 21 9h176q13 0 21 -9l61 -62q9 -9 9 -21v-428q0 -12 -9 -21l-70 -70l-42 42l61 61v281zM416 517v39l-44 44h-151l-104 -104v-103l39 -39h97z" />
    <glyph glyph-name="colon" unicode=":" 
d="M177 415h121v-122h-121v122zM177 171h121v-122h-121v122z" />
    <glyph glyph-name="semicolon" unicode=";" 
d="M359 83q0 -5 -2 -15l-6 -12q-4 -8 -8 -12l-116 -115l-83 79l93 99v64h121zM237 415h122v-122h-122v122z" />
    <glyph glyph-name="less" unicode="&#x3c;" 
d="M411 99q8 -10 8 -22q0 -10 -9 -21q-7 -8 -21 -10q-11 -1 -21 4l-243 245v56l242 247q12 6 20 5q11 -1 18 -9q8 -7 10 -21q2 -12 -4 -22l-228 -228z" />
    <glyph glyph-name="equal" unicode="=" 
d="M54 476h427v-61h-427v61zM54 293h427v-62h-427v62z" />
    <glyph glyph-name="greater" unicode="&#x3e;" 
d="M133 99l228 224l-228 228q-6 10 -4 22q2 14 10 21q7 8 18 9q8 1 20 -5l242 -247v-56l-243 -245q-10 -5 -21 -4q-14 2 -21 10q-9 11 -9 21q0 12 8 22z" />
    <glyph glyph-name="question" unicode="?" 
d="M169 477h-60v92q0 12 9 21l63 62q8 8 21 8h184q12 0 21 -9l63 -63q9 -9 9 -21v-61q0 -12 -10 -22l-183 -172v-80h-60v93q0 13 9 22l184 172v36l-46 45h-159l-45 -44v-79zM222 111h67v-61h-67v61z" />
    <glyph glyph-name="at" unicode="@" 
d="M298 353v59h-16l-43 -43v-17zM358 352h23l39 40v164l-40 40h-221l-42 -42v-405l37 -38h322v-60h-334q-13 0 -22 9l-55 55q-8 8 -8 21v430q0 13 8 21l60 60q9 9 22 9h245q13 0 22 -9l58 -58q8 -8 8 -21v-189q0 -13 -8 -21l-57 -57q-9 -9 -21 -9h-185q-12 0 -21 9t-9 21v59
q0 13 8 21l61 61q9 9 22 9h58q12 0 21 -9t9 -21v-90z" />
    <glyph glyph-name="A" unicode="A" 
d="M116 232v-183h-59v338q0 11 9 20l180 181q8 9 20 9q14 0 23 -9l183 -182q8 -8 8 -21v-336h-60l1 183h-305zM117 293h303v80l-153 152l-150 -151v-81z" />
    <glyph glyph-name="B" unicode="B" 
d="M118 109v429h-61v60h273q10 0 22 -9l120 -125q8 -8 8 -20q0 -14 -9 -23l-101 -97l101 -99q9 -9 9 -20q0 -13 -9 -22l-122 -125q-9 -9 -21 -9h-271v60h61zM316 293h-137v-184h136l93 94zM315 354l93 90l-91 94h-138v-184h136z" />
    <glyph glyph-name="C" unicode="C" 
d="M480 529l-42 -42l-53 51h-104l-164 -164v-101l165 -163l102 -1l52 55l44 -42l-61 -64q-9 -9 -22 -9h-127q-11 0 -21 10l-183 180q-9 9 -9 21v126q0 13 8 21l183 182q9 9 21 9h128q13 0 21 -8z" />
    <glyph glyph-name="D" unicode="D" 
d="M179 110h138l103 103v220l-103 104l-138 1v-428zM118 538h-61v60l273 -1q12 0 21 -9l120 -122q9 -9 9 -21v-244q0 -13 -9 -22l-121 -120q-9 -9 -21 -9l-272 -1v60h61v429z" />
    <glyph glyph-name="E" unicode="E" 
d="M57 598h423v-61h-362v-183h240v-61h-240v-184h362v-60h-423v549z" />
    <glyph glyph-name="F" unicode="F" 
d="M57 598h423v-61h-362v-183h302v-61h-302v-244h-61v549z" />
    <glyph glyph-name="G" unicode="G" 
d="M238 293h243v-60l-63 -1l-1 -152q0 -10 -8 -19.5t-22 -9.5h-180q-13 0 -21 8l-120 119q-9 9 -9 21v248q0 13 8 21l120 121q7 9 21 9h123q13 0 22 -9l60 -61l-43 -42l-51 52h-98l-102 -103v-223l102 -101h139v121l-120 -1v62z" />
    <glyph glyph-name="H" unicode="H" 
d="M57 598h61v-244h302v244h60v-549h-60v244h-302v-244h-61v549z" />
    <glyph glyph-name="I" unicode="I" 
d="M177 598h182v-61h-61v-428h61v-61l-183 1v61l61 -1v428h-61z" />
    <glyph glyph-name="J" unicode="J" 
d="M57 230l60 2l2 -81l42 -41h99l42 43v384h-61v61h183v-61h-62v-396q0 -13 -8 -21l-59 -61q-9 -9 -22 -9h-124q-13 0 -21 8l-60 58q-9 9 -9 21z" />
    <glyph glyph-name="K" unicode="K" 
d="M120 188v-139h-63v549h63v-324l301 304v19h60v-31q0 -12 -9 -21l-221 -222l222 -222q9 -9 9 -21v-31h-60v19l-213 213z" />
    <glyph glyph-name="L" unicode="L" 
d="M57 598h61v-489h362v-60h-423v549z" />
    <glyph glyph-name="M" unicode="M" 
d="M298 370v-76h-61v76l-123 124v-445h-60v517q0 20 19 28q4 2 11 2q12 0 21 -9l161 -161l163 163q9 9 21 9q7 0 11 -2q19 -8 19 -28v-521h-60v449z" />
    <glyph glyph-name="N" unicode="N" 
d="M54 49v549h61l305 -306v306h60v-548h-60v150l-305 308v-460z" />
    <glyph glyph-name="O" unicode="O" 
d="M116 494l-2 -344l41 -40h222l43 43v340l-43 44l-221 1zM64 526l57 62q9 10 22 10l247 -1q15 0 22 -9l60 -62q8 -8 8 -21v-365q0 -14 -9 -21l-61 -60q-9 -9 -21 -9h-246q-13 0 -21 8l-59 57q-9 9 -9 22l2 369q0 12 8 20z" />
    <glyph glyph-name="P" unicode="P" 
d="M116 293h200l104 105l-1 39l-102 101l-201 -1v-244zM116 231v-183h-62v550h275q12 0 21 -9l120 -118q9 -9 9 -21l1 -64q0 -12 -9 -21l-121 -123q-9 -9 -21 -9z" />
    <glyph glyph-name="Q" unicode="Q" 
d="M375 83l101 -109l-44 -40l-108 118h-119q-12 0 -21 9l-121 119q-9 9 -9 21v247q0 12 9 21l120 120q9 9 21 9h128q12 0 21 -9l118 -122q9 -9 9 -21v-246q0 -12 -9 -21zM332 124l88 89v221l-101 104h-102l-103 -102v-222l103 -102h52l-25 40q-4 7 -4 15v65h60v-57z" />
    <glyph glyph-name="R" unicode="R" 
d="M278 294l192 -194q9 -9 9 -21v-30h-60v18l-227 227h-78l1 -245h-61v548h335q12 0 21 -9l61 -60q9 -9 9 -21v-123q0 -12 -9 -21l-59 -60q-9 -9 -21 -9h-113zM114 354h264l42 42v98l-43 43h-263v-183z" />
    <glyph glyph-name="S" unicode="S" 
d="M420 498l-40 40h-220l-43 -43v-32l348 -238q13 -9 13 -25v-59q0 -10 -8 -20l-57 -62q-10 -10 -22 -10l-246 -1q-12 0 -21 9l-61 61q-9 9 -9 21v31h60v-19l43 -43l221 1l40 44v31l-348 238q-13 9 -13 25v60q0 12 9 21l61 61q9 9 21 9h244q12 0 21 -9l58 -58q9 -9 9 -21
v-32h-60v20z" />
    <glyph glyph-name="T" unicode="T" 
d="M54 598h426v-61h-183v-488h-61v488h-182v61z" />
    <glyph glyph-name="U" unicode="U" 
d="M54 597h60l2 -445l41 -42h222l41 43v445h60v-457q0 -12 -8 -20l-58 -61q-10 -10 -22 -10h-248q-12 0 -21 9l-59 59q-8 8 -8 21z" />
    <glyph glyph-name="V" unicode="V" 
d="M114 513l151 -358l155 357v86h60v-92q0 -4 -2 -12l-185 -428q-8 -18 -28 -18t-28 18l-181 429q-2 4 -2 11v92h60v-85z" />
    <glyph glyph-name="W" unicode="W" 
d="M266 157l-100 -100q-9 -9 -21 -9t-21 9l-60 60q-9 9 -9 21l-1 459h60l1 -447l30 -29l92 92v139h60v-141l92 -90l31 30v447h60v-460q0 -13 -9 -22l-61 -59q-10 -8 -21 -8q-12 0 -21 9z" />
    <glyph glyph-name="X" unicode="X" 
d="M266 281l-152 -154v-77h-60v89q0 12 9 21l161 163l-161 164q-9 9 -9 21v90h60v-78l153 -154l152 154v78h60v-90q0 -12 -9 -21l-161 -163l161 -164q9 -9 9 -21v-89h-60v77z" />
    <glyph glyph-name="Y" unicode="Y" 
d="M298 371v-322h-61v322l-173 174q-9 9 -9 21v32h60v-19l154 -153l152 154v18h60v-30q0 -14 -8 -22z" />
    <glyph glyph-name="Z" unicode="Z" 
d="M479 506q0 -12 -9 -21l-355 -356v-19h365v-60l-425 -1v92q0 12 9 21l355 356v19h-365v61h425v-92z" />
    <glyph glyph-name="bracketleft" unicode="[" 
d="M177 659h182v-61h-122v-549h122v-62h-182v672z" />
    <glyph glyph-name="backslash" unicode="\" 
d="M421 123l-359 366q-8 8 -8 23q0 13 8 21q9 9 23 9q12 0 21 -9l359 -366q9 -9 9 -22t-9 -22q-10 -10 -22 -10t-22 10z" />
    <glyph glyph-name="bracketright" unicode="]" 
d="M177 659h182v-672h-182v62h121v549h-121v61z" />
    <glyph glyph-name="asciicircum" unicode="^" 
d="M247 650q4 4 6 5q1 0 3 1.5t4 2.5q7 1 14 0q1 0 2.5 -1t2.5 -2t2 -1q2 -1 6 -5l123 -122l-40 -41l-103 102l-102 -102l-41 41z" />
    <glyph glyph-name="underscore" unicode="_" 
d="M54 49h427v-62h-427v62z" />
    <glyph glyph-name="grave" unicode="`" 
d="M192 651q9 9 22 9q12 0 21 -9l125 -124q8 -8 8 -21q0 -14 -8 -22t-22 -8q-13 0 -21 8l-125 125q-8 8 -8 21q0 14 8 21z" />
    <glyph glyph-name="a" unicode="a" 
d="M360 109v130h-201l-43 -44v-42l42 -45zM420 108h61v-58h-336q-12 0 -21 9l-58 62q-9 9 -9 21v65q0 12 9 21l59 61q8 8 21 8h214v78l-41 42h-204v59h216q12 0 21 -9l59 -60q9 -9 9 -20v-279z" />
    <glyph glyph-name="b" unicode="b" 
d="M57 52v607h60v-184h156q12 0 21 -9l119 -121q9 -9 9 -21v-123q0 -12 -9 -21l-123 -121q-7 -7 -21 -7h-212zM117 109h140l106 104v99l-102 104h-144v-307z" />
    <glyph glyph-name="c" unicode="c" 
d="M422 475v-59h-203l-103 -104v-99l106 -104h200v-58h-212q-13 0 -21 8l-123 121q-9 9 -9 21v123q0 12 9 21l120 121q9 9 20 9h216z" />
    <glyph glyph-name="d" unicode="d" 
d="M422 51h-212q-13 0 -21 8l-123 121q-9 9 -9 21v123q0 12 9 21l120 121q9 9 20 9h156v184h60v-608zM362 109v307h-143l-103 -104v-99l106 -104h140z" />
    <glyph glyph-name="e" unicode="e" 
d="M116 234v-82l43 -45h263v-56h-275q-12 0 -20 8l-62 60q-8 8 -8 21v242q0 10 10 20l61 63q11 11 22 11h181q10 0 21 -11l59 -62q9 -9 9 -20v-149h-304zM117 296h245v75l-43 44h-158l-44 -45v-74z" />
    <glyph glyph-name="f" unicode="f" 
d="M281 599l-40 -41v-82h121v-61h-122v-366h-59v366h-124v61h124v94q0 13 8 21l57 59q9 9 22 9h154v-60h-141z" />
    <glyph glyph-name="g" unicode="g" 
d="M390 190l-69 -69q-7 -9 -21 -9h-95q-12 0 -21 9l-118 118q-9 7 -9 21v67q0 12 9 21l121 121q7 9 21 9h151q12 0 21 -9l61 -61q9 -7 9 -21v-371q0 -12 -9 -21l-56 -56q-7 -9 -21 -9h-161q-12 0 -21 9l-58 58l42 42l49 -49h137l38 38v162zM390 274v101l-43 43h-127
l-103 -103v-43l100 -100h71z" />
    <glyph glyph-name="h" unicode="h" 
d="M57 48v618h60v-268l72 72q6 5 21 5h119q11 0 21 -8l63 -60q9 -9 9 -22v-337h-60v324l-45 44h-95l-105 -101v-267h-60z" />
    <glyph glyph-name="i" unicode="i" 
d="M237 659h61v-61h-61v61zM237 476h61v-427h-61v427z" />
    <glyph glyph-name="j" unicode="j" 
d="M421 17q0 -11 -10 -21l-60 -61q-8 -8 -21 -8h-124q-12 0 -21 9l-60 61l42 42l52 -53h99l42 43v447h61v-459zM360 659h62v-61h-62v61z" />
    <glyph glyph-name="k" unicode="k" 
d="M253 262l166 -171l-43 -42l-177 184h-80v-184h-62v610h62v-366h81l180 183l42 -42z" />
    <glyph glyph-name="l" unicode="l" 
d="M297 123l13 -14h49v-60h-61q-12 0 -21 9l-31 31q-9 9 -9 21v549h60v-536z" />
    <glyph glyph-name="m" unicode="m" 
d="M299 373v-324h-61v324l-41 42h-36l-44 -43v-323h-60v426h61v-17l9 9q9 9 21 9h62q13 0 22 -9l36 -39l38 38q9 9 21 9h64q12 0 21 -9l59 -59q9 -9 9 -21v-337h-60v325l-41 41h-39z" />
    <glyph glyph-name="n" unicode="n" 
d="M165 442l24 24q9 9 21 9h124q12 0 20 -8l59 -58q9 -9 9 -21v-337h-57v325l-43 41h-100l-42 -44v-323h-60v335q0 2 4 12l-18 20h-49v59h63q12 0 19 -9z" />
    <glyph glyph-name="o" unicode="o" 
d="M117 374v-222l43 -42h162l40 42v222l-39 44h-163zM67 407l61 63q7 7 20 7h188q12 0 22 -10l56 -63q8 -8 8 -19v-245q0 -12 -9 -21l-58 -59q-6 -7 -21 -7h-186q-11 0 -20 7l-62 58q-9 8 -9 22v247q0 10 10 20z" />
    <glyph glyph-name="p" unicode="p" 
d="M57 467h220q9 0 13 -4l123 -118q9 -9 9 -21v-123q0 -12 -9 -21l-120 -121q-9 -9 -20 -9h-156v-184h-60v601zM117 413v-304h143l103 104v99l-106 101h-140z" />
    <glyph glyph-name="q" unicode="q" 
d="M420 473v-538h61v-62h-122l1 181h-154q-11 0 -20 9l-120 121q-9 9 -9 21v119q0 12 9 21l123 121q8 8 21 8zM360 416h-138l-106 -104v-95l103 -104h141v303z" />
    <glyph glyph-name="r" unicode="r" 
d="M166 313v-263l-60 -1l1 335q0 12 -9 22q-10 9 -23 9h-17l-1 60l49 1q15 0 37 -20t23 -42v-18l69 70q9 9 21 9l73 1q13 0 21 -9l63 -61q9 -9 9 -22v-30h-60v18l-45 43h-48z" />
    <glyph glyph-name="s" unicode="s" 
d="M359 372l-44 44h-154l-29 -30l279 -221q11 -9 11 -22q0 -14 -9 -23l-63 -62q-9 -9 -21 -9l-180 1q-13 0 -21 8l-62 60q-9 9 -9 22v28h60v-15l44 -43l156 -1l30 30l-278 220q-9 7 -11 22q-2 13 8 23l60 63q9 9 22 9h179q12 0 21 -9l62 -61q9 -9 9 -21v-32h-60v19z" />
    <glyph glyph-name="t" unicode="t" 
d="M297 123l13 -14h49v-60h-61q-12 0 -21 9l-31 31q-9 9 -9 21v305h-123v61h123v183h60v-183h123v-61h-123v-292z" />
    <glyph glyph-name="u" unicode="u" 
d="M373 84l-24 -24q-9 -9 -21 -9h-182q-12 0 -20 8l-59 58q-9 9 -9 21l-1 337l58 1l2 -326l41 -41h158l42 44l1 323h59l-1 -335q0 -5 -3 -12l18 -20h49v-59h-61q-14 0 -21 9z" />
    <glyph glyph-name="v" unicode="v" 
d="M117 391l151 -254l153 257v81h60v-89q0 -8 -4 -15l-183 -308q-9 -15 -26 -15t-26 15l-181 305q-4 7 -4 15v92h60v-84z" />
    <glyph glyph-name="w" unicode="w" 
d="M300 211l87 -89l34 32v316h60v-329q0 -13 -9 -22l-64 -61q-10 -8 -21 -8q-12 0 -21 9l-97 99l-100 -102q-10 -10 -21 -10t-21 10l-61 62q-9 9 -9 21v330h60v-318l31 -31l91 91v82h61v-82z" />
    <glyph glyph-name="x" unicode="x" 
d="M268 220l-154 -153v-19h-60v32q0 13 8 21l163 161l-163 162q-8 8 -8 22v30h60v-18l154 -153l154 153v18h60v-30q0 -13 -9 -22l-163 -161l163 -162q9 -9 9 -21v-32h-60v19z" />
    <glyph glyph-name="y" unicode="y" 
d="M227 78l-161 163q-9 9 -9 21v214h60v-202l153 -153l91 91v264h60v-276q0 -12 -9 -21l-307 -307l-42 42z" />
    <glyph glyph-name="z" unicode="z" 
d="M57 476h424l-301 -367h301v-60h-424l302 366h-302v61z" />
    <glyph glyph-name="braceleft" unicode="{" 
d="M358 673v-60h-78l-45 -44v-171q0 -13 -8 -21l-39 -40l39 -41q8 -8 8 -21v-171l45 -44h78v-60h-90q-12 0 -21 9l-63 61q-9 9 -9 22v171l-42 44h-36v60h36l42 43v172q0 12 9 21l63 61q7 9 21 9h90z" />
    <glyph glyph-name="bar" unicode="|" 
d="M237 720h61v-838h-61v838z" />
    <glyph glyph-name="braceright" unicode="}" 
d="M114 673h90q14 0 21 -9l63 -61q9 -9 9 -21v-172l42 -43h36v-60h-36l-42 -44v-171q0 -13 -9 -22l-63 -61q-9 -9 -21 -9h-90v60h78l45 44v171q0 13 8 21l39 41l-39 40q-8 8 -8 21v171l-45 44h-78v60z" />
    <glyph glyph-name="asciitilde" unicode="~" 
d="M125 649l1 1q2 0 2 1t1 1t2 1l6 3q6 3 7 3h65l4 1q4 0 4 -1q1 -1 3.5 -3t3.5 -2q2 -1 6 -5l110 -114h40l51 52l41 -40l-59 -60q-4 -4 -6 -5q-1 0 -3.5 -1.5t-3.5 -2.5h-8h-64h-7q-1 1 -3.5 2.5t-3.5 1.5q-2 1 -6 5l-111 113h-41l-52 -51l-40 41z" />
    <glyph glyph-name="uni007F" 
 />
    <glyph glyph-name="uni0080" 
 />
    <glyph glyph-name="uni0081" 
 />
    <glyph glyph-name="uni0082" 
 />
    <glyph glyph-name="uni0083" 
 />
    <glyph glyph-name="uni0084" 
 />
    <glyph glyph-name="uni0085" unicode="&#x85;" 
 />
    <glyph glyph-name="uni0086" 
 />
    <glyph glyph-name="uni0087" 
 />
    <glyph glyph-name="uni0088" 
 />
    <glyph glyph-name="uni0089" 
 />
    <glyph glyph-name="uni008A" 
 />
    <glyph glyph-name="uni008B" 
 />
    <glyph glyph-name="uni008C" 
 />
    <glyph glyph-name="uni008D" 
 />
    <glyph glyph-name="uni008E" 
 />
    <glyph glyph-name="uni008F" 
 />
    <glyph glyph-name="uni0090" 
 />
    <glyph glyph-name="uni0091" 
 />
    <glyph glyph-name="uni0092" 
 />
    <glyph glyph-name="uni0093" 
 />
    <glyph glyph-name="uni0094" 
 />
    <glyph glyph-name="uni0095" 
 />
    <glyph glyph-name="uni0096" 
 />
    <glyph glyph-name="uni0097" 
 />
    <glyph glyph-name="uni0098" 
 />
    <glyph glyph-name="uni0099" 
 />
    <glyph glyph-name="uni009A" 
 />
    <glyph glyph-name="uni009B" 
 />
    <glyph glyph-name="uni009C" 
 />
    <glyph glyph-name="uni009D" 
 />
    <glyph glyph-name="uni009E" 
 />
    <glyph glyph-name="uni009F" 
 />
    <glyph glyph-name="uni00A0" unicode="&#xa0;" 
 />
    <glyph glyph-name="exclamdown" unicode="&#xa1;" 
d="M237 659h61v-61h-61v61zM237 476h61v-427h-61v427z" />
    <glyph glyph-name="cent" unicode="&#xa2;" 
d="M237 659h61v-122h122v-61h-122v-183h122v-61h-122v-122h-61v122h-103h-9q-1 1 -3.5 2.5t-3.5 1.5q-2 1 -6 5l-49 49l-3 3q0 1 -1 2t-1 2l-3 3v4v4v4v146v8q1 1 2.5 3.5t1.5 3.5q1 2 5 6l45 49l3 3q0 1 2 1q1 0 2 1t3.5 2t3.5 1q3 1 9 1h105v122zM237 476h-92l-28 -30
v-121l30 -32h90v183z" />
    <glyph glyph-name="sterling" unicode="&#xa3;" 
d="M155 110l-7 2h-28v-6h28zM244 140l8 -2q8 -4 11 -7l22 -21h100l53 50l41 -44l-62 -58q-8 -8 -21 -8h-122q-11 0 -21 8l-26 25l-20 6l-34 -33q-6 -6 -21 -6h-62q-12 0 -21 8t-9 20v61q0 12 9 21t21 9h60q2 0 5.5 -0.5t4.5 -0.5l24 -8v193h-124v61h124v153q0 13 8 21l60 61
q10 10 22 10h64q11 0 21 -10l60 -60l-43 -42l-51 51h-39l-42 -43v-141h122v-61h-122v-213z" />
    <glyph glyph-name="currency" unicode="&#xa4;" 
d="M214 187l-126 -128l-34 33l116 120q-52 42 -52 110q0 69 52 111l-118 122l34 33l127 -130q20 8 49 8t49 -8l126 129l35 -33l-117 -121q51 -43 51 -111q0 -66 -48 -108l116 -122l-35 -33l-126 129q-27 -10 -51 -10q-21 0 -48 9zM166 322q0 -40 28 -68t68 -28t68 28t28 68
t-28 68.5t-68 28.5t-68 -28.5t-28 -68.5z" />
    <glyph glyph-name="yen" unicode="&#xa5;" 
d="M267 506l162 146l42 -46l-174 -155v-36h184v-61h-183v-122h183v-61h-183v-122h-61v122h-183v61h183v122h-183v61h183v33l-175 158l41 47z" />
    <glyph glyph-name="brokenbar" unicode="&#xa6;" 
d="M237 354v366h61v-366h-61zM298 234v-352h-61v352h61z" />
    <glyph glyph-name="section" unicode="&#xa7;" 
d="M332 126l25 24v101l-216 208l-25 -22v-101zM357 73v-53v-8l-3 -3t-2 -3q-2 -4 -4 -6l-56 -61q-4 -4 -6 -5t-4 -3t-3 -2h-8h-155v60h142l40 42v48l-234 224q-4 4 -5 6q0 1 -1.5 3.5t-2.5 3.5v2.5v3v2.5v126q0 2 1.5 4.5t1.5 3.5t1 3.5t2 3.5t3 2.5t3 2.5l49 42v53v8l3 6
q1 1 2.5 3t1.5 3l57 61q2 4 6 5q4 2 7 3l3 2q3 3 5 3h156v-61h-143l-41 -44v-46l234 -224q4 -4 5 -6q3 -5 3 -7q1 -3 1 -8v-126q0 -2 -3 -8q-1 -3 -3 -7q-1 -2 -5 -6z" />
    <glyph glyph-name="dieresis" unicode="&#xa8;" 
d="M114 659h63v-61h-63v61zM298 659h62v-61h-62v61z" />
    <glyph glyph-name="copyright" unicode="&#xa9;" 
d="M359 475v-60h-80l-42 -43v-98l42 -43h80v-60h-92q-13 0 -22 9l-60 61q-8 8 -8 21v122q0 13 8 21l60 61q7 9 21 9h93zM67 498l90 91q9 9 21 9h182q15 0 22 -9l90 -92q8 -8 8 -21v-306q0 -13 -8 -21l-90 -90q-9 -9 -22 -9h-183q-12 0 -21 9l-89 90q-9 9 -9 21v307
q0 12 9 21zM118 464v-282l72 -72h158l72 72v282l-72 74h-157z" />
    <glyph glyph-name="ordfeminine" unicode="&#xaa;" 
d="M360 231v125h-201l-42 -44v-37l41 -43zM420 229h61v-58h-335q-9 0 -21 12l-59 60q-8 8 -8 21v60q0 12 8 20l60 62q8 8 21 8h215v81l-43 42h-203v61h216q9 0 20 -11l60 -60q8 -8 8 -20v-278zM54 109h427v-60h-427v60z" />
    <glyph glyph-name="guillemotleft" unicode="&#xab;" 
d="M247 561l43 -42l-191 -194l191 -192l-43 -42l-211 213q-9 9 -9 22q0 11 9 20zM430 560l43 -42l-191 -194l191 -192l-43 -42l-211 213q-8 8 -8 21q0 12 8 21z" />
    <glyph glyph-name="logicalnot" unicode="&#xac;" 
d="M54 598h427v-183h-60v122h-367v61z" />
    <glyph glyph-name="uni00AD" unicode="&#xad;" 
d="M122 354h306v-61h-306v61z" />
    <glyph glyph-name="registered" unicode="&#xae;" 
d="M67 498l90 91q9 9 21 9h182q13 0 22 -9l90 -92q8 -8 8 -21v-306q0 -13 -8 -21l-90 -90q-10 -9 -22 -9h-183q-14 0 -21 9l-89 90q-9 9 -9 21v307q0 9 9 21zM118 464v-282l72 -72h158l72 72v282l-72 74h-157zM176 476l122 -1q13 0 21 -8l32 -30q9 -9 9 -22v-61
q0 -13 -9 -22l-27 -26l31 -59q3 -9 3 -14v-62h-60v55l-36 67h-26v-123h-60v306zM236 415v-62h50l14 14v35l-14 13h-50z" />
    <glyph glyph-name="macron" unicode="&#xaf;" 
d="M54 659h427v-61h-427v61z" />
    <glyph glyph-name="degree" unicode="&#xb0;" 
d="M238 659q49 0 83.5 -35.5t34.5 -85.5t-34.5 -85.5t-83.5 -35.5t-83.5 35.5t-34.5 85.5t34.5 85.5t83.5 35.5zM177 538q0 -27 18 -45.5t43 -18.5t43 18.5t18 45.5t-18 46t-43 19t-43 -19t-18 -46z" />
    <glyph glyph-name="plusminus" unicode="&#xb1;" 
d="M237 659h61v-183h183v-61h-183v-184h-61v184h-183v61h183v183zM54 171h427v-62h-427v62z" />
    <glyph glyph-name="uni00B2" unicode="&#xb2;" 
d="M396 324v-61h-240v35v26v7q0 1 2 4l2 3q1 2 4 5l172 174v42l-42 42h-40l-44 -44v-18h-54v29v3v3q0 1 1 3.5t2 3.5q0 1 2 3q0 1 2 3l59 61q4 4 6 5l6 3q1 0 3.5 1.5t4.5 1.5h63h3l1 -1q1 -2 2 -2t3.5 -1t3.5 -2q2 -1 6 -5l59 -59q2 -2 3 -2q0 -1 2 -3l1 -1q1 -1 1 -2v-3
l1 -1q0 -1 1 -3v-4v-64q0 -4 -1 -6q-1 -1 -2 -3.5t-1 -3.5t-2 -3q0 -1 -2 -3l-161 -163h173z" />
    <glyph glyph-name="uni00B3" unicode="&#xb3;" 
d="M146 598v61h215q14 0 21.5 -9t7.5 -19v-2v-1v-30q0 -8 -9 -20l-72 -74q7 -2 11 -6l61 -61q10 -10 8 -22v-61q0 -12 -9 -21l-59 -60q-9 -11 -22 -8h-92q-12 0 -20 8l-31 28l40 44l23 -21h68l42 42v37l-43 43h-46q-14 0 -22 7q-9 9 -9 23q0 11 8 20l101 102h-172z" />
    <glyph glyph-name="acute" unicode="&#xb4;" 
d="M188 486q-9 9 -9 21q0 13 9 22l120 121q9 9 21 9q13 0 22 -9t9 -22q0 -12 -9 -21l-120 -121q-9 -9 -22 -9q-12 0 -21 9z" />
    <glyph glyph-name="uni00B5" unicode="&#xb5;" 
d="M55 475l58 1l2 -326l41 -41h161l42 44l1 323h59l-1 -335q0 -5 -3 -12l18 -20h49v-59h-61q-14 0 -21 9l-26 25l-24 -24q-9 -9 -21 -9h-185q-12 0 -20 8l-9 9v-203h-59z" />
    <glyph glyph-name="paragraph" unicode="&#xb6;" 
d="M120 604v-186h145l41 42v100l-41 44h-145zM120 48h-56v611h212h7q2 0 7 -5q4 -2 5 -4l60 -60q4 -2 5 -6l3 -6q0 -2 0.5 -4t0.5 -3v-123q0 -2 -2 -8q0 -3 -3 -6q-2 -4 -4 -6l-60 -58q-1 0 -3 -2t-3 -2t-3 -1.5t-4 -2.5h-6h-156v-314zM306 292h61v-61h61v-59h-61v-184h-61
v184h-61v59h61v61z" />
    <glyph glyph-name="periodcentered" unicode="&#xb7;" 
d="M177 354h121v-123h-121v123z" />
    <glyph glyph-name="cedilla" unicode="&#xb8;" 
d="M295 19v-4q0 -1 -1 -3v-2l-1 -2q0 -2 -1 -3q0 -1 -1 -3l-1 -2h-1h-2l-58 -61q-4 -4 -6 -5q-1 0 -3.5 -1.5t-3.5 -2.5h-7h-93v58h80l42 43v141h57v-153z" />
    <glyph glyph-name="uni00B9" unicode="&#xb9;" 
d="M199 519l-42 42l91 90q8 8 21 8q15 0 21 -8q9 -8 9 -21v-367h-61v295z" />
    <glyph glyph-name="ordmasculine" unicode="&#xba;" 
d="M114 495l-2 -222l45 -41l161 -1l40 42l1 222l-40 44h-162zM64 528l61 61q9 9 20 9h187q12 0 22 -10l56 -63q8 -8 8 -19l-1 -245q0 -13 -8 -21l-58 -59q-8 -9 -21 -9l-185 2q-11 0 -20 7l-62 58q-9 8 -9 22l2 247q0 12 8 20zM54 109h368v-60h-368v60z" />
    <glyph glyph-name="guillemotright" unicode="&#xbb;" 
d="M286 561l211 -215q8 -9 8 -21q0 -13 -8 -21l-211 -213l-43 42l190 192l-190 194zM102 560l212 -215q8 -8 8 -20t-8 -22l-212 -213l-42 42l190 192l-190 194z" />
    <glyph glyph-name="onequarter" unicode="&#xbc;" 
d="M511 173v-60h-30v-63h-60v63h-91q-15 0 -22 10t-7 21v28v29q0 11 9 20l91 92q9 10 20 10h32q14 0 21.5 -9.5t7.5 -19.5v-121h29zM421 173v76l-60 -62v-14h60zM207 414h-61v180l-8 -8l-42 42l60 59q9 9 21 9q10 0 20 -8t10 -22v-252zM424 560q9 9 22 9t22 -9t9 -22
q0 -12 -8 -22l-360 -366q-9 -9 -21 -9q-13 0 -22 9t-9 22q0 12 8 22z" />
    <glyph glyph-name="onehalf" unicode="&#xbd;" 
d="M512 111v-60h-153q-15 0 -22.5 10t-7.5 20v29q0 13 8 21l114 112v10l-11 11h-40l-20 -21l-44 40l29 31q7 9 22 9h67q12 0 21 -9l27 -29q8 -8 8 -21v-33q0 -13 -8 -21l-100 -99h110zM207 414h-61v180l-8 -8l-42 42l60 59q9 9 21 9q10 0 20 -8t10 -22v-252zM424 560
q9 9 22 9t22 -9t9 -22q0 -12 -8 -22l-360 -366q-9 -9 -21 -9q-13 0 -22 9t-9 22q0 12 8 22z" />
    <glyph glyph-name="threequarters" unicode="&#xbe;" 
d="M55 631v59h151q14 0 21.5 -9t7.5 -19v-3l-4 -14l-46 -73l43 -42q9 -9 9 -22v-63q0 -11 -9 -20l-28 -30q-9 -10 -23 -10h-63q-13 0 -22 9l-30 32l43 41l22 -22h38l12 12v39l-51 50q-9 9 -9 21q0 10 5 16l29 48h-96zM511 173v-60h-30v-63h-60v63h-91q-15 0 -22 10t-7 21v35
v22q0 11 9 20l91 92q9 10 20 10h30h2q14 0 21.5 -9.5t7.5 -19.5v-5v-116h29zM421 173v76l-60 -62v-14h60zM88 141q-13 0 -22 9t-9 22q0 12 8 22l359 366q9 9 22 9t22 -9t9 -22q0 -12 -8 -22l-360 -366q-9 -9 -21 -9z" />
    <glyph glyph-name="questiondown" unicode="&#xbf;" 
d="M362 601h-65v61h65v-61zM480 132v-3v-1l-1 -2l-3 -6q-2 -4 -4 -6l-47 -54l-2 -2q-2 -3 -4 -4q-2 -2 -8 -4h-9h-201q-1 0 -4 -0.5t-3 0.5q-1 0 -3.5 1t-3.5 2q-4 2 -7 5l-55 51q-5 5 -6 7l-4 8q-1 0 -1 4l1 5v78q0 2 1.5 4.5t1.5 3.5t1 2.5l2 3t1 2.5q1 2 5 6l170 157v90
h61v-105v-4q0 -1 -0.5 -2t-0.5 -2q-1 -1 -2 -3.5t-1 -3.5q-1 -2 -6 -7l-169 -157v-51l35 -33h173l32 32v92h61v-104z" />
    <glyph glyph-name="Agrave" unicode="&#xc0;" 
d="M66 783q9 9 22 9q12 0 21 -9l125 -124q8 -8 8 -21q0 -14 -8 -22t-22 -8q-13 0 -21 8l-125 125q-8 8 -8 21q0 14 8 21zM116 232v-183h-59v338q0 11 9 20l180 181q8 9 20 9q14 0 23 -9l183 -182q8 -8 8 -21v-336h-60l1 183h-305zM117 293h303v80l-153 152l-150 -151v-81z
" />
    <glyph glyph-name="Aacute" unicode="&#xc1;" 
d="M303 621q-9 9 -9 21q0 13 9 22l120 121q9 9 21 9q13 0 22 -9t9 -22q0 -12 -9 -21l-120 -121q-9 -9 -22 -9q-12 0 -21 9zM116 232v-183h-59v338q0 11 9 20l180 181q8 9 20 9q14 0 23 -9l183 -182q8 -8 8 -21v-336h-60l1 183h-305zM117 293h303v80l-153 152l-150 -151v-81z
" />
    <glyph glyph-name="Acircumflex" unicode="&#xc2;" 
d="M239 788q4 4 6 5q1 0 3 1.5t4 2.5q7 1 14 0q1 0 2.5 -1t2.5 -2t2 -1q2 -1 6 -5l123 -122l-40 -41l-103 102l-102 -102l-41 41zM116 232v-183h-59v338q0 11 9 20l180 181q8 9 20 9q14 0 23 -9l183 -182q8 -8 8 -21v-336h-60l1 183h-305zM117 293h303v80l-153 152
l-150 -151v-81z" />
    <glyph glyph-name="Atilde" unicode="&#xc3;" 
d="M116 788l1 1q2 0 2 1t1 1t2 1l6 3q6 3 7 3h65l4 1q4 0 4 -1q1 -1 3.5 -3t3.5 -2q2 -1 6 -5l110 -114h40l51 52l41 -40l-59 -60q-4 -4 -6 -5q-1 0 -3.5 -1.5t-3.5 -2.5h-8h-64h-7q-1 1 -3.5 2.5t-3.5 1.5q-2 1 -6 5l-111 113h-41l-52 -51l-40 41zM116 232v-183h-59v338
q0 11 9 20l180 181q8 9 20 9q14 0 23 -9l183 -182q8 -8 8 -21v-336h-60l1 183h-305zM117 293h303v80l-153 152l-150 -151v-81z" />
    <glyph glyph-name="Adieresis" unicode="&#xc4;" 
d="M136 719h63v-61h-63v61zM320 719h62v-61h-62v61zM116 232v-183h-59v338q0 11 9 20l180 181q8 9 20 9q14 0 23 -9l183 -182q8 -8 8 -21v-336h-60l1 183h-305zM117 293h303v80l-153 152l-150 -151v-81z" />
    <glyph glyph-name="Aring" unicode="&#xc5;" 
d="M116 148v-99h-59v254q0 11 9 20l180 181q8 9 20 9q14 0 23 -9l183 -182q8 -8 8 -21v-252h-60l1 99h-305zM117 209h303v80l-153 152l-150 -151v-81zM263 799q49 0 83.5 -35.5t34.5 -85.5t-34.5 -85.5t-83.5 -35.5t-83.5 35.5t-34.5 85.5t34.5 85.5t83.5 35.5zM202 678
q0 -27 18 -45.5t43 -18.5t43 18.5t18 45.5t-18 46t-43 19t-43 -19t-18 -46z" />
    <glyph glyph-name="AE" unicode="&#xc6;" 
d="M299 537l-184 -163v-81h183zM54 49q0 37 -0.5 106t-0.5 101q0 84 2 122q0 31 32 60l146 132q26 23 40 28h208v-61h-122v-183h122v-61h-122v-184h122v-60h-183v182h-183v-182h-61z" />
    <glyph glyph-name="Ccedilla" unicode="&#xc7;" 
d="M350 -99.6133v-3.87109q0 -0.967773 -1 -2.90332v-1.93555l-1 -1.93457q0 -1.93555 -1 -2.90332q0 -0.967773 -1 -2.90332l-1 -1.93555h-1h-2l-58 -59.0303q-4 -3.87109 -6 -4.83887q-1 0 -3.5 -1.45117q-2.5 -1.45215 -3.5 -2.41992h-7h-93v56.1279h80l42 41.6113
v136.447h57v-148.06zM480 529l-42 -42l-53 51h-104l-164 -164v-101l165 -163l102 -1l52 55l44 -42l-61 -64q-9 -9 -22 -9h-127q-11 0 -21 10l-183 180q-9 9 -9 21v126q0 13 8 21l183 182q9 9 21 9h128q13 0 21 -8z" />
    <glyph glyph-name="Egrave" unicode="&#xc8;" 
d="M132 785q9 9 22 9q12 0 21 -9l125 -124q8 -8 8 -21q0 -14 -8 -22t-22 -8q-13 0 -21 8l-125 125q-8 8 -8 21q0 14 8 21zM57 598h423v-61h-362v-183h240v-61h-240v-184h362v-60h-423v549z" />
    <glyph glyph-name="Eacute" unicode="&#xc9;" 
d="M235 621q-9 9 -9 21q0 13 9 22l120 121q9 9 21 9q13 0 22 -9t9 -22q0 -12 -9 -21l-120 -121q-9 -9 -22 -9q-12 0 -21 9zM57 598h423v-61h-362v-183h240v-61h-240v-184h362v-60h-423v549z" />
    <glyph glyph-name="Ecircumflex" unicode="&#xca;" 
d="M242 789q4 4 6 5q1 0 3 1.5t4 2.5q7 1 14 0q1 0 2.5 -1t2.5 -2t2 -1q2 -1 6 -5l123 -122l-40 -41l-103 102l-102 -102l-41 41zM57 598h423v-61h-362v-183h240v-61h-240v-184h362v-60h-423v549z" />
    <glyph glyph-name="Edieresis" unicode="&#xcb;" 
d="M137 719h63v-61h-63v61zM321 719h62v-61h-62v61zM57 598h423v-61h-362v-183h240v-61h-240v-184h362v-60h-423v549z" />
    <glyph glyph-name="Igrave" unicode="&#xcc;" 
d="M125 785q9 9 22 9q12 0 21 -9l125 -124q8 -8 8 -21q0 -14 -8 -22t-22 -8q-13 0 -21 8l-125 125q-8 8 -8 21q0 14 8 21zM177 598h182v-61h-61v-428h61v-61l-183 1v61l61 -1v428h-61z" />
    <glyph glyph-name="Iacute" unicode="&#xcd;" 
d="M247 620q-9 9 -9 21q0 13 9 22l120 121q9 9 21 9q13 0 22 -9t9 -22q0 -12 -9 -21l-120 -121q-9 -9 -22 -9q-12 0 -21 9zM177 598h182v-61h-61v-428h61v-61l-183 1v61l61 -1v428h-61z" />
    <glyph glyph-name="Icircumflex" unicode="&#xce;" 
d="M248 788q4 4 6 5q1 0 3 1.5t4 2.5q7 1 14 0q1 0 2.5 -1t2.5 -2t2 -1q2 -1 6 -5l123 -122l-40 -41l-103 102l-102 -102l-41 41zM177 598h182v-61h-61v-428h61v-61l-183 1v61l61 -1v428h-61z" />
    <glyph glyph-name="Idieresis" unicode="&#xcf;" 
d="M140 716h63v-61h-63v61zM324 716h62v-61h-62v61zM177 598h182v-61h-61v-428h61v-61l-183 1v61l61 -1v428h-61z" />
    <glyph glyph-name="Eth" unicode="&#xd0;" 
d="M115 538h-61v60l276 -1q14 0 21 -9l120 -122q9 -9 9 -21v-244q0 -13 -9 -22l-121 -120q-9 -9 -21 -9l-275 -1v60h61v189h-60v54h60v186zM176 110h141l103 103v220l-103 104l-141 1v-186h123v-54h-123v-188z" />
    <glyph glyph-name="Ntilde" unicode="&#xd1;" 
d="M118 787l1 1q2 0 2 1t1 1t2 1l6 3q6 3 7 3h65l4 1q4 0 4 -1q1 -1 3.5 -3t3.5 -2q2 -1 6 -5l110 -114h40l51 52l41 -40l-59 -60q-4 -4 -6 -5q-1 0 -3.5 -1.5t-3.5 -2.5h-8h-64h-7q-1 1 -3.5 2.5t-3.5 1.5q-2 1 -6 5l-111 113h-41l-52 -51l-40 41zM54 49v549h61l305 -306
v306h60v-548h-60v150l-305 308v-460z" />
    <glyph glyph-name="Ograve" unicode="&#xd2;" 
d="M184 784q9 9 22 9q12 0 21 -9l125 -124q8 -8 8 -21q0 -14 -8 -22t-22 -8q-13 0 -21 8l-125 125q-8 8 -8 21q0 14 8 21zM116 494l-2 -344l41 -40h222l43 43v340l-43 44l-221 1zM64 526l57 62q9 10 22 10l247 -1q15 0 22 -9l60 -62q8 -8 8 -21v-365q0 -14 -9 -21l-61 -60
q-9 -9 -21 -9h-246q-13 0 -21 8l-59 57q-9 9 -9 22l2 369q0 12 8 20z" />
    <glyph glyph-name="Oacute" unicode="&#xd3;" 
d="M260 620q-9 9 -9 21q0 13 9 22l120 121q9 9 21 9q13 0 22 -9t9 -22q0 -12 -9 -21l-120 -121q-9 -9 -22 -9q-12 0 -21 9zM116 494l-2 -344l41 -40h222l43 43v340l-43 44l-221 1zM64 526l57 62q9 10 22 10l247 -1q15 0 22 -9l60 -62q8 -8 8 -21v-365q0 -14 -9 -21l-61 -60
q-9 -9 -21 -9h-246q-13 0 -21 8l-59 57q-9 9 -9 22l2 369q0 12 8 20z" />
    <glyph glyph-name="Ocircumflex" unicode="&#xd4;" 
d="M240 788q4 4 6 5q1 0 3 1.5t4 2.5q7 1 14 0q1 0 2.5 -1t2.5 -2t2 -1q2 -1 6 -5l123 -122l-40 -41l-103 102l-102 -102l-41 41zM116 494l-2 -344l41 -40h222l43 43v340l-43 44l-221 1zM64 526l57 62q9 10 22 10l247 -1q15 0 22 -9l60 -62q8 -8 8 -21v-365q0 -14 -9 -21
l-61 -60q-9 -9 -21 -9h-246q-13 0 -21 8l-59 57q-9 9 -9 22l2 369q0 12 8 20z" />
    <glyph glyph-name="Otilde" unicode="&#xd5;" 
d="M123 788l1 1q2 0 2 1t1 1t2 1l6 3q6 3 7 3h65l4 1q4 0 4 -1q1 -1 3.5 -3t3.5 -2q2 -1 6 -5l110 -114h40l51 52l41 -40l-59 -60q-4 -4 -6 -5q-1 0 -3.5 -1.5t-3.5 -2.5h-8h-64h-7q-1 1 -3.5 2.5t-3.5 1.5q-2 1 -6 5l-111 113h-41l-52 -51l-40 41zM116 494l-2 -344l41 -40
h222l43 43v340l-43 44l-221 1zM64 526l57 62q9 10 22 10l247 -1q15 0 22 -9l60 -62q8 -8 8 -21v-365q0 -14 -9 -21l-61 -60q-9 -9 -21 -9h-246q-13 0 -21 8l-59 57q-9 9 -9 22l2 369q0 12 8 20z" />
    <glyph glyph-name="Odieresis" unicode="&#xd6;" 
d="M143 719h63v-61h-63v61zM327 719h62v-61h-62v61zM116 494l-2 -344l41 -40h222l43 43v340l-43 44l-221 1zM64 526l57 62q9 10 22 10l247 -1q15 0 22 -9l60 -62q8 -8 8 -21v-365q0 -14 -9 -21l-61 -60q-9 -9 -21 -9h-246q-13 0 -21 8l-59 57q-9 9 -9 22l2 369q0 12 8 20z
" />
    <glyph glyph-name="multiply" unicode="&#xd7;" 
d="M95 453l43 43l129 -130l130 130l43 -43l-130 -130l130 -130l-43 -42l-130 129l-129 -129l-43 42l130 130z" />
    <glyph glyph-name="Oslash" unicode="&#xd8;" 
d="M421 432l-296 -292l31 -30h222l43 43v279zM408 506l-30 31l-221 1l-40 -44l-2 -277zM65 526l57 62q9 10 22 10l247 -1q15 0 22 -9l60 -62q8 -8 8 -21v-365q0 -14 -9 -21l-61 -60q-9 -9 -21 -9h-246q-13 0 -21 8l-59 57q-9 9 -9 22l2 369q0 12 8 20z" />
    <glyph glyph-name="Ugrave" unicode="&#xd9;" 
d="M118 783q9 9 22 9q12 0 21 -9l125 -124q8 -8 8 -21q0 -14 -8 -22t-22 -8q-13 0 -21 8l-125 125q-8 8 -8 21q0 14 8 21zM54 597h60l2 -445l41 -42h222l41 43v445h60v-457q0 -12 -8 -20l-58 -61q-10 -10 -22 -10h-248q-12 0 -21 9l-59 59q-8 8 -8 21z" />
    <glyph glyph-name="Uacute" unicode="&#xda;" 
d="M242 619q-9 9 -9 21q0 13 9 22l120 121q9 9 21 9q13 0 22 -9t9 -22q0 -12 -9 -21l-120 -121q-9 -9 -22 -9q-12 0 -21 9zM54 597h60l2 -445l41 -42h222l41 43v445h60v-457q0 -12 -8 -20l-58 -61q-10 -10 -22 -10h-248q-12 0 -21 9l-59 59q-8 8 -8 21z" />
    <glyph glyph-name="Ucircumflex" unicode="&#xdb;" 
d="M237 788q4 4 6 5q1 0 3 1.5t4 2.5q7 1 14 0q1 0 2.5 -1t2.5 -2t2 -1q2 -1 6 -5l123 -122l-40 -41l-103 102l-102 -102l-41 41zM54 597h60l2 -445l41 -42h222l41 43v445h60v-457q0 -12 -8 -20l-58 -61q-10 -10 -22 -10h-248q-12 0 -21 9l-59 59q-8 8 -8 21z" />
    <glyph glyph-name="Udieresis" unicode="&#xdc;" 
d="M134 722h63v-61h-63v61zM318 722h62v-61h-62v61zM54 597h60l2 -445l41 -42h222l41 43v445h60v-457q0 -12 -8 -20l-58 -61q-10 -10 -22 -10h-248q-12 0 -21 9l-59 59q-8 8 -8 21z" />
    <glyph glyph-name="Yacute" unicode="&#xdd;" 
d="M241 619q-9 9 -9 21q0 13 9 22l120 121q9 9 21 9q13 0 22 -9t9 -22q0 -12 -9 -21l-120 -121q-9 -9 -22 -9q-12 0 -21 9zM298 371v-322h-61v322l-173 174q-9 9 -9 21v32h60v-19l154 -153l152 154v18h60v-30q0 -14 -8 -22z" />
    <glyph glyph-name="Thorn" unicode="&#xde;" 
d="M55 597h58v-90h216q12 0 21 -9l122 -121q8 -8 8 -22v-62q0 -13 -8 -21l-122 -122q-9 -9 -21 -9h-216v-91h-58v547zM113 447v-246h203l104 105v37l-103 104h-204z" />
    <glyph glyph-name="germandbls" unicode="&#xdf;" 
d="M55 515v8q1 1 2 3.5t1 3.5q1 2 5 6l121 114l3 3l1 1q2 0 2 1q1 0 3 2t3 2h4h4h67h8q1 -1 3.5 -3t3.5 -2q2 -1 6 -5l57 -60l3 -3l1 -1t1 -2q2 -4 2 -6q0 -1 0.5 -2t0.5 -2v-4v-62v-4q0 -1 -1 -3v-2l-1 -2q0 -2 -1 -3q0 -1 -1 -1l-1 -2l-1 -1q-1 -1 -2 -1l-40 -43l162 -162
q4 -4 5 -6q2 -4 2 -6q0 -1 0.5 -2t0.5 -2v-4v-123q0 -2 -2 -8q0 -2 -2 -6q-1 -2 -5 -6l-57 -56q-4 -4 -6 -5q-1 -1 -3.5 -2t-3.5 -1q-6 -3 -7 -3h-126h-4h-3q-1 1 -3.5 2t-3.5 2q-2 1 -6 5l-61 60l40 40l52 -50h103l41 40v99l-174 173q-4 4 -5 6q-1 1 -1 3.5t-1 3.5
q-1 2 -1 7v7q0 1 3 7q1 2 5 6l52 55v39l-41 43h-44l-104 -98v-454h-56v466z" />
    <glyph glyph-name="agrave" unicode="&#xe0;" 
d="M125 708q9 9 22 9q12 0 21 -9l125 -124q8 -8 8 -21q0 -14 -8 -22t-22 -8q-13 0 -21 8l-125 125q-8 8 -8 21q0 14 8 21zM360 109v130h-201l-43 -44v-42l42 -45zM420 108h61v-58h-336q-12 0 -21 9l-58 62q-9 9 -9 21v65q0 12 9 21l59 61q8 8 21 8h214v78l-41 42h-204v59
h216q12 0 21 -9l59 -60q9 -9 9 -20v-279z" />
    <glyph glyph-name="aacute" unicode="&#xe1;" 
d="M237 546q-9 9 -9 21q0 13 9 22l120 121q9 9 21 9q13 0 22 -9t9 -22q0 -12 -9 -21l-120 -121q-9 -9 -22 -9q-12 0 -21 9zM360 109v130h-201l-43 -44v-42l42 -45zM420 108h61v-58h-336q-12 0 -21 9l-58 62q-9 9 -9 21v65q0 12 9 21l59 61q8 8 21 8h214v78l-41 42h-204v59
h216q12 0 21 -9l59 -60q9 -9 9 -20v-279z" />
    <glyph glyph-name="acircumflex" unicode="&#xe2;" 
d="M235 700q4 4 6 5q1 0 3 1.5t4 2.5q7 1 14 0q1 0 2.5 -1t2.5 -2t2 -1q2 -1 6 -5l123 -122l-40 -41l-103 102l-102 -102l-41 41zM360 109v130h-201l-43 -44v-42l42 -45zM420 108h61v-58h-336q-12 0 -21 9l-58 62q-9 9 -9 21v65q0 12 9 21l59 61q8 8 21 8h214v78l-41 42
h-204v59h216q12 0 21 -9l59 -60q9 -9 9 -20v-279z" />
    <glyph glyph-name="atilde" unicode="&#xe3;" 
d="M127 708l1 1q2 0 2 1t1 1t2 1l6 3q6 3 7 3h65l4 1q4 0 4 -1q1 -1 3.5 -3t3.5 -2q2 -1 6 -5l110 -114h40l51 52l41 -40l-59 -60q-4 -4 -6 -5q-1 0 -3.5 -1.5t-3.5 -2.5h-8h-64h-7q-1 1 -3.5 2.5t-3.5 1.5q-2 1 -6 5l-111 113h-41l-52 -51l-40 41zM360 109v130h-201
l-43 -44v-42l42 -45zM420 108h61v-58h-336q-12 0 -21 9l-58 62q-9 9 -9 21v65q0 12 9 21l59 61q8 8 21 8h214v78l-41 42h-204v59h216q12 0 21 -9l59 -60q9 -9 9 -20v-279z" />
    <glyph glyph-name="adieresis" unicode="&#xe4;" 
d="M105 660h63v-61h-63v61zM289 660h62v-61h-62v61zM360 109v130h-201l-43 -44v-42l42 -45zM420 108h61v-58h-336q-12 0 -21 9l-58 62q-9 9 -9 21v65q0 12 9 21l59 61q8 8 21 8h214v78l-41 42h-204v59h216q12 0 21 -9l59 -60q9 -9 9 -20v-279z" />
    <glyph glyph-name="aring" unicode="&#xe5;" 
d="M259 779q49 0 83.5 -35.5t34.5 -85.5t-34.5 -85.5t-83.5 -35.5t-83.5 35.5t-34.5 85.5t34.5 85.5t83.5 35.5zM198 658q0 -27 18 -45.5t43 -18.5t43 18.5t18 45.5t-18 46t-43 19t-43 -19t-18 -46zM360 109v130h-201l-43 -44v-42l42 -45zM420 108h61v-58h-336q-12 0 -21 9
l-58 62q-9 9 -9 21v65q0 12 9 21l59 61q8 8 21 8h214v78l-41 42h-204v59h216q12 0 21 -9l59 -60q9 -9 9 -20v-279z" />
    <glyph glyph-name="ae" unicode="&#xe6;" 
d="M238 294h-18l-106 -104v-39l44 -42h37l43 44v141zM238 354v18l-44 43h-140v60h152q13 0 21 -8l40 -39l40 39q8 8 21 8h64q13 0 21 -8l61 -60q9 -9 9 -22v-153l-185 -1v-79l43 -43h139v-60h-152q-12 0 -21 9l-39 40l-39 -40q-8 -9 -21 -9h-62q-13 0 -21 8l-62 60
q-9 9 -9 22v64q0 12 9 21l124 121q9 9 21 9h30zM298 293h125v80l-44 42h-39l-42 -40v-82z" />
    <glyph glyph-name="ccedilla" unicode="&#xe7;" 
d="M343 -103v-4q0 -1 -1 -3v-2l-1 -2q0 -2 -1 -3q0 -1 -1 -3l-1 -2h-1h-2l-58 -61q-4 -4 -6 -5q-1 0 -3.5 -1.5t-3.5 -2.5h-7h-93v58h80l42 43v141h57v-153zM422 475v-59h-203l-103 -104v-99l106 -104h200v-58h-212q-13 0 -21 8l-123 121q-9 9 -9 21v123q0 12 9 21l120 121
q9 9 20 9h216z" />
    <glyph glyph-name="egrave" unicode="&#xe8;" 
d="M124 708q9 9 22 9q12 0 21 -9l125 -124q8 -8 8 -21q0 -14 -8 -22t-22 -8q-13 0 -21 8l-125 125q-8 8 -8 21q0 14 8 21zM116 234v-82l43 -45h263v-56h-275q-12 0 -20 8l-62 60q-8 8 -8 21v242q0 10 10 20l61 63q11 11 22 11h181q10 0 21 -11l59 -62q9 -9 9 -20v-149h-304z
M117 296h245v75l-43 44h-158l-44 -45v-74z" />
    <glyph glyph-name="eacute" unicode="&#xe9;" 
d="M249 546q-9 9 -9 21q0 13 9 22l120 121q9 9 21 9q13 0 22 -9t9 -22q0 -12 -9 -21l-120 -121q-9 -9 -22 -9q-12 0 -21 9zM116 234v-82l43 -45h263v-56h-275q-12 0 -20 8l-62 60q-8 8 -8 21v242q0 10 10 20l61 63q11 11 22 11h181q10 0 21 -11l59 -62q9 -9 9 -20v-149h-304
zM117 296h245v75l-43 44h-158l-44 -45v-74z" />
    <glyph glyph-name="ecircumflex" unicode="&#xea;" 
d="M224 700q4 4 6 5q1 0 3 1.5t4 2.5q7 1 14 0q1 0 2.5 -1t2.5 -2t2 -1q2 -1 6 -5l123 -122l-40 -41l-103 102l-102 -102l-41 41zM116 234v-82l43 -45h263v-56h-275q-12 0 -20 8l-62 60q-8 8 -8 21v242q0 10 10 20l61 63q11 11 22 11h181q10 0 21 -11l59 -62q9 -9 9 -20
v-149h-304zM117 296h245v75l-43 44h-158l-44 -45v-74z" />
    <glyph glyph-name="edieresis" unicode="&#xeb;" 
d="M105 658h63v-61h-63v61zM289 658h62v-61h-62v61zM116 234v-82l43 -45h263v-56h-275q-12 0 -20 8l-62 60q-8 8 -8 21v242q0 10 10 20l61 63q11 11 22 11h181q10 0 21 -11l59 -62q9 -9 9 -20v-149h-304zM117 296h245v75l-43 44h-158l-44 -45v-74z" />
    <glyph glyph-name="igrave" unicode="&#xec;" 
d="M237 476h61v-427h-61v427zM129 710q9 9 22 9q12 0 21 -9l125 -124q8 -8 8 -21q0 -14 -8 -22t-22 -8q-13 0 -21 8l-125 125q-8 8 -8 21q0 14 8 21z" />
    <glyph glyph-name="iacute" unicode="&#xed;" 
d="M235 476h63v-427h-63v427zM244 545q-9 9 -9 21q0 13 9 22l120 121q9 9 21 9q13 0 22 -9t9 -22q0 -12 -9 -21l-120 -121q-9 -9 -22 -9q-12 0 -21 9z" />
    <glyph glyph-name="icircumflex" unicode="&#xee;" 
d="M237 476h61v-427h-61v427zM247 666q4 4 6 5q1 0 3 1.5t4 2.5q7 1 14 0q1 0 2.5 -1t2.5 -2t2 -1q2 -1 6 -5l123 -122l-40 -41l-103 102l-102 -102l-41 41z" />
    <glyph glyph-name="idieresis" unicode="&#xef;" 
d="M237 476h61v-427h-61v427zM141 657h63v-61h-63v61zM325 657h62v-61h-62v61z" />
    <glyph glyph-name="eth" unicode="&#xf0;" 
 />
    <glyph glyph-name="ntilde" unicode="&#xf1;" 
d="M119 708l1 1q2 0 2 1t1 1t2 1l6 3q6 3 7 3h65l4 1q4 0 4 -1q1 -1 3.5 -3t3.5 -2q2 -1 6 -5l110 -114h40l51 52l41 -40l-59 -60q-4 -4 -6 -5q-1 0 -3.5 -1.5t-3.5 -2.5h-8h-64h-7q-1 1 -3.5 2.5t-3.5 1.5q-2 1 -6 5l-111 113h-41l-52 -51l-40 41zM165 442l24 24q9 9 21 9
h124q12 0 20 -8l59 -58q9 -9 9 -21v-337h-57v325l-43 41h-100l-42 -44v-323h-60v335q0 2 4 12l-18 20h-49v59h63q12 0 19 -9z" />
    <glyph glyph-name="ograve" unicode="&#xf2;" 
d="M95 708q9 9 22 9q12 0 21 -9l125 -124q8 -8 8 -21q0 -14 -8 -22t-22 -8q-13 0 -21 8l-125 125q-8 8 -8 21q0 14 8 21zM117 374v-222l43 -42h162l40 42v222l-39 44h-163zM67 407l61 63q7 7 20 7h188q12 0 22 -10l56 -63q8 -8 8 -19v-245q0 -12 -9 -21l-58 -59
q-6 -7 -21 -7h-186q-11 0 -20 7l-62 58q-9 8 -9 22v247q0 10 10 20z" />
    <glyph glyph-name="oacute" unicode="&#xf3;" 
d="M211 546q-9 9 -9 21q0 13 9 22l120 121q9 9 21 9q13 0 22 -9t9 -22q0 -12 -9 -21l-120 -121q-9 -9 -22 -9q-12 0 -21 9zM117 374v-222l43 -42h162l40 42v222l-39 44h-163zM67 407l61 63q7 7 20 7h188q12 0 22 -10l56 -63q8 -8 8 -19v-245q0 -12 -9 -21l-58 -59
q-6 -7 -21 -7h-186q-11 0 -20 7l-62 58q-9 8 -9 22v247q0 10 10 20z" />
    <glyph glyph-name="ocircumflex" unicode="&#xf4;" 
d="M212 700q4 4 6 5q1 0 3 1.5t4 2.5q7 1 14 0q1 0 2.5 -1t2.5 -2t2 -1q2 -1 6 -5l123 -122l-40 -41l-103 102l-102 -102l-41 41zM117 374v-222l43 -42h162l40 42v222l-39 44h-163zM67 407l61 63q7 7 20 7h188q12 0 22 -10l56 -63q8 -8 8 -19v-245q0 -12 -9 -21l-58 -59
q-6 -7 -21 -7h-186q-11 0 -20 7l-62 58q-9 8 -9 22v247q0 10 10 20z" />
    <glyph glyph-name="otilde" unicode="&#xf5;" 
d="M89 708l1 1q2 0 2 1t1 1t2 1l6 3q6 3 7 3h65l4 1q4 0 4 -1q1 -1 3.5 -3t3.5 -2q2 -1 6 -5l110 -114h40l51 52l41 -40l-59 -60q-4 -4 -6 -5q-1 0 -3.5 -1.5t-3.5 -2.5h-8h-64h-7q-1 1 -3.5 2.5t-3.5 1.5q-2 1 -6 5l-111 113h-41l-52 -51l-40 41zM117 374v-222l43 -42h162
l40 42v222l-39 44h-163zM67 407l61 63q7 7 20 7h188q12 0 22 -10l56 -63q8 -8 8 -19v-245q0 -12 -9 -21l-58 -59q-6 -7 -21 -7h-186q-11 0 -20 7l-62 58q-9 8 -9 22v247q0 10 10 20z" />
    <glyph glyph-name="odieresis" unicode="&#xf6;" 
d="M104 658h63v-61h-63v61zM288 658h62v-61h-62v61zM117 374v-222l43 -42h162l40 42v222l-39 44h-163zM67 407l61 63q7 7 20 7h188q12 0 22 -10l56 -63q8 -8 8 -19v-245q0 -12 -9 -21l-58 -59q-6 -7 -21 -7h-186q-11 0 -20 7l-62 58q-9 8 -9 22v247q0 10 10 20z" />
    <glyph glyph-name="divide" unicode="&#xf7;" 
d="M207 567h122v-122h-122v122zM54 354h427v-61h-427v61zM207 201h122v-122h-122v122z" />
    <glyph glyph-name="oslash" unicode="&#xf8;" 
d="M348 385l-30 32l-99 -1l-44 -43l-1 -163zM360 311l-171 -170l28 -29l101 -2l41 42zM420 371l-1 -231q0 -12 -9 -21l-59 -60q-9 -9 -21 -9l-125 2q-12 0 -21 9l-38 37l-41 -41l-42 42l52 52v234q0 12 9 21l61 61q9 9 21 9l125 1q13 0 22 -9l38 -41l41 41l42 -42z" />
    <glyph glyph-name="ugrave" unicode="&#xf9;" 
d="M123 708q9 9 22 9q12 0 21 -9l125 -124q8 -8 8 -21q0 -14 -8 -22t-22 -8q-13 0 -21 8l-125 125q-8 8 -8 21q0 14 8 21zM373 84l-24 -24q-9 -9 -21 -9h-182q-12 0 -20 8l-59 58q-9 9 -9 21l-1 337l58 1l2 -326l41 -41h158l42 44l1 323h59l-1 -335q0 -5 -3 -12l18 -20h49
v-59h-61q-14 0 -21 9z" />
    <glyph glyph-name="uacute" unicode="&#xfa;" 
d="M238 546q-9 9 -9 21q0 13 9 22l120 121q9 9 21 9q13 0 22 -9t9 -22q0 -12 -9 -21l-120 -121q-9 -9 -22 -9q-12 0 -21 9zM373 84l-24 -24q-9 -9 -21 -9h-182q-12 0 -20 8l-59 58q-9 9 -9 21l-1 337l58 1l2 -326l41 -41h158l42 44l1 323h59l-1 -335q0 -5 -3 -12l18 -20h49
v-59h-61q-14 0 -21 9z" />
    <glyph glyph-name="ucircumflex" unicode="&#xfb;" 
d="M239 700q4 4 6 5q1 0 3 1.5t4 2.5q7 1 14 0q1 0 2.5 -1t2.5 -2t2 -1q2 -1 6 -5l123 -122l-40 -41l-103 102l-102 -102l-41 41zM373 84l-24 -24q-9 -9 -21 -9h-182q-12 0 -20 8l-59 58q-9 9 -9 21l-1 337l58 1l2 -326l41 -41h158l42 44l1 323h59l-1 -335q0 -5 -3 -12
l18 -20h49v-59h-61q-14 0 -21 9z" />
    <glyph glyph-name="udieresis" unicode="&#xfc;" 
d="M136 598h63v-61h-63v61zM320 598h62v-61h-62v61zM373 84l-24 -24q-9 -9 -21 -9h-182q-12 0 -20 8l-59 58q-9 9 -9 21l-1 337l58 1l2 -326l41 -41h158l42 44l1 323h59l-1 -335q0 -5 -3 -12l18 -20h49v-59h-61q-14 0 -21 9z" />
    <glyph glyph-name="yacute" unicode="&#xfd;" 
d="M209 546q-9 9 -9 21q0 13 9 22l120 121q9 9 21 9q13 0 22 -9t9 -22q0 -12 -9 -21l-120 -121q-9 -9 -22 -9q-12 0 -21 9zM227 78l-161 163q-9 9 -9 21v214h60v-202l153 -153l91 91v264h60v-276q0 -12 -9 -21l-307 -307l-42 42z" />
    <glyph glyph-name="thorn" unicode="&#xfe;" 
d="M60 658h62v-184h154q13 0 22 -9l120 -121q9 -9 9 -21v-122q0 -12 -9 -21l-122 -123q-9 -9 -21 -9h-153v-180h-62v790zM122 414v-306h141l104 105v98l-103 103h-142z" />
    <glyph glyph-name="ydieresis" unicode="&#xff;" 
d="M100 598h63v-61h-63v61zM284 598h62v-61h-62v61zM220 78l-161 163q-9 9 -9 21v214h60v-202l153 -153l91 91v264h60v-276q0 -12 -9 -21l-307 -307l-42 42z" />
    <glyph glyph-name="Amacron" unicode="&#x100;" 
d="M38 719h427v-61h-427v61zM109 232v-183h-59v338q0 11 9 20l180 181q8 9 20 9q14 0 23 -9l183 -182q8 -8 8 -21v-336h-60l1 183h-305zM110 293h303v80l-153 152l-150 -151v-81z" />
    <glyph glyph-name="amacron" unicode="&#x101;" 
d="M51 598h427v-61h-427v61zM353 109v130h-201l-43 -44v-42l42 -45zM413 108h61v-58h-336q-12 0 -21 9l-58 62q-9 9 -9 21v65q0 12 9 21l59 61q8 8 21 8h214v78l-41 42h-204v59h216q12 0 21 -9l59 -60q9 -9 9 -20v-279z" />
    <glyph glyph-name="Abreve" unicode="&#x102;" 
d="M186 710q9 9 20 9q13 0 22 -9l41 -41l42 41q9 9 20 9q13 0 22 -9.5t9 -21.5t-9 -21l-63 -62q-8 -8 -22 -8q-12 0 -20 8l-62 62q-9 9 -9 22q0 12 9 21zM116 232l-3 -183h-60l4 276q0 12 9 21l180 181q9 9 20 9q13 0 22 -9l183 -182q9 -9 9 -21v-275h-60l1 183h-305z
M117 293h303v19l-153 152l-150 -152v-19z" />
    <glyph glyph-name="abreve" unicode="&#x103;" 
d="M184 650q9 9 20 9q13 0 22 -9l41 -41l42 41q9 9 20 9q13 0 22 -9t9 -22q0 -11 -9 -20l-63 -62q-9 -9 -22 -9q-11 0 -20 9l-62 62q-9 9 -9 22q0 11 9 20zM360 109v124l-201 1l-43 -44v-37l42 -43zM419 108l62 -1l-1 -58l-335 3q-12 0 -21 9l-58 60q-9 9 -9 21v60
q0 12 9 21l59 61q9 9 21 9l215 -1v81l-42 42l-204 3v59l216 -3q12 0 21 -9l59 -60q9 -9 9 -20z" />
    <glyph glyph-name="Aogonek" unicode="&#x104;" 
d="M117 293h303v80l-153 152l-150 -151v-81zM116 232v-183h-59v338q0 11 9 20l180 181q8 9 20 9q14 0 23 -9l183 -182q8 -8 8 -21v-214v-122v-19l22 -23h22v-58h-35q-11 0 -20 9l-38 41l-6 6q-2 2 -2 9v35h-3l1 183h-305z" />
    <glyph glyph-name="aogonek" unicode="&#x105;" 
d="M360 109v130h-201l-43 -44v-42l42 -45zM365 6q-2 2 -2 9v35h-218q-12 0 -21 9l-58 62q-9 9 -9 21v65q0 12 9 21l59 61q8 8 21 8h214v78l-41 42h-204v59h216q12 0 21 -9l59 -60q9 -9 9 -20v-215v-64h61v-58h-61v-19l22 -23h22v-58h-35q-11 0 -20 9l-38 41z" />
    <glyph glyph-name="Cacute" unicode="&#x106;" 
d="M317 621q-9 9 -9 21q0 13 9 22l120 121q9 9 21 9q13 0 22 -9t9 -22q0 -12 -9 -21l-120 -121q-9 -9 -22 -9q-12 0 -21 9zM473 529l-42 -42l-53 51h-104l-164 -164v-101l165 -163l102 -1l52 55l44 -42l-61 -64q-9 -9 -22 -9h-127q-11 0 -21 10l-183 180q-9 9 -9 21v126
q0 13 8 21l183 182q9 9 21 9h128q13 0 21 -8z" />
    <glyph glyph-name="cacute" unicode="&#x107;" 
d="M277 546q-9 9 -9 21q0 13 9 22l120 121q9 9 21 9q13 0 22 -9t9 -22q0 -12 -9 -21l-120 -121q-9 -9 -22 -9q-12 0 -21 9zM415 475v-59h-203l-103 -104v-99l106 -104h200v-58h-212q-13 0 -21 8l-123 121q-9 9 -9 21v123q0 12 9 21l120 121q9 9 20 9h216z" />
    <glyph glyph-name="Ccircumflex" unicode="&#x108;" 
d="M298 789q4 4 6 5q1 0 3 1.5t4 2.5q7 1 14 0q1 0 2.5 -1t2.5 -2t2 -1q2 -1 6 -5l123 -122l-40 -41l-103 102l-102 -102l-41 41zM473 529l-42 -42l-53 51h-104l-164 -164v-101l165 -163l102 -1l52 55l44 -42l-61 -64q-9 -9 -22 -9h-127q-11 0 -21 10l-183 180q-9 9 -9 21
v126q0 13 8 21l183 182q9 9 21 9h128q13 0 21 -8z" />
    <glyph glyph-name="ccircumflex" unicode="&#x109;" 
d="M278 700q4 4 6 5q1 0 3 1.5t4 2.5q7 1 14 0q1 0 2.5 -1t2.5 -2t2 -1q2 -1 6 -5l123 -122l-40 -41l-103 102l-102 -102l-41 41zM415 475v-59h-203l-103 -104v-99l106 -104h200v-58h-212q-13 0 -21 8l-123 121q-9 9 -9 21v123q0 12 9 21l120 121q9 9 20 9h216z" />
    <glyph glyph-name="Cdotaccent" unicode="&#x10a;" 
d="M268 686q0 23 16.5 39.5t39.5 16.5t39.5 -16.5t16.5 -39.5t-16.5 -39.5t-39.5 -16.5t-39.5 16.5t-16.5 39.5zM473 529l-42 -42l-53 51h-104l-164 -164v-101l165 -163l102 -1l52 55l44 -42l-61 -64q-9 -9 -22 -9h-127q-11 0 -21 10l-183 180q-9 9 -9 21v126q0 13 8 21
l183 182q9 9 21 9h128q13 0 21 -8z" />
    <glyph glyph-name="cdotaccent" unicode="&#x10b;" 
d="M186 619q0 23 16.5 39.5t39.5 16.5t39.5 -16.5t16.5 -39.5t-16.5 -39.5t-39.5 -16.5t-39.5 16.5t-16.5 39.5zM415 475v-59h-203l-103 -104v-99l106 -104h200v-58h-212q-13 0 -21 8l-123 121q-9 9 -9 21v123q0 12 9 21l120 121q9 9 20 9h216z" />
    <glyph glyph-name="Ccaron" unicode="&#x10c;" 
d="M298 632l-123 122l41 40l102 -101l103 102l40 -41l-123 -122q-4 -4 -6 -5q-4 -2 -7 -3q-7 -1 -14 0q-3 1 -7 3q-2 1 -6 5zM473 529l-42 -42l-53 51h-104l-164 -164v-101l165 -163l102 -1l52 55l44 -42l-61 -64q-9 -9 -22 -9h-127q-11 0 -21 10l-183 180q-9 9 -9 21v126
q0 13 8 21l183 182q9 9 21 9h128q13 0 21 -8z" />
    <glyph glyph-name="ccaron" unicode="&#x10d;" 
d="M286 551l-123 122l41 40l102 -101l103 102l40 -41l-123 -122q-4 -4 -6 -5q-4 -2 -7 -3q-7 -1 -14 0q-3 1 -7 3q-2 1 -6 5zM415 475v-59h-203l-103 -104v-99l106 -104h200v-58h-212q-13 0 -21 8l-123 121q-9 9 -9 21v123q0 12 9 21l120 121q9 9 20 9h216z" />
    <glyph glyph-name="Dcaron" unicode="&#x10e;" 
d="M240 632l-123 122l41 40l102 -101l103 102l40 -41l-123 -122q-4 -4 -6 -5q-4 -2 -7 -3q-7 -1 -14 0q-3 1 -7 3q-2 1 -6 5zM172 110h138l103 103v220l-103 104l-138 1v-428zM111 538h-61v60l273 -1q12 0 21 -9l120 -122q9 -9 9 -21v-244q0 -13 -9 -22l-121 -120
q-9 -9 -21 -9l-272 -1v60h61v429z" />
    <glyph glyph-name="dcaron" unicode="&#x10f;" 
d="M415 51h-212q-13 0 -21 8l-123 121q-9 9 -9 21v123q0 12 9 21l120 121q9 9 20 9h156v184h60v-608zM355 109v307h-143l-103 -104v-99l106 -104h140z" />
    <glyph glyph-name="Dcroat" unicode="&#x110;" 
d="M115 538h-61v60l276 -1q14 0 21 -9l120 -122q9 -9 9 -21v-244q0 -13 -9 -22l-121 -120q-9 -9 -21 -9l-275 -1v60h61v188h-60v61h60v180zM176 110h141l103 103v220l-103 104l-141 1v-180h61v-61h-61v-187z" />
    <glyph glyph-name="dcroat" unicode="&#x111;" 
d="M360 109v307h-143l-103 -104v-99l106 -104h140zM420 52l-212 -1q-13 0 -21 8l-123 121q-9 9 -9 21v123q0 12 9 21l120 121q9 9 20 9h156v55h-145v61h145v68h60v-68h47v-61h-47v-478z" />
    <glyph glyph-name="Emacron" unicode="&#x112;" 
d="M40 719h427v-61h-427v61zM50 598h423v-61h-362v-183h240v-61h-240v-184h362v-60h-423v549z" />
    <glyph glyph-name="emacron" unicode="&#x113;" 
d="M26 598h427v-61h-427v61zM109 234v-82l43 -45h263v-56h-275q-12 0 -20 8l-62 60q-8 8 -8 21v242q0 10 10 20l61 63q11 11 22 11h181q10 0 21 -11l59 -62q9 -9 9 -20v-149h-304zM110 296h245v75l-43 44h-158l-44 -45v-74z" />
    <glyph glyph-name="Ebreve" unicode="&#x114;" 
d="M113 749h60q2 -14 4 -23q3 -11 9 -22q3 -5 14 -16q12 -12 19 -16q8 -4 22 -8q11 -3 22 -3q13 0 23 3t21 9q7 4 18 15q10 10 14 17q5 9 9 24q3 11 3 20h60q0 -23 -5 -38q-6 -19 -15 -35q-10 -18 -23 -31q-15 -15 -30 -23q-16 -9 -36 -15q-24 -6 -37 -6q-22 0 -39 4
q-15 3 -36 15q-16 9 -32 23q-17 17 -24 30q-10 17 -15 36q-6 24 -6 40zM54 537h427v-61h-366v-183h244v-62h-244v-122h366v-60h-427v488z" />
    <glyph glyph-name="ebreve" unicode="&#x115;" 
d="M116 234v-82l43 -45h263v-56h-275q-12 0 -20 8l-62 60q-8 8 -8 21v242q0 10 10 20l61 63q11 11 22 11h181q10 0 21 -11l59 -62q9 -9 9 -20v-149h-304zM117 296h245v75l-43 44h-158l-44 -45v-74zM113 687h60q2 -14 4 -23q3 -11 9 -22q3 -5 14 -16q12 -12 19 -16
q8 -4 22 -8q11 -3 22 -3q13 0 23 3t21 9q7 4 18 15q10 10 14 17q5 9 9 24q3 11 3 20h60q0 -23 -5 -38q-6 -19 -15 -35q-10 -18 -23 -31q-15 -15 -30 -23q-16 -9 -36 -15q-24 -6 -37 -6q-22 0 -39 4q-15 3 -36 15q-16 9 -32 23q-17 17 -24 30q-10 17 -15 36q-6 24 -6 40z" />
    <glyph glyph-name="Edotaccent" unicode="&#x116;" 
d="M211 686q0 23 16.5 39.5t39.5 16.5t39.5 -16.5t16.5 -39.5t-16.5 -39.5t-39.5 -16.5t-39.5 16.5t-16.5 39.5zM50 598h423v-61h-362v-183h240v-61h-240v-184h362v-60h-423v549z" />
    <glyph glyph-name="edotaccent" unicode="&#x117;" 
d="M186 619q0 23 16.5 39.5t39.5 16.5t39.5 -16.5t16.5 -39.5t-16.5 -39.5t-39.5 -16.5t-39.5 16.5t-16.5 39.5zM109 234v-82l43 -45h263v-56h-275q-12 0 -20 8l-62 60q-8 8 -8 21v242q0 10 10 20l61 63q11 11 22 11h181q10 0 21 -11l59 -62q9 -9 9 -20v-149h-304zM110 296
h245v75l-43 44h-158l-44 -45v-74z" />
    <glyph glyph-name="Eogonek" unicode="&#x118;" 
d="M54 537h427v-61h-366v-183h244v-62h-244v-122h366v-60h-427v488z" />
    <glyph glyph-name="eogonek" unicode="&#x119;" 
d="M112 231v-79l44 -43h265v-58h-277q-12 0 -20 8l-62 60q-8 8 -8 21l2 244q0 12 8 20l61 63q9 9 22 9l183 -2q12 0 21 -9l59 -60q9 -9 9 -20v-154h-307zM113 293h248v80l-43 42l-160 2l-45 -45v-79z" />
    <glyph glyph-name="Ecaron" unicode="&#x11a;" 
d="M240 632l-123 122l41 40l102 -101l103 102l40 -41l-123 -122q-4 -4 -6 -5q-4 -2 -7 -3q-7 -1 -14 0q-3 1 -7 3q-2 1 -6 5zM50 598h423v-61h-362v-183h240v-61h-240v-184h362v-60h-423v549z" />
    <glyph glyph-name="ecaron" unicode="&#x11b;" 
d="M217 543l-123 122l41 40l102 -101l103 102l40 -41l-123 -122q-4 -4 -6 -5q-4 -2 -7 -3q-7 -1 -14 0q-3 1 -7 3q-2 1 -6 5zM109 234v-82l43 -45h263v-56h-275q-12 0 -20 8l-62 60q-8 8 -8 21v242q0 10 10 20l61 63q11 11 22 11h181q10 0 21 -11l59 -62q9 -9 9 -20v-149
h-304zM110 296h245v75l-43 44h-158l-44 -45v-74z" />
    <glyph glyph-name="Gcircumflex" unicode="&#x11c;" 
d="M233 789q4 4 6 5q1 0 3 1.5t4 2.5q7 1 14 0q1 0 2.5 -1t2.5 -2t2 -1q2 -1 6 -5l123 -122l-40 -41l-103 102l-102 -102l-41 41zM231 293h243v-60l-63 -1l-1 -152q0 -10 -8 -19.5t-22 -9.5h-180q-13 0 -21 8l-120 119q-9 9 -9 21v248q0 13 8 21l120 121q7 9 21 9h123
q13 0 22 -9l60 -61l-43 -42l-51 52h-98l-102 -103v-223l102 -101h139v121l-120 -1v62z" />
    <glyph glyph-name="gcircumflex" unicode="&#x11d;" 
d="M234 700q4 4 6 5q1 0 3 1.5t4 2.5q7 1 14 0q1 0 2.5 -1t2.5 -2t2 -1q2 -1 6 -5l123 -122l-40 -41l-103 102l-102 -102l-41 41zM383 190l-69 -69q-7 -9 -21 -9h-95q-12 0 -21 9l-118 118q-9 7 -9 21v67q0 12 9 21l121 121q7 9 21 9h151q12 0 21 -9l61 -61q9 -7 9 -21v-371
q0 -12 -9 -21l-56 -56q-7 -9 -21 -9h-161q-12 0 -21 9l-58 58l42 42l49 -49h137l38 38v162zM383 274v101l-43 43h-127l-103 -103v-43l100 -100h71z" />
    <glyph glyph-name="Gbreve" unicode="&#x11e;" 
d="M186 710q9 9 20 9q13 0 22 -9l41 -41l42 41q9 9 20 9q14 0 22 -10q9 -9 9 -22q0 -11 -9 -20l-63 -62q-8 -8 -22 -8q-12 0 -20 8l-62 62q-9 9 -9 22q0 12 9 21zM237 293h245v-60l-63 -1l-1 -152q0 -10 -8 -19.5t-22 -9.5h-182q-13 0 -21 8l-120 119q-9 9 -9 21v208
q0 13 8 21l120 121q7 9 21 9h125q13 0 22 -9l60 -61l-43 -42l-51 52h-100l-102 -103v-183l102 -101h141v121l-122 -1v62z" />
    <glyph glyph-name="gbreve" unicode="&#x11f;" 
d="M186 710q9 9 20 9q13 0 22 -9l41 -41l42 41q9 9 20 9q14 0 22 -10q9 -9 9 -22q0 -11 -9 -20l-63 -62q-8 -8 -22 -8q-12 0 -20 8l-62 62q-9 9 -9 22q0 12 9 21zM422 231v144l-45 42l-158 -2l-104 -102v-41l104 -103l96 2l51 51q9 9 21 9h35zM422 171h-22l-51 -51
q-7 -9 -21 -9l-121 -2q-12 0 -21 9l-122 120q-9 9 -9 21v67q0 14 9 21l122 119q9 9 21 9l182 2q11 0 21 -8l63 -59q9 -9 9 -22l-1 -370q0 -11 -8 -21l-58 -60q-9 -9 -22 -9h-186q-12 0 -21 9l-61 60l42 42l52 -51h161l41 42z" />
    <glyph glyph-name="Gdotaccent" unicode="&#x120;" 
d="M211 686q0 23 16.5 39.5t39.5 16.5t39.5 -16.5t16.5 -39.5t-16.5 -39.5t-39.5 -16.5t-39.5 16.5t-16.5 39.5zM231 293h243v-60l-63 -1l-1 -152q0 -10 -8 -19.5t-22 -9.5h-180q-13 0 -21 8l-120 119q-9 9 -9 21v248q0 13 8 21l120 121q7 9 21 9h123q13 0 22 -9l60 -61
l-43 -42l-51 52h-98l-102 -103v-223l102 -101h139v121l-120 -1v62z" />
    <glyph glyph-name="gdotaccent" unicode="&#x121;" 
d="M211 619q0 23 16.5 39.5t39.5 16.5t39.5 -16.5t16.5 -39.5t-16.5 -39.5t-39.5 -16.5t-39.5 16.5t-16.5 39.5zM383 190l-69 -69q-7 -9 -21 -9h-95q-12 0 -21 9l-118 118q-9 7 -9 21v67q0 12 9 21l121 121q7 9 21 9h151q12 0 21 -9l61 -61q9 -7 9 -21v-371q0 -12 -9 -21
l-56 -56q-7 -9 -21 -9h-161q-12 0 -21 9l-58 58l42 42l49 -49h137l38 38v162zM383 274v101l-43 43h-127l-103 -103v-43l100 -100h71z" />
    <glyph glyph-name="Gcommaaccent" unicode="&#x122;" 
d="M231 293h243v-60l-63 -1l-1 -152q0 -10 -8 -19.5t-22 -9.5h-180q-13 0 -21 8l-120 119q-9 9 -9 21v248q0 13 8 21l120 121q7 9 21 9h123q13 0 22 -9l60 -61l-43 -42l-51 52h-98l-102 -103v-223l102 -101h139v121l-120 -1v62z" />
    <glyph glyph-name="gcommaaccent" unicode="&#x123;" 
d="M422 171h-22l-51 -51q-7 -9 -21 -9l-121 -2q-12 0 -21 9l-122 120q-9 9 -9 21v67q0 14 9 21l122 119q9 9 21 9l182 2q11 0 21 -8l63 -59q9 -9 9 -22l-1 -370q0 -11 -8 -21l-58 -60q-9 -9 -22 -9h-100v-20q0 -10 -8 -20l-59 -60q-9 -9 -20 -9h-93v57h81l41 43v9h-28
q-12 0 -21 9l-61 60l42 42l52 -51h16v72h58v-72h87l41 42zM422 231v144l-45 42l-158 -2l-104 -102v-41l104 -103l96 2l51 51q9 9 21 9h35z" />
    <glyph glyph-name="Hcircumflex" unicode="&#x124;" 
d="M247 779q4 4 6 5q1 0 3 1.5t4 2.5q7 1 14 0q1 0 2.5 -1t2.5 -2t2 -1q2 -1 6 -5l123 -122l-40 -41l-103 102l-102 -102l-41 41zM57 598h61v-244h302v244h60v-549h-60v244h-302v-244h-61v549z" />
    <glyph glyph-name="hcircumflex" unicode="&#x125;" 
d="M247 780q4 4 6 5q1 0 3 1.5t4 2.5q7 1 14 0q1 0 2.5 -1t2.5 -2t2 -1q2 -1 6 -5l123 -122l-40 -41l-103 102l-102 -102l-41 41zM57 48v618h60v-268l72 72q6 5 21 5h119q11 0 21 -8l63 -60q9 -9 9 -22v-337h-60v324l-45 44h-95l-105 -101v-267h-60z" />
    <glyph glyph-name="Hbar" unicode="&#x126;" 
d="M54 598h61v-128h306v128h60v-128h24v-59h-24v-362h-60v244h-306v-244h-61v362h-26v59h26v128zM421 411h-306v-57h306v57z" />
    <glyph glyph-name="hbar" unicode="&#x127;" 
d="M52 538h-24v60h24v68h60v-68h139v-60h-139v-140l72 72q6 5 21 5h121q11 0 21 -8l63 -60q9 -9 9 -22v-337h-60v324l-45 44h-97l-105 -101v-267h-60v490z" />
    <glyph glyph-name="Itilde" unicode="&#x128;" 
d="M125 787l1 1q2 0 2 1t1 1t2 1l6 3q6 3 7 3h65l4 1q4 0 4 -1q1 -1 3.5 -3t3.5 -2q2 -1 6 -5l110 -114h40l51 52l41 -40l-59 -60q-4 -4 -6 -5q-1 0 -3.5 -1.5t-3.5 -2.5h-8h-64h-7q-1 1 -3.5 2.5t-3.5 1.5q-2 1 -6 5l-111 113h-41l-52 -51l-40 41zM177 598h182v-61h-61
v-428h61v-61l-183 1v61l61 -1v428h-61z" />
    <glyph glyph-name="itilde" unicode="&#x129;" 
d="M125 702l1 1q2 0 2 1t1 1t2 1l6 3q6 3 7 3h65l4 1q4 0 4 -1q1 -1 3.5 -3t3.5 -2q2 -1 6 -5l110 -114h40l51 52l41 -40l-59 -60q-4 -4 -6 -5q-1 0 -3.5 -1.5t-3.5 -2.5h-8h-64h-7q-1 1 -3.5 2.5t-3.5 1.5q-2 1 -6 5l-111 113h-41l-52 -51l-40 41zM237 476h61v-427h-61v427
z" />
    <glyph glyph-name="Imacron" unicode="&#x12a;" 
d="M54 720h427v-61h-427v61zM177 598h182v-61h-61v-428h61v-61l-183 1v61l61 -1v428h-61z" />
    <glyph glyph-name="imacron" unicode="&#x12b;" 
d="M54 659h427v-61h-427v61zM237 476h61v-427h-61v427z" />
    <glyph glyph-name="Ibreve" unicode="&#x12c;" 
d="M113 769h60q2 -14 4 -23q3 -11 9 -22q3 -5 14 -16q12 -12 19 -16q8 -4 22 -8q11 -3 22 -3q13 0 23 3t21 9q7 4 18 15q10 10 14 17q5 9 9 24q3 11 3 20h60q0 -23 -5 -38q-6 -19 -15 -35q-10 -18 -23 -31q-15 -15 -30 -23q-16 -9 -36 -15q-24 -6 -37 -6q-22 0 -39 4
q-15 3 -36 15q-16 9 -32 23q-17 17 -24 30q-10 17 -15 36q-6 24 -6 40zM177 598h182v-61h-61v-428h61v-61l-183 1v61l61 -1v428h-61z" />
    <glyph glyph-name="ibreve" unicode="&#x12d;" 
d="M113 659h60q2 -14 4 -23q3 -11 9 -22q3 -5 14 -16q12 -12 19 -16q8 -4 22 -8q11 -3 22 -3q13 0 23 3t21 9q7 4 18 15q10 10 14 17q5 9 9 24q3 11 3 20h60q0 -23 -5 -38q-6 -19 -15 -35q-10 -18 -23 -31q-15 -15 -30 -23q-16 -9 -36 -15q-24 -6 -37 -6q-22 0 -39 4
q-15 3 -36 15q-16 9 -32 23q-17 17 -24 30q-10 17 -15 36q-6 24 -6 40zM237 476h61v-427h-61v427z" />
    <glyph glyph-name="Iogonek" unicode="&#x12e;" 
d="M271 -120q-2 2 -2 9v157h57v-141l22 -23h22v-58h-35q-11 0 -20 9l-38 41zM177 598h182v-61h-61v-428h61v-61l-183 1v61l61 -1v428h-61z" />
    <glyph glyph-name="iogonek" unicode="&#x12f;" 
d="M240 -120q-2 2 -2 9v157h57v-141l22 -23h22v-58h-35q-11 0 -20 9l-38 41zM237 659h61v-61h-61v61zM237 476h61v-427h-61v427z" />
    <glyph glyph-name="Idotaccent" unicode="&#x130;" 
d="M177 598h182v-61h-61v-428h61v-61h-183v61h61v428h-61zM237 720h61v-61h-61v61z" />
    <glyph glyph-name="dotlessi" unicode="&#x131;" 
d="M237 476h61v-427h-61v427z" />
    <glyph glyph-name="IJ" unicode="&#x132;" 
d="M196 232h60v-81l44 -41h46l42 43v384h-35v61h126v-61h-31v-396q0 -13 -8 -21l-59 -61q-9 -9 -22 -9h-71q-13 0 -21 8l-60 58q-9 9 -9 21zM59 598h137v-61h-38v-428h38v-61h-138v61h39v428h-39z" />
    <glyph glyph-name="ij" unicode="&#x133;" 
d="M421 17q0 -11 -10 -21l-60 -61q-8 -8 -21 -8h-124q-12 0 -21 9l-60 61l42 42l52 -53h99l42 43v447h61v-459zM360 659h62v-61h-62v61zM237 659h61v-61h-61v61zM237 476h61v-427h-61v427z" />
    <glyph glyph-name="Jcircumflex" unicode="&#x134;" 
d="M190 788q4 4 6 5q1 0 3 1.5t4 2.5q7 1 14 0q1 0 2.5 -1t2.5 -2t2 -1q2 -1 6 -5l123 -122l-40 -41l-103 102l-102 -102l-41 41zM57 230l60 2l2 -81l42 -41h99l42 43v384h-61v61h183v-61h-62v-396q0 -13 -8 -21l-59 -61q-9 -9 -22 -9h-124q-13 0 -21 8l-60 58q-9 9 -9 21z
" />
    <glyph glyph-name="jcircumflex" unicode="&#x135;" 
d="M420 17q0 -11 -10 -21l-60 -61q-8 -8 -21 -8h-124q-12 0 -21 9l-60 61l42 42l52 -53h99l42 43v447h61v-459zM246 696q4 4 6 5l2 1q3 2 5 3q7 1 14 0q2 -1 4 -2.5t3 -1.5q2 -1 6 -5l123 -122l-40 -41l-103 102l-102 -102l-41 41z" />
    <glyph glyph-name="lacute" unicode="&#x13a;" 
d="M297 123l13 -14h49v-60h-61q-12 0 -21 9l-31 31q-9 9 -9 21v361h60v-348zM247 508q-9 9 -9 21q0 13 9 22l120 121q9 9 21 9q13 0 22 -9t9 -22q0 -12 -9 -21l-120 -121q-9 -9 -22 -9q-12 0 -21 9z" />
    <glyph glyph-name="Nacute" unicode="&#x143;" 
d="M230 622q-9 9 -9 21q0 13 9 22l120 121q9 9 21 9q13 0 22 -9t9 -22q0 -12 -9 -21l-120 -121q-9 -9 -22 -9q-12 0 -21 9zM47 49v549h61l305 -306v306h60v-548h-60v150l-305 308v-460z" />
    <glyph glyph-name="nacute" unicode="&#x144;" 
d="M234 546q-9 9 -9 21q0 13 9 22l120 121q9 9 21 9q13 0 22 -9t9 -22q0 -12 -9 -21l-120 -121q-9 -9 -22 -9q-12 0 -21 9zM158 442l24 24q9 9 21 9h124q12 0 20 -8l59 -58q9 -9 9 -21v-337h-57v325l-43 41h-100l-42 -44v-323h-60v335q0 2 4 12l-18 20h-49v59h63q12 0 19 -9
z" />
    <glyph glyph-name="sacute" unicode="&#x15b;" 
d="M359 372l-44 44h-154l-29 -30l279 -221q11 -9 11 -22q0 -14 -9 -23l-63 -62q-9 -9 -21 -9l-180 1q-13 0 -21 8l-62 60q-9 9 -9 22v28h60v-15l44 -43l156 -1l30 30l-278 220q-9 7 -11 22q-2 13 8 23l60 63q9 9 22 9h179q12 0 21 -9l62 -61q9 -9 9 -21v-32h-60v19zM188 509
q-9 9 -9 21q0 13 9 22l120 121q9 9 21 9q13 0 22 -9t9 -22q0 -12 -9 -21l-120 -121q-9 -9 -22 -9q-12 0 -21 9z" />
    <glyph glyph-name="Utilde" unicode="&#x168;" 
d="M56 470h59v-318l42 -42h222l41 43v317h60v-329q0 -12 -8 -20l-58 -61q-10 -10 -22 -10h-248q-12 0 -21 9l-59 59q-8 8 -8 21v331zM125 649l1 1q2 0 2 1t1 1t2 1l6 3q6 3 7 3h65l4 1q4 0 4 -1q1 -1 3.5 -3t3.5 -2q2 -1 6 -5l110 -114h40l51 52l41 -40l-59 -60q-4 -4 -6 -5
q-1 0 -3.5 -1.5t-3.5 -2.5h-8h-64h-7q-1 1 -3.5 2.5t-3.5 1.5q-2 1 -6 5l-111 113h-41l-52 -51l-40 41z" />
    <glyph glyph-name="utilde" unicode="&#x169;" 
d="M373 84l-24 -24q-9 -9 -21 -9h-182q-12 0 -20 8l-59 58q-9 9 -9 21l-1 337l58 1l2 -326l41 -41h158l42 44l1 323h59l-1 -335q0 -5 -3 -12l18 -20h49v-59h-61q-14 0 -21 9zM125 649l1 1q2 0 2 1t1 1t2 1l6 3q6 3 7 3h65l4 1q4 0 4 -1q1 -1 3.5 -3t3.5 -2q2 -1 6 -5
l110 -114h40l51 52l41 -40l-59 -60q-4 -4 -6 -5q-1 0 -3.5 -1.5t-3.5 -2.5h-8h-64h-7q-1 1 -3.5 2.5t-3.5 1.5q-2 1 -6 5l-111 113h-41l-52 -51l-40 41z" />
    <glyph glyph-name="zacute" unicode="&#x17a;" 
d="M57 476h424l-301 -367h301v-60h-424l302 366h-302v61zM188 508q-9 9 -9 21q0 13 9 22l120 121q9 9 21 9q13 0 22 -9t9 -22q0 -12 -9 -21l-120 -121q-9 -9 -22 -9q-12 0 -21 9z" />
    <glyph glyph-name="uni018E" unicode="&#x18e;" 
d="M480 598v-549h-423v60h362v184h-240v61h240v183h-362v61h423z" />
    <glyph glyph-name="gacute" unicode="&#x1f5;" 
d="M390 187l-69 -69q-7 -9 -21 -9h-95q-12 0 -21 9l-118 118q-9 7 -9 21v67q0 12 9 21l121 121q7 9 21 9h151q12 0 21 -9l61 -61q9 -7 9 -21v-371q0 -12 -9 -21l-56 -56q-7 -9 -21 -9h-161q-12 0 -21 9l-58 58l42 42l49 -49h137l38 38v162zM390 271v101l-43 43h-127
l-103 -103v-43l100 -100h71zM190 513q-9 9 -9 21q0 13 9 22l120 121q9 9 21 9q13 0 22 -9t9 -22q0 -12 -9 -21l-120 -121q-9 -9 -22 -9q-12 0 -21 9z" />
    <glyph glyph-name="uni0247" unicode="&#x247;" 
d="M421 470q1 1 2 2.5t2 2.5t2 1q2 1 8 3q8 2 16 0q6 -1 14 -9q7 -7 8 -13q1 -7 0 -15q-1 -1 -2 -3.5t-1 -4.5q-1 -3 -5 -7l-46 -47v-3v-146h-146l-101 -104l19 -20h230v-56h-242q-12 0 -20 8l-28 27l-24 -25q-4 -4 -6 -5q-1 0 -3.5 -2t-4.5 -3q-8 -2 -16 0q-5 1 -14 10
q-4 4 -8 14q-3 7 -1 16q2 6 3 8t5 6l27 28q-1 2 0 5v2v236q0 10 10 20l61 63q11 11 22 11h148q10 0 21 -11l29 -31zM148 192l38 39h-38v-39zM247 293l92 94l-21 22h-125l-44 -45v-71h98zM334 293h27v28z" />
    <glyph glyph-name="afii57929" unicode="&#x2bc;" 
 />
    <glyph glyph-name="caron" unicode="&#x2c7;" 
d="M240 632l-123 122l41 40l102 -101l103 102l40 -41l-123 -122q-4 -4 -6 -5q-4 -2 -7 -3q-7 -1 -14 0q-3 1 -7 3q-2 1 -6 5z" />
    <glyph glyph-name="breve" unicode="&#x2d8;" 
d="M113 659h60q2 -14 4 -23q3 -11 9 -22q3 -5 14 -16q12 -12 19 -16q8 -4 22 -8q11 -3 22 -3q13 0 23 3t21 9q7 4 18 15q10 10 14 17q5 9 9 24q3 11 3 20h60q0 -23 -5 -38q-6 -19 -15 -35q-10 -18 -23 -31q-15 -15 -30 -23q-16 -9 -36 -15q-24 -6 -37 -6q-22 0 -39 4
q-15 3 -36 15q-16 9 -32 23q-17 17 -24 30q-10 17 -15 36q-6 24 -6 40z" />
    <glyph glyph-name="dotaccent" unicode="&#x2d9;" 
d="M186 619q0 23 16.5 39.5t39.5 16.5t39.5 -16.5t16.5 -39.5t-16.5 -39.5t-39.5 -16.5t-39.5 16.5t-16.5 39.5z" />
    <glyph glyph-name="ring" unicode="&#x2da;" 
d="M176 537q0 -28 19.5 -47.5t46.5 -19.5q28 0 48 19.5t20 47.5t-20 47.5t-48 19.5q-27 0 -46.5 -19.5t-19.5 -47.5zM126 537q0 49 34 83t82 34q49 0 83.5 -34t34.5 -83q0 -48 -34.5 -82.5t-83.5 -34.5q-48 0 -82 34.5t-34 82.5z" />
    <glyph glyph-name="ogonek" unicode="&#x2db;" 
d="M118 6q-2 2 -2 9v157h57v-141l22 -23h22v-58h-35q-11 0 -20 9l-38 41z" />
    <glyph glyph-name="dieresistonos" unicode="&#x385;" 
d="M114 601h63v-61h-63v61zM298 601h62v-61h-62v61zM188 619q-9 9 -9 21q0 13 9 22l120 121q9 9 21 9q13 0 22 -9t9 -22q0 -12 -9 -21l-120 -121q-9 -9 -22 -9q-12 0 -21 9z" />
    <glyph glyph-name="Delta" unicode="&#x394;" 
d="M145 110h245l-123 319zM58 50l209 547l210 -547h-419z" />
    <glyph glyph-name="lambda" unicode="&#x3bb;" 
d="M58 536v60h18q99 0 135 -62l276 -485h-69l-143 257l-152 -257h-74l193 313l-83 142q-19 32 -101 32z" />
    <glyph glyph-name="mu" unicode="&#x3bc;" 
d="M56 476h57v-326l43 -41h161l42 44v323h60v-335q0 -2 -4 -12l18 -20h49v-58h-61q-15 0 -21 8l-26 25l-24 -24q-9 -9 -21 -9h-185q-12 0 -20 8l-9 9v-202h-59v610z" />
    <glyph glyph-name="afii10074" unicode="&#x438;" 
d="M423 49l-61 -1v323l-248 -293v-28h-60v426h60v-292l248 292h61v-427z" />
    <glyph glyph-name="Bdotaccent" unicode="&#x1e02;" 
d="M211 686q0 23 16.5 39.5t39.5 16.5t39.5 -16.5t16.5 -39.5t-16.5 -39.5t-39.5 -16.5t-39.5 16.5t-16.5 39.5zM118 109v429h-61v60h273q10 0 22 -9l120 -125q8 -8 8 -20q0 -14 -9 -23l-101 -97l101 -99q9 -9 9 -20q0 -13 -9 -22l-122 -125q-9 -9 -21 -9h-271v60h61z
M316 293h-137v-184h136l93 94zM315 354l93 90l-91 94h-138v-184h136z" />
    <glyph glyph-name="bdotaccent" unicode="&#x1e03;" 
d="M186 619q0 23 16.5 39.5t39.5 16.5t39.5 -16.5t16.5 -39.5t-16.5 -39.5t-39.5 -16.5t-39.5 16.5t-16.5 39.5zM57 52v607h60v-184h156q12 0 21 -9l119 -121q9 -9 9 -21v-123q0 -12 -9 -21l-123 -121q-7 -7 -21 -7h-212zM117 109h140l106 104v99l-102 104h-144v-307z" />
    <glyph glyph-name="Ddotaccent" unicode="&#x1e0a;" 
d="M211 686q0 23 16.5 39.5t39.5 16.5t39.5 -16.5t16.5 -39.5t-16.5 -39.5t-39.5 -16.5t-39.5 16.5t-16.5 39.5zM179 110h138l103 103v220l-103 104l-138 1v-428zM118 538h-61v60l273 -1q12 0 21 -9l120 -122q9 -9 9 -21v-244q0 -13 -9 -22l-121 -120q-9 -9 -21 -9l-272 -1
v60h61v429z" />
    <glyph glyph-name="ddotaccent" unicode="&#x1e0b;" 
d="M186 619q0 23 16.5 39.5t39.5 16.5t39.5 -16.5t16.5 -39.5t-16.5 -39.5t-39.5 -16.5t-39.5 16.5t-16.5 39.5zM422 51h-212q-13 0 -21 8l-123 121q-9 9 -9 21v123q0 12 9 21l120 121q9 9 20 9h156v184h60v-608zM362 109v307h-143l-103 -104v-99l106 -104h140z" />
    <glyph glyph-name="Fdotaccent" unicode="&#x1e1e;" 
d="M211 686q0 23 16.5 39.5t39.5 16.5t39.5 -16.5t16.5 -39.5t-16.5 -39.5t-39.5 -16.5t-39.5 16.5t-16.5 39.5zM57 598h423v-61h-362v-183h302v-61h-302v-244h-61v549z" />
    <glyph glyph-name="fdotaccent" unicode="&#x1e1f;" 
d="M211 686q0 23 16.5 39.5t39.5 16.5t39.5 -16.5t16.5 -39.5t-16.5 -39.5t-39.5 -16.5t-39.5 16.5t-16.5 39.5zM281 539l-40 -41v-82h121v-61h-122v-306h-59v306h-124v61h124v94q0 13 8 21l57 59q9 9 22 9h154v-60h-141z" />
    <glyph glyph-name="kacute" unicode="&#x1e31;" 
d="M253 262l166 -171l-43 -42l-177 184h-80v-184h-62v610h62v-366h81l180 183l42 -42zM249 486q-9 9 -9 21q0 13 9 22l120 121q9 9 21 9q13 0 22 -9t9 -22q0 -12 -9 -21l-120 -121q-9 -9 -22 -9q-12 0 -21 9z" />
    <glyph glyph-name="macute" unicode="&#x1e3f;" 
d="M299 373v-324h-61v324l-41 42h-36l-44 -43v-323h-60v426h61v-17l9 9q9 9 21 9h62q13 0 22 -9l36 -39l38 38q9 9 21 9h64q12 0 21 -9l59 -59q9 -9 9 -21v-337h-60v325l-41 41h-39zM188 486q-9 9 -9 21q0 13 9 22l120 121q9 9 21 9q13 0 22 -9t9 -22q0 -12 -9 -21
l-120 -121q-9 -9 -22 -9q-12 0 -21 9z" />
    <glyph glyph-name="Mdotaccent" unicode="&#x1e40;" 
d="M211 686q0 23 16.5 39.5t39.5 16.5t39.5 -16.5t16.5 -39.5t-16.5 -39.5t-39.5 -16.5t-39.5 16.5t-16.5 39.5zM298 370v-76h-61v76l-123 124v-445h-60v517q0 20 19 28q4 2 11 2q12 0 21 -9l161 -161l163 163q9 9 21 9q7 0 11 -2q19 -8 19 -28v-521h-60v449z" />
    <glyph glyph-name="mdotaccent" unicode="&#x1e41;" 
d="M210 619q0 23 16.5 39.5t39.5 16.5t39.5 -16.5t16.5 -39.5t-16.5 -39.5t-39.5 -16.5t-39.5 16.5t-16.5 39.5zM299 373v-324h-61v324l-41 42h-36l-44 -43v-323h-60v426h61v-17l9 9q9 9 21 9h62q13 0 22 -9l36 -39l38 38q9 9 21 9h64q12 0 21 -9l59 -59q9 -9 9 -21v-337
h-60v325l-41 41h-39z" />
    <glyph glyph-name="Ndotaccent" unicode="&#x1e44;" 
d="M211 686q0 23 16.5 39.5t39.5 16.5t39.5 -16.5t16.5 -39.5t-16.5 -39.5t-39.5 -16.5t-39.5 16.5t-16.5 39.5zM54 49v549h61l305 -306v306h60v-548h-60v150l-305 308v-460z" />
    <glyph glyph-name="ndotaccent" unicode="&#x1e45;" 
d="M186 619q0 23 16.5 39.5t39.5 16.5t39.5 -16.5t16.5 -39.5t-16.5 -39.5t-39.5 -16.5t-39.5 16.5t-16.5 39.5zM165 442l24 24q9 9 21 9h124q12 0 20 -8l59 -58q9 -9 9 -21v-337h-57v325l-43 41h-100l-42 -44v-323h-60v335q0 2 4 12l-18 20h-49v59h63q12 0 19 -9z" />
    <glyph glyph-name="uni1E54" unicode="&#x1e54;" 
d="M157 621q-9 9 -9 21q0 13 9 22l120 121q9 9 21 9q13 0 22 -9t9 -22q0 -12 -9 -21l-120 -121q-9 -9 -22 -9q-12 0 -21 9zM109 293h200l104 105l-1 39l-102 101l-201 -1v-244zM109 231v-183h-62v550h275q12 0 21 -9l120 -118q9 -9 9 -21l1 -64q0 -12 -9 -21l-121 -123
q-9 -9 -21 -9z" />
    <glyph glyph-name="uni1E55" unicode="&#x1e55;" 
d="M231 546q-9 9 -9 21q0 13 9 22l120 121q9 9 21 9q13 0 22 -9t9 -22q0 -12 -9 -21l-120 -121q-9 -9 -22 -9q-12 0 -21 9zM50 467h220q9 0 13 -4l123 -118q9 -9 9 -21v-123q0 -12 -9 -21l-120 -121q-9 -9 -20 -9h-156v-184h-60v601zM110 413v-304h143l103 104v99l-106 101
h-140z" />
    <glyph glyph-name="uni1E56" unicode="&#x1e56;" 
d="M164 686q0 23 16.5 39.5t39.5 16.5t39.5 -16.5t16.5 -39.5t-16.5 -39.5t-39.5 -16.5t-39.5 16.5t-16.5 39.5zM109 293h200l104 105l-1 39l-102 101l-201 -1v-244zM109 231v-183h-62v550h275q12 0 21 -9l120 -118q9 -9 9 -21l1 -64q0 -12 -9 -21l-121 -123q-9 -9 -21 -9z
" />
    <glyph glyph-name="uni1E57" unicode="&#x1e57;" 
d="M133 619q0 23 16.5 39.5t39.5 16.5t39.5 -16.5t16.5 -39.5t-16.5 -39.5t-39.5 -16.5t-39.5 16.5t-16.5 39.5zM50 467h220q9 0 13 -4l123 -118q9 -9 9 -21v-123q0 -12 -9 -21l-120 -121q-9 -9 -20 -9h-156v-184h-60v601zM110 413v-304h143l103 104v99l-106 101h-140z" />
    <glyph glyph-name="Rdotaccent" unicode="&#x1e58;" 
d="M211 686q0 23 16.5 39.5t39.5 16.5t39.5 -16.5t16.5 -39.5t-16.5 -39.5t-39.5 -16.5t-39.5 16.5t-16.5 39.5zM278 294l192 -194q9 -9 9 -21v-30h-60v18l-227 227h-78l1 -245h-61v548h335q12 0 21 -9l61 -60q9 -9 9 -21v-123q0 -12 -9 -21l-59 -60q-9 -9 -21 -9h-113z
M114 354h264l42 42v98l-43 43h-263v-183z" />
    <glyph glyph-name="rdotaccent" unicode="&#x1e59;" 
d="M186 619q0 23 16.5 39.5t39.5 16.5t39.5 -16.5t16.5 -39.5t-16.5 -39.5t-39.5 -16.5t-39.5 16.5t-16.5 39.5zM166 313v-263l-60 -1l1 335q0 12 -9 22q-10 9 -23 9h-17l-1 60l49 1q15 0 37 -20t23 -42v-18l69 70q9 9 21 9l73 1q13 0 21 -9l63 -61q9 -9 9 -22v-30h-60v18
l-45 43h-48z" />
    <glyph glyph-name="Sdotaccent" unicode="&#x1e60;" 
d="M211 686q0 23 16.5 39.5t39.5 16.5t39.5 -16.5t16.5 -39.5t-16.5 -39.5t-39.5 -16.5t-39.5 16.5t-16.5 39.5zM420 498l-40 40h-220l-43 -43v-32l348 -238q13 -9 13 -25v-59q0 -10 -8 -20l-57 -62q-10 -10 -22 -10l-246 -1q-12 0 -21 9l-61 61q-9 9 -9 21v31h60v-19
l43 -43l221 1l40 44v31l-348 238q-13 9 -13 25v60q0 12 9 21l61 61q9 9 21 9h244q12 0 21 -9l58 -58q9 -9 9 -21v-32h-60v20z" />
    <glyph glyph-name="sdotaccent" unicode="&#x1e61;" 
d="M186 619q0 23 16.5 39.5t39.5 16.5t39.5 -16.5t16.5 -39.5t-16.5 -39.5t-39.5 -16.5t-39.5 16.5t-16.5 39.5zM359 372l-44 44h-154l-29 -30l279 -221q11 -9 11 -22q0 -14 -9 -23l-63 -62q-9 -9 -21 -9l-180 1q-13 0 -21 8l-62 60q-9 9 -9 22v28h60v-15l44 -43l156 -1
l30 30l-278 220q-9 7 -11 22q-2 13 8 23l60 63q9 9 22 9h179q12 0 21 -9l62 -61q9 -9 9 -21v-32h-60v19z" />
    <glyph glyph-name="Tdotaccent" unicode="&#x1e6a;" 
d="M211 686q0 23 16.5 39.5t39.5 16.5t39.5 -16.5t16.5 -39.5t-16.5 -39.5t-39.5 -16.5t-39.5 16.5t-16.5 39.5zM54 598h426v-61h-183v-488h-61v488h-182v61z" />
    <glyph glyph-name="tdotaccent" unicode="&#x1e6b;" 
d="M211 686q0 23 16.5 39.5t39.5 16.5t39.5 -16.5t16.5 -39.5t-16.5 -39.5t-39.5 -16.5t-39.5 16.5t-16.5 39.5zM297 123l13 -14h49v-60h-61q-12 0 -21 9l-31 31q-9 9 -9 21v299h-123v61h123v127h60v-127h123v-61h-123v-286z" />
    <glyph glyph-name="wacute" unicode="&#x1e83;" 
d="M300 211l87 -89l34 32v316h60v-329q0 -13 -9 -22l-64 -61q-10 -8 -21 -8q-12 0 -21 9l-97 99l-100 -102q-10 -10 -21 -10t-21 10l-61 62q-9 9 -9 21v330h60v-318l31 -31l91 91v82h61v-82zM188 486q-9 9 -9 21q0 13 9 22l120 121q9 9 21 9q13 0 22 -9t9 -22q0 -12 -9 -21
l-120 -121q-9 -9 -22 -9q-12 0 -21 9z" />
    <glyph glyph-name="Etilde" unicode="&#x1ebc;" 
d="M54 470h427v-61h-366v-104h244v-61h-244v-135h366v-60h-427v421zM125 649l1 1q2 0 2 1t1 1t2 1l6 3q6 3 7 3h65l4 1q4 0 4 -1q1 -1 3.5 -3t3.5 -2q2 -1 6 -5l110 -114h40l51 52l41 -40l-59 -60q-4 -4 -6 -5q-1 0 -3.5 -1.5t-3.5 -2.5h-8h-64h-7q-1 1 -3.5 2.5t-3.5 1.5
q-2 1 -6 5l-111 113h-41l-52 -51l-40 41z" />
    <glyph glyph-name="etilde" unicode="&#x1ebd;" 
d="M116 234v-82l43 -45h263v-56h-275q-12 0 -20 8l-62 60q-8 8 -8 21v242q0 10 10 20l61 63q11 11 22 11h181q10 0 21 -11l59 -62q9 -9 9 -20v-149h-304zM117 296h245v75l-43 44h-158l-44 -45v-74zM125 649l1 1q2 0 2 1t1 1t2 1l6 3q6 3 7 3h65l4 1q4 0 4 -1q1 -1 3.5 -3
t3.5 -2q2 -1 6 -5l110 -114h40l51 52l41 -40l-59 -60q-4 -4 -6 -5q-1 0 -3.5 -1.5t-3.5 -2.5h-8h-64h-7q-1 1 -3.5 2.5t-3.5 1.5q-2 1 -6 5l-111 113h-41l-52 -51l-40 41z" />
    <glyph glyph-name="quoteleft" unicode="&#x2018;" 
d="M192 651q9 9 22 9q12 0 21 -9l125 -124q8 -8 8 -21q0 -14 -8 -22t-22 -8q-13 0 -21 8l-125 125q-8 8 -8 21q0 14 8 21z" />
    <glyph glyph-name="quoteright" unicode="&#x2019;" 
d="M188 486q-9 9 -9 21q0 13 9 22l120 121q9 9 21 9q13 0 22 -9t9 -22q0 -12 -9 -21l-120 -121q-9 -9 -22 -9q-12 0 -21 9z" />
    <glyph glyph-name="ellipsis" unicode="&#x2026;" 
d="M177 171h71v-122h-71v122zM30 171h71v-122h-71v122zM323 171h71v-122h-71v122z" />
    <glyph glyph-name="Euro" unicode="&#x20ac;" 
d="M54 445h61v76l140 138h146l65 -61q9 -10 7 -23q-2 -14 -10 -21q-11 -9 -21 -9q-12 0 -22 8l-45 45h-92l-107 -104v-49h305l-32 -61h-273v-61h275l-35 -61h-240v-43l105 -109h91l48 48q9 9 23 9q13 0 23 -10t10 -23q0 -14 -10 -24l-64 -61h-151l-136 140v73h-61v31v30h61
v61h-61v61z" />
    <glyph glyph-name="trademark" unicode="&#x2122;" 
d="M275 689h50l40 -62l42 62h50v-304h-50v218l-42 -60l-40 60v-218h-50v304zM50 689h175v-51h-63v-253h-50v253h-62v51z" />
    <glyph glyph-name="arrowleft" unicode="&#x2190;" 
d="M230 476v-122h305v-61h-305v-122l-181 152z" />
    <glyph glyph-name="arrowright" unicode="&#x2192;" 
d="M312 476l181 -153l-181 -152v122h-305v61h305v122z" />
    <glyph glyph-name="uni2196" unicode="&#x2196;" 
d="M321 479l-86 -86l215 -215l-43 -44l-216 216l-86 -86l-20 235z" />
    <glyph glyph-name="uni2197" unicode="&#x2197;" 
d="M214 479l236 20l-20 -235l-87 86l-215 -216l-43 44l215 215z" />
    <glyph glyph-name="uni2198" unicode="&#x2198;" 
d="M214 154l86 86l-215 216l43 43l215 -215l87 86l20 -236z" />
    <glyph glyph-name="uni2199" unicode="&#x2199;" 
d="M321 154l-236 -20l20 236l86 -86l216 215l43 -43l-215 -216z" />
    <glyph glyph-name="NameMe.864" unicode="&#x219e;" 
d="M159 476l136 -115v115l181 -153l-181 -152v114l-136 -114v122h-99v61h99v122z" />
    <glyph glyph-name="NameMe.863" unicode="&#x219f;" 
d="M116 215l115 136h-115l153 181l152 -181h-114l114 -136h-122v-99h-61v99h-122z" />
    <glyph glyph-name="uni21A0" unicode="&#x21a0;" 
d="M159 476l136 -115v115l181 -153l-181 -152v114l-136 -114v122h-99v61h99v122z" />
    <glyph glyph-name="NameMe.859" unicode="&#x21a1;" 
d="M116 433h122v99h61v-99h122l-114 -136h114l-152 -181l-153 181h115z" />
    <glyph glyph-name="uni21AF" unicode="&#x21af;" 
d="M131 637v-264l246 242v-444h87l-114 -137l-114 137h81v300l-246 -242v408h60z" />
    <glyph glyph-name="uni21E0" unicode="&#x21e0;" 
d="M230 476v-122h21v-61h-21v-122l-181 152zM280 354h62v-61h-62v61zM494 354h41v-61h-41v61zM388 354h62v-61h-62v61z" />
    <glyph glyph-name="uni21E1" unicode="&#x21e1;" 
d="M91 385l153 181l152 -181h-122v-21h-61v21h-122zM213 335h61v-62h-61v62zM213 121h61v-41h-61v41zM213 227h61v-62h-61v62z" />
    <glyph glyph-name="uni21E2" unicode="&#x21e2;" 
d="M305 476l181 -153l-181 -152v122h-21v61h21v122zM255 354v-61h-62v61h62zM41 354v-61h-41v61h41zM147 354v-61h-62v61h62z" />
    <glyph glyph-name="uni21E3" unicode="&#x21e3;" 
d="M396 261l-153 -181l-152 181h122v21h61v-21h122zM274 311h-61v62h61v-62zM274 525h-61v41h61v-41zM274 419h-61v62h61v-62z" />
    <glyph glyph-name="uni21E6" unicode="&#x21e6;" 
d="M511 222h-152v-156l-322 248l322 247v-154h152v-185zM451 282v65h-152v93l-164 -126l164 -126v94h152z" />
    <glyph glyph-name="uni21E7" unicode="&#x21e7;" 
d="M174 -11v326h-156l248 322l247 -322h-154v-326h-185zM234 49h65v326h93l-126 164l-126 -164h94v-326z" />
    <glyph glyph-name="uni21E8" unicode="&#x21e8;" 
d="M37 405h152v156l322 -248l-322 -247v154h-152v185zM97 345v-65h152v-93l164 126l-164 126v-94h-152z" />
    <glyph glyph-name="uni21E9" unicode="&#x21e9;" 
d="M176 658h186v-326h154l-248 -322l-248 322h156v326zM236 598v-326h-94l126 -164l126 164h-92v326h-66z" />
    <glyph glyph-name="uni2318" unicode="&#x2318;" 
d="M146 301v113h-98q-9 0 -16 6t-7 16v124l1 2v3q2 11 11.5 19.5t20.5 8.5h121q9 0 16 -6.5t7 -16.5v-101h108v91v2q1 2 1 3q2 11 11.5 19.5t20.5 8.5h122q9 0 16 -6.5t7 -16.5v-124v-2q-1 -2 -1 -3q-2 -11 -11.5 -19t-20.5 -8h-89v-113h99q9 0 16 -6.5t7 -16.5v-122v-2
q-1 -2 -1 -3q-2 -11 -11.5 -19t-20.5 -8h-122q-9 0 -16 6t-7 16v100h-108v-90v-2q-1 -2 -1 -3q-2 -11 -11.5 -19t-20.5 -8h-120q-9 0 -16 6t-7 16v122v2q1 2 1 3q2 11 11.5 19.5t20.5 8.5h87zM202 414v-113h108v113h-108zM366 469h66v69h-66v-69zM366 246v-67h66v67h-66z
M146 246h-64v-67h64v67zM146 469v69h-65v-69h65z" />
    <glyph glyph-name="uni2319" unicode="&#x2319;" 
d="M481 415h-427v183h60v-122h367v-61z" />
    <glyph glyph-name="uni231A" unicode="&#x231a;" 
d="M263 332h-30v138q0 8 5 11l75 75l21 -21l-71 -71v-132zM171 299h-33v33h33v-33zM111 360h-33v33h33v-33zM81 451h-33v34h33v-34zM112 544h-33v33h33v-33zM172 603h-33v33h33v-33zM231 301h33v-33h-33v33zM325 332h33v-33h-33v33zM385 393h33v-33h-33v33zM415 485h33v-34
h-33v34zM384 577h34v-33h-34v33zM324 636h34v-33h-34v33zM231 666h33v-33h-33v33z" />
    <glyph glyph-name="NameMe.818" unicode="&#x231c;" 
d="M274 769h-244v-476h-30v507h274v-31z" />
    <glyph glyph-name="NameMe.819" unicode="&#x231d;" 
d="M274 801h260v-508h-28v476h-232v32z" />
    <glyph glyph-name="NameMe.820" unicode="&#x231e;" 
d="M274 -195h-274v488h30v-460h244v-28z" />
    <glyph glyph-name="NameMe.821" unicode="&#x231f;" 
d="M506 293h29v-491h-261v31h232v460z" />
    <glyph glyph-name="NameMe.809" unicode="&#x238b;" 
d="M330 473l25 55q65 -25 106 -83t41 -130q0 -95 -67 -161.5t-161 -66.5q-71 0 -128.5 39.5t-83.5 103.5l55 25q18 -48 61 -78t96 -30q51 0 92 28l-175 175l-86 -86l-20 235l236 -20l-86 -86l176 -176q15 21 23 46t8 52q0 54 -31.5 97t-80.5 61z" />
    <glyph glyph-name="uni23CE" unicode="&#x23ce;" 
d="M318 575h142v-325h-232v-110l-187 184l187 184v-111h90v178zM410 525h-42v-178h-190v41l-66 -64l66 -64v40h232v225z" />
    <glyph glyph-name="SF100000" unicode="&#x2500;" 
d="M536 355v-61h-536v61h536z" />
    <glyph glyph-name="SF110000" unicode="&#x2502;" 
d="M305 800v-1000h-61v1000h61z" />
    <glyph glyph-name="SF010000" unicode="&#x250c;" 
d="M244 -199v553h292v-60h-230v-493h-62z" />
    <glyph glyph-name="SF030000" unicode="&#x2510;" 
d="M306 -199h-62v493h-244v60h306v-553z" />
    <glyph glyph-name="SF020000" unicode="&#x2514;" 
d="M244 800h62v-446h230v-62h-292v508z" />
    <glyph glyph-name="SF040000" unicode="&#x2518;" 
d="M306 800v-508h-306v62h244v446h62z" />
    <glyph glyph-name="SF080000" unicode="&#x251c;" 
d="M244 800h61v-446h231v-61h-231v-493h-61v1000z" />
    <glyph glyph-name="SF090000" unicode="&#x2524;" 
d="M244 800h61v-1000h-61v493h-244v61h244v446z" />
    <glyph glyph-name="SF060000" unicode="&#x252c;" 
d="M536 354v-61h-231v-493h-61v493h-244v61h536z" />
    <glyph glyph-name="SF070000" unicode="&#x2534;" 
d="M0 293v61h244v446h61v-446h231v-61h-536z" />
    <glyph glyph-name="SF050000" unicode="&#x253c;" 
d="M244 800h61v-446h231v-61h-231v-493h-61v493h-244v61h244v446z" />
    <glyph glyph-name="SF430000" unicode="&#x2550;" 
d="M536 292v-61h-536v61h536zM536 415v-61h-536v61h536z" />
    <glyph glyph-name="SF240000" unicode="&#x2551;" 
d="M246 800v-1000h-61v1000h61zM367 800v-1000h-61v1000h61z" />
    <glyph glyph-name="SF510000" unicode="&#x2552;" 
d="M536 415v-61h-233v-62h233v-61h-233v-431h-61v615h294z" />
    <glyph glyph-name="SF520000" unicode="&#x2553;" 
d="M536 353v-61h-169v-492h-61v492h-60v-492h-61v553h351z" />
    <glyph glyph-name="SF390000" unicode="&#x2554;" 
d="M536 415v-61h-290v-554h-61v615h351zM536 292v-61h-169v-431h-61v492h230z" />
    <glyph glyph-name="SF220000" unicode="&#x2555;" 
d="M0 415h294v-615h-61v431h-233v61h233v62h-233v61z" />
    <glyph glyph-name="SF210000" unicode="&#x2556;" 
d="M0 353h367v-553h-61v492h-60v-492h-61v492h-185v61z" />
    <glyph glyph-name="SF250000" unicode="&#x2557;" 
d="M367 415v-615h-61v554h-306v61h367zM246 292v-492h-61v431h-185v61h246z" />
    <glyph glyph-name="SF500000" unicode="&#x2558;" 
d="M536 292v-61h-292v569h60v-385h232v-61h-232v-62h232z" />
    <glyph glyph-name="SF490000" unicode="&#x2559;" 
d="M536 354v-61h-351v507h61v-446h60v446h61v-446h169z" />
    <glyph glyph-name="SF380000" unicode="&#x255a;" 
d="M536 415v-61h-230v446h61v-385h169zM536 292v-61h-351v569h61v-508h290z" />
    <glyph glyph-name="SF280000" unicode="&#x255b;" 
d="M0 292h232v62h-232v61h232v385h60v-569h-292v61z" />
    <glyph glyph-name="SF270000" unicode="&#x255c;" 
d="M0 354h185v446h61v-446h60v446h61v-507h-367v61z" />
    <glyph glyph-name="SF260000" unicode="&#x255d;" 
d="M367 800v-569h-367v61h306v508h61zM246 800v-446h-246v61h185v385h61z" />
    <glyph glyph-name="SF360000" unicode="&#x255e;" 
d="M536 415v-61h-231v-62h231v-61h-231v-431h-61v1000h61v-385h231z" />
    <glyph glyph-name="SF370000" unicode="&#x255f;" 
d="M246 800v-1000h-61v1000h61zM536 354v-61h-169v-493h-61v1000h61v-446h169z" />
    <glyph glyph-name="SF420000" unicode="&#x2560;" 
d="M536 292v-61h-169v-431h-61v492h230zM536 415v-61h-230v446h61v-385h169zM246 800v-1000h-61v1000h61z" />
    <glyph glyph-name="SF190000" unicode="&#x2561;" 
d="M305 800v-1000h-61v431h-244v61h244v62h-244v61h244v385h61z" />
    <glyph glyph-name="SF200000" unicode="&#x2562;" 
d="M246 800v-1000h-61v493h-185v61h185v446h61zM367 800v-1000h-61v1000h61z" />
    <glyph glyph-name="SF230000" unicode="&#x2563;" 
d="M246 292v-492h-61v431h-185v61h246zM246 800v-446h-246v61h185v385h61zM367 800v-1000h-61v1000h61z" />
    <glyph glyph-name="SF470000" unicode="&#x2564;" 
d="M536 415v-61h-536v61h536zM536 292v-61h-231v-431h-61v431h-244v61h536z" />
    <glyph glyph-name="SF480000" unicode="&#x2565;" 
d="M536 354v-61h-169v-493h-61v493h-60v-493h-61v493h-185v61h536z" />
    <glyph glyph-name="SF410000" unicode="&#x2566;" 
d="M536 292v-61h-169v-431h-61v492h230zM246 292v-492h-61v431h-185v61h246zM536 415v-61h-536v61h536z" />
    <glyph glyph-name="SF450000" unicode="&#x2567;" 
d="M536 415v-61h-536v61h244v385h61v-385h231zM536 292v-61h-536v61h536z" />
    <glyph glyph-name="SF460000" unicode="&#x2568;" 
d="M536 354v-61h-536v61h185v446h61v-446h60v446h61v-446h169z" />
    <glyph glyph-name="SF400000" unicode="&#x2569;" 
d="M246 800v-446h-246v61h185v385h61zM536 415v-61h-230v446h61v-385h169zM536 292v-61h-536v61h536z" />
    <glyph glyph-name="SF540000" unicode="&#x256a;" 
d="M536 415v-61h-231v-62h231v-61h-231v-431h-61v431h-244v61h244v62h-244v61h244v385h61v-385h231z" />
    <glyph glyph-name="SF530000" unicode="&#x256b;" 
d="M536 354v-61h-169v-493h-61v493h-60v-493h-61v493h-185v61h185v446h61v-446h60v446h61v-446h169z" />
    <glyph glyph-name="SF440000" unicode="&#x256c;" 
d="M246 800v-446h-246v61h185v385h61zM536 415v-61h-230v446h61v-385h169zM536 292v-61h-169v-431h-61v492h230zM246 292v-492h-61v431h-185v61h246z" />
    <glyph glyph-name="upblock" unicode="&#x2580;" 
d="M0 800h536v-507h-536v507z" />
    <glyph glyph-name="uni2581" unicode="&#x2581;" 
d="M0 -57h536v-143h-536v143z" />
    <glyph glyph-name="uni2582" unicode="&#x2582;" 
d="M0 70h536v-270h-536v270z" />
    <glyph glyph-name="uni2583" unicode="&#x2583;" 
d="M0 186h536v-386h-536v386z" />
    <glyph glyph-name="dnblock" unicode="&#x2584;" 
d="M0 312h536v-512h-536v512z" />
    <glyph glyph-name="uni2585" unicode="&#x2585;" 
d="M0 454h536v-654h-536v654z" />
    <glyph glyph-name="uni2586" unicode="&#x2586;" 
d="M0 580h536v-780h-536v780z" />
    <glyph glyph-name="uni2587" unicode="&#x2587;" 
d="M0 702h536v-902h-536v902z" />
    <glyph glyph-name="block" unicode="&#x2588;" 
d="M0 800h536v-1000h-536v1000z" />
    <glyph glyph-name="uni2589" unicode="&#x2589;" 
d="M0 148h536v-346h-536v346z" />
    <glyph glyph-name="uni258A" unicode="&#x258a;" 
d="M0 801h408v-999h-408v999z" />
    <glyph glyph-name="lfblock" unicode="&#x258c;" 
d="M1 801h275v-1000h-275v1000z" />
    <glyph glyph-name="NameMe.806" unicode="&#x258d;" 
d="M0 801h201v-999h-201v999z" />
    <glyph glyph-name="NameMe.807" unicode="&#x258e;" 
d="M0 801h141v-999h-141v999z" />
    <glyph glyph-name="uni258F" unicode="&#x258f;" 
d="M0 801h68v-999h-68v999z" />
    <glyph glyph-name="rtblock" unicode="&#x2590;" 
d="M276 801h260v-1001h-260v1001z" />
    <glyph glyph-name="ltshade" unicode="&#x2591;" 
d="M0 523v54l242 223h59zM0 333l507 467h29v-28l-536 -493v54zM0 17v54l536 494v-55zM0 -169l536 494v-55l-510 -470h-26v31zM0 774v26h28zM301 -200h-59l294 271v-55zM505 -200l31 29v-29h-31z" />
    <glyph glyph-name="shade" unicode="&#x2592;" 
d="M0 489v122l206 190h133zM0 367l471 434h65v-63l-536 -493v122zM0 -17v122l536 494v-123zM0 -135l536 494v-123l-472 -435h-64v64zM0 740v61h66zM339 -199h-133l330 304v-123zM469 -199l67 62v-62h-67z" />
    <glyph glyph-name="dkshade" unicode="&#x2593;" 
d="M0 455v190l168 155h207zM0 401l433 399h103v-96l-536 -493v190zM0 -51v190l536 494v-191zM0 -101l536 494v-191l-437 -402h-99v99zM0 707v93h102zM375 -200h-207l368 339v-191zM431 -200l105 97v-97h-105z" />
    <glyph glyph-name="uni2594" unicode="&#x2594;" 
d="M0 801h536v-133h-536v133z" />
    <glyph glyph-name="NameMe.795" unicode="&#x2595;" 
d="M483 801h51v-999h-51v999z" />
    <glyph glyph-name="NameMe.796" unicode="&#x2596;" 
d="M274 -195h-274v488h274v-488z" />
    <glyph glyph-name="NameMe.797" unicode="&#x2597;" 
d="M274 -198v491h261v-491h-261z" />
    <glyph glyph-name="NameMe.798" unicode="&#x2598;" 
d="M274 293h-274v507h274v-507z" />
    <glyph glyph-name="NameMe.799" unicode="&#x2599;" 
d="M0 801h275v-508h261v-493h-535v2h-1v999z" />
    <glyph glyph-name="NameMe.800" unicode="&#x259a;" 
d="M274 293h-274v507h274v-507zM275 293h261v-491h-261v491z" />
    <glyph glyph-name="NameMe.801" unicode="&#x259b;" 
d="M0 802h536v-509h-262v-491h-275v999h1v1z" />
    <glyph glyph-name="NameMe.802" unicode="&#x259c;" 
d="M0 802h536v-509h-2v-491h-260v491h-274v509z" />
    <glyph glyph-name="NameMe.803" unicode="&#x259d;" 
d="M274 801h260v-508h-260v508z" />
    <glyph glyph-name="NameMe.804" unicode="&#x259e;" 
d="M276 801h260v-508h-260v508zM274 -195h-274v488h274v-488z" />
    <glyph glyph-name="NameMe.805" unicode="&#x259f;" 
d="M274 801h260v-508h1v-493h-535v493h274v508z" />
    <glyph glyph-name="filledbox" unicode="&#x25a0;" 
d="M74 506h388v-388h-388v388z" />
    <glyph glyph-name="uni25B4" unicode="&#x25b4;" 
d="M474 272h-414l213 322z" />
    <glyph glyph-name="uni25BE" unicode="&#x25be;" 
d="M474 594l-201 -322l-213 322h414z" />
    <glyph glyph-name="H18533" unicode="&#x25cf;" 
d="M60 346q0 86 61 147t147 61t147 -61t61 -147t-61 -147t-147 -61t-147 61t-61 147z" />
    <glyph glyph-name="heart" unicode="&#x2665;" 
d="M268 420q4 4 10 12.5t10 12t14.5 8.5t26.5 9q16 2 24 2q36 0 56 -10q14 -6 28 -20.5t18 -29.5q7 -26 7 -38q0 -2 -0.5 -5t-0.5 -4q-3 -26 -24 -63q-4 -8 -11.5 -21t-10.5 -19t-9.5 -16t-11.5 -16.5t-12.5 -15.5t-16.5 -18q-16 -16 -42 -39t-32 -29l-22 -21l-24 21
q-6 6 -32 29t-42 39q-11 11 -19 20t-15.5 21t-11 17.5t-13 23t-13.5 24.5q-21 37 -24 63q0 1 -0.5 4t-0.5 5q0 12 7 38q4 15 18 29.5t28 20.5q20 10 56 10q8 0 24 -2q16 -4 26.5 -9t14.5 -8.5t10 -12t10 -12.5z" />
    <glyph glyph-name="uni2693" unicode="&#x2693;" 
d="M244 659h60v-159h110v-60h-110v-292q10 3 21 9t21 11.5t27 17t27.5 18.5t34.5 24.5t38 26.5l34 -50q-141 -99 -203 -112v-42h-60v41q-38 7 -83.5 33t-122.5 81l34 48q8 -6 24 -17t23 -16t20 -14t19 -13l16.5 -11t16.5 -10.5t14 -8.5t14 -7.5t12.5 -5t12.5 -4.5v293h-126
v60h126v159z" />
    <glyph glyph-name="uni270E" unicode="&#x270e;" 
d="M107 392l135 134l-22 22h-22l-113 -117v-17zM233 265l135 135l-91 90l-134 -134zM215 212l-173 175q-7 7 -7 17v37q0 10 7 17l128 133q7 7 18 7h42q11 0 18 -7q42 -44 173 -173q5 -5 7 -12q8 -36 24.5 -108t25.5 -108q0 -1 0.5 -3t0.5 -3q0 -19 -19 -24h-11l-221 45
q-8 2 -13 7zM409 266zM390 351l-107 -106l87 -18l39 39z" />
    <glyph glyph-name="uni2714" unicode="&#x2714;" 
d="M60 304q9 9 21 9t21 -9l123 -123l182 293q10 15 26 15q8 0 16 -5q14 -9 14 -26q0 -8 -5 -16l-202 -325l-2 -2q-1 -2 -2 -3q-9 -9 -21 -9t-21 9l-150 150q-9 9 -9 21t9 21z" />
    <glyph glyph-name="uni2716" unicode="&#x2716;" 
d="M74 428l84 85l109 -108l108 108l85 -85l-108 -108l108 -109l-85 -84l-108 108l-109 -108l-84 84l108 109z" />
    <glyph glyph-name="uni2718" unicode="&#x2718;" 
d="M76 373v94l163 -95l237 239v-113l-166 -168l124 -72v-92l-182 105l-198 -199v113l126 128z" />
    <glyph glyph-name="uni273C" unicode="&#x273c;" 
d="M267 426l-33 150q0 13 9.5 20.5t22.5 7.5q14 0 23.5 -7.5t9.5 -20.5zM302 406l113 104q8 4 13 4q13 0 23 -12t10 -26q0 -15 -13 -22zM302 366l146 -46q13 -9 13 -24q0 -13 -9.5 -25t-22.5 -12q-8 0 -13 4zM267 346l33 -150q0 -13 -9.5 -20.5t-22.5 -7.5q-14 0 -23.5 7.5
t-9.5 20.5zM232 366l-113 -104q-8 -4 -13 -4q-13 0 -23 12t-10 26q0 15 13 22zM232 406l-146 46q-13 9 -13 24q0 13 9.5 25t22.5 12q8 0 13 -4z" />
    <glyph glyph-name="uni2753" unicode="&#x2753;" 
d="M116 477h-60v92q0 12 9 21l63 62q8 8 21 8h237q12 0 21 -9l63 -63q9 -9 9 -21v-61q0 -12 -10 -22l-183 -172v-80h-60v93q0 13 9 22l184 172v36l-46 45h-212l-45 -44v-79zM222 178h67v-61h-67v61z" />
    <glyph glyph-name="uni27EA" unicode="&#x27ea;" 
d="M247 561l43 -42l-191 -194l191 -192l-43 -42l-211 213q-9 9 -9 22q0 11 9 20zM430 560l43 -42l-191 -194l191 -192l-43 -42l-211 213q-8 8 -8 21q0 12 8 21z" />
    <glyph glyph-name="uni27EB" unicode="&#x27eb;" 
d="M286 561l211 -215q8 -9 8 -21q0 -13 -8 -21l-211 -213l-43 42l190 192l-190 194zM102 560l212 -215q8 -8 8 -20t-8 -22l-212 -213l-42 42l190 192l-190 194z" />
    <glyph glyph-name="uni27F3" unicode="&#x27f3;" 
d="M440 474v120q0 12 9 21t21 9t21 -9t9 -21v-212q0 -12 -9 -21t-21 -9h-210q-12 0 -21 9t-9 21t9 21t21 9h104h11h32q-18 42 -56 67.5t-85 25.5q-64 0 -109 -45t-45 -109t45 -109t109 -45q48 0 87 27.5t56 70.5h63q-19 -69 -76 -113.5t-130 -44.5q-88 0 -151 62.5
t-63 151.5t63 151.5t151 62.5q109 0 174 -91z" />
    <glyph glyph-name="uni2934" unicode="&#x2934;" 
d="M212 336h-122l152 180l152 -180h-122v-179q0 -9 -7 -16l-52 -52q-9 -9 -23 -9h-100v50h85l37 36v170z" />
    <glyph glyph-name="uni2935" unicode="&#x2935;" 
d="M272 260h122l-152 -180l-152 180h122v170l-37 36h-85v50h100q14 0 23 -9l52 -52q7 -7 7 -16v-179z" />
    <glyph glyph-name="uni2936" unicode="&#x2936;" 
d="M374 292h-107v-121l-181 152l181 153v-124h97l36 36v85h50v-99q0 -15 -8 -23l-52 -52q-7 -7 -16 -7z" />
    <glyph glyph-name="uni2937" unicode="&#x2937;" 
d="M162 292q-9 0 -16 7l-52 52q-8 8 -8 23v99h50v-85l36 -36h97v124l181 -153l-181 -152v121h-107z" />
    <glyph glyph-name="uni2B06" unicode="&#x2b06;" 
d="M272 129h-60v289h-122l152 180l152 -180h-122v-289z" />
    <glyph glyph-name="uni2B07" unicode="&#x2b07;" 
d="M212 597h60v-289h122l-152 -180l-152 180h122v289z" />
    <glyph glyph-name="uni2B60" unicode="&#x2b60;" 
d="M130 751h60v-364h-60v364zM190 61h-60v194q0 14 12 24l160 125v148h-46l76 180l76 -180h-46v-163q0 -15 -12 -24l-160 -125v-179z" />
    <glyph glyph-name="uni2B61" unicode="&#x2b61;" 
d="M244 323h60l92 -152v152h61v-304l-59 1l-94 151v-152h-60v304zM92 691h61v-244h123v-60h-184v304z" />
    <glyph glyph-name="uni2B62" unicode="&#x2b62;" 
d="M204 558h174v-45h-174v-218h56v92h90v43h-90v40h118v-118q-4 -4 -14 -7q-9 -3 -14 -3h-46v-47q0 -20 -12 -32q-13 -13 -32 -13h-56q-19 0 -32 13q-14 14 -14 32v218q0 18 14 32q13 13 32 13z" />
    <glyph glyph-name="uni2B63" unicode="&#x2b63;" 
d="M158 558h174q19 0 32 -13q14 -14 14 -32v-43q0 -17 -14 -31q-13 -13 -32 -13h-26v-131q0 -18 -14 -32q-13 -13 -32 -13h-56q-19 0 -32 13q-14 14 -14 32v57v118h46v-175h56v175h72v43h-174v45z" />
    <glyph glyph-name="uni2B64" unicode="&#x2b64;" 
d="M268 593q18 0 29 -5q14 -6 22 -14q6 -6 14 -20q6 -10 9 -21q2 -6 4 -20q2 -12 2 -14v-5v-61h60v-60v-9q0 -6 -3 -22q-2 -14 -8 -32q-5 -15 -15 -33q-12 -20 -25 -32q-14 -13 -37 -22q-22 -9 -52 -9q-26 0 -42 5q-18 5 -32 15q-14 9 -24 21q-14 16 -18 25q-1 3 -4 8.5
t-5 10t-3 8.5q-3 9 -7 25q-1 5 -2 12.5t-1 8.5q-2 12 -2 15v5v60h60v61v5q0 1 0.5 3t1 5t0.5 6q2 14 4 20q3 9 9 21q4 8 14 20q6 7 21 14q11 5 30 5zM268 553q-10 0 -17 -3t-11 -11q-5 -10 -7 -15q-1 -3 -3 -25q-2 -24 -2 -29v-37h80v37q0 18 -1 29q-2 19 -4 25q-5 13 -7 16
q-4 6 -11 10q-6 3 -17 3zM268 393q-9 0 -16 -7q-8 -8 -11 -19t-3 -24t3 -24q3 -10 11 -18t16 -8t16 8t11 18q3 11 3 24t-3 24t-11 19q-7 7 -16 7z" />
    <glyph glyph-name="uni2B80" unicode="&#x2b80;" 
d="M11 796l475 -497l-470 -497h-14v994h9z" />
    <glyph glyph-name="uni2B81" unicode="&#x2b81;" 
d="M8 789q7 7 16 7q11 0 16 -8l412 -472q6 -6 6 -17t-6 -17l-412 -473q-5 -7 -16 -7q-10 0 -16 6q-8 12 -8 18q0 11 6 17l397 456l-397 456q-6 6 -6 19q0 3 8 15z" />
    <glyph glyph-name="uni2B82" unicode="&#x2b82;" 
d="M536 796v-994l-458 497z" />
    <glyph glyph-name="uni2B83" unicode="&#x2b83;" 
d="M524 789q8 -8 8 -15q0 -13 -6 -19l-397 -456l397 -456q6 -6 6 -17q0 -6 -8 -18q-6 -6 -17 -6q-9 0 -14 7l-413 473q-6 6 -6 17q0 8 6 17l413 472q5 8 14 8q10 0 17 -7z" />
    <glyph glyph-name="uniE0A0" unicode="&#xe0a0;" 
d="M130 751h60v-364h-60v364zM190 61h-60v194q0 14 12 24l160 125v148h-46l76 180l76 -180h-46v-163q0 -15 -12 -24l-160 -125v-179z" />
    <glyph glyph-name="uniE0A1" unicode="&#xe0a1;" 
d="M244 323h60l92 -152v152h61v-304l-59 1l-94 151v-152h-60v304zM92 691h61v-244h123v-60h-184v304z" />
    <glyph glyph-name="uniE0A2" unicode="&#xe0a2;" 
d="M268 688q25 0 44 -8q23 -10 32 -21q11 -10 22 -30q7 -12 13 -31q5 -16 6 -30q0 -4 1.5 -11t1.5 -10v-8v-91h90v-90v-14q0 -3 -0.5 -7t-1.5 -11.5t-2 -14.5q-1 -5 -3.5 -15l-4.5 -18t-4 -15q-8 -25 -23 -49q-19 -32 -37 -48q-22 -19 -56 -33t-78 -14q-38 0 -63 8
q-30 9 -48 22t-36 32q-20 22 -27 37q-1 2 -8.5 17.5t-9.5 23.5q-8 27 -10 37q-2 6 -5 32q0 4 -1.5 11.5t-1.5 10.5v8v90h90v91v8q0 1 1 8t2 13q2 17 6 30q5 15 13 31q6 12 22 30q8 10 31 21q17 8 45 8zM268 628q-13 0 -26 -5q-11 -5 -16 -16q-10 -22 -10 -23q-3 -6 -5 -37
q0 -7 -1.5 -22t-1.5 -22v-55h120v55q0 27 -2 44q-2 30 -6 37q-3 12 -10 24q-5 9 -16 15q-10 5 -26 5zM268 388q-13 0 -24 -11q-13 -11 -16 -28q-5 -14 -5 -36q0 -23 5 -36q3 -15 16 -27q12 -12 24 -12t24 12q13 12 16 27q5 13 5 36q0 22 -5 36q-3 17 -16 28q-11 11 -24 11z
" />
    <glyph glyph-name="uniE0B0" unicode="&#xe0b0;" 
d="M9 796l458 -497l-458 -497h-9v994h9z" />
    <glyph glyph-name="uniE0B1" unicode="&#xe0b1;" 
d="M8 789q7 7 16 7q11 0 16 -8l412 -472q6 -6 6 -17t-6 -17l-412 -473q-5 -7 -16 -7q-10 0 -16 6q-8 12 -8 18q0 11 6 17l397 456l-397 456q-6 6 -6 19q0 3 8 15z" />
    <glyph glyph-name="NameMe.837" unicode="&#xf100;" 
d="M437 350q4 0 4 -13q0 -27 -19 -35zM353 362q-1 -3 -2 -1q-1 5 -2 5q3 9 4 3v-7zM338 322q0 1 -1.5 1.5l-3 1t-0.5 4t7 10.5q-3 -8 -2 -10q2 -4 7 6q2 4 2 8q5 -10 -9 -21zM296 311q13 0 19 2q-5 -5 -8 -7l-14 5h3zM270 565h8q4 -1 4.5 -1t-2.5 -2h-1q1 1 -6 2zM220 306
v-9q-3 5 -7 17q1 -2 7 -8zM211 301l6 -10t4.5 -8.5t3.5 -7.5q-1 1 -14 19v7zM84 459q4 5 4 1q0 -2 -3 -9q-5 -4 -6 -3q-1 3 5 11zM71 407l-1 7q-1 8 4 10q0 -2 -1 -7zM231 555q-1 -1 -1.5 -2t0.5 -2q3 0 12 2.5t12 2.5q-2 -1 -5 -3t-5 -3h1q5 0 26.5 -2.5t22.5 -2.5v6
q4 -2 16 -6t19.5 -7t19.5 -9t23 -13q2 -1 2 1q1 7 -4 11q23 -12 50 -51.5t27 -68.5q0 -1 -0.5 -3.5t-0.5 -3.5q-14 43 -18 47l6 -36q-7 4 -8 4q7 -25 7 -49q0 -12 -1 -17q-1 2 -2 6t-2 6q-1 -6 -1.5 -13.5t-1.5 -14.5q-1 10 -4 10q-6 -25 -18.5 -42.5t-17.5 -21t-18 -10.5
q-24 -14 -71 -14q-2 0 -4 0.5t-3 0.5q5 -2 9 -4t6 -2.5t6.5 -1.5t13.5 -1q-9 -3 -20 -3q-51 0 -83 47q1 0 10 -6.5t21 -12.5t21 -7q-21 15 -36.5 40.5t-15.5 52.5q0 21 13 40q21 27 59 27q32 0 45 -22q-14 17 -36 17q-28 0 -52 -17t-24 -43v-5q4 -36 25 -60.5t56 -24.5
q16 0 25 2q8 1 11.5 3.5t7.5 6.5t8 7q-3 -7 0 -7q29 30 37 51t8 68q0 43 -39 75.5t-96 32.5q-8 0 -26 -2l11 5q-14 -1 -20.5 -3t-13.5 -6.5t-14 -7.5q-2 -1 -1 -1t4 1h7l-4 -3q-4 -2 -10.5 -2t-13 -3t-14.5 -12q1 -2 13 3l1 -1q-51 -34 -71.5 -65t-20.5 -94q0 -23 5.5 -35.5
t16.5 -25.5t17 -29q-5 3 -8 6v-1q0 -13 19 -37h-9q4 -8 15 -18t12 -11v4q17 -29 34 -38v-6l4.5 -3t2.5 -2l1.5 -1.5l1 -1t2 -1t4 -2t6.5 -2.5v7q20 -29 67 -32q-92 4 -155.5 76.5t-63.5 165.5q0 20 5 47q6 28 31 71t52 72l-1 -11q27 24 76 44z" />
    <glyph glyph-name="uniFF00" unicode="&#xff00;" 
 />
    <glyph glyph-name="uniFF01" unicode="&#xff01;" 
d="M237 110h62v-61h-62v61zM237 659h61v-428h-61v428z" />
    <glyph glyph-name="uniFF02" unicode="&#xff02;" 
d="M115 659h62v-183h-62v183zM298 659h61v-183h-61v183z" />
    <glyph glyph-name="uniFF03" unicode="&#xff03;" 
d="M298 476h-121v-123h121v123zM115 598h62v-61h121v61h61v-62h61v-60h-61v-123h61v-60h-61v-60h-61v60h-121v-61h-62v61h-62v61h62v122h-62v61h62v61z" />
    <glyph glyph-name="uniFF04" unicode="&#xff04;" 
d="M486 538v-60h-184v-123h90q13 0 22 -9l62 -62q8 -8 8 -21v-64q0 -13 -8 -21l-60 -60q-9 -9 -22 -9h-92v-120h-60v120h-178v60h178v126h-91q-12 0 -21 9l-60 60q-9 9 -9 21v63q0 12 9 21l60 60q9 9 21 9h91v120h60v-120h184zM242 478h-78l-43 -43v-38l43 -42h78v123z
M302 169h80l42 42v39l-44 45h-78v-126z" />
    <glyph glyph-name="uniFF05" unicode="&#xff05;" 
d="M70 118q-9 9 -9 21t9 21l365 365q7 9 21 9q12 0 21 -9q9 -7 9 -21q0 -13 -9 -21l-365 -365q-9 -9 -21 -9t-21 9zM360 81q0 -15 10 -25.5t25 -10.5q14 0 24.5 10.5t10.5 25.5t-10 24.5t-25 9.5t-25 -9.5t-10 -24.5zM303 80q0 38 27 65.5t64 27.5t64 -27.5t27 -65.5
t-27 -65.5t-64 -27.5t-64 27.5t-27 65.5zM117 564q0 -15 10 -25.5t25 -10.5q14 0 24.5 10.5t10.5 25.5t-10 24.5t-25 9.5t-25 -9.5t-10 -24.5zM60 563q0 38 27 65.5t64 27.5t64 -27.5t27 -65.5t-27 -65.5t-64 -27.5t-64 27.5t-27 65.5z" />
    <glyph glyph-name="uniFF06" unicode="&#xff06;" 
d="M186 242l-5 5q-1 1 -2 3t-2 3v7v38h-36l-27 -39v-107l41 -42h101l31 31zM65 368q-1 1 -3 2.5t-2 2.5v2v3v3v3v123v4v3v4v3q1 1 4 3l3 3l55 59q4 4 6 5q1 1 3.5 2t3.5 1h8h67q5 0 7 -1q1 -1 3.5 -2t3.5 -1l1 -1q1 -1 2 -1t1 -1l2 -1l56 -55q0 -1 1 -1l1 -2q2 -2 2 -3
t1 -3.5t2 -3.5q1 -2 1 -7v-124q0 -1 1.5 -2t1.5 -2t-0.5 -2t-0.5 -2t-1 -3.5t-1 -3.5l-1 -1q-1 -1 -1 -2l-3 -3l-56 -57v-34l95 -93l105 104l41 -40l-106 -105l103 -102l-40 -39l-103 101l-40 -40q-4 -4 -6 -5q-1 0 -3.5 -1t-3.5 -2h-8h-124h-7q-1 1 -3 2t-3 2q0 1 -1 1
t-2 1l-1 1q-2 0 -2 1l-60 59q-2 2 -4 6q0 1 -2 3.5t-2 3.5q-1 2 0 4.5t1 3.5v127v3v3l1 1q2 1 2 2v2v2.5v2.5l32 44zM237 398v100l-39 40h-43l-39 -42v-103l23 -33h62z" />
    <glyph glyph-name="uniFF07" unicode="&#xff07;" 
d="M244 659h61v-183h-61v183z" />
    <glyph glyph-name="uniFF08" unicode="&#xff08;" 
d="M192 470l125 119q11 9 20 9q12 0 20 -10q9 -9 9 -21q0 -11 -9 -20l-116 -113v-220l117 -116q9 -7 9 -21q0 -11 -9 -19q-9 -9 -20 -9q-12 0 -20 9l-125 125q-9 9 -9 19v244q0 16 8 24z" />
    <glyph glyph-name="uniFF09" unicode="&#xff09;" 
d="M359 470q8 -8 8 -24v-244q0 -10 -9 -19l-125 -125q-8 -9 -20 -9q-11 0 -20 9q-9 8 -9 19q0 13 9 21l117 116v220l-116 113q-9 9 -9 20q0 12 9 21q8 10 20 10q9 0 20 -9z" />
    <glyph glyph-name="uniFF0A" unicode="&#xff0a;" 
d="M237 354h61v-184h-61v184zM237 598h61v-184h-61v184zM431 528l43 -42l-99 -100l101 -104l-43 -42l-143 146zM105 528l141 -142l-143 -146l-42 42l101 104l-99 100z" />
    <glyph glyph-name="uniFF0B" unicode="&#xff0b;" 
d="M237 537h61v-183h183v-61h-183v-184h-61v184h-183v61h183v183z" />
    <glyph glyph-name="uniFF0C" unicode="&#xff0c;" 
d="M358 83q0 -1 0.5 -4t0.5 -4q0 -3 -2 -7l-6 -12l-3 -6q-1 -2 -5 -6l-116 -115l-83 79l93 99v64h121v-88z" />
    <glyph glyph-name="uniFF0D" unicode="&#xff0d;" 
d="M115 354h306v-61h-306v61z" />
    <glyph glyph-name="uniFF0E" unicode="&#xff0e;" 
d="M177 171h121v-122h-121v122z" />
    <glyph glyph-name="uniFF0F" unicode="&#xff0f;" 
d="M70 118q-9 9 -9 21t9 21l365 365q7 9 21 9q12 0 21 -9q9 -7 9 -21q0 -13 -9 -21l-365 -365q-9 -9 -21 -9t-21 9z" />
    <glyph glyph-name="uniFF10" unicode="&#xff10;" 
d="M265 444q12 0 21 -9t9 -21v-123q0 -12 -9 -21t-21 -9q-13 0 -21.5 9t-8.5 21v123q0 12 8.5 21t21.5 9zM117 495v-282l104 -104h92l103 102v284l-106 105h-87zM66 528l124 123q8 9 21 9h112q12 0 21 -9l123 -123q9 -8 9 -21v-308q0 -14 -9 -21l-120 -120q-9 -9 -21 -9
h-117q-14 0 -21 9l-122 122q-9 9 -9 21v306q0 14 9 21z" />
    <glyph glyph-name="uniFF11" unicode="&#xff11;" 
d="M249 648q10 10 20 10q3 0 11 -4q18 -8 18 -26v-579h-57v508l-89 -92l-42 39z" />
    <glyph glyph-name="uniFF12" unicode="&#xff12;" 
d="M117 476h-60v32q0 12 9 21l121 122q9 9 21 9h177q12 0 21 -9l61 -61q9 -9 9 -21v-125q0 -12 -9 -21l-307 -314h316v-60h-389q-12 0 -21 9t-9 21t9 21l350 356v101l-43 43h-152l-104 -104v-20z" />
    <glyph glyph-name="uniFF13" unicode="&#xff13;" 
d="M119 600v60h357v-93q0 -12 -9 -21l-133 -133q5 -1 10 -6l122 -122q9 -9 9 -21v-67q0 -12 -9 -21l-117 -117q-9 -9 -21 -9h-184q-12 0 -21 9l-66 66l42 42l57 -57h160l99 99v42l-104 105h-47q-12 0 -21 9t-9 21t9 21l173 172v21h-297z" />
    <glyph glyph-name="uniFF14" unicode="&#xff14;" 
d="M419 292h56v-60h-56v-183h-60v183h-272q-12 0 -21 9t-9 21v124q0 12 9 21l240 244q7 9 21 9h62q12 0 21 -9t9 -21v-338zM359 292v308h-19l-223 -226v-82h242z" />
    <glyph glyph-name="uniFF15" unicode="&#xff15;" 
d="M476 660v-60h-359v-123h209q12 0 21 -9l120 -120q9 -7 9 -21v-126q0 -12 -9 -21l-121 -121q-7 -9 -21 -9h-265v60h253l103 104v101l-102 102h-257v243h419z" />
    <glyph glyph-name="uniFF16" unicode="&#xff16;" 
d="M57 198v1v306q0 12 9 21l133 133l42 -42l-124 -124v-161l75 75q9 9 21 9h125q12 0 21 -9l119 -121q9 -9 9 -21v-64q0 -12 -9 -21l-124 -124q-9 -9 -21 -9h-124q-12 0 -21 9l-122 122zM117 247v-36l104 -104h100l106 106v40l-102 103h-100z" />
    <glyph glyph-name="uniFF17" unicode="&#xff17;" 
d="M230 49h-60v275q0 14 9 21l237 237v18h-359v60h419v-90q0 -14 -9 -21l-237 -237v-263z" />
    <glyph glyph-name="uniFF18" unicode="&#xff18;" 
d="M126 583l57 66q1 1 3 2.5t3 2.5q1 0 3 2t4 3h9h122h8q1 -1 4 -2t4 -1l5 -5l58 -60q4 -4 5 -6q1 -1 2 -3.5t1 -3.5q1 -2 1 -7v-125q0 -4 -2 -8l-3 -6q-1 -2 -5 -6l-36 -34l100 -107q1 -1 4 -7q1 -1 1 -3.5t1 -3.5q1 -3 1 -6v-65q0 -1 -3 -7l-3 -6l-3 -6l-121 -119
q-1 -1 -2.5 -3.5t-2.5 -3.5t-3.5 0t-3.5 0h-7h-123h-8q-1 1 -3.5 2.5t-3.5 1.5l-6 3l-117 119q-3 3 -5 7q0 1 -1.5 3t-2.5 3q-1 0 -0.5 3t0.5 4v65v6q1 1 3 3.5t2 3.5q1 2 5 6l98 105l-38 34q-1 1 -2.5 2t-2.5 2t-1 2l-4 8v8v119l3 6q0 1 1 3.5t1 3.5q1 2 4 5zM117 254v-41
l99 -103h99l103 104v40l-103 109h-95zM176 554v-96l43 -39h97l40 39v102l-41 42h-97z" />
    <glyph glyph-name="uniFF19" unicode="&#xff19;" 
d="M416 433l-130 -130q-7 -9 -21 -9h-121q-12 0 -21 9l-57 57q-9 7 -9 21v127q0 14 9 21l122 122q7 9 21 9h176q13 0 21 -9l61 -62q9 -9 9 -21v-428q0 -12 -9 -21l-70 -70l-42 42l61 61v281zM416 517v39l-44 44h-151l-104 -104v-103l39 -39h97z" />
    <glyph glyph-name="uniFF1A" unicode="&#xff1a;" 
d="M177 415h121v-122h-121v122zM177 171h121v-122h-121v122z" />
    <glyph glyph-name="uniFF1B" unicode="&#xff1b;" 
d="M359 83q0 -5 -2 -15l-6 -12q-4 -8 -8 -12l-116 -115l-83 79l93 99v64h121zM237 415h122v-122h-122v122z" />
    <glyph glyph-name="uniFF1C" unicode="&#xff1c;" 
d="M411 99q8 -10 8 -22q0 -10 -9 -21q-7 -8 -21 -10q-11 -1 -21 4l-243 245v56l242 247q12 6 20 5q11 -1 18 -9q8 -7 10 -21q2 -12 -4 -22l-228 -228z" />
    <glyph glyph-name="uniFF1D" unicode="&#xff1d;" 
d="M54 476h427v-61h-427v61zM54 293h427v-62h-427v62z" />
    <glyph glyph-name="uniFF1E" unicode="&#xff1e;" 
d="M133 99l228 224l-228 228q-6 10 -4 22q2 14 10 21q7 8 18 9q8 1 20 -5l242 -247v-56l-243 -245q-10 -5 -21 -4q-14 2 -21 10q-9 11 -9 21q0 12 8 22z" />
    <glyph glyph-name="uniFF1F" unicode="&#xff1f;" 
d="M169 477h-60v92q0 12 9 21l63 62q8 8 21 8h184q12 0 21 -9l63 -63q9 -9 9 -21v-61q0 -12 -10 -22l-183 -172v-80h-60v93q0 13 9 22l184 172v36l-46 45h-159l-45 -44v-79zM222 111h67v-61h-67v61z" />
    <glyph glyph-name="uniFF20" unicode="&#xff20;" 
d="M298 353v59h-16l-43 -43v-17zM358 352h23l39 40v164l-40 40h-221l-42 -42v-405l37 -38h322v-60h-334q-13 0 -22 9l-55 55q-8 8 -8 21v430q0 13 8 21l60 60q9 9 22 9h245q13 0 22 -9l58 -58q8 -8 8 -21v-189q0 -13 -8 -21l-57 -57q-9 -9 -21 -9h-185q-12 0 -21 9t-9 21v59
q0 13 8 21l61 61q9 9 22 9h58q12 0 21 -9t9 -21v-90z" />
    <glyph glyph-name="uniFF21" unicode="&#xff21;" 
d="M116 232v-183h-59v338q0 11 9 20l180 181q8 9 20 9q14 0 23 -9l183 -182q8 -8 8 -21v-336h-60l1 183h-305zM117 293h303v80l-153 152l-150 -151v-81z" />
    <glyph glyph-name="uniFF22" unicode="&#xff22;" 
d="M118 109v429h-61v60h273q10 0 22 -9l120 -125q8 -8 8 -20q0 -14 -9 -23l-101 -97l101 -99q9 -9 9 -20q0 -13 -9 -22l-122 -125q-9 -9 -21 -9h-271v60h61zM316 293h-137v-184h136l93 94zM315 354l93 90l-91 94h-138v-184h136z" />
    <glyph glyph-name="uniFF23" unicode="&#xff23;" 
d="M480 529l-42 -42l-53 51h-104l-164 -164v-101l165 -163l102 -1l52 55l44 -42l-61 -64q-9 -9 -22 -9h-127q-11 0 -21 10l-183 180q-9 9 -9 21v126q0 13 8 21l183 182q9 9 21 9h128q13 0 21 -8z" />
    <glyph glyph-name="uniFF24" unicode="&#xff24;" 
d="M179 110h138l103 103v220l-103 104l-138 1v-428zM118 538h-61v60l273 -1q12 0 21 -9l120 -122q9 -9 9 -21v-244q0 -13 -9 -22l-121 -120q-9 -9 -21 -9l-272 -1v60h61v429z" />
    <glyph glyph-name="uniFF25" unicode="&#xff25;" 
d="M57 598h423v-61h-362v-183h240v-61h-240v-184h362v-60h-423v549z" />
    <glyph glyph-name="uniFF26" unicode="&#xff26;" 
d="M57 598h423v-61h-362v-183h302v-61h-302v-244h-61v549z" />
    <glyph glyph-name="uniFF27" unicode="&#xff27;" 
d="M238 293h243v-60l-63 -1l-1 -152q0 -10 -8 -19.5t-22 -9.5h-180q-13 0 -21 8l-120 119q-9 9 -9 21v248q0 13 8 21l120 121q7 9 21 9h123q13 0 22 -9l60 -61l-43 -42l-51 52h-98l-102 -103v-223l102 -101h139v121l-120 -1v62z" />
    <glyph glyph-name="uniFF28" unicode="&#xff28;" 
d="M57 598h61v-244h302v244h60v-549h-60v244h-302v-244h-61v549z" />
    <glyph glyph-name="uniFF29" unicode="&#xff29;" 
d="M177 598h182v-61h-61v-428h61v-61l-183 1v61l61 -1v428h-61z" />
    <glyph glyph-name="uniFF2A" unicode="&#xff2a;" 
d="M57 230l60 2l2 -81l42 -41h99l42 43v384h-61v61h183v-61h-62v-396q0 -13 -8 -21l-59 -61q-9 -9 -22 -9h-124q-13 0 -21 8l-60 58q-9 9 -9 21z" />
    <glyph glyph-name="uniFF2B" unicode="&#xff2b;" 
d="M120 188v-139h-63v549h63v-324l301 304v19h60v-31q0 -12 -9 -21l-221 -222l222 -222q9 -9 9 -21v-31h-60v19l-213 213z" />
    <glyph glyph-name="uniFF2C" unicode="&#xff2c;" 
d="M57 598h61v-489h362v-60h-423v549z" />
    <glyph glyph-name="uniFF2D" unicode="&#xff2d;" 
d="M298 370v-76h-61v76l-123 124v-445h-60v517q0 20 19 28q4 2 11 2q12 0 21 -9l161 -161l163 163q9 9 21 9q7 0 11 -2q19 -8 19 -28v-521h-60v449z" />
    <glyph glyph-name="uniFF2E" unicode="&#xff2e;" 
d="M54 49v549h61l305 -306v306h60v-548h-60v150l-305 308v-460z" />
    <glyph glyph-name="uniFF2F" unicode="&#xff2f;" 
d="M116 494l-2 -344l41 -40h222l43 43v340l-43 44l-221 1zM64 526l57 62q9 10 22 10l247 -1q15 0 22 -9l60 -62q8 -8 8 -21v-365q0 -14 -9 -21l-61 -60q-9 -9 -21 -9h-246q-13 0 -21 8l-59 57q-9 9 -9 22l2 369q0 12 8 20z" />
    <glyph glyph-name="uniFF30" unicode="&#xff30;" 
d="M116 293h200l104 105l-1 39l-102 101l-201 -1v-244zM116 231v-183h-62v550h275q12 0 21 -9l120 -118q9 -9 9 -21l1 -64q0 -12 -9 -21l-121 -123q-9 -9 -21 -9z" />
    <glyph glyph-name="uniFF31" unicode="&#xff31;" 
d="M375 83l101 -109l-44 -40l-108 118h-119q-12 0 -21 9l-121 119q-9 9 -9 21v247q0 12 9 21l120 120q9 9 21 9h128q12 0 21 -9l118 -122q9 -9 9 -21v-246q0 -12 -9 -21zM332 124l88 89v221l-101 104h-102l-103 -102v-222l103 -102h52l-25 40q-4 7 -4 15v65h60v-57z" />
    <glyph glyph-name="uniFF32" unicode="&#xff32;" 
d="M278 294l192 -194q9 -9 9 -21v-30h-60v18l-227 227h-78l1 -245h-61v548h335q12 0 21 -9l61 -60q9 -9 9 -21v-123q0 -12 -9 -21l-59 -60q-9 -9 -21 -9h-113zM114 354h264l42 42v98l-43 43h-263v-183z" />
    <glyph glyph-name="uniFF33" unicode="&#xff33;" 
d="M420 498l-40 40h-220l-43 -43v-32l348 -238q13 -9 13 -25v-59q0 -10 -8 -20l-57 -62q-10 -10 -22 -10l-246 -1q-12 0 -21 9l-61 61q-9 9 -9 21v31h60v-19l43 -43l221 1l40 44v31l-348 238q-13 9 -13 25v60q0 12 9 21l61 61q9 9 21 9h244q12 0 21 -9l58 -58q9 -9 9 -21
v-32h-60v20z" />
    <glyph glyph-name="uniFF34" unicode="&#xff34;" 
d="M54 598h426v-61h-183v-488h-61v488h-182v61z" />
    <glyph glyph-name="uniFF35" unicode="&#xff35;" 
d="M54 597h60l2 -445l41 -42h222l41 43v445h60v-457q0 -12 -8 -20l-58 -61q-10 -10 -22 -10h-248q-12 0 -21 9l-59 59q-8 8 -8 21z" />
    <glyph glyph-name="uniFF36" unicode="&#xff36;" 
d="M114 513l151 -358l155 357v86h60v-92q0 -4 -2 -12l-185 -428q-8 -18 -28 -18t-28 18l-181 429q-2 4 -2 11v92h60v-85z" />
    <glyph glyph-name="uniFF37" unicode="&#xff37;" 
d="M266 157l-100 -100q-9 -9 -21 -9t-21 9l-60 60q-9 9 -9 21l-1 459h60l1 -447l30 -29l92 92v139h60v-141l92 -90l31 30v447h60v-460q0 -13 -9 -22l-61 -59q-10 -8 -21 -8q-12 0 -21 9z" />
    <glyph glyph-name="uniFF38" unicode="&#xff38;" 
d="M266 281l-152 -154v-77h-60v89q0 12 9 21l161 163l-161 164q-9 9 -9 21v90h60v-78l153 -154l152 154v78h60v-90q0 -12 -9 -21l-161 -163l161 -164q9 -9 9 -21v-89h-60v77z" />
    <glyph glyph-name="uniFF39" unicode="&#xff39;" 
d="M298 371v-322h-61v322l-173 174q-9 9 -9 21v32h60v-19l154 -153l152 154v18h60v-30q0 -14 -8 -22z" />
    <glyph glyph-name="uniFF3A" unicode="&#xff3a;" 
d="M479 506q0 -12 -9 -21l-355 -356v-19h365v-60l-425 -1v92q0 12 9 21l355 356v19h-365v61h425v-92z" />
    <glyph glyph-name="uniFF3B" unicode="&#xff3b;" 
d="M177 659h182v-61h-122v-549h122v-62h-182v672z" />
    <glyph glyph-name="uniFF3C" unicode="&#xff3c;" 
d="M421 123l-359 366q-8 8 -8 23q0 13 8 21q9 9 23 9q12 0 21 -9l359 -366q9 -9 9 -22t-9 -22q-10 -10 -22 -10t-22 10z" />
    <glyph glyph-name="uniFF3D" unicode="&#xff3d;" 
d="M177 659h182v-672h-182v62h121v549h-121v61z" />
    <glyph glyph-name="uniFF3E" unicode="&#xff3e;" 
d="M247 650q4 4 6 5q1 0 3 1.5t4 2.5q7 1 14 0q1 0 2.5 -1t2.5 -2t2 -1q2 -1 6 -5l123 -122l-40 -41l-103 102l-102 -102l-41 41z" />
    <glyph glyph-name="uniFF3F" unicode="&#xff3f;" 
d="M54 49h427v-62h-427v62z" />
    <glyph glyph-name="uniFF40" unicode="&#xff40;" 
d="M192 651q9 9 22 9q12 0 21 -9l125 -124q8 -8 8 -21q0 -14 -8 -22t-22 -8q-13 0 -21 8l-125 125q-8 8 -8 21q0 14 8 21z" />
    <glyph glyph-name="uniFF41" unicode="&#xff41;" 
d="M360 109v130h-201l-43 -44v-42l42 -45zM420 108h61v-58h-336q-12 0 -21 9l-58 62q-9 9 -9 21v65q0 12 9 21l59 61q8 8 21 8h214v78l-41 42h-204v59h216q12 0 21 -9l59 -60q9 -9 9 -20v-279z" />
    <glyph glyph-name="uniFF42" unicode="&#xff42;" 
d="M57 52v607h60v-184h156q12 0 21 -9l119 -121q9 -9 9 -21v-123q0 -12 -9 -21l-123 -121q-7 -7 -21 -7h-212zM117 109h140l106 104v99l-102 104h-144v-307z" />
    <glyph glyph-name="uniFF43" unicode="&#xff43;" 
d="M422 475v-59h-203l-103 -104v-99l106 -104h200v-58h-212q-13 0 -21 8l-123 121q-9 9 -9 21v123q0 12 9 21l120 121q9 9 20 9h216z" />
    <glyph glyph-name="uniFF44" unicode="&#xff44;" 
d="M422 51h-212q-13 0 -21 8l-123 121q-9 9 -9 21v123q0 12 9 21l120 121q9 9 20 9h156v184h60v-608zM362 109v307h-143l-103 -104v-99l106 -104h140z" />
    <glyph glyph-name="uniFF45" unicode="&#xff45;" 
d="M116 234v-82l43 -45h263v-56h-275q-12 0 -20 8l-62 60q-8 8 -8 21v242q0 10 10 20l61 63q11 11 22 11h181q10 0 21 -11l59 -62q9 -9 9 -20v-149h-304zM117 296h245v75l-43 44h-158l-44 -45v-74z" />
    <glyph glyph-name="uniFF46" unicode="&#xff46;" 
d="M281 599l-40 -41v-82h121v-61h-122v-366h-59v366h-124v61h124v94q0 13 8 21l57 59q9 9 22 9h154v-60h-141z" />
    <glyph glyph-name="uniFF47" unicode="&#xff47;" 
d="M390 190l-69 -69q-7 -9 -21 -9h-95q-12 0 -21 9l-118 118q-9 7 -9 21v67q0 12 9 21l121 121q7 9 21 9h151q12 0 21 -9l61 -61q9 -7 9 -21v-371q0 -12 -9 -21l-56 -56q-7 -9 -21 -9h-161q-12 0 -21 9l-58 58l42 42l49 -49h137l38 38v162zM390 274v101l-43 43h-127
l-103 -103v-43l100 -100h71z" />
    <glyph glyph-name="uniFF48" unicode="&#xff48;" 
d="M57 48v618h60v-268l72 72q6 5 21 5h119q11 0 21 -8l63 -60q9 -9 9 -22v-337h-60v324l-45 44h-95l-105 -101v-267h-60z" />
    <glyph glyph-name="uniFF49" unicode="&#xff49;" 
d="M237 659h61v-61h-61v61zM237 476h61v-427h-61v427z" />
    <glyph glyph-name="uniFF4A" unicode="&#xff4a;" 
d="M421 17q0 -11 -10 -21l-60 -61q-8 -8 -21 -8h-124q-12 0 -21 9l-60 61l42 42l52 -53h99l42 43v447h61v-459zM360 659h62v-61h-62v61z" />
    <glyph glyph-name="uniFF4B" unicode="&#xff4b;" 
d="M253 262l166 -171l-43 -42l-177 184h-80v-184h-62v610h62v-366h81l180 183l42 -42z" />
    <glyph glyph-name="uniFF4C" unicode="&#xff4c;" 
d="M297 123l13 -14h49v-60h-61q-12 0 -21 9l-31 31q-9 9 -9 21v549h60v-536z" />
    <glyph glyph-name="uniFF4D" unicode="&#xff4d;" 
d="M299 373v-324h-61v324l-41 42h-36l-44 -43v-323h-60v426h61v-17l9 9q9 9 21 9h62q13 0 22 -9l36 -39l38 38q9 9 21 9h64q12 0 21 -9l59 -59q9 -9 9 -21v-337h-60v325l-41 41h-39z" />
    <glyph glyph-name="uniFF4E" unicode="&#xff4e;" 
d="M165 442l24 24q9 9 21 9h124q12 0 20 -8l59 -58q9 -9 9 -21v-337h-57v325l-43 41h-100l-42 -44v-323h-60v335q0 2 4 12l-18 20h-49v59h63q12 0 19 -9z" />
    <glyph glyph-name="uniFF4F" unicode="&#xff4f;" 
d="M117 374v-222l43 -42h162l40 42v222l-39 44h-163zM67 407l61 63q7 7 20 7h188q12 0 22 -10l56 -63q8 -8 8 -19v-245q0 -12 -9 -21l-58 -59q-6 -7 -21 -7h-186q-11 0 -20 7l-62 58q-9 8 -9 22v247q0 10 10 20z" />
    <glyph glyph-name="uniFF50" unicode="&#xff50;" 
d="M57 467h220q9 0 13 -4l123 -118q9 -9 9 -21v-123q0 -12 -9 -21l-120 -121q-9 -9 -20 -9h-156v-184h-60v601zM117 413v-304h143l103 104v99l-106 101h-140z" />
    <glyph glyph-name="uniFF51" unicode="&#xff51;" 
d="M420 473v-538h61v-62h-122l1 181h-154q-11 0 -20 9l-120 121q-9 9 -9 21v119q0 12 9 21l123 121q8 8 21 8zM360 416h-138l-106 -104v-95l103 -104h141v303z" />
    <glyph glyph-name="uniFF52" unicode="&#xff52;" 
d="M166 313v-263l-60 -1l1 335q0 12 -9 22q-10 9 -23 9h-17l-1 60l49 1q15 0 37 -20t23 -42v-18l69 70q9 9 21 9l73 1q13 0 21 -9l63 -61q9 -9 9 -22v-30h-60v18l-45 43h-48z" />
    <glyph glyph-name="uniFF53" unicode="&#xff53;" 
d="M359 372l-44 44h-154l-29 -30l279 -221q11 -9 11 -22q0 -14 -9 -23l-63 -62q-9 -9 -21 -9l-180 1q-13 0 -21 8l-62 60q-9 9 -9 22v28h60v-15l44 -43l156 -1l30 30l-278 220q-9 7 -11 22q-2 13 8 23l60 63q9 9 22 9h179q12 0 21 -9l62 -61q9 -9 9 -21v-32h-60v19z" />
    <glyph glyph-name="uniFF54" unicode="&#xff54;" 
d="M297 123l13 -14h49v-60h-61q-12 0 -21 9l-31 31q-9 9 -9 21v305h-123v61h123v183h60v-183h123v-61h-123v-292z" />
    <glyph glyph-name="uniFF55" unicode="&#xff55;" 
d="M373 84l-24 -24q-9 -9 -21 -9h-182q-12 0 -20 8l-59 58q-9 9 -9 21l-1 337l58 1l2 -326l41 -41h158l42 44l1 323h59l-1 -335q0 -5 -3 -12l18 -20h49v-59h-61q-14 0 -21 9z" />
    <glyph glyph-name="uniFF56" unicode="&#xff56;" 
d="M117 391l151 -254l153 257v81h60v-89q0 -8 -4 -15l-183 -308q-9 -15 -26 -15t-26 15l-181 305q-4 7 -4 15v92h60v-84z" />
    <glyph glyph-name="uniFF57" unicode="&#xff57;" 
d="M300 211l87 -89l34 32v316h60v-329q0 -13 -9 -22l-64 -61q-10 -8 -21 -8q-12 0 -21 9l-97 99l-100 -102q-10 -10 -21 -10t-21 10l-61 62q-9 9 -9 21v330h60v-318l31 -31l91 91v82h61v-82z" />
    <glyph glyph-name="uniFF58" unicode="&#xff58;" 
d="M268 220l-154 -153v-19h-60v32q0 13 8 21l163 161l-163 162q-8 8 -8 22v30h60v-18l154 -153l154 153v18h60v-30q0 -13 -9 -22l-163 -161l163 -162q9 -9 9 -21v-32h-60v19z" />
    <glyph glyph-name="uniFF59" unicode="&#xff59;" 
d="M227 78l-161 163q-9 9 -9 21v214h60v-202l153 -153l91 91v264h60v-276q0 -12 -9 -21l-307 -307l-42 42z" />
    <glyph glyph-name="uniFF5A" unicode="&#xff5a;" 
d="M57 476h424l-301 -367h301v-60h-424l302 366h-302v61z" />
    <glyph glyph-name="uniFF5B" unicode="&#xff5b;" 
d="M358 673v-60h-78l-45 -44v-171q0 -13 -8 -21l-39 -40l39 -41q8 -8 8 -21v-171l45 -44h78v-60h-90q-12 0 -21 9l-63 61q-9 9 -9 22v171l-42 44h-36v60h36l42 43v172q0 12 9 21l63 61q7 9 21 9h90z" />
    <glyph glyph-name="uniFF5C" unicode="&#xff5c;" 
d="M237 720h61v-838h-61v838z" />
    <glyph glyph-name="uniFF5D" unicode="&#xff5d;" 
d="M209 661q1 0 3 -1h2h2l2 -1l2 -1h2q2 0 4 -2l2 -2l2 -2l63 -61l2 -2t1 -2q2 -2 3 -4q1 -1 1 -3.5t1 -3.5l1 -1v-2v-4v-171l42 -44h36v-60h-36l-42 -43v-172v-3v-1q-1 -1 -1 -2t-0.5 -2t-0.5 -2q0 -3 -1 -4t-3 -4l-3 -3l-63 -61l-2 -2l-2 -2t-4 -2l-2 -1h-2h-2l-2 -1
l-2 -1h-3h-90v60h78l45 44v171v5q0 3 1 4q1 0 1 1t1 2t1 2t1 2q0 1 1 3l2 2l39 40l-39 41l-2 2v1l-1 2q-1 0 -1 2q0 1 -1 2q-1 0 -1 1t-1 2t-1 4v5v171l-45 44h-78v60h90z" />
    <glyph glyph-name="uniFF5E" unicode="&#xff5e;" 
d="M125 649l1 1q2 0 2 1t1 1t2 1l6 3q6 3 7 3h65l4 1q4 0 4 -1q1 -1 3.5 -3t3.5 -2q2 -1 6 -5l110 -114h40l51 52l41 -40l-59 -60q-4 -4 -6 -5q-1 0 -3.5 -1.5t-3.5 -2.5h-8h-64h-7q-1 1 -3.5 2.5t-3.5 1.5q-2 1 -6 5l-111 113h-41l-52 -51l-40 41z" />
    <glyph glyph-name="uniFF5F" unicode="&#xff5f;" 
d="M261 470l125 119q11 9 20 9q12 0 20 -10q9 -9 9 -21q0 -11 -9 -20l-116 -113v-220l117 -116q9 -7 9 -21q0 -11 -9 -19q-9 -9 -20 -9q-12 0 -20 9l-125 125q-9 9 -9 19v244q0 16 8 24zM108 470l125 119q11 9 20 9q12 0 20 -10q9 -9 9 -21q0 -11 -9 -20l-116 -113v-220
l117 -116q9 -7 9 -21q0 -11 -9 -19q-9 -9 -20 -9q-12 0 -20 9l-125 125q-9 9 -9 19v244q0 16 8 24z" />
    <glyph glyph-name="uniFF60" unicode="&#xff60;" 
d="M437 470q8 -8 8 -24v-244q0 -10 -9 -19l-125 -125q-8 -9 -20 -9q-11 0 -20 9q-9 8 -9 19q0 13 9 21l117 116v220l-116 113q-9 9 -9 20q0 12 9 21q8 10 20 10q9 0 20 -9zM283 470q8 -8 8 -24v-244q0 -10 -9 -19l-125 -125q-8 -9 -20 -9q-11 0 -20 9q-9 8 -9 19q0 13 9 21
l117 116v220l-116 113q-9 9 -9 20q0 12 9 21q8 10 20 10q9 0 20 -9z" />
    <glyph glyph-name="uniFF61" unicode="&#xff61;" 
d="M200 148v-76h76v76h-76zM177 194h121q9 0 15.5 -7t6.5 -16v-122q0 -9 -6.5 -16t-15.5 -7h-121q-9 0 -16 7t-7 16v122q0 9 7 16t16 7z" />
    <glyph glyph-name="uniFF62" unicode="&#xff62;" 
d="M274 769h-244v-476h-30v507h274v-31z" />
    <glyph glyph-name="uniFF63" unicode="&#xff63;" 
d="M506 293h29v-491h-261v31h232v460z" />
    <glyph glyph-name="uniFF64" unicode="&#xff64;" 
 />
    <glyph glyph-name="uniFF65" unicode="&#xff65;" 
d="M208 449h121v-122h-121v122z" />
    <glyph glyph-name="uniFF66" unicode="&#xff66;" 
 />
    <glyph glyph-name="uniFF67" unicode="&#xff67;" 
 />
    <glyph glyph-name="uniFF68" unicode="&#xff68;" 
 />
    <glyph glyph-name="uniFF69" unicode="&#xff69;" 
 />
    <glyph glyph-name="uniFF6A" unicode="&#xff6a;" 
 />
    <glyph glyph-name="uniFF6B" unicode="&#xff6b;" 
 />
    <glyph glyph-name="uniFF6C" unicode="&#xff6c;" 
 />
    <glyph glyph-name="uniFF6D" unicode="&#xff6d;" 
 />
    <glyph glyph-name="uniFF6E" unicode="&#xff6e;" 
 />
    <glyph glyph-name="uniFF6F" unicode="&#xff6f;" 
 />
    <glyph glyph-name="uniFF70" unicode="&#xff70;" 
 />
    <glyph glyph-name="uniFF71" unicode="&#xff71;" 
 />
    <glyph glyph-name="uniFF72" unicode="&#xff72;" 
 />
    <glyph glyph-name="uniFF73" unicode="&#xff73;" 
 />
    <glyph glyph-name="uniFF74" unicode="&#xff74;" 
 />
    <glyph glyph-name="uniFF75" unicode="&#xff75;" 
 />
    <glyph glyph-name="uniFF76" unicode="&#xff76;" 
 />
    <glyph glyph-name="uniFF77" unicode="&#xff77;" 
 />
    <glyph glyph-name="uniFF78" unicode="&#xff78;" 
 />
    <glyph glyph-name="uniFF79" unicode="&#xff79;" 
 />
    <glyph glyph-name="uniFF7A" unicode="&#xff7a;" 
 />
    <glyph glyph-name="uniFF7B" unicode="&#xff7b;" 
 />
    <glyph glyph-name="uniFF7C" unicode="&#xff7c;" 
 />
    <glyph glyph-name="uniFF7D" unicode="&#xff7d;" 
 />
    <glyph glyph-name="uniFF7E" unicode="&#xff7e;" 
 />
    <glyph glyph-name="uniFF7F" unicode="&#xff7f;" 
 />
    <glyph glyph-name="uniFF80" unicode="&#xff80;" 
 />
    <glyph glyph-name="uniFF81" unicode="&#xff81;" 
 />
    <glyph glyph-name="uniFF82" unicode="&#xff82;" 
 />
    <glyph glyph-name="uniFF83" unicode="&#xff83;" 
 />
    <glyph glyph-name="uniFF84" unicode="&#xff84;" 
 />
    <glyph glyph-name="uniFF85" unicode="&#xff85;" 
 />
    <glyph glyph-name="uniFF86" unicode="&#xff86;" 
 />
    <glyph glyph-name="uniFF87" unicode="&#xff87;" 
 />
    <glyph glyph-name="uniFF88" unicode="&#xff88;" 
 />
    <glyph glyph-name="uniFF89" unicode="&#xff89;" 
 />
    <glyph glyph-name="uniFF8A" unicode="&#xff8a;" 
 />
    <glyph glyph-name="uniFF8B" unicode="&#xff8b;" 
 />
    <glyph glyph-name="uniFF8C" unicode="&#xff8c;" 
 />
    <glyph glyph-name="uniFF8D" unicode="&#xff8d;" 
 />
    <glyph glyph-name="uniFF8E" unicode="&#xff8e;" 
 />
    <glyph glyph-name="uniFF8F" unicode="&#xff8f;" 
 />
    <glyph glyph-name="uniFF90" unicode="&#xff90;" 
 />
    <glyph glyph-name="uniFF91" unicode="&#xff91;" 
 />
    <glyph glyph-name="uniFF92" unicode="&#xff92;" 
 />
    <glyph glyph-name="uniFF93" unicode="&#xff93;" 
 />
    <glyph glyph-name="uniFF94" unicode="&#xff94;" 
 />
    <glyph glyph-name="uniFF95" unicode="&#xff95;" 
 />
    <glyph glyph-name="uniFF96" unicode="&#xff96;" 
 />
    <glyph glyph-name="uniFF97" unicode="&#xff97;" 
 />
    <glyph glyph-name="uniFF98" unicode="&#xff98;" 
 />
    <glyph glyph-name="uniFF99" unicode="&#xff99;" 
 />
    <glyph glyph-name="uniFF9A" unicode="&#xff9a;" 
 />
    <glyph glyph-name="uniFF9B" unicode="&#xff9b;" 
 />
    <glyph glyph-name="uniFF9C" unicode="&#xff9c;" 
 />
    <glyph glyph-name="uniFF9D" unicode="&#xff9d;" 
 />
    <glyph glyph-name="uniFF9E" unicode="&#xff9e;" 
 />
    <glyph glyph-name="uniFF9F" unicode="&#xff9f;" 
 />
    <glyph glyph-name="uniFFA0" unicode="&#xffa0;" 
 />
    <glyph glyph-name="uniFFA1" unicode="&#xffa1;" 
 />
    <glyph glyph-name="uniFFA2" unicode="&#xffa2;" 
 />
    <glyph glyph-name="uniFFA3" unicode="&#xffa3;" 
 />
    <glyph glyph-name="uniFFA4" unicode="&#xffa4;" 
 />
    <glyph glyph-name="uniFFA5" unicode="&#xffa5;" 
 />
    <glyph glyph-name="uniFFA6" unicode="&#xffa6;" 
 />
    <glyph glyph-name="uniFFA7" unicode="&#xffa7;" 
 />
    <glyph glyph-name="uniFFA8" unicode="&#xffa8;" 
 />
    <glyph glyph-name="uniFFA9" unicode="&#xffa9;" 
 />
    <glyph glyph-name="uniFFAA" unicode="&#xffaa;" 
 />
    <glyph glyph-name="uniFFAB" unicode="&#xffab;" 
 />
    <glyph glyph-name="uniFFAC" unicode="&#xffac;" 
 />
    <glyph glyph-name="uniFFAD" unicode="&#xffad;" 
 />
    <glyph glyph-name="uniFFAE" unicode="&#xffae;" 
 />
    <glyph glyph-name="uniFFAF" unicode="&#xffaf;" 
 />
    <glyph glyph-name="uniFFB0" unicode="&#xffb0;" 
 />
    <glyph glyph-name="uniFFB1" unicode="&#xffb1;" 
 />
    <glyph glyph-name="uniFFB2" unicode="&#xffb2;" 
 />
    <glyph glyph-name="uniFFB3" unicode="&#xffb3;" 
 />
    <glyph glyph-name="uniFFB4" unicode="&#xffb4;" 
 />
    <glyph glyph-name="uniFFB5" unicode="&#xffb5;" 
 />
    <glyph glyph-name="uniFFB6" unicode="&#xffb6;" 
 />
    <glyph glyph-name="uniFFB7" unicode="&#xffb7;" 
 />
    <glyph glyph-name="uniFFB8" unicode="&#xffb8;" 
 />
    <glyph glyph-name="uniFFB9" unicode="&#xffb9;" 
 />
    <glyph glyph-name="uniFFBA" unicode="&#xffba;" 
 />
    <glyph glyph-name="uniFFBB" unicode="&#xffbb;" 
 />
    <glyph glyph-name="uniFFBC" unicode="&#xffbc;" 
 />
    <glyph glyph-name="uniFFBD" unicode="&#xffbd;" 
 />
    <glyph glyph-name="uniFFBE" unicode="&#xffbe;" 
 />
    <glyph glyph-name="uniFFBF" unicode="&#xffbf;" 
 />
    <glyph glyph-name="uniFFC0" unicode="&#xffc0;" 
 />
    <glyph glyph-name="uniFFC1" unicode="&#xffc1;" 
 />
    <glyph glyph-name="uniFFC2" unicode="&#xffc2;" 
 />
    <glyph glyph-name="uniFFC3" unicode="&#xffc3;" 
 />
    <glyph glyph-name="uniFFC4" unicode="&#xffc4;" 
 />
    <glyph glyph-name="uniFFC5" unicode="&#xffc5;" 
 />
    <glyph glyph-name="uniFFC6" unicode="&#xffc6;" 
 />
    <glyph glyph-name="uniFFC7" unicode="&#xffc7;" 
 />
    <glyph glyph-name="uniFFC8" unicode="&#xffc8;" 
 />
    <glyph glyph-name="uniFFC9" unicode="&#xffc9;" 
 />
    <glyph glyph-name="uniFFCA" unicode="&#xffca;" 
 />
    <glyph glyph-name="uniFFCB" unicode="&#xffcb;" 
 />
    <glyph glyph-name="uniFFCC" unicode="&#xffcc;" 
 />
    <glyph glyph-name="uniFFCD" unicode="&#xffcd;" 
 />
    <glyph glyph-name="uniFFCE" unicode="&#xffce;" 
 />
    <glyph glyph-name="uniFFCF" unicode="&#xffcf;" 
 />
    <glyph glyph-name="uniFFD0" unicode="&#xffd0;" 
 />
    <glyph glyph-name="uniFFD1" unicode="&#xffd1;" 
 />
    <glyph glyph-name="uniFFD2" unicode="&#xffd2;" 
 />
    <glyph glyph-name="uniFFD3" unicode="&#xffd3;" 
 />
    <glyph glyph-name="uniFFD4" unicode="&#xffd4;" 
 />
    <glyph glyph-name="uniFFD5" unicode="&#xffd5;" 
 />
    <glyph glyph-name="uniFFD6" unicode="&#xffd6;" 
 />
    <glyph glyph-name="uniFFD7" unicode="&#xffd7;" 
 />
    <glyph glyph-name="uniFFD8" unicode="&#xffd8;" 
 />
    <glyph glyph-name="uniFFD9" unicode="&#xffd9;" 
 />
    <glyph glyph-name="uniFFDA" unicode="&#xffda;" 
 />
    <glyph glyph-name="uniFFDB" unicode="&#xffdb;" 
 />
    <glyph glyph-name="uniFFDC" unicode="&#xffdc;" 
 />
    <glyph glyph-name="uniFFDD" unicode="&#xffdd;" 
 />
    <glyph glyph-name="uniFFDE" unicode="&#xffde;" 
 />
    <glyph glyph-name="uniFFDF" unicode="&#xffdf;" 
 />
    <glyph glyph-name="uniFFE0" unicode="&#xffe0;" 
d="M237 659h61v-122h122v-61h-122v-183h122v-61h-122v-122h-61v122h-103h-9q-1 1 -3.5 2.5t-3.5 1.5q-2 1 -6 5l-49 49l-3 3q0 1 -1 2t-1 2l-3 3v4v4v4v146v8q1 1 2.5 3.5t1.5 3.5q1 2 5 6l45 49l3 3q0 1 2 1q1 0 2 1t3.5 2t3.5 1q3 1 9 1h105v122zM237 476h-92l-28 -30
v-121l30 -32h90v183z" />
    <glyph glyph-name="uniFFE1" unicode="&#xffe1;" 
d="M155 110l-7 2h-28v-6h28zM244 140l8 -2q8 -4 11 -7l22 -21h100l53 50l41 -44l-62 -58q-8 -8 -21 -8h-122q-11 0 -21 8l-26 25l-20 6l-34 -33q-6 -6 -21 -6h-62q-12 0 -21 8t-9 20v61q0 12 9 21t21 9h60q2 0 5.5 -0.5t4.5 -0.5l24 -8v193h-124v61h124v153q0 13 8 21l60 61
q10 10 22 10h64q11 0 21 -10l60 -60l-43 -42l-51 51h-39l-42 -43v-141h122v-61h-122v-213z" />
    <glyph glyph-name="uniFFE2" unicode="&#xffe2;" 
 />
    <glyph glyph-name="uniFFE3" unicode="&#xffe3;" 
 />
    <glyph glyph-name="uniFFE4" unicode="&#xffe4;" 
d="M237 354v366h61v-366h-61zM298 234v-352h-61v352h61z" />
    <glyph glyph-name="uniFFE5" unicode="&#xffe5;" 
d="M237 361v10l-173 174q-9 9 -9 21v32h60v-19l154 -153l152 154v18h60v-30q0 -14 -8 -22l-175 -175v-10h183v-61h-183v-122h183v-62h-183v-67h-61v67h-183v62h183v122h-183v61h183z" />
    <glyph glyph-name="uniFFE6" unicode="&#xffe6;" 
d="M266 157l-60 -100q-6 -9 -21 -9q-12 0 -21 9l-60 60q-9 9 -9 21v93h-41v62h41v122h-41v61h41v121h60v-121h226v122h60v-122h40v-61h-40v-122h40v-62h-40v-93q0 -13 -9 -22l-61 -59q-10 -8 -21 -8q-15 0 -21 9zM155 231v-81l30 -29l52 92v18h-82zM297 231v-20l53 -90
l31 30v80h-84zM155 293h82v59h60v-59h84v122h-226v-122z" />
    <glyph glyph-name="uniFFE7" unicode="&#xffe7;" 
 />
    <glyph glyph-name="uniFFE8" unicode="&#xffe8;" 
 />
    <glyph glyph-name="uniFFE9" unicode="&#xffe9;" 
d="M230 476v-122h205v-61h-205v-122l-181 152z" />
    <glyph glyph-name="uniFFEA" unicode="&#xffea;" 
d="M394 336h-122v-206h-60v206h-122l152 180z" />
    <glyph glyph-name="uniFFEB" unicode="&#xffeb;" 
d="M354 476l181 -153l-181 -152v122h-205v61h205v122z" />
    <glyph glyph-name="uniFFEC" unicode="&#xffec;" 
d="M90 312h122v204h60v-204h122l-152 -182z" />
    <glyph glyph-name="uniFFED" unicode="&#xffed;" 
d="M162 510h210v-216h-210v216z" />
    <glyph glyph-name="uniFFEE" unicode="&#xffee;" 
d="M164 402q0 -47 32 -80t78 -33q45 0 77.5 33t32.5 80t-32.5 80t-77.5 33q-46 0 -78 -33t-32 -80zM114 402q0 68 46.5 115.5t113.5 47.5q66 0 113 -48t47 -115t-47 -115t-113 -48q-67 0 -113.5 47.5t-46.5 115.5z" />
    <glyph glyph-name="uniFFEF" unicode="&#xffef;" 
 />
    <glyph glyph-name="uniFFF0" unicode="&#xfff0;" 
 />
    <glyph glyph-name="uniFFF1" unicode="&#xfff1;" 
 />
    <glyph glyph-name="uniFFF2" unicode="&#xfff2;" 
 />
    <glyph glyph-name="uniFFF3" unicode="&#xfff3;" 
 />
    <glyph glyph-name="uniFFF4" unicode="&#xfff4;" 
 />
    <glyph glyph-name="uniFFF5" unicode="&#xfff5;" 
 />
    <glyph glyph-name="uniFFF6" unicode="&#xfff6;" 
 />
    <glyph glyph-name="uniFFF7" unicode="&#xfff7;" 
 />
    <glyph glyph-name="uniFFF8" unicode="&#xfff8;" 
 />
    <glyph glyph-name="uniFFF9" unicode="&#xfff9;" 
 />
    <glyph glyph-name="uniFFFA" unicode="&#xfffa;" 
 />
    <glyph glyph-name="uniFFFB" unicode="&#xfffb;" 
 />
    <glyph glyph-name="uniFFFC" unicode="&#xfffc;" 
 />
    <glyph glyph-name="uniFFFD" unicode="&#xfffd;" 
 />
    <glyph glyph-name="uniFFFE" 
 />
    <glyph glyph-name="u1F37A" unicode="&#x1f37a;" 
d="M347 428v-280h35l24 25v231l-24 24h-35zM347 88v-30h-287v541h287v-111h47q13 0 22 -9l42 -42q8 -8 8 -21v-256q0 -13 -8 -21l-42 -42q-9 -9 -22 -9h-47zM121 431v-313h165v313h-165z" />
    <glyph glyph-name="u1F37B" unicode="&#x1f37b;" 
d="M386 88v-30h-287v145h-90v541h287v-111h47q13 0 22 -9l42 -42q8 -8 8 -21v-73h18q13 0 22 -9l42 -42q8 -8 8 -21v-256q0 -13 -8 -21l-42 -42q-9 -9 -22 -9h-47zM70 634v-371h29v336h136v35h-165zM159 489v-371h165v371h-165zM385 428v-280h35l24 25v231l-24 24h-35z" />
    <glyph glyph-name="u1F394" unicode="&#x1f394;" 
d="M268 420q4 4 10 12.5t10 12t14.5 8.5t26.5 9q8 2 24 2q36 0 56 -10q23 -10 38 -33.5t15 -54.5q0 -2 -0.5 -5t-0.5 -4q-3 -26 -24 -63q-25 -45 -77 -98q-11 -11 -45.5 -32.5t-63.5 -37.5l-29 -15q10 25 10 45q0 31 -22 54q-15 16 -56 37.5t-55 46.5q-21 37 -24 63
q0 1 -0.5 4t-0.5 5q0 31 15 54.5t38 33.5q20 10 56 10q16 0 24 -2q16 -4 26.5 -9t14.5 -8.5t10 -12t10 -12.5z" />
    <glyph glyph-name="u1F4A1" unicode="&#x1f4a1;" 
d="M115 255l-46 -46l-28 28l46 46zM89 546l-48 48l28 28l48 -48zM72 401h-44v40h44v-40zM421 255l28 28l46 -46l-28 -28zM447 546l-28 28l48 48l28 -28zM464 401v40h44v-40h-44zM202 599h132q12 0 21 -9l77 -77q9 -9 9 -21v-137q0 -10 -6 -18l-83 -113v-94q0 -12 -9 -21
l-31 -31q-7 -7 -19 -9h-2h-46h-2q-12 2 -19 9l-31 31q-9 9 -9 21v94l-83 113q-6 8 -6 18v137q0 12 9 21l77 77q9 9 21 9zM279 129l13 13v62h-48v-62l13 -13h22zM214 539l-59 -59v-115l74 -101h78l74 101v115l-59 59h-108z" />
    <glyph glyph-name="u1F55C" unicode="&#x1f55c;" 
d="M263 332h-30v138q0 8 5 11l75 75l21 -21l-71 -71v-132zM171 299h-33v33h33v-33zM111 360h-33v33h33v-33zM81 451h-33v34h33v-34zM112 544h-33v33h33v-33zM172 603h-33v33h33v-33zM231 301h33v-33h-33v33zM325 332h33v-33h-33v33zM385 393h33v-33h-33v33zM415 485h33v-34
h-33v34zM384 577h34v-33h-34v33zM324 636h34v-33h-34v33zM231 666h33v-33h-33v33z" />
    <glyph glyph-name="nobreakspace" 
 />
    <glyph glyph-name="cr" 
 />
    <glyph glyph-name="nl" 
 />
    <glyph glyph-name="eightones" 
d="M133 322q0 60 41 102t99 42t99 -42t41 -102q0 -59 -41 -101.5t-99 -42.5t-99 42.5t-41 101.5z" />
    <glyph glyph-name="ydiaeresis" 
d="M100 598h63v-61h-63v61zM284 598h62v-61h-62v61zM220 78l-161 163q-9 9 -9 21v214h60v-202l153 -153l91 91v264h60v-276q0 -12 -9 -21l-307 -307l-42 42z" />
    <glyph glyph-name="masculine" 
d="M114 495l-2 -222l45 -41l161 -1l40 42l1 222l-40 44h-162zM64 528l61 61q9 9 20 9h187q12 0 22 -10l56 -63q8 -8 8 -19l-1 -245q0 -13 -8 -21l-58 -59q-8 -9 -21 -9l-185 2q-11 0 -20 7l-62 58q-9 8 -9 22l2 247q0 12 8 20zM54 109h368v-60h-368v60z" />
    <glyph glyph-name="fm" 
d="M54 659h427v-122h-427v122zM237 476h122v-122h-122v122zM237 231h122q-17 -113 -74.5 -170t-169.5 -74z" />
    <glyph glyph-name="dup" 
d="M237 233h61v-184h-61v184zM237 477h61v-184h-61v184zM431 407l43 -42l-99 -100l101 -104l-43 -42l-143 146zM105 407l141 -142l-143 -146l-42 42l101 104l-99 100zM54 659h427v-122h-427v122z" />
    <glyph glyph-name="c0" 
 />
    <glyph glyph-name="c1" 
 />
    <glyph glyph-name="c2" 
 />
    <glyph glyph-name="c3" 
 />
    <glyph glyph-name="c4" 
 />
    <glyph glyph-name="c5" 
 />
    <glyph glyph-name="c6" 
 />
    <glyph glyph-name="c7" 
 />
    <glyph glyph-name="c8" 
 />
    <glyph glyph-name="c9" 
 />
    <glyph glyph-name="ca" 
 />
    <glyph glyph-name="cb" 
 />
    <glyph glyph-name="cc" 
 />
    <glyph glyph-name="cd" 
 />
    <glyph glyph-name="ce" 
 />
    <glyph glyph-name="cf" 
 />
    <glyph glyph-name="boxA" 
d="M0 231h536v-244h-536v244zM61 171v-122h414v122h-414zM60 293h-60l2 276q0 12 9 21l122 120q8 8 19 8q14 0 23 -9l121 -121q8 -8 8 -21v-274h-60v122h-183zM61 475h183v80l-91 91l-91 -90z" />
    <glyph glyph-name="insert" 
d="M0 18v184l267 274l269 -277l-1 -181l-268 273z" />
    <glyph glyph-name="boxB" 
d="M0 231h535v-244h-535v244zM61 171v-122h413v122h-413zM231 659v60l214 -1q13 0 21 -8l61 -61q9 -9 9 -21v-60q0 -15 -9 -22l-40 -38l39 -42q8 -8 8 -20v-62q0 -13 -8 -21l-60 -60q-9 -9 -21 -9h-214v60h59v305h-59zM352 354h80l42 42v38l-40 42h-82v-122zM352 659v-123
h78l46 44v36l-43 43h-81z" />
    <glyph glyph-name="box6" 
d="M177 232h18l51 52q9 9 21 9h62q11 0 20 -9l62 -60q10 -8 10 -22v-62q0 -11 -9 -20l-59 -62q-10 -10 -22 -10h-124q-12 0 -21 9l-61 61q-8 8 -8 21v245q0 13 8 21l60 62l44 -41l-52 -54v-140zM177 172v-21l43 -43h98l43 45v37l-45 43h-36l-52 -52q-9 -9 -21 -9h-30z
M61 537v-550h414v550h-414zM0 598h536v-671h-536v671z" />
    <glyph glyph-name="rightarrow" 
d="M305 476l181 -153l-181 -152v122h-305v61h305v122z" />
    <glyph glyph-name="upshift" 
d="M174 -11v326h-156l248 322l247 -322h-154v-326h-185zM234 49h65v326h93l-126 164l-126 -164h94v-326z" />
    <glyph glyph-name="human" 
d="M104 57l-38 47l171 141v109h-183v61h183v66q-27 10 -43.5 34t-16.5 53q0 39 27 66.5t64 27.5q39 0 65 -28.5t26 -65.5q0 -31 -17.5 -54.5t-44.5 -32.5l1 -66h183v-61h-183v-109l173 -144l-38 -46l-166 138zM237 568q0 -13 9 -22.5t22 -9.5q12 0 21.5 9t9.5 23t-9 24
t-22 10q-12 0 -21.5 -10t-9.5 -24z" />
    <glyph glyph-name="underB" 
d="M117 659v60h214q13 0 22 -9l61 -60q8 -8 8 -22v-60q0 -15 -9 -22l-39 -38l39 -42q8 -8 8 -20v-62q0 -12 -9 -21l-59 -60q-9 -9 -22 -9h-214v60h60v305h-60zM238 354h81l42 43v37l-40 43h-83v-123zM238 659v-123h79l45 44v36l-43 43h-81zM0 231h536v-60h-536v60z" />
    <glyph glyph-name="downshift" 
d="M176 658h186v-326h154l-248 -322l-248 322h156v326zM236 598v-326h-94l126 -164l126 164h-92v326h-66z" />
    <glyph glyph-name="boxquestion" 
d="M180 415h-60v92q0 14 9 21l62 61q9 9 21 9h124q11 0 21 -10l60 -62q9 -9 9 -20v-120q0 -12 -9 -21l-114 -114v-79h-60v91q0 12 9 21l114 115v94l-43 45h-99l-44 -44v-79zM242 109h61v-60h-61v60zM61 659v-672h414v672h-414zM0 720h536v-793h-536v793z" />
    <glyph glyph-name="boxsolid" 
d="M0 720h536v-793h-536v793z" />
    <glyph glyph-name="e0" 
 />
    <glyph glyph-name="e1" 
 />
    <glyph glyph-name="e2" 
 />
    <glyph glyph-name="e3" 
 />
    <glyph glyph-name="e4" 
 />
    <glyph glyph-name="e5" 
 />
    <glyph glyph-name="e6" 
 />
    <glyph glyph-name="e7" 
 />
    <glyph glyph-name="e8" 
 />
    <glyph glyph-name="e9" 
 />
    <glyph glyph-name="ea" 
 />
    <glyph glyph-name="eb" 
 />
    <glyph glyph-name="ec" 
 />
    <glyph glyph-name="ed" 
 />
    <glyph glyph-name="ee" 
 />
    <glyph glyph-name="badcommhi" 
d="M0 689l336 -334h199v-61l-144 -1l144 -140l1 -183l-321 323h-215v62h149l-149 152v182z" />
    <glyph glyph-name="commhi" 
d="M0 352h536v-59h-536v59z" />
    <glyph glyph-name="commjag" 
d="M0 295v60h408l-242 -246h370v-60h-514l242 246h-264z" />
    <glyph glyph-name="commlo" 
d="M0 110h536v-62h-536v62z" />
    <glyph glyph-name="clockleft" 
d="M423 627q0 13 9.5 23t23.5 10t23.5 -10t9.5 -23t-9.5 -23t-23.5 -10t-23.5 10t-9.5 23zM243 567q0 13 9.5 23t23.5 10t23.5 -10t9.5 -23t-9.5 -23t-23.5 -10t-23.5 10t-9.5 23zM120 447q0 13 10 23t23 10t23 -10t10 -23t-10 -23t-23 -10t-23 10t-10 23zM58 262
q0 14 10 24t24 10q13 0 22.5 -10t9.5 -24t-9 -23t-23 -9t-24 9.5t-10 22.5zM120 80q0 13 9.5 22.5t23.5 9.5t23.5 -9.5t9.5 -22.5q0 -14 -9.5 -24t-23.5 -10t-23.5 10t-9.5 24zM242 -42q0 14 9.5 23.5t22.5 9.5q14 0 24 -9.5t10 -23.5t-10 -23.5t-24 -9.5q-13 0 -22.5 9.5
t-9.5 23.5zM424 -104q0 14 10 24t24 10q13 0 22.5 -10t9.5 -24t-9 -23t-23 -9t-24 9.5t-10 22.5zM536 385v-85l-48 -50v-246h-60v258q0 13 8 22z" />
    <glyph glyph-name="clockright" 
d="M120 627q0 13 10 23t23 10t23 -10t10 -23t-10 -23t-23 -10t-23 10t-10 23zM243 508q0 14 10 24t23 10t23 -10t10 -24q0 -13 -9.5 -22.5t-23.5 -9.5t-23.5 9.5t-9.5 22.5zM302 324q0 14 9.5 23.5t22.5 9.5q14 0 24 -10t10 -23t-10 -23t-24 -10q-13 0 -22.5 9.5t-9.5 23.5z
M242 141q0 14 9.5 23.5t22.5 9.5q14 0 24 -10t10 -23t-10 -23t-24 -10q-13 0 -22.5 9.5t-9.5 23.5zM122 20q0 14 9 23t23 9t24 -9.5t10 -22.5q0 -14 -10 -24t-24 -10q-13 0 -22.5 10t-9.5 24zM138 537l42 -42l-180 -184v86z" />
    <glyph glyph-name="lock" 
d="M537 744v-274l-113 -114l112 -113l-1 -274l-248 250l-288 -290l-1 274l152 153l-150 151v273l287 -287z" />
    <glyph glyph-name="leftarrow" 
d="M230 476v-122h305v-61h-305v-122l-181 152z" />
    <glyph glyph-name="keyleft" 
d="M236 388q0 -42 29.5 -72t72.5 -30q42 0 72 29.5t30 72.5q0 42 -29.5 72t-72.5 30q-42 0 -72 -29.5t-30 -72.5zM176 388q0 68 48 115t114 47q60 0 105 -39t55 -96h38v-61h-40q-12 -56 -56.5 -92t-101.5 -36q-68 0 -115 48t-47 114z" />
    <glyph glyph-name="keyright" 
d="M0 415h536v-244h-122v184h-61v-123h-183v122h-170v61z" />
    <glyph glyph-name="box4" 
d="M361 231h60v-60h-60v-122h-60v122h-154q-10 0 -20 8t-10 22v60q0 12 9 22l183 184l3 2q3 2 8 4t11 2q10 0 20 -7.5t10 -22.5v-214zM301 231v142l-124 -124v-18h124zM59 538v-551h418v551h-418zM0 596h536v-670h-536v670z" />
    <glyph glyph-name="underA" 
d="M0 230h536v-58h-536v58zM182 296l-60 1l2 276q0 9 9 21l122 119q8 8 20 8q14 0 22 -8l121 -121q8 -9 8 -22v-274h-60v122h-183zM183 478h183v80l-91 91l-91 -89z" />
    <glyph glyph-name="magcard" 
d="M60 232v-58h420v58h-420zM60 474v-180h416v180h-416zM0 538h536v-430h-536v430z" />
    <glyph glyph-name="boxhuman" 
d="M238 508q0 -13 9 -22.5t22 -9.5q12 0 21.5 9t9.5 23t-9 24t-22 10q-12 0 -21.5 -10t-9.5 -24zM0 720h536v-790h-536v790zM478 27v267h-179v-109zM478 355v305h-416v-305h176v66q-27 10 -43.5 34t-16.5 53q0 39 27 66.5t64 27.5q39 0 65 -28.5t26 -65.5q0 -31 -17.5 -54.5
t-44.5 -32.5l1 -66h179zM98 -16h338l-168 149zM62 294v-262l176 153v109h-176z" />
    <glyph glyph-name="apl_space" 
 />
    <glyph glyph-name="apl_bracketright" 
d="M184 659h182v-672h-182v62h121v549h-121v61z" />
    <glyph glyph-name="apl_bracketleft" 
d="M184 659h182v-61h-122v-549h122v-62h-182v672z" />
    <glyph glyph-name="apl_stile" 
d="M244 800h61v-1000h-61v1000z" />
    <glyph glyph-name="apl_2vertical" 
d="M396 801h62v-1000h-62v1000zM92 801h60v-1000h-60v1000z" />
    <glyph glyph-name="apl_2horizontal" 
d="M0 -43h536v-61h-536v61zM0 689h536v-60h-536v60z" />
    <glyph glyph-name="apl_leftvbar" 
d="M92 801h60v-1000h-60v1000z" />
    <glyph glyph-name="apl_rightvbar" 
d="M396 801h62v-1000h-62v1000z" />
    <glyph glyph-name="apl_midvbar" 
d="M244 801h61v-1000h-61v1000z" />
    <glyph glyph-name="apl_leftsolid" 
d="M0 801h275v-1000h-275v1000z" />
    <glyph glyph-name="apl_rightsolid" 
d="M276 801h260v-1001h-260v1001z" />
    <glyph glyph-name="apl_topsolid" 
d="M0 800h536v-507h-536v507z" />
    <glyph glyph-name="apl_bottomsolid" 
d="M0 293h536v-493h-536v493z" />
    <glyph glyph-name="apl_solid" 
d="M0 781h536v-976h-536v976z" />
    <glyph glyph-name="apl_midhbar" 
d="M0 354h535v-61h-535v61z" />
    <glyph glyph-name="apl_lowerleft" 
d="M242 780h60v-384l43 -42h190v-60h-203q-12 0 -21 9l-60 60q-9 9 -9 21v396z" />
    <glyph glyph-name="apl_upperleft" 
d="M242 -132v396q0 12 9 21l60 60q9 9 21 9h203v-60h-190l-43 -42v-384h-60z" />
    <glyph glyph-name="apl_leftjoin" 
d="M244 801h61v-447h230v-61h-230v-492h-61v1000z" />
    <glyph glyph-name="apl_bottomjoin" 
d="M244 801h61v-447h229v-61h-534v61h244v447z" />
    <glyph glyph-name="apl_intersect" 
d="M244 801h61v-447h230v-61h-230v-491h-61v491h-244v61h244v447z" />
    <glyph glyph-name="apl_lowerright" 
d="M302 780v-396q0 -12 -9 -21l-60 -60q-9 -9 -21 -9h-203v60h190l43 42v384h60z" />
    <glyph glyph-name="apl_upperright" 
d="M303 -134h-60v384l-43 42h-190v60h203q12 0 21 -9l60 -60q9 -9 9 -21v-396z" />
    <glyph glyph-name="apl_rightjoin" 
d="M244 801h61v-1000h-61v492h-244v61h244v447z" />
    <glyph glyph-name="apl_topjoin" 
d="M0 354h535v-61h-230v-491h-61v491h-244v61z" />
    <glyph glyph-name="dec_solid" 
d="M152 801h244v-1000h-244v1000z" />
    <glyph glyph-name="dec_filled_circle" 
d="M162 323q0 50 33.5 85t80.5 35t80.5 -35t33.5 -85t-33.5 -85t-80.5 -35t-80.5 35.5t-33.5 84.5z" />
    <glyph glyph-name="dec_halftone_block" 
 />
    <glyph glyph-name="dec_ht" 
d="M92 689h60v-122h62v122h60v-304h-60v122h-62v-122h-60v304zM244 323h184v-61h-62v-243h-61v243l-61 1v60z" />
    <glyph glyph-name="dec_ff" 
d="M244 326h182v-60h-122v-62h92v-61h-92v-121h-60v304zM92 689h182v-60h-122v-62h92v-61h-92v-121h-60v304z" />
    <glyph glyph-name="dec_cr" 
d="M274 598h-60v19l-12 11h-42l-8 -8v-162l10 -12h42l9 10v20h60v-31q0 -11 -8 -20l-26 -29q-10 -10 -22 -10h-68q-13 0 -22 10l-27 30q-8 8 -8 20v186q0 12 9 21l26 26q9 9 21 9h66q12 0 20 -8l30 -28q10 -10 10 -23v-31zM245 18v304h123q12 0 21 -9l29 -30q8 -8 8 -21v-31
q0 -13 -8 -21l-45 -46l50 -101q3 -5 3 -13v-32h-60v25l-48 99h-13v-124h-60zM305 201h20l41 42v8l-11 12l-50 -1v-61z" />
    <glyph glyph-name="dec_lf" 
d="M244 326h182v-60h-122v-62h92v-61h-92v-121h-60v304zM92 689h60v-244h122v-60h-182v304z" />
    <glyph glyph-name="dec_degree" 
d="M176 537q0 -28 19.5 -47.5t46.5 -19.5q28 0 48 19.5t20 47.5t-20 47.5t-48 19.5q-27 0 -46.5 -19.5t-19.5 -47.5zM126 537q0 49 34 83t82 34q49 0 83.5 -34t34.5 -83q0 -48 -34.5 -82.5t-83.5 -34.5q-48 0 -82 34.5t-34 82.5z" />
    <glyph glyph-name="dec_plusminus" 
d="M244 659h61v-183h183v-61h-183v-184h-61v184h-183v61h183v183zM61 171h427v-62h-427v62z" />
    <glyph glyph-name="dec_nl" 
d="M92 689h60l92 -152v152h61v-304l-59 1l-94 151v-152h-60v304zM244 323h61v-244h123v-60h-184v304z" />
    <glyph glyph-name="dec_vt" 
d="M91 690h60v-173l47 -55l46 55v173h60v-184q0 -11 -7 -19l-77 -91q0 -1 -3 -3q-10 -8 -20 -8q-14 0 -22 11l-77 91q-7 7 -7 19v184zM244 323h184v-61h-62v-243h-61v243l-61 1v60z" />
    <glyph glyph-name="dec_lowerright" 
d="M306 780v-396q0 -12 -9 -21l-60 -60q-9 -9 -21 -9h-203v60h190l43 42v384h60z" />
    <glyph glyph-name="dec_upperright" 
d="M303 -134h-60v384l-43 42h-190v60h203q12 0 21 -9l60 -60q9 -9 9 -21v-396z" />
    <glyph glyph-name="dec_upperleft" 
d="M242 -132v396q0 12 9 21l60 60q9 9 21 9h203v-60h-190l-43 -42v-384h-60z" />
    <glyph glyph-name="dec_lowerleft" 
d="M242 780h60v-384l43 -42h190v-60h-203q-12 0 -21 9l-60 60q-9 9 -9 21v396z" />
    <glyph glyph-name="dec_intersect" 
d="M244 800h61v-446h231v-61h-231v-493h-61v493h-244v61h244v446z" />
    <glyph glyph-name="dec_hbar1" 
d="M0 720h536v-61h-536v61z" />
    <glyph glyph-name="dec_hbar2" 
d="M0 537h536v-61h-536v61z" />
    <glyph glyph-name="dec_hbar3" 
d="M0 354h536v-61h-536v61z" />
    <glyph glyph-name="dec_hbar4" 
d="M0 171h536v-62h-536v62z" />
    <glyph glyph-name="dec_hbar5" 
d="M0 -13h536v-60h-536v60z" />
    <glyph glyph-name="dec_leftjoin" 
d="M244 800h61v-446h231v-61h-231v-493h-61v1000z" />
    <glyph glyph-name="dec_rightjoin" 
d="M244 800h61v-1000h-61v493h-244v61h244v446z" />
    <glyph glyph-name="dec_bottomjoin" 
d="M244 799h61v-445h231v-61h-536v61h244v445z" />
    <glyph glyph-name="dec_topjoin" 
d="M0 354h536v-61h-231v-492h-61v492h-244v61z" />
    <glyph glyph-name="dec_vbar" 
d="M244 800h61v-1000h-61v1000z" />
    <glyph glyph-name="dec_notgreater" 
d="M418 99q8 -10 8 -22q0 -10 -9 -21q-7 -8 -21 -10q-11 -1 -21 4l-243 245v56l242 249q9 5 20 3q10 -1 18 -9q8 -7 10 -21q2 -12 -4 -22l-228 -228zM92 -13h366v-60h-366v60z" />
    <glyph glyph-name="dec_notless" 
d="M138 549q-7 8 -7 22q0 10 9 21q8 9 20 11q11 1 22 -5l243 -245v-55l-242 -250q-8 -4 -20 -2t-18 8q-9 8 -11 21q-1 11 5 22l227 228zM92 -13h366v-60h-366v60z" />
    <glyph glyph-name="dec_pi" 
d="M61 537h427v-61h-61l1 -427h-62v427l-183 1v-335q0 -6 -3 -13l-34 -80l-54 26l31 74v328h-61z" />
    <glyph glyph-name="dec_notequal" 
d="M107 112l-42 42l76 77h-80v62h142l61 61h-204v61h265l117 117l42 -42l-74 -75h77v-61h-138l-61 -61h200v-62h-262z" />
    <glyph glyph-name="dec_sterling" 
d="M155 110l-7 2h-28v-6h28zM244 140l8 -2q8 -4 11 -7l22 -21h100l53 50l41 -44l-62 -58q-8 -8 -21 -8h-122q-11 0 -21 8l-26 25l-20 6l-34 -33q-6 -6 -21 -6h-62q-12 0 -21 8t-9 20v61q0 12 9 21t21 9h60q2 0 5.5 -0.5t4.5 -0.5l24 -8v193h-124v61h124v153q0 13 8 21l60 61
q10 10 22 10h64q11 0 21 -10l60 -60l-43 -42l-51 51h-39l-42 -43v-141h122v-61h-122v-213z" />
    <glyph glyph-name="dec_periodcentered" 
d="M184 354h121v-123h-121v123z" />
    <glyph glyph-name="NameMe.702" 
d="M121 668v-550h294v550h-294zM60 729h416v-671h-416v671z" />
    <glyph glyph-name="NameMe.721" 
d="M37 405h152v156l322 -248l-322 -247v154h-152v185zM97 345v-65h152v-93l164 126l-164 126v-94h-152z" />
    <glyph glyph-name="NameMe.1114234" 
d="M511 222h-152v-156l-322 248l322 247v-154h152v-185zM451 282v65h-152v93l-164 -126l164 -126v94h152z" />
    <glyph glyph-name="NameMe.755" 
d="M54 470h427v-61h-366v-104h244v-61h-244v-135h366v-60h-427v421z" />
    <glyph glyph-name="NameMe.756" 
d="M56 470h59v-318l42 -42h222l41 43v317h60v-329q0 -12 -8 -20l-58 -61q-10 -10 -22 -10h-248q-12 0 -21 9l-59 59q-8 8 -8 21v331z" />
    <glyph glyph-name="smalll" 
d="M297 123l13 -14h49v-60h-61q-12 0 -21 9l-31 31q-9 9 -9 21v361h60v-348z" />
    <glyph glyph-name="racute" 
d="M166 313v-263l-60 -1l1 335q0 12 -9 22q-10 9 -23 9h-17l-1 60l49 1q15 0 37 -20t23 -42v-18l69 70q9 9 21 9l73 1q13 0 21 -9l63 -61q9 -9 9 -22v-30h-60v18l-45 43h-48zM188 486q-9 9 -9 21q0 13 9 22l120 121q9 9 21 9q13 0 22 -9t9 -22q0 -12 -9 -21l-120 -121
q-9 -9 -22 -9q-12 0 -21 9z" />
    <glyph glyph-name="NameMe.814" 
d="M106 315q0 -70 49 -119t119 -49t119 49t49 119t-49 119t-119 49t-119 -49t-49 -119zM46 315q0 95 67 161.5t161 66.5t161 -66.5t67 -161.5t-67 -161.5t-161 -66.5t-161 66.5t-67 161.5z" />
    <glyph glyph-name="NameMe.822" 
d="M30 769h476v-936h-476v936z" />
    <glyph glyph-name="NameMe.848" 
d="M116 148v-99h-59v254q0 11 9 20l180 181q8 9 20 9q14 0 23 -9l183 -182q8 -8 8 -21v-252h-60l1 99h-305zM117 209h303v80l-153 152l-150 -151v-81z" />
    <glyph glyph-name="NameMe.857" 
d="M90 312h304l-152 -182z" />
    <glyph glyph-name="NameMe.879" 
d="M281 539l-40 -41v-82h121v-61h-122v-306h-59v306h-124v61h124v94q0 13 8 21l57 59q9 9 22 9h154v-60h-141z" />
    <glyph glyph-name="NameMe.878" 
d="M297 123l13 -14h49v-60h-61q-12 0 -21 9l-31 31q-9 9 -9 21v299h-123v61h123v127h60v-127h123v-61h-123v-286z" />
  </font>
</defs>
</svg>
