<?xml version="1.0" standalone="no"?>
<!DOCTYPE svg PUBLIC "-//W3C//DTD SVG 1.1//EN" "http://www.w3.org/Graphics/SVG/1.1/DTD/svg11.dtd" >
<svg>
<metadata>
Created by FontForge 20120731 at Tue Mar  5 18:01:39 2019
 By www-data
(c) 2014  Andrew Young, disasterfonts.co.uk
</metadata>
<defs>
<font id="LazenbyComputer-Smooth" horiz-adv-x="620" >
  <font-face 
    font-family="Lazenby Computer"
    font-weight="400"
    font-stretch="normal"
    units-per-em="1000"
    panose-1="2 0 0 0 0 0 0 0 0 0"
    ascent="800"
    descent="-200"
    x-height="840"
    cap-height="840"
    bbox="-20 -180 910 1030"
    underline-thickness="19"
    underline-position="-114"
    unicode-range="U+000D-2260"
  />
<missing-glyph horiz-adv-x="840" 
d="M240 0q-75 0 -115.5 6t-59.5 26.5t-22 60t-3 107.5v440q0 67 3 107t22 60.5t59.5 26.5t115.5 6h360q75 0 115.5 -6t59.5 -26.5t22 -60.5t3 -107v-440q0 -68 -3 -107.5t-22 -60t-59.5 -26.5t-115.5 -6h-360zM120 200q0 -41 2 -65t13 -36t35.5 -15.5t69.5 -3.5h360
q45 0 69.5 3.5t35.5 15.5t13 36t2 65v440q0 41 -2 65t-13 36t-35.5 15.5t-69.5 3.5h-360q-45 0 -69.5 -3.5t-35.5 -15.5t-13 -36t-2 -65v-440z" />
    <glyph glyph-name=".notdef" horiz-adv-x="840" 
d="M240 0q-75 0 -115.5 6t-59.5 26.5t-22 60t-3 107.5v440q0 67 3 107t22 60.5t59.5 26.5t115.5 6h360q75 0 115.5 -6t59.5 -26.5t22 -60.5t3 -107v-440q0 -68 -3 -107.5t-22 -60t-59.5 -26.5t-115.5 -6h-360zM120 200q0 -41 2 -65t13 -36t35.5 -15.5t69.5 -3.5h360
q45 0 69.5 3.5t35.5 15.5t13 36t2 65v440q0 41 -2 65t-13 36t-35.5 15.5t-69.5 3.5h-360q-45 0 -69.5 -3.5t-35.5 -15.5t-13 -36t-2 -65v-440z" />
    <glyph glyph-name="nonmarkingreturn" unicode="&#xd;" horiz-adv-x="324" 
 />
    <glyph glyph-name="space" unicode=" " horiz-adv-x="360" 
 />
    <glyph glyph-name="exclam" unicode="!" horiz-adv-x="269" 
d="M31 663q-2 13 -3 27.5t-1 26.5q0 53 29.5 85t78.5 32t80 -32t31 -85q0 -12 -1.5 -29t-4.5 -32l-72 -392q-5 -38 -34 -38q-14 0 -23.5 10.5t-12.5 27.5zM40 106q0 26 2.5 42t11 24.5t24.5 11t42 2.5h30q26 0 42 -2.5t24.5 -11t11 -24.5t2.5 -42v-30q0 -26 -2.5 -42
t-11 -24.5t-24.5 -11t-42 -2.5h-30q-26 0 -42 2.5t-24.5 11t-11 24.5t-2.5 42v30z" />
    <glyph glyph-name="quotedbl" unicode="&#x22;" horiz-adv-x="280" 
d="M80 600q-23 0 -31.5 11t-8.5 49v110q0 38 8.5 49t31.5 11t31.5 -11t8.5 -49v-110q0 -38 -8.5 -49t-31.5 -11zM200 600q-23 0 -31.5 11t-8.5 49v110q0 38 8.5 49t31.5 11t31.5 -11t8.5 -49v-110q0 -38 -8.5 -49t-31.5 -11z" />
    <glyph glyph-name="numbersign" unicode="#" horiz-adv-x="600" 
d="M560 550q0 -11 -2.5 -17t-9 -9t-18 -3.5t-30.5 -0.5h-56l-54 -200h60q37 0 48.5 -4t11.5 -26q0 -11 -2.5 -17t-9 -9t-18 -3.5t-30.5 -0.5h-76l-58 -218q-5 -18 -8.5 -29t-7.5 -16.5t-10.5 -5.5t-17.5 3q-22 6 -22.5 19t9.5 49l53 198h-110l-58 -216q-5 -18 -8.5 -29
t-7.5 -16.5t-10.5 -5.5t-17.5 3q-22 6 -22.5 19t9.5 49l52 196h-39q-19 0 -30.5 0.5t-18 3.5t-9 9t-2.5 17t2.5 17t9 9t18 3.5t30.5 0.5h55l54 200h-59q-19 0 -30.5 0.5t-18 3.5t-9 9t-2.5 17t2.5 17t9 9t18 3.5t30.5 0.5h75l59 218q5 18 8.5 29t7.5 16.5t10.5 5.5t17.5 -3
q22 -6 22.5 -19t-9.5 -49l-54 -198h111l58 216q5 18 8.5 29t7.5 16.5t10.5 5.5t17.5 -3q22 -6 22.5 -19t-9.5 -49l-53 -196h40q37 0 48.5 -4t11.5 -26zM218 320h110l54 200h-111z" />
    <glyph glyph-name="dollar" unicode="$" horiz-adv-x="501" 
d="M200 -70q-11 0 -17 2.5t-9 9t-3.5 18t-0.5 30.5v10h-69q-20 0 -32 3t-18 8t-8 12.5t-2 16.5t1.5 16.5t7.5 12.5t18 8t32 3h70v260q-46 1 -72 6.5t-39 22t-16 47.5t-3 84v100q0 52 3 83.5t16 48t39 22t72 6.5v10q0 19 0.5 30.5t3.5 18t9 9t17 2.5q22 0 26 -11.5t4 -48.5
v-10h40v10q0 19 0.5 30.5t3.5 18t9 9t17 2.5q22 0 26 -11.5t4 -48.5v-10h70q20 0 32 -3t18 -8t8 -12.5t2 -16.5t-1.5 -16.5t-7.5 -12.5t-18 -8t-32 -3h-71v-260q45 -1 71 -6.5t39 -22.5t16.5 -48.5t3.5 -83.5v-100q0 -52 -3 -83t-16 -47.5t-39.5 -22t-71.5 -6.5v-10
q0 -19 -0.5 -30.5t-3.5 -18t-9 -9t-17 -2.5t-17 2.5t-9 9t-3.5 18t-0.5 30.5v10h-40v-10q0 -19 -0.5 -30.5t-3.5 -18t-9 -9t-17 -2.5zM120 500q0 -44 9 -60t41 -19v258q-32 -3 -41 -19.5t-9 -59.5v-100zM380 259q0 44 -9 60.5t-41 19.5v-258q32 3 41 19.5t9 60.5v98zM230 80
h40v260h-40v-260zM230 420h40v260h-40v-260z" />
    <glyph glyph-name="percent" unicode="%" horiz-adv-x="680" 
d="M151 24q-6 -11 -14 -17.5t-19 -6.5q-14 0 -22 9.5t-8 17.5q0 7 2.5 13.5t6.5 13.5l423 749q6 11 14.5 17.5t18.5 6.5q14 0 22 -9.5t8 -17.5q0 -7 -2.5 -13.5t-6.5 -13.5zM170 480q-68 0 -99 26t-31 94v120q0 68 31 94t99 26h20q68 0 99 -26t31 -94v-120q0 -68 -31 -94
t-99 -26h-20zM100 620q0 -24 2.5 -39.5t11 -24.5t24.5 -12.5t42 -3.5t42 3.5t24.5 12.5t11 24.5t2.5 39.5v80q0 24 -2.5 39.5t-11 24.5t-24.5 12.5t-42 3.5t-42 -3.5t-24.5 -12.5t-11 -24.5t-2.5 -39.5v-80zM138 630v5q0 26 7 33t33 7h5q26 0 33 -7t7 -33v-5q0 -26 -7 -33
t-33 -7h-5q-26 0 -33 7t-7 33zM490 0q-68 0 -99 26t-31 94v120q0 68 31 94t99 26h20q68 0 99 -26t31 -94v-120q0 -68 -31 -94t-99 -26h-20zM420 140q0 -24 2.5 -39.5t11 -24.5t24.5 -12.5t42 -3.5t42 3.5t24.5 12.5t11 24.5t2.5 39.5v90q0 21 -2.5 34.5t-11 21.5t-24.5 11
t-42 3t-42 -3t-24.5 -11t-11 -21.5t-2.5 -34.5v-90zM458 150v5q0 26 7 33t33 7h5q26 0 33 -7t7 -33v-5q0 -26 -7 -33t-33 -7h-5q-26 0 -33 7t-7 33z" />
    <glyph glyph-name="ampersand" unicode="&#x26;" horiz-adv-x="659" 
d="M529 -23q-6 8 -10 12.5t-9 7t-11.5 3t-18.5 0.5h-360q-26 0 -42 2.5t-24.5 11t-11 24.5t-2.5 42v250q0 19 4 30.5t10.5 19t15.5 12t20 8.5q10 4 19.5 8t16 11.5t10.5 19.5t4 31v210q0 56 4 88t20 48t48 20t88 4h130q56 0 88 -4t48 -20t20 -48t4 -88v-140q0 -56 -4 -88
t-20 -48t-48 -20t-88 -4h-70q-9 0 -13 -4.5t4 -15.5l131 -182q14 -20 21 -16.5t9 17.5q2 19 11.5 25t26.5 6q23 0 31.5 -11t8.5 -49v-70q0 -19 1 -30.5t3 -19.5t6.5 -14.5t10.5 -15.5q19 -25 17.5 -38t-21.5 -27t-31.5 -10.5t-29.5 28.5zM510 680q0 26 -2.5 42t-11 24.5
t-24.5 11t-42 2.5h-130q-26 0 -42 -2.5t-24.5 -11t-11 -24.5t-2.5 -42v-110q0 -21 2.5 -29t12.5 -22l27 -38q5 -7 8.5 -11t8.5 -6.5t12 -3t19 -0.5h120q26 0 42 2.5t24.5 11t11 24.5t2.5 42v140zM220 80q0 -27 6.5 -33.5t33.5 -6.5h170q53 0 24 40l-186 256q-20 27 -34 22.5
t-14 -30.5v-248z" />
    <glyph glyph-name="quotesingle" unicode="'" horiz-adv-x="212" 
d="M30 772q0 21 2 33.5t9 19.5t19.5 9t33.5 2h24q21 0 33.5 -2t19.5 -9t9 -19.5t2 -33.5v-93q0 -24 -9 -45t-25.5 -37t-38.5 -25.5t-47 -9.5q-28 0 -28 16q0 13 9 20t20 14t20 17.5t9 31.5q0 15 -4.5 20.5t-28.5 13.5q-11 4 -16.5 6.5t-8.5 7t-3.5 11.5t-0.5 19v33z" />
    <glyph glyph-name="parenleft" unicode="(" horiz-adv-x="331" 
d="M268 10q17 -26 24 -38.5t7 -15.5q0 -5 -12 -5q-35 0 -91 52q-78 72 -120 174t-42 212t42 212t120 174q56 52 91 52q12 0 12 -5q0 -3 -7 -15.5t-24 -38.5q-58 -94 -83.5 -188.5t-25.5 -190.5t25.5 -190.5t83.5 -188.5z" />
    <glyph glyph-name="parenright" unicode=")" horiz-adv-x="331" 
d="M65 10q58 94 83.5 188.5t25.5 190.5t-25.5 190.5t-83.5 188.5q-17 26 -24 38.5t-7 15.5q0 5 12 5q35 0 91 -52q78 -72 120 -174t42 -212t-42 -212t-120 -174q-56 -52 -91 -52q-12 0 -12 5q0 3 7 15.5t24 38.5z" />
    <glyph glyph-name="asterisk" unicode="*" horiz-adv-x="328" 
d="M250 670q-1 -4 0 -8q2 -2 3 -3.5t2 -2.5l19 -30q5 -12 5 -11q0 -11 -6 -14l-36 -27q-8 -6 -20 -3q-8 2 -14 12l-15 23q-7 10 -16 10q-11 0 -15 -9l-20 -26q-5 -8 -13 -10q-9 -2 -14 2l-38 30q-5 3 -5 11q0 5 4 12l16 23q7 11 7 16q2 13 -7 14l-39 15q-6 1 -9 12t-2 15
l13 36q5 12 12 13q8 2 17 -1l28 -10q13 -4 19 -1q6 4 6 15v35q0 10 4 16.5t17 6.5h41q15 0 20 -5q3 -5 3 -14v-35q0 -9 2 -15q1 -2 9 -4h6l28 9q7 1 11 1.5t5 0.5q11 0 14 -10l14 -35q1 -11 0 -18q-1 -10 -11 -12l-36 -14q-6 -1 -9 -10z" />
    <glyph glyph-name="plus" unicode="+" horiz-adv-x="640" 
d="M320 140q-23 0 -31.5 11t-8.5 49v140q0 14 -1 22t-5 12t-12 5t-22 1h-140q-38 0 -49 8.5t-11 31.5t11 31.5t49 8.5h140q14 0 22 1t12 5t5 12t1 22v140q0 38 8.5 49t31.5 11t31.5 -11t8.5 -49v-140q0 -14 1 -22t5 -12t12 -5t22 -1h140q38 0 49 -8.5t11 -31.5t-11 -31.5
t-49 -8.5h-140q-14 0 -22 -1t-12 -5t-5 -12t-1 -22v-140q0 -38 -8.5 -49t-31.5 -11z" />
    <glyph glyph-name="comma" unicode="," horiz-adv-x="250" 
d="M30 106q0 26 2.5 42t11 24.5t24.5 11t42 2.5h30q26 0 42 -2.5t24.5 -11t11 -24.5t2.5 -42v-116q0 -30 -11.5 -56.5t-31.5 -46.5t-47.5 -31.5t-59.5 -11.5q-16 0 -25.5 5.5t-9.5 14.5q0 16 11 25t24.5 17.5t25 21.5t11.5 39q0 10 -1 16t-4.5 10t-12 8t-23.5 9
q-13 4 -20.5 8t-11 9t-4 14t-0.5 24v41z" />
    <glyph glyph-name="hyphen" unicode="-" horiz-adv-x="400" 
d="M40 420q0 23 11 31.5t49 8.5h200q38 0 49 -8.5t11 -31.5t-11 -31.5t-49 -8.5h-200q-38 0 -49 8.5t-11 31.5z" />
    <glyph glyph-name="period" unicode="." horiz-adv-x="250" 
d="M30 106q0 26 2.5 42t11 24.5t24.5 11t42 2.5h30q26 0 42 -2.5t24.5 -11t11 -24.5t2.5 -42v-30q0 -26 -2.5 -42t-11 -24.5t-24.5 -11t-42 -2.5h-30q-26 0 -42 2.5t-24.5 11t-11 24.5t-2.5 42v30z" />
    <glyph glyph-name="slash" unicode="/" horiz-adv-x="540" 
d="M84 24q-6 -11 -14 -17.5t-19 -6.5q-14 0 -22 9.5t-8 17.5q0 7 2.5 13.5t6.5 13.5l423 749q6 11 14.5 17.5t18.5 6.5q14 0 22 -9.5t8 -17.5q0 -7 -2.5 -13.5t-6.5 -13.5z" />
    <glyph glyph-name="zero" unicode="0" horiz-adv-x="700" 
d="M300 0q-68 0 -117 12t-80.5 40.5t-47 74t-15.5 113.5v360q0 67 15.5 113t47 74.5t80.5 40.5t117 12h100q67 0 116.5 -12t81 -40.5t47 -74.5t15.5 -113v-360q0 -68 -15.5 -113.5t-47 -74t-81 -40.5t-116.5 -12h-100zM120 240q0 -41 8.5 -71.5t29 -50t55 -29t87.5 -9.5h100
q52 0 87 9.5t55.5 29t29 50t8.5 71.5v360q0 41 -8.5 71.5t-29 50t-55.5 29t-87 9.5h-100q-53 0 -87.5 -9.5t-55 -29t-29 -50t-8.5 -71.5v-360zM256 261v30q0 26 2.5 42t11 24.5t24.5 11t42 2.5h30q26 0 42 -2.5t24.5 -11t11 -24.5t2.5 -42v-30q0 -26 -2.5 -42t-11 -24.5
t-24.5 -11t-42 -2.5h-30q-26 0 -42 2.5t-24.5 11t-11 24.5t-2.5 42z" />
    <glyph glyph-name="one" unicode="1" horiz-adv-x="400" 
d="M40 319q0 19 4.5 29t11.5 16t16.5 8.5t20.5 6.5q10 4 19 6.5t15 8.5t9.5 16t3.5 29v201q0 19 -4 29t-11.5 16t-17 8.5t-19.5 6.5q-11 4 -19.5 8t-15 11.5t-10 19t-3.5 31.5q0 22 2.5 36t11 21.5t24.5 10t42 2.5h20q26 0 42 -2.5t24.5 -11t11 -24.5t2.5 -42v-300
q0 -27 2.5 -42.5t10 -24t21 -11t36.5 -2.5q22 0 36 -3t21.5 -11.5t10 -24t2.5 -41.5v-220q0 -26 -2.5 -42t-11 -24.5t-24.5 -11t-42 -2.5h-160q-26 0 -42 2.5t-24.5 11t-11 24.5t-2.5 42v239z" />
    <glyph glyph-name="two" unicode="2" horiz-adv-x="441" 
d="M201 80h140q20 0 32 -3t18 -8t7.5 -12.5t1.5 -16.5t-2 -16.5t-8 -12.5t-18 -8t-32 -3h-139q-56 0 -88.5 4t-48.5 19.5t-19.5 47.5t-3.5 88v130q0 57 4 89t20 48t48 20t88 4h40q26 0 42 2.5t24.5 11t11 24.5t2.5 42v150q0 26 -2.5 42t-11 24.5t-24.5 11t-42 2.5h-141
q-20 0 -32 3t-18 8t-7.5 12.5t-1.5 16.5t2 16.5t8 12.5t18 8t32 3h140q56 0 88 -4t48 -20t20 -48t4 -88v-150q0 -56 -4 -88t-20 -48t-48 -20t-88 -4h-40q-26 0 -42 -2.5t-24.5 -11t-11 -24.5t-2.5 -43v-128q0 -27 2.5 -43t11 -24.5t24.5 -11t42 -2.5z" />
    <glyph glyph-name="three" unicode="3" horiz-adv-x="530" 
d="M100 380q-38 0 -49 11t-11 29t11 29t49 11h130q26 0 42 2.5t24.5 11t11 24.5t2.5 42v140q0 26 -2.5 42t-11 24.5t-24.5 11t-42 2.5h-130q-38 0 -49 11t-11 29t11 29t49 11h130q56 0 88 -4t48 -20t20 -48t4 -88v-179q0 -38 9.5 -55.5t30.5 -25.5t40.5 -25.5t19.5 -55.5
v-179q0 -56 -4 -88t-20 -48t-48 -20t-88 -4h-230q-38 0 -49 11t-11 29t11 29t49 11h130q26 0 42 2.5t24.5 11t11 24.5t2.5 42v140q0 26 -2.5 42t-11 24.5t-24.5 11t-42 2.5h-130z" />
    <glyph glyph-name="four" unicode="4" 
d="M400 120q0 26 -2.5 42t-11 24.5t-24.5 11t-42 2.5h-120q-56 0 -88 4t-48 20t-20 48t-4 88v400q0 26 2.5 42t11 24.5t24.5 11t42 2.5h20q26 0 42 -2.5t24.5 -11t11 -24.5t2.5 -42v-400q0 -26 2.5 -42t11 -24.5t24.5 -11t42 -2.5h58q20 0 28.5 6t11.5 15t5 19t8.5 19
t21.5 15t45 6h22q26 0 42 -2.5t24.5 -11t11 -24.5t2.5 -42v-201q0 -26 -2.5 -41.5t-11 -24t-24.5 -11t-42 -2.5h-20q-26 0 -42 2.5t-24.5 11t-11 24.5t-2.5 42v40z" />
    <glyph glyph-name="five" unicode="5" horiz-adv-x="521" 
d="M240 80q26 0 42 2.5t24.5 11t11 24.5t2.5 43v128q0 27 -2.5 43t-11 24.5t-24.5 11t-42 2.5h-40q-56 0 -88 4t-48 20t-20 48t-4 88v150q0 56 4 88t20 48t48 20t88 4h220q20 0 32 -3t18 -8t8 -12.5t2 -16.5t-1.5 -16.5t-7.5 -12.5t-18 -8t-32 -3h-221q-26 0 -42 -2.5
t-24.5 -11t-11 -24.5t-2.5 -42v-150q0 -26 2.5 -42t11 -24.5t24.5 -11t42 -2.5h120q56 0 88 -4t48 -20t20 -48t4 -89v-130q0 -56 -3.5 -88t-19.5 -47.5t-48.5 -19.5t-88.5 -4h-219q-20 0 -32 3t-18 8t-8 12.5t-2 16.5t1.5 16.5t7.5 12.5t18 8t32 3h140z" />
    <glyph glyph-name="six" unicode="6" 
d="M320 683q0 25 -2.5 40t-11 23.5t-24.5 11t-42 2.5h-39q-27 0 -43 -2.5t-24.5 -11t-11 -24.5t-2.5 -42v-240q0 -26 2.5 -42t11 -24.5t24.5 -11t43 -2.5h219q56 0 88 -4t48 -20t20 -48t4 -88v-40q0 -56 -4 -88t-20 -48t-48 -20t-88 -4h-220q-56 0 -88 4t-48 20t-20 48
t-4 88v520q0 56 4 88t20 48t48 20t89 4h39q56 0 88 -4t48 -20t20 -48t4 -88v-10q0 -38 -8.5 -49t-31.5 -11t-31.5 11t-8.5 49v13zM120 160q0 -26 2.5 -42t11 -24.5t24.5 -11t42 -2.5h220q26 0 42 2.5t24.5 11t11 24.5t2.5 42v39q0 26 -2.5 42t-11 24.5t-24.5 11t-42 2.5
h-220q-26 0 -42 -2.5t-24.5 -11t-11 -24t-2.5 -41.5v-40z" />
    <glyph glyph-name="seven" unicode="7" horiz-adv-x="540" 
d="M420 680q0 26 -2.5 42t-11 24.5t-24.5 11t-43 2.5h-139q-26 0 -42 -2.5t-24.5 -11t-11 -23.5t-2.5 -40v-73q0 -38 -8.5 -49t-31.5 -11t-31.5 11t-8.5 49v70q0 56 4 88t20 48t48 20t88 4h139q57 0 89 -4t48 -20t20 -48t4 -88v-80q0 -42 -1.5 -65.5t-10 -38t-27.5 -25.5
t-54 -27l-63 -30q-17 -8 -25.5 -13t-13 -12.5t-5 -20.5t-0.5 -35v-273q0 -38 -8.5 -49t-31.5 -11t-31.5 11t-8.5 49v273q0 42 1.5 65t9.5 37.5t26.5 25t51.5 26.5l63 30q18 9 27.5 14.5t14 13.5t5.5 20.5t1 34.5v80z" />
    <glyph glyph-name="eight" unicode="8" horiz-adv-x="700" 
d="M200 0q-56 0 -88 4t-48 20t-20 48t-4 88v189q0 38 19.5 55.5t40.5 25.5t30.5 25.5t9.5 55.5v169q0 56 4 88t20 48t48 20t88 4h100q56 0 88 -4t48 -20t20 -48t4 -88v-169q0 -38 9.5 -55.5t30.5 -25.5t40.5 -25.5t19.5 -55.5v-189q0 -56 -4 -88t-20 -48t-48 -20t-88 -4
h-300zM300 380q-26 0 -42 -2.5t-24.5 -11t-11 -24.5t-2.5 -42v-140q0 -26 2.5 -42t11 -24.5t24.5 -11t42 -2.5h100q26 0 42 2.5t24.5 11t11 24.5t2.5 42v140q0 26 -2.5 42t-11 24.5t-24.5 11t-42 2.5h-100zM300 760q-26 0 -42 -2.5t-24.5 -11t-11 -24.5t-2.5 -42v-140
q0 -26 2.5 -42t11 -24.5t24.5 -11t42 -2.5h100q26 0 42 2.5t24.5 11t11 24.5t2.5 42v140q0 26 -2.5 42t-11 24.5t-24.5 11t-42 2.5h-100z" />
    <glyph glyph-name="nine" unicode="9" 
d="M500 0q-34 0 -53.5 3t-30 12t-13.5 27t-3 48v210q0 26 -2.5 42t-11 24.5t-24.5 11t-43 2.5h-119q-56 0 -88 4t-48 20t-20 48t-4 88v140q0 56 4 88t20 48t48 20t88 4h220q56 0 88 -4t48 -20t20 -48t4 -88v-590q0 -30 -2.5 -48t-11 -27t-24.5 -12t-42 -3zM500 680
q0 26 -2.5 42t-11 24.5t-24.5 11t-42 2.5h-220q-26 0 -42 -2.5t-24.5 -11t-11 -24.5t-2.5 -42v-139q0 -26 2.5 -42t11 -24.5t24.5 -11t42 -2.5h220q26 0 42 2.5t24.5 11t11 24t2.5 41.5v140z" />
    <glyph glyph-name="colon" unicode=":" horiz-adv-x="250" 
d="M30 106q0 26 2.5 42t11 24.5t24.5 11t42 2.5h30q26 0 42 -2.5t24.5 -11t11 -24.5t2.5 -42v-30q0 -26 -2.5 -42t-11 -24.5t-24.5 -11t-42 -2.5h-30q-26 0 -42 2.5t-24.5 11t-11 24.5t-2.5 42v30zM30 456q0 26 2.5 42t11 24.5t24.5 11t42 2.5h30q26 0 42 -2.5t24.5 -11
t11 -24.5t2.5 -42v-30q0 -26 -2.5 -42t-11 -24.5t-24.5 -11t-42 -2.5h-30q-26 0 -42 2.5t-24.5 11t-11 24.5t-2.5 42v30z" />
    <glyph glyph-name="semicolon" unicode=";" horiz-adv-x="250" 
d="M30 456q0 26 2.5 42t11 24.5t24.5 11t42 2.5h30q26 0 42 -2.5t24.5 -11t11 -24.5t2.5 -42v-30q0 -26 -2.5 -42t-11 -24.5t-24.5 -11t-42 -2.5h-30q-26 0 -42 2.5t-24.5 11t-11 24.5t-2.5 42v30zM30 106q0 26 2.5 42t11 24.5t24.5 11t42 2.5h30q26 0 42 -2.5t24.5 -11
t11 -24.5t2.5 -42v-116q0 -30 -11.5 -56.5t-31.5 -46.5t-47.5 -31.5t-59.5 -11.5q-16 0 -25.5 5.5t-9.5 14.5q0 16 11 25t24.5 17.5t25 21.5t11.5 39q0 10 -1 16t-4.5 10t-12 8t-23.5 9q-13 4 -20.5 8t-11 9t-4 14t-0.5 24v41z" />
    <glyph glyph-name="less" unicode="&#x3c;" horiz-adv-x="599" 
d="M508 313q17 -7 27 -12t15.5 -10t7 -11.5t1.5 -16.5q0 -20 -4.5 -31t-19.5 -11q-16 0 -46 13l-320 131q-27 11 -51 12t-41 2.5t-27 9t-10 31.5t9 31.5t26 9t40.5 2t53.5 12.5l320 131q30 13 47 13q15 0 19 -11t4 -31q0 -11 -1.5 -17t-7 -11t-15.5 -10t-27 -12l-219 -90
q-18 -8 -18 -17q0 -10 18 -17z" />
    <glyph glyph-name="equal" unicode="=" horiz-adv-x="560" 
d="M40 500q0 23 11 31.5t49 8.5h360q38 0 49 -8.5t11 -31.5t-11 -31.5t-49 -8.5h-360q-38 0 -49 8.5t-11 31.5zM40 340q0 23 11 31.5t49 8.5h360q38 0 49 -8.5t11 -31.5t-11 -31.5t-49 -8.5h-360q-38 0 -49 8.5t-11 31.5z" />
    <glyph glyph-name="greater" unicode="&#x3e;" horiz-adv-x="599" 
d="M91 528q-17 7 -27.5 12t-15.5 10t-6.5 11t-1.5 17q0 20 4 30.5t20 10.5q14 0 46 -12l320 -131q27 -11 51 -12t41 -2.5t27 -9t10 -31.5q0 -25 -9 -32t-26 -8.5t-41 -2t-53 -12.5l-320 -131q-32 -13 -47 -13t-19 11t-4 31q0 10 1.5 16.5t6.5 11.5t15.5 10t27.5 12l219 90
q18 7 18 17q0 9 -18 17z" />
    <glyph glyph-name="question" unicode="?" horiz-adv-x="540" 
d="M164 106q0 26 2.5 42t11 24.5t24.5 11t42 2.5h30q26 0 42 -2.5t24.5 -11t11 -24.5t2.5 -42v-30q0 -26 -2.5 -42t-11 -24.5t-24.5 -11t-42 -2.5h-30q-26 0 -42 2.5t-24.5 11t-11 24.5t-2.5 42v30zM420 680q0 26 -2.5 42t-11 24.5t-24.5 11t-43 2.5h-139q-26 0 -42 -2.5
t-24.5 -11t-11 -23.5t-2.5 -40v-73q0 -38 -8.5 -49t-31.5 -11t-31.5 11t-8.5 49v70q0 56 4 88t20 48t48 20t88 4h139q57 0 89 -4t48 -20t20 -48t4 -88v-80q0 -42 -1.5 -65.5t-10 -38t-27.5 -25.5t-54 -27l-63 -30q-17 -8 -25.5 -13t-13 -12.5t-5 -20.5t-0.5 -35v-33
q0 -38 -8.5 -49t-31.5 -11t-31.5 11t-8.5 49v33q0 42 1.5 65t9.5 37.5t26.5 25t51.5 26.5l63 30q18 9 27.5 14.5t14 13.5t5.5 20.5t1 34.5v80z" />
    <glyph glyph-name="at" unicode="@" horiz-adv-x="700" 
d="M275 0q-26 0 -42 2.5t-24.5 11t-11 24.5t-2.5 42v85q0 19 7 25t18 10t18 10t7 25v45q0 28 2 44t10 24t24 10t44 2h75q28 0 44 -2t24 -10t10 -24t2 -44v-170q0 -23 8.5 -31.5t31.5 -8.5q19 0 31 3t18.5 12t8.5 27t2 48v140q0 41 -8.5 71.5t-29 50t-55.5 29t-87 9.5h-100
q-53 0 -87.5 -9.5t-55 -29t-29 -50t-8.5 -71.5v-220q0 -41 8.5 -71.5t29 -50t55 -29t87.5 -9.5h80q38 0 49 -8.5t11 -31.5t-11 -31.5t-49 -8.5h-80q-68 0 -117 12t-80.5 40.5t-47 74t-15.5 113.5v220q0 67 15.5 113t47 74.5t80.5 40.5t117 12h100q67 0 116.5 -12t81 -40.5
t47 -74.5t15.5 -113v-140q0 -56 -4 -88t-20 -48t-48 -20t-88 -4h-225zM420 260q0 26 -7 33t-33 7h-35q-26 0 -33 -7t-7 -33v-150q0 -26 7 -33t33 -7h35q26 0 33 7t7 33v150z" />
    <glyph glyph-name="A" unicode="A" horiz-adv-x="630" 
d="M220 80q0 -26 -2.5 -42t-11 -24.5t-24.5 -11t-42 -2.5h-20q-26 0 -42 2.5t-24.5 11t-11 24.5t-2.5 42v250q0 19 4 30.5t10.5 19t15.5 12t20 8.5q10 4 19.5 8t16 11.5t10.5 19.5t4 31v210q0 56 4 88t20 48t48 20t88 4h130q56 0 88 -4t48 -20t20 -48t4 -88v-620
q0 -38 -8.5 -49.5t-31.5 -11.5t-31.5 11.5t-8.5 49.5v240q0 26 -2.5 42t-11 24.5t-24.5 11t-42 2.5h-130q-26 0 -42 -2.5t-24.5 -11.5t-11 -25t-2.5 -43v-218zM510 680q0 26 -2.5 42t-11 24.5t-24.5 11t-42 2.5h-130q-26 0 -42 -2.5t-24.5 -11t-11 -24.5t-2.5 -42v-140
q0 -26 2.5 -42t11 -24.5t24.5 -11t42 -2.5h130q26 0 42 2.5t24.5 11t11 24.5t2.5 42v140z" />
    <glyph glyph-name="B" unicode="B" horiz-adv-x="640" 
d="M340 840q56 0 88 -4t48 -20t20 -48t4 -88v-129q0 -38 9.5 -55.5t30.5 -25.5t40.5 -25.5t19.5 -55.5v-229q0 -56 -4 -88t-20 -48t-48 -20t-88 -4h-240q-56 0 -88 4t-48 20t-20 48t-4 88v520q0 56 4 88t20 48t48 20t88 4h140zM300 390q-26 0 -42 -2.5t-24.5 -11t-11 -24.5
t-2.5 -42v-150q0 -26 2.5 -42t11 -24.5t24.5 -11t42 -2.5h140q26 0 42 2.5t24.5 11t11 24.5t2.5 42v150q0 26 -2.5 42t-11 24.5t-24.5 11t-42 2.5h-140zM220 550q0 -26 2.5 -42t11 -24.5t24.5 -11t42 -2.5h40q26 0 42 2.5t24.5 11t11 24.5t2.5 42v130q0 26 -2.5 42t-11 24.5
t-24.5 11t-42 2.5h-40q-26 0 -42 -2.5t-24.5 -11t-11 -24.5t-2.5 -42v-130z" />
    <glyph glyph-name="C" unicode="C" horiz-adv-x="540" 
d="M40 680q0 56 4 88t20 48t48 20t88 4h140q56 0 88 -4t48 -20t20 -48t4 -88v-50q0 -23 -2.5 -36.5t-10 -21t-21 -10t-35.5 -2.5h-41q-23 0 -36.5 2.5t-21 10t-10 21t-2.5 36.5v49q0 27 -2.5 43t-11 24.5t-24.5 11t-42 2.5h-40q-26 0 -42 -2.5t-24.5 -11t-11 -24.5t-2.5 -42
v-520q0 -26 2.5 -42t11 -24.5t24.5 -11t42 -2.5h140q26 0 42 2.5t24.5 11t11 24.5t2.5 42v60q0 19 1.5 30.5t5.5 18t11.5 9t20.5 2.5q26 0 33.5 -11t7.5 -49v-60q0 -56 -4 -88t-20 -48t-48 -20t-88 -4h-140q-56 0 -88 4t-48 20t-20 48t-4 88v520z" />
    <glyph glyph-name="D" unicode="D" 
d="M40 760q0 26 2.5 42t11 24.5t24.5 11t42 2.5h200q67 0 116.5 -12t81 -40.5t47 -74.5t15.5 -113v-360q0 -68 -15.5 -113.5t-47 -74t-81 -40.5t-116.5 -12h-200q-26 0 -42 2.5t-24.5 11t-11 24.5t-2.5 42v680zM500 600q0 41 -8.5 71.5t-29 50t-55.5 29t-87 9.5h-20
q-26 0 -42 -2.5t-24.5 -11t-11 -24.5t-2.5 -43v-519q0 -26 2.5 -42t11 -24.5t24 -11t42.5 -2.5h20q52 0 87 9.5t55.5 29t29 50t8.5 71.5v360z" />
    <glyph glyph-name="E" unicode="E" horiz-adv-x="520" 
d="M40 680q0 56 4 88t20 48t48 20t88 4h220q38 0 49 -8.5t11 -31.5t-11 -31.5t-49 -8.5h-220q-26 0 -42 -2.5t-24.5 -11t-11 -24.5t-2.5 -42v-140q0 -26 2.5 -42t11 -24.5t24.5 -11t42 -2.5h220q38 0 49 -8.5t11 -31.5t-11 -31.5t-49 -8.5h-120q-26 0 -42 -2.5t-24.5 -11
t-11 -24.5t-2.5 -42v-140q0 -26 2.5 -42t11 -24.5t24.5 -11t42 -2.5h120q38 0 49 -8.5t11 -31.5t-11 -31.5t-49 -8.5h-220q-56 0 -88 4t-48 20t-20 48t-4 88v520z" />
    <glyph glyph-name="F" unicode="F" horiz-adv-x="500" 
d="M40 680q0 56 4 88t20 48t48 20t88 4h200q38 0 49 -8.5t11 -31.5t-11 -31.5t-49 -8.5h-100q-26 0 -42 -2.5t-24.5 -11t-11 -24.5t-2.5 -42v-140q0 -26 2.5 -42t11 -24.5t24.5 -11t42 -2.5h100q38 0 49 -8.5t11 -31.5t-11 -31.5t-49 -8.5h-100q-26 0 -42 -2.5t-24.5 -11
t-11 -24.5t-2.5 -43v-239q0 -38 -8.5 -49t-31.5 -11t-31.5 11t-8.5 49v310q0 19 -5.5 30.5t-14 19t-19.5 12t-21 8.5q-11 4 -18.5 8t-12 11.5t-7 19.5t-2.5 31v170z" />
    <glyph glyph-name="G" unicode="G" horiz-adv-x="630" 
d="M400 380q-30 0 -40 8.5t-10 31.5t10 31.5t40 8.5h30q56 0 88 -4t48 -20t20 -48t4 -88v-140q0 -56 -4 -88t-19.5 -48t-47.5 -20t-88 -4h-231q-56 0 -88 4t-48 20t-20 48t-4 88v520q0 56 4 88t20 48t48 20t88 4h222q55 0 87 -4t47.5 -20t19.5 -48t4 -88v-10
q0 -23 -2.5 -36.5t-11 -21t-24.5 -10t-42 -2.5t-42 2.5t-24.5 10t-11 21t-2.5 36.5v18q0 26 -2.5 42t-11 24.5t-24.5 11t-42 2.5h-40q-26 0 -42 -2.5t-24.5 -11t-11 -24.5t-2.5 -42v-528q0 -26 2.5 -42t11 -24.5t24.5 -11t42 -2.5h130q26 0 42 2.5t24.5 11t11 24.5t2.5 42
v140q0 26 -2.5 42t-11 24.5t-24.5 11t-42 2.5h-30z" />
    <glyph glyph-name="H" unicode="H" horiz-adv-x="600" 
d="M480 300q0 26 -2.5 42t-11 24.5t-24.5 11t-42 2.5h-100q-26 0 -42 -2.5t-24.5 -11t-11 -24.5t-2.5 -42v-220q0 -26 -2.5 -42t-11 -24.5t-24.5 -11t-42 -2.5h-20q-26 0 -42 2.5t-24.5 11t-11 24.5t-2.5 42v710q0 30 8.5 40t31.5 10t31.5 -10t8.5 -40v-250q0 -26 2.5 -42
t11 -24.5t24.5 -11t43 -2.5h199q26 0 42 2.5t24.5 11t11 24.5t2.5 42v250q0 30 8.5 40t31.5 10t31.5 -10t8.5 -40v-730q0 -38 -8.5 -49t-31.5 -11t-31.5 11t-8.5 49v240z" />
    <glyph glyph-name="I" unicode="I" horiz-adv-x="260" 
d="M40 320q0 19 4 30.5t10.5 19t15.5 12t20 8.5q10 4 19.5 8t16 11.5t10.5 19.5t4 31v320q0 38 8.5 49t31.5 11t31.5 -11t8.5 -49v-700q0 -26 -2.5 -42t-11 -24.5t-24.5 -11t-42 -2.5h-20q-26 0 -42 2.5t-24.5 11t-11 24.5t-2.5 42v240z" />
    <glyph glyph-name="J" unicode="J" horiz-adv-x="640" 
d="M460 840q23 0 31.5 -11t8.5 -49v-250q0 -19 4 -31t10.5 -19.5t15.5 -11.5t20 -8q10 -4 19.5 -8.5t16 -12t10.5 -19t4 -30.5v-230q0 -56 -4 -88t-20 -48t-48 -20t-88 -4h-240q-56 0 -88 4t-48 20t-20 48t-4 88v40v10q0 22 2.5 36t11 21.5t24.5 10t42 2.5t42 -2.5t24.5 -10
t11 -21.5t2.5 -36v-10v-39q0 -27 2.5 -43.5t11 -25t24.5 -11t42 -2.5l60 1q26 0 42 2.5t24.5 11t11 24t2.5 42.5v620q0 38 8.5 49t31.5 11z" />
    <glyph glyph-name="K" unicode="K" horiz-adv-x="650" 
d="M430 300q0 26 -2.5 42t-11 24.5t-24.5 11t-42 2.5h-50q-26 0 -42 -2.5t-24.5 -11t-11 -24.5t-2.5 -42v-220q0 -26 -2.5 -42t-11 -24.5t-24.5 -11t-42 -2.5h-20q-26 0 -42 2.5t-24.5 11t-11 24.5t-2.5 42v700q0 38 8.5 49t31.5 11t31.5 -11t8.5 -49v-240q0 -38 18 -43.5
t48 23.5l294 281q11 10 19.5 17.5t18 11.5t21 6t28.5 2q23 0 30.5 -6.5t7.5 -14.5q0 -12 -19 -31l-279 -266q-32 -30 -30 -45t48 -15h205q26 0 41.5 -2.5t24 -11t11.5 -24.5t3 -42v-300q0 -26 -2.5 -42t-11 -24.5t-24.5 -11t-42 -2.5h-20q-26 0 -42 2.5t-24.5 11t-11 24.5
t-2.5 42v220z" />
    <glyph glyph-name="L" unicode="L" horiz-adv-x="510" 
d="M120 0q-26 0 -42 2.5t-24.5 11t-11 24.5t-2.5 42v240q0 19 4 30.5t10.5 19t15.5 12t20 8.5q10 4 19.5 8t16 11.5t10.5 19.5t4 31v320q0 38 8.5 49t31.5 11t31.5 -11t8.5 -49v-620q0 -26 2.5 -42t11 -24.5t24.5 -11t42 -2.5h120q38 0 49 -9t11 -33q0 -21 -11 -29.5
t-49 -8.5h-300z" />
    <glyph glyph-name="M" unicode="M" horiz-adv-x="740" 
d="M281 637q11 -23 26.5 -23t27.5 22l83 145q12 21 20 32.5t18 17.5t24.5 7.5t39.5 1.5h100q26 0 42 -2.5t24.5 -11t11 -24.5t2.5 -42v-680q0 -26 -2.5 -42t-11 -24.5t-24.5 -11t-42 -2.5h-20q-26 0 -42 2.5t-24.5 11t-11 24.5t-2.5 42v640q0 16 -4.5 23.5t-10.5 8
t-12.5 -4.5t-10.5 -12l-147 -255q-15 -26 -35 -27t-33 27l-116 251q-6 14 -18.5 13t-12.5 -24v-660q0 -38 -8.5 -49t-31.5 -11t-31.5 11t-8.5 49v700q0 26 2.5 42t11 24.5t24.5 11t42 2.5h14q20 0 32 -1.5t19.5 -7.5t14 -17.5t15.5 -32.5zM230 166q0 26 2.5 42t11 24.5
t24.5 11t42 2.5h20q26 0 42 -2.5t24.5 -11t11 -24.5t2.5 -42v-90q0 -26 -2.5 -42t-11 -24.5t-24.5 -11t-42 -2.5h-20q-26 0 -42 2.5t-24.5 11t-11 24.5t-2.5 42v90z" />
    <glyph glyph-name="N" unicode="N" horiz-adv-x="640" 
d="M520 240q0 28 -0.5 44t-4.5 28t-12 23.5t-23 29.5l-301 366q-11 13 -18.5 18t-18.5 5t-16.5 -7t-5.5 -27v-660q0 -38 -8.5 -49t-31.5 -11t-31.5 11t-8.5 49v700q0 26 2.5 42t11 24.5t24.5 11t42 2.5h20q18 0 29 -1t20.5 -6.5t21 -17.5t29.5 -34l231 -282q17 -20 29 -20
q20 0 20 41v260q0 38 8.5 49t31.5 11t31.5 -11t8.5 -49v-720q0 -38 -8.5 -49t-31.5 -11t-31.5 11t-8.5 49v180zM230 166q0 26 2.5 42t11 24.5t24.5 11t42 2.5h20q26 0 42 -2.5t24.5 -11t11 -24.5t2.5 -42v-90q0 -26 -2.5 -42t-11 -24.5t-24.5 -11t-42 -2.5h-20
q-26 0 -42 2.5t-24.5 11t-11 24.5t-2.5 42v90z" />
    <glyph glyph-name="O" unicode="O" 
d="M40 680q0 56 4 88t20 48t48 20t88 4h220q56 0 88 -4t48 -20t20 -48t4 -88v-520q0 -56 -4 -88t-20 -48t-48 -20t-88 -4h-220q-56 0 -88 4t-48 20t-20 48t-4 88v520zM400 410q0 19 4 30.5t10.5 19t15.5 12t20 8.5q10 4 19.5 8t16 11.5t10.5 19.5t4 31v130q0 26 -2.5 42
t-11 24.5t-24.5 11t-42 2.5h-220q-26 0 -42 -2.5t-24.5 -11t-11 -24.5t-2.5 -42v-520q0 -26 2.5 -42t11.5 -24.5t25.5 -11t43.5 -2.5h117q26 0 42 2.5t24.5 11t11 24.5t2.5 42v250z" />
    <glyph glyph-name="P" unicode="P" horiz-adv-x="600" 
d="M220 80q0 -26 -2.5 -42t-11 -24.5t-24.5 -11t-42 -2.5h-20q-26 0 -42 2.5t-24.5 11t-11 24.5t-2.5 42v600q0 56 4 88t20 48t48 20t88 4h200q56 0 88 -4t48 -20t20 -48t4 -88v-140q0 -56 -4 -88t-20 -48t-48 -20t-88 -4h-100q-26 0 -42 -2.5t-24.5 -11t-11 -24.5t-2.5 -42
v-220zM120 540q0 -26 2.5 -42t11 -24.5t24.5 -11t42 -2.5h200q26 0 42 2.5t24.5 11t11 24.5t2.5 42v140q0 26 -2.5 42t-11 24.5t-24.5 11t-42 2.5h-200q-26 0 -42 -2.5t-24.5 -11t-11 -24.5t-2.5 -42v-140z" />
    <glyph glyph-name="Q" unicode="Q" 
d="M580 160q0 -37 -1.5 -63t-6.5 -43t-15 -27t-27 -14q-24 -6 -24 -18q0 -4 1.5 -10.5t4.5 -13.5l15 -32q10 -23 10 -33q0 -13 -15.5 -24.5t-32.5 -11.5q-18 0 -34 35l-26 56q-6 13 -10.5 20.5t-10 11.5t-14.5 5.5t-24 1.5h-170q-56 0 -88 4t-48 20t-20 48t-4 88v520
q0 56 4 88t20 48t48 20t88 4h220q56 0 88 -4t48 -20t20 -48t4 -88v-520zM200 160q0 -26 2.5 -42t11 -24.5t24.5 -11t42 -2.5h36q26 0 37.5 3.5t11.5 13.5q0 7 -8 25l-26 55q-10 20 -10 33t15.5 24t32.5 11q11 0 18.5 -8t15.5 -26l43 -91q12 -25 27 -25q11 0 19 16t8 49v520
q0 26 -2.5 42t-11 24.5t-24.5 11t-42 2.5h-220q-26 0 -42 -2.5t-24.5 -11t-11 -24.5t-2.5 -42v-30q0 -19 2.5 -31t7 -19.5t12 -11.5t18.5 -8q10 -4 18 -8.5t12.5 -12t7 -19t2.5 -30.5v-350z" />
    <glyph glyph-name="R" unicode="R" horiz-adv-x="660" 
d="M440 298q0 27 -2.5 43t-11 25t-24.5 11.5t-42 2.5h-60q-26 0 -42 -2.5t-24.5 -11t-11 -24.5t-2.5 -42v-220q0 -26 -2.5 -42t-11 -24.5t-24.5 -11t-42 -2.5h-20q-26 0 -42 2.5t-24.5 11t-11 24.5t-2.5 42v600q0 56 4 88t20 48t48 20t88 4h160q56 0 88 -4t48 -20t20 -48
t4 -88v-140q0 -19 4 -31t10.5 -19.5t15.5 -11.5t20 -8q10 -4 19.5 -8.5t16 -12t10.5 -19t4 -30.5v-320q0 -26 -2.5 -42t-11 -24.5t-24.5 -11t-42 -2.5h-20q-26 0 -42 2.5t-24.5 11t-11 24.5t-2.5 42v218zM120 540q0 -26 2.5 -42t11 -24.5t24.5 -11t42 -2.5h160q26 0 42 2.5
t24.5 11t11 24.5t2.5 42v140q0 26 -2.5 42t-11 24.5t-24.5 11t-42 2.5h-160q-26 0 -42 -2.5t-24.5 -11t-11 -24.5t-2.5 -42v-140z" />
    <glyph glyph-name="S" unicode="S" horiz-adv-x="541" 
d="M40 680q0 56 4 88t20 48t48 20t88 4h140q56 0 88 -4t48 -20t20 -48t4 -88v-40q0 -20 -3 -32t-8 -18t-12.5 -8t-16.5 -2t-16.5 1.5t-12.5 7.5t-8 18t-3 32v41q0 26 -2.5 42t-11 24.5t-24.5 11t-42 2.5h-140q-26 0 -42 -2.5t-24.5 -11t-11 -24.5t-2.5 -42v-140
q0 -26 2.5 -42t11 -24.5t24.5 -11t42 -2.5h140q56 0 88 -4t48 -20t20 -48t4 -89v-140q0 -56 -3.5 -88t-19.5 -47.5t-48.5 -19.5t-88.5 -4h-140q-56 0 -88 4t-48 20t-20 48t-4 88v20q0 26 2.5 42t11 24.5t24.5 11t42 2.5t42 -2.5t24.5 -11t11 -24.5t2.5 -42v-20
q0 -26 2.5 -42t11 -24.5t24.5 -11t42 -2.5h60q26 0 42 2.5t24.5 11t11 24t2.5 42.5v139q0 27 -2.5 43t-11 24.5t-24.5 11t-42 2.5h-140q-56 0 -88 4t-48 20t-20 48t-4 88v140z" />
    <glyph glyph-name="T" unicode="T" 
d="M30 799q0 23 11 32t49 9h440q38 0 49 -9t11 -32q0 -22 -11 -30.5t-49 -8.5h-40q-26 0 -42 -2.5t-24.5 -11t-11 -24.5t-2.5 -42v-600q0 -26 -2.5 -42t-11.5 -24.5t-26.5 -11t-47.5 -2.5q-31 0 -49 2.5t-27.5 11t-12.5 24.5t-3 42v600q0 26 -2.5 42t-11 24.5t-24.5 11
t-42 2.5h-60q-38 0 -49 8.5t-11 30.5z" />
    <glyph glyph-name="U" unicode="U" horiz-adv-x="560" 
d="M40 780q0 38 8.5 49t31.5 11t31.5 -11t8.5 -49v-620q0 -27 2.5 -42.5t11 -24t24.5 -11t42 -2.5h60q26 0 42 2.5t24.5 11t11 24t2.5 42.5v600q0 26 2.5 42t11 24.5t24.5 11t42 2.5h20q26 0 42 -2.5t24.5 -11t11 -24.5t2.5 -42v-600q0 -56 -4 -88t-20 -48t-48 -20t-88 -4
h-160q-56 0 -88 4t-48 20t-20 48t-4 88v620z" />
    <glyph glyph-name="V" unicode="V" horiz-adv-x="560" 
d="M238 120q17 -26 25 -32.5t19 -6.5t18 5t21 19q11 11 15 21.5t4 33.5v600q0 26 2.5 42t11 24.5t24.5 11t42 2.5h20q26 0 42 -2.5t24.5 -11t11 -24.5t2.5 -42v-490q0 -30 -4.5 -55t-25.5 -45l-116 -110q-35 -34 -56.5 -49t-44.5 -15q-14 0 -24.5 3t-20 10t-19.5 19.5
t-22 31.5l-107 168q-13 20 -20.5 34t-12 27.5t-6 29.5t-1.5 41v420q0 38 8.5 49t31.5 11t31.5 -11t8.5 -49v-420q0 -20 0.5 -32t3 -21.5t7.5 -18t13 -21.5z" />
    <glyph glyph-name="W" unicode="W" horiz-adv-x="730" 
d="M255 80q-8 -28 -15.5 -44t-17 -24t-24 -10t-36.5 -2h-42q-26 0 -42 2.5t-24.5 11t-11 24.5t-2.5 42v680q0 26 2.5 42t11 24.5t24.5 11t42 2.5h20q26 0 42 -2.5t24.5 -11t11 -24.5t2.5 -42v-460q0 -24 9 -24q5 0 8 4t7 18l46 154q8 29 22 42t30 13q14 0 28 -11t24 -32
l165 -355q13 -27 30 -27q9 0 15 9t6 29v660q0 38 8.5 49t31.5 11t31.5 -11t8.5 -49v-700q0 -26 -2.5 -42t-11 -24.5t-24.5 -11t-42 -2.5h-34q-21 0 -32.5 1.5t-19 7.5t-14 17.5t-15.5 32.5l-140 301q-5 8 -10 8t-8 -9zM500 670q0 -26 -2.5 -42t-11 -24.5t-24.5 -11t-42 -2.5
h-20q-26 0 -42 2.5t-24.5 11t-11 24.5t-2.5 42v90q0 26 2.5 42t11 24.5t24.5 11t42 2.5h20q26 0 42 -2.5t24.5 -11t11 -24.5t2.5 -42v-90z" />
    <glyph glyph-name="X" unicode="X" horiz-adv-x="544" 
d="M40 247q0 15 1.5 25t5.5 18t12 16t22 19l59 44q11 8 19 14.5t13 13t7.5 14.5t2.5 20v3q0 25 -9.5 37.5t-32.5 29.5l-59 44q-14 10 -22 18.5t-12 16.5t-5.5 18t-1.5 25v157q0 38 8.5 49t31.5 11t31.5 -11t8.5 -49v-109q0 -35 4 -49.5t15 -23.5l73 -58q18 -14 31.5 -19.5
t28.5 -5.5t28.5 5.5t31.5 19.5l73 58q11 9 15 23.5t4 49.5v109q0 38 8.5 49t31.5 11t31.5 -11t8.5 -49v-157q0 -15 -1.5 -25t-5.5 -18t-12.5 -16.5t-21.5 -18.5l-59 -44q-11 -8 -19 -14.5t-13 -13t-7.5 -14.5t-2.5 -20v-3q0 -13 2 -21.5t7 -16t13 -14t20 -15.5l59 -44
q13 -11 21.5 -19t12.5 -16t5.5 -18t1.5 -25v-187q0 -38 -8.5 -49t-31.5 -11t-31.5 11t-8.5 49v139q0 35 -4 49.5t-15 23.5l-73 58q-18 14 -31.5 19.5t-28.5 5.5t-28.5 -5.5t-31.5 -19.5l-73 -58q-11 -9 -15 -23.5t-4 -49.5v-139q0 -38 -8.5 -49t-31.5 -11t-31.5 11t-8.5 49
v187z" />
    <glyph glyph-name="Y" unicode="Y" horiz-adv-x="544" 
d="M504 523q0 -15 -1.5 -25t-5.5 -18t-12.5 -16.5t-21.5 -18.5l-59 -44q-23 -17 -32 -37.5t-10 -44.5v-239q0 -26 -2.5 -42t-11 -24.5t-24.5 -11t-42 -2.5h-20q-26 0 -42 2.5t-24.5 11t-11 24.5t-2.5 42v234q0 26 -9.5 48t-32.5 39l-59 44q-14 10 -22 18.5t-12 16.5t-5.5 18
t-1.5 25v257q0 38 8.5 49t31.5 11t31.5 -11t8.5 -49v-209q0 -35 4 -49.5t15 -23.5l73 -58q18 -14 31.5 -19.5t28.5 -5.5t28.5 5.5t31.5 19.5l73 58q11 9 15 23.5t4 49.5v209q0 38 8.5 49t31.5 11t31.5 -11t8.5 -49v-257z" />
    <glyph glyph-name="Z" unicode="Z" horiz-adv-x="598" 
d="M48 680q0 56 4 88t20 48t48 20t88 4h265q28 0 42 -6.5t17.5 -18t-0.5 -26t-13 -29.5l-350 -640q-12 -21 -10 -30.5t28 -9.5h111q26 0 42 2.5t24.5 11t11 24.5t2.5 42v40q0 26 2.5 42t11 24.5t24.5 11t42 2.5h20q26 0 42 -2.5t24.5 -11t11 -24.5t2.5 -42v-120
q0 -26 -2.5 -42t-11 -24.5t-24.5 -11t-42 -2.5h-375q-28 0 -42 6.5t-18 18t0 26t13 29.5l351 640q12 21 10 30.5t-28 9.5h-181q-26 0 -42 -2.5t-24.5 -11t-11 -24.5t-2.5 -42v-50q0 -38 -8.5 -49t-31.5 -11t-31.5 11t-8.5 49v50z" />
    <glyph glyph-name="bracketleft" unicode="[" horiz-adv-x="300" 
d="M40 700q0 56 4 88t20 48t48 20t88 4q38 0 49 -8.5t11 -31.5t-11 -31.5t-49 -8.5q-26 0 -42 -2.5t-24.5 -11t-11 -24.5t-2.5 -42v-640q0 -26 2.5 -42t11 -24.5t24.5 -11t42 -2.5q38 0 49 -8.5t11 -31.5t-11 -31.5t-49 -8.5q-56 0 -88 4t-48 20t-20 48t-4 88v640z" />
    <glyph glyph-name="backslash" unicode="\" horiz-adv-x="540" 
d="M30 773q-4 7 -6.5 13.5t-2.5 13.5q0 8 8 17.5t22 9.5q10 0 18.5 -6.5t14.5 -17.5l423 -749q4 -7 6.5 -13.5t2.5 -13.5q0 -8 -8 -17.5t-22 -9.5q-11 0 -19 6.5t-14 17.5z" />
    <glyph glyph-name="bracketright" unicode="]" horiz-adv-x="300" 
d="M260 60q0 -56 -4 -88t-20 -48t-48 -20t-88 -4q-38 0 -49 8.5t-11 31.5t11 31.5t49 8.5q26 0 42 2.5t24.5 11t11 24.5t2.5 42v640q0 26 -2.5 42t-11 24.5t-24.5 11t-42 2.5q-38 0 -49 8.5t-11 31.5t11 31.5t49 8.5q56 0 88 -4t48 -20t20 -48t4 -88v-640z" />
    <glyph glyph-name="asciicircum" unicode="^" horiz-adv-x="604" 
d="M280 810q19 18 39 0l121 -105q17 -14 13.5 -24.5t-23.5 -10.5h-260q-20 0 -23 10.5t13 24.5z" />
    <glyph glyph-name="underscore" unicode="_" horiz-adv-x="540" 
d="M40 40q0 23 11 31.5t49 8.5h340q38 0 49 -8.5t11 -31.5t-11 -31.5t-49 -8.5h-340q-38 0 -49 8.5t-11 31.5z" />
    <glyph glyph-name="grave" unicode="`" horiz-adv-x="604" 
d="M220 790q17 0 26 -7t9 -27v-42q0 -20 -5.5 -27t-21.5 -7h-6q-23 0 -31 5t-20 21l-26 35q-15 19 -15 32q0 11 9.5 14t22.5 3h58z" />
    <glyph glyph-name="a" unicode="a" horiz-adv-x="630" 
d="M220 80q0 -26 -2.5 -42t-11 -24.5t-24.5 -11t-42 -2.5h-20q-26 0 -42 2.5t-24.5 11t-11 24.5t-2.5 42v250q0 19 4 30.5t10.5 19t15.5 12t20 8.5q10 4 19.5 8t16 11.5t10.5 19.5t4 31v210q0 56 4 88t20 48t48 20t88 4h130q56 0 88 -4t48 -20t20 -48t4 -88v-620
q0 -38 -8.5 -49.5t-31.5 -11.5t-31.5 11.5t-8.5 49.5v240q0 26 -2.5 42t-11 24.5t-24.5 11t-42 2.5h-130q-26 0 -42 -2.5t-24.5 -11.5t-11 -25t-2.5 -43v-218zM510 680q0 26 -2.5 42t-11 24.5t-24.5 11t-42 2.5h-130q-26 0 -42 -2.5t-24.5 -11t-11 -24.5t-2.5 -42v-140
q0 -26 2.5 -42t11 -24.5t24.5 -11t42 -2.5h130q26 0 42 2.5t24.5 11t11 24.5t2.5 42v140z" />
    <glyph glyph-name="b" unicode="b" horiz-adv-x="640" 
d="M340 840q56 0 88 -4t48 -20t20 -48t4 -88v-129q0 -38 9.5 -55.5t30.5 -25.5t40.5 -25.5t19.5 -55.5v-229q0 -56 -4 -88t-20 -48t-48 -20t-88 -4h-240q-56 0 -88 4t-48 20t-20 48t-4 88v520q0 56 4 88t20 48t48 20t88 4h140zM300 390q-26 0 -42 -2.5t-24.5 -11t-11 -24.5
t-2.5 -42v-150q0 -26 2.5 -42t11 -24.5t24.5 -11t42 -2.5h140q26 0 42 2.5t24.5 11t11 24.5t2.5 42v150q0 26 -2.5 42t-11 24.5t-24.5 11t-42 2.5h-140zM220 550q0 -26 2.5 -42t11 -24.5t24.5 -11t42 -2.5h40q26 0 42 2.5t24.5 11t11 24.5t2.5 42v130q0 26 -2.5 42t-11 24.5
t-24.5 11t-42 2.5h-40q-26 0 -42 -2.5t-24.5 -11t-11 -24.5t-2.5 -42v-130z" />
    <glyph glyph-name="c" unicode="c" horiz-adv-x="540" 
d="M40 680q0 56 4 88t20 48t48 20t88 4h140q56 0 88 -4t48 -20t20 -48t4 -88v-50q0 -23 -2.5 -36.5t-10 -21t-21 -10t-35.5 -2.5h-41q-23 0 -36.5 2.5t-21 10t-10 21t-2.5 36.5v49q0 27 -2.5 43t-11 24.5t-24.5 11t-42 2.5h-40q-26 0 -42 -2.5t-24.5 -11t-11 -24.5t-2.5 -42
v-520q0 -26 2.5 -42t11 -24.5t24.5 -11t42 -2.5h140q26 0 42 2.5t24.5 11t11 24.5t2.5 42v60q0 19 1.5 30.5t5.5 18t11.5 9t20.5 2.5q26 0 33.5 -11t7.5 -49v-60q0 -56 -4 -88t-20 -48t-48 -20t-88 -4h-140q-56 0 -88 4t-48 20t-20 48t-4 88v520z" />
    <glyph glyph-name="d" unicode="d" 
d="M40 760q0 26 2.5 42t11 24.5t24.5 11t42 2.5h200q67 0 116.5 -12t81 -40.5t47 -74.5t15.5 -113v-360q0 -68 -15.5 -113.5t-47 -74t-81 -40.5t-116.5 -12h-200q-26 0 -42 2.5t-24.5 11t-11 24.5t-2.5 42v680zM500 600q0 41 -8.5 71.5t-29 50t-55.5 29t-87 9.5h-20
q-26 0 -42 -2.5t-24.5 -11t-11 -24.5t-2.5 -43v-519q0 -26 2.5 -42t11 -24.5t24 -11t42.5 -2.5h20q52 0 87 9.5t55.5 29t29 50t8.5 71.5v360z" />
    <glyph glyph-name="e" unicode="e" horiz-adv-x="520" 
d="M40 680q0 56 4 88t20 48t48 20t88 4h220q38 0 49 -8.5t11 -31.5t-11 -31.5t-49 -8.5h-220q-26 0 -42 -2.5t-24.5 -11t-11 -24.5t-2.5 -42v-140q0 -26 2.5 -42t11 -24.5t24.5 -11t42 -2.5h220q38 0 49 -8.5t11 -31.5t-11 -31.5t-49 -8.5h-120q-26 0 -42 -2.5t-24.5 -11
t-11 -24.5t-2.5 -42v-140q0 -26 2.5 -42t11 -24.5t24.5 -11t42 -2.5h120q38 0 49 -8.5t11 -31.5t-11 -31.5t-49 -8.5h-220q-56 0 -88 4t-48 20t-20 48t-4 88v520z" />
    <glyph glyph-name="f" unicode="f" horiz-adv-x="500" 
d="M40 680q0 56 4 88t20 48t48 20t88 4h200q38 0 49 -8.5t11 -31.5t-11 -31.5t-49 -8.5h-100q-26 0 -42 -2.5t-24.5 -11t-11 -24.5t-2.5 -42v-140q0 -26 2.5 -42t11 -24.5t24.5 -11t42 -2.5h100q38 0 49 -8.5t11 -31.5t-11 -31.5t-49 -8.5h-100q-26 0 -42 -2.5t-24.5 -11
t-11 -24.5t-2.5 -43v-239q0 -38 -8.5 -49t-31.5 -11t-31.5 11t-8.5 49v310q0 19 -5.5 30.5t-14 19t-19.5 12t-21 8.5q-11 4 -18.5 8t-12 11.5t-7 19.5t-2.5 31v170z" />
    <glyph glyph-name="g" unicode="g" horiz-adv-x="630" 
d="M400 380q-30 0 -40 8.5t-10 31.5t10 31.5t40 8.5h30q56 0 88 -4t48 -20t20 -48t4 -88v-140q0 -56 -4 -88t-19.5 -48t-47.5 -20t-88 -4h-231q-56 0 -88 4t-48 20t-20 48t-4 88v520q0 56 4 88t20 48t48 20t88 4h222q55 0 87 -4t47.5 -20t19.5 -48t4 -88v-10
q0 -23 -2.5 -36.5t-11 -21t-24.5 -10t-42 -2.5t-42 2.5t-24.5 10t-11 21t-2.5 36.5v18q0 26 -2.5 42t-11 24.5t-24.5 11t-42 2.5h-40q-26 0 -42 -2.5t-24.5 -11t-11 -24.5t-2.5 -42v-528q0 -26 2.5 -42t11 -24.5t24.5 -11t42 -2.5h130q26 0 42 2.5t24.5 11t11 24.5t2.5 42
v140q0 26 -2.5 42t-11 24.5t-24.5 11t-42 2.5h-30z" />
    <glyph glyph-name="h" unicode="h" horiz-adv-x="600" 
d="M480 300q0 26 -2.5 42t-11 24.5t-24.5 11t-42 2.5h-100q-26 0 -42 -2.5t-24.5 -11t-11 -24.5t-2.5 -42v-220q0 -26 -2.5 -42t-11 -24.5t-24.5 -11t-42 -2.5h-20q-26 0 -42 2.5t-24.5 11t-11 24.5t-2.5 42v710q0 30 8.5 40t31.5 10t31.5 -10t8.5 -40v-250q0 -26 2.5 -42
t11 -24.5t24.5 -11t43 -2.5h199q26 0 42 2.5t24.5 11t11 24.5t2.5 42v250q0 30 8.5 40t31.5 10t31.5 -10t8.5 -40v-730q0 -38 -8.5 -49t-31.5 -11t-31.5 11t-8.5 49v240z" />
    <glyph glyph-name="i" unicode="i" horiz-adv-x="260" 
d="M40 320q0 19 4 30.5t10.5 19t15.5 12t20 8.5q10 4 19.5 8t16 11.5t10.5 19.5t4 31v320q0 38 8.5 49t31.5 11t31.5 -11t8.5 -49v-700q0 -26 -2.5 -42t-11 -24.5t-24.5 -11t-42 -2.5h-20q-26 0 -42 2.5t-24.5 11t-11 24.5t-2.5 42v240z" />
    <glyph glyph-name="j" unicode="j" horiz-adv-x="640" 
d="M460 840q23 0 31.5 -11t8.5 -49v-250q0 -19 4 -31t10.5 -19.5t15.5 -11.5t20 -8q10 -4 19.5 -8.5t16 -12t10.5 -19t4 -30.5v-230q0 -56 -4 -88t-20 -48t-48 -20t-88 -4h-240q-56 0 -88 4t-48 20t-20 48t-4 88v40v10q0 22 2.5 36t11 21.5t24.5 10t42 2.5t42 -2.5t24.5 -10
t11 -21.5t2.5 -36v-10v-39q0 -27 2.5 -43.5t11 -25t24.5 -11t42 -2.5l60 1q26 0 42 2.5t24.5 11t11 24t2.5 42.5v620q0 38 8.5 49t31.5 11z" />
    <glyph glyph-name="k" unicode="k" horiz-adv-x="650" 
d="M430 300q0 26 -2.5 42t-11 24.5t-24.5 11t-42 2.5h-50q-26 0 -42 -2.5t-24.5 -11t-11 -24.5t-2.5 -42v-220q0 -26 -2.5 -42t-11 -24.5t-24.5 -11t-42 -2.5h-20q-26 0 -42 2.5t-24.5 11t-11 24.5t-2.5 42v700q0 38 8.5 49t31.5 11t31.5 -11t8.5 -49v-240q0 -38 18 -43.5
t48 23.5l294 281q11 10 19.5 17.5t18 11.5t21 6t28.5 2q23 0 30.5 -6.5t7.5 -14.5q0 -12 -19 -31l-279 -266q-32 -30 -30 -45t48 -15h205q26 0 41.5 -2.5t24 -11t11.5 -24.5t3 -42v-300q0 -26 -2.5 -42t-11 -24.5t-24.5 -11t-42 -2.5h-20q-26 0 -42 2.5t-24.5 11t-11 24.5
t-2.5 42v220z" />
    <glyph glyph-name="l" unicode="l" horiz-adv-x="510" 
d="M120 0q-26 0 -42 2.5t-24.5 11t-11 24.5t-2.5 42v240q0 19 4 30.5t10.5 19t15.5 12t20 8.5q10 4 19.5 8t16 11.5t10.5 19.5t4 31v320q0 38 8.5 49t31.5 11t31.5 -11t8.5 -49v-620q0 -26 2.5 -42t11 -24.5t24.5 -11t42 -2.5h120q38 0 49 -9t11 -33q0 -21 -11 -29.5
t-49 -8.5h-300z" />
    <glyph glyph-name="m" unicode="m" horiz-adv-x="740" 
d="M281 637q11 -23 26.5 -23t27.5 22l83 145q12 21 20 32.5t18 17.5t24.5 7.5t39.5 1.5h100q26 0 42 -2.5t24.5 -11t11 -24.5t2.5 -42v-680q0 -26 -2.5 -42t-11 -24.5t-24.5 -11t-42 -2.5h-20q-26 0 -42 2.5t-24.5 11t-11 24.5t-2.5 42v640q0 16 -4.5 23.5t-10.5 8
t-12.5 -4.5t-10.5 -12l-147 -255q-15 -26 -35 -27t-33 27l-116 251q-6 14 -18.5 13t-12.5 -24v-660q0 -38 -8.5 -49t-31.5 -11t-31.5 11t-8.5 49v700q0 26 2.5 42t11 24.5t24.5 11t42 2.5h14q20 0 32 -1.5t19.5 -7.5t14 -17.5t15.5 -32.5z" />
    <glyph glyph-name="n" unicode="n" horiz-adv-x="640" 
d="M520 240q0 28 -0.5 44t-4.5 28t-12 23.5t-23 29.5l-301 366q-11 13 -18.5 18t-18.5 5t-16.5 -7t-5.5 -27v-660q0 -38 -8.5 -49t-31.5 -11t-31.5 11t-8.5 49v700q0 26 2.5 42t11 24.5t24.5 11t42 2.5h20q18 0 29 -1t20.5 -6.5t21 -17.5t29.5 -34l231 -282q17 -20 29 -20
q20 0 20 41v260q0 38 8.5 49t31.5 11t31.5 -11t8.5 -49v-720q0 -38 -8.5 -49t-31.5 -11t-31.5 11t-8.5 49v180z" />
    <glyph glyph-name="o" unicode="o" 
d="M40 680q0 56 4 88t20 48t48 20t88 4h220q56 0 88 -4t48 -20t20 -48t4 -88v-520q0 -56 -4 -88t-20 -48t-48 -20t-88 -4h-220q-56 0 -88 4t-48 20t-20 48t-4 88v520zM400 410q0 19 4 30.5t10.5 19t15.5 12t20 8.5q10 4 19.5 8t16 11.5t10.5 19.5t4 31v130q0 26 -2.5 42
t-11 24.5t-24.5 11t-42 2.5h-220q-26 0 -42 -2.5t-24.5 -11t-11 -24.5t-2.5 -42v-520q0 -26 2.5 -42t11.5 -24.5t25.5 -11t43.5 -2.5h117q26 0 42 2.5t24.5 11t11 24.5t2.5 42v250z" />
    <glyph glyph-name="p" unicode="p" horiz-adv-x="600" 
d="M220 80q0 -26 -2.5 -42t-11 -24.5t-24.5 -11t-42 -2.5h-20q-26 0 -42 2.5t-24.5 11t-11 24.5t-2.5 42v600q0 56 4 88t20 48t48 20t88 4h200q56 0 88 -4t48 -20t20 -48t4 -88v-140q0 -56 -4 -88t-20 -48t-48 -20t-88 -4h-100q-26 0 -42 -2.5t-24.5 -11t-11 -24.5t-2.5 -42
v-220zM120 540q0 -26 2.5 -42t11 -24.5t24.5 -11t42 -2.5h200q26 0 42 2.5t24.5 11t11 24.5t2.5 42v140q0 26 -2.5 42t-11 24.5t-24.5 11t-42 2.5h-200q-26 0 -42 -2.5t-24.5 -11t-11 -24.5t-2.5 -42v-140z" />
    <glyph glyph-name="q" unicode="q" 
d="M580 160q0 -37 -1.5 -63t-6.5 -43t-15 -27t-27 -14q-24 -6 -24 -18q0 -4 1.5 -10.5t4.5 -13.5l15 -32q10 -23 10 -33q0 -13 -15.5 -24.5t-32.5 -11.5q-18 0 -34 35l-26 56q-6 13 -10.5 20.5t-10 11.5t-14.5 5.5t-24 1.5h-170q-56 0 -88 4t-48 20t-20 48t-4 88v520
q0 56 4 88t20 48t48 20t88 4h220q56 0 88 -4t48 -20t20 -48t4 -88v-520zM200 160q0 -26 2.5 -42t11 -24.5t24.5 -11t42 -2.5h36q26 0 37.5 3.5t11.5 13.5q0 7 -8 25l-26 55q-10 20 -10 33t15.5 24t32.5 11q11 0 18.5 -8t15.5 -26l43 -91q12 -25 27 -25q11 0 19 16t8 49v520
q0 26 -2.5 42t-11 24.5t-24.5 11t-42 2.5h-220q-26 0 -42 -2.5t-24.5 -11t-11 -24.5t-2.5 -42v-30q0 -19 2.5 -31t7 -19.5t12 -11.5t18.5 -8q10 -4 18 -8.5t12.5 -12t7 -19t2.5 -30.5v-350z" />
    <glyph glyph-name="r" unicode="r" horiz-adv-x="660" 
d="M440 298q0 27 -2.5 43t-11 25t-24.5 11.5t-42 2.5h-60q-26 0 -42 -2.5t-24.5 -11t-11 -24.5t-2.5 -42v-220q0 -26 -2.5 -42t-11 -24.5t-24.5 -11t-42 -2.5h-20q-26 0 -42 2.5t-24.5 11t-11 24.5t-2.5 42v600q0 56 4 88t20 48t48 20t88 4h160q56 0 88 -4t48 -20t20 -48
t4 -88v-140q0 -19 4 -31t10.5 -19.5t15.5 -11.5t20 -8q10 -4 19.5 -8.5t16 -12t10.5 -19t4 -30.5v-320q0 -26 -2.5 -42t-11 -24.5t-24.5 -11t-42 -2.5h-20q-26 0 -42 2.5t-24.5 11t-11 24.5t-2.5 42v218zM120 540q0 -26 2.5 -42t11 -24.5t24.5 -11t42 -2.5h160q26 0 42 2.5
t24.5 11t11 24.5t2.5 42v140q0 26 -2.5 42t-11 24.5t-24.5 11t-42 2.5h-160q-26 0 -42 -2.5t-24.5 -11t-11 -24.5t-2.5 -42v-140z" />
    <glyph glyph-name="s" unicode="s" horiz-adv-x="541" 
d="M40 680q0 56 4 88t20 48t48 20t88 4h140q56 0 88 -4t48 -20t20 -48t4 -88v-40q0 -20 -3 -32t-8 -18t-12.5 -8t-16.5 -2t-16.5 1.5t-12.5 7.5t-8 18t-3 32v41q0 26 -2.5 42t-11 24.5t-24.5 11t-42 2.5h-140q-26 0 -42 -2.5t-24.5 -11t-11 -24.5t-2.5 -42v-140
q0 -26 2.5 -42t11 -24.5t24.5 -11t42 -2.5h140q56 0 88 -4t48 -20t20 -48t4 -89v-140q0 -56 -3.5 -88t-19.5 -47.5t-48.5 -19.5t-88.5 -4h-140q-56 0 -88 4t-48 20t-20 48t-4 88v20q0 26 2.5 42t11 24.5t24.5 11t42 2.5t42 -2.5t24.5 -11t11 -24.5t2.5 -42v-20
q0 -26 2.5 -42t11 -24.5t24.5 -11t42 -2.5h60q26 0 42 2.5t24.5 11t11 24t2.5 42.5v139q0 27 -2.5 43t-11 24.5t-24.5 11t-42 2.5h-140q-56 0 -88 4t-48 20t-20 48t-4 88v140z" />
    <glyph glyph-name="t" unicode="t" 
d="M30 799q0 23 11 32t49 9h440q38 0 49 -9t11 -32q0 -22 -11 -30.5t-49 -8.5h-40q-26 0 -42 -2.5t-24.5 -11t-11 -24.5t-2.5 -42v-600q0 -26 -2.5 -42t-11.5 -24.5t-26.5 -11t-47.5 -2.5q-31 0 -49 2.5t-27.5 11t-12.5 24.5t-3 42v600q0 26 -2.5 42t-11 24.5t-24.5 11
t-42 2.5h-60q-38 0 -49 8.5t-11 30.5z" />
    <glyph glyph-name="u" unicode="u" horiz-adv-x="560" 
d="M40 780q0 38 8.5 49t31.5 11t31.5 -11t8.5 -49v-620q0 -27 2.5 -42.5t11 -24t24.5 -11t42 -2.5h60q26 0 42 2.5t24.5 11t11 24t2.5 42.5v600q0 26 2.5 42t11 24.5t24.5 11t42 2.5h20q26 0 42 -2.5t24.5 -11t11 -24.5t2.5 -42v-600q0 -56 -4 -88t-20 -48t-48 -20t-88 -4
h-160q-56 0 -88 4t-48 20t-20 48t-4 88v620z" />
    <glyph glyph-name="v" unicode="v" horiz-adv-x="560" 
d="M238 120q17 -26 25 -32.5t19 -6.5t18 5t21 19q11 11 15 21.5t4 33.5v600q0 26 2.5 42t11 24.5t24.5 11t42 2.5h20q26 0 42 -2.5t24.5 -11t11 -24.5t2.5 -42v-490q0 -30 -4.5 -55t-25.5 -45l-116 -110q-35 -34 -56.5 -49t-44.5 -15q-14 0 -24.5 3t-20 10t-19.5 19.5
t-22 31.5l-107 168q-13 20 -20.5 34t-12 27.5t-6 29.5t-1.5 41v420q0 38 8.5 49t31.5 11t31.5 -11t8.5 -49v-420q0 -20 0.5 -32t3 -21.5t7.5 -18t13 -21.5z" />
    <glyph glyph-name="w" unicode="w" horiz-adv-x="730" 
d="M255 80q-8 -28 -15.5 -44t-17 -24t-24 -10t-36.5 -2h-42q-26 0 -42 2.5t-24.5 11t-11 24.5t-2.5 42v680q0 26 2.5 42t11 24.5t24.5 11t42 2.5h20q26 0 42 -2.5t24.5 -11t11 -24.5t2.5 -42v-460q0 -24 9 -24q5 0 8 4t7 18l46 154q8 29 22 42t30 13q14 0 28 -11t24 -32
l165 -355q13 -27 30 -27q9 0 15 9t6 29v660q0 38 8.5 49t31.5 11t31.5 -11t8.5 -49v-700q0 -26 -2.5 -42t-11 -24.5t-24.5 -11t-42 -2.5h-34q-21 0 -32.5 1.5t-19 7.5t-14 17.5t-15.5 32.5l-140 301q-5 8 -10 8t-8 -9z" />
    <glyph glyph-name="x" unicode="x" horiz-adv-x="544" 
d="M40 247q0 15 1.5 25t5.5 18t12 16t22 19l59 44q11 8 19 14.5t13 13t7.5 14.5t2.5 20v3q0 25 -9.5 37.5t-32.5 29.5l-59 44q-14 10 -22 18.5t-12 16.5t-5.5 18t-1.5 25v157q0 38 8.5 49t31.5 11t31.5 -11t8.5 -49v-109q0 -35 4 -49.5t15 -23.5l73 -58q18 -14 31.5 -19.5
t28.5 -5.5t28.5 5.5t31.5 19.5l73 58q11 9 15 23.5t4 49.5v109q0 38 8.5 49t31.5 11t31.5 -11t8.5 -49v-157q0 -15 -1.5 -25t-5.5 -18t-12.5 -16.5t-21.5 -18.5l-59 -44q-11 -8 -19 -14.5t-13 -13t-7.5 -14.5t-2.5 -20v-3q0 -13 2 -21.5t7 -16t13 -14t20 -15.5l59 -44
q13 -11 21.5 -19t12.5 -16t5.5 -18t1.5 -25v-187q0 -38 -8.5 -49t-31.5 -11t-31.5 11t-8.5 49v139q0 35 -4 49.5t-15 23.5l-73 58q-18 14 -31.5 19.5t-28.5 5.5t-28.5 -5.5t-31.5 -19.5l-73 -58q-11 -9 -15 -23.5t-4 -49.5v-139q0 -38 -8.5 -49t-31.5 -11t-31.5 11t-8.5 49
v187z" />
    <glyph glyph-name="y" unicode="y" horiz-adv-x="544" 
d="M504 523q0 -15 -1.5 -25t-5.5 -18t-12.5 -16.5t-21.5 -18.5l-59 -44q-23 -17 -32 -37.5t-10 -44.5v-239q0 -26 -2.5 -42t-11 -24.5t-24.5 -11t-42 -2.5h-20q-26 0 -42 2.5t-24.5 11t-11 24.5t-2.5 42v234q0 26 -9.5 48t-32.5 39l-59 44q-14 10 -22 18.5t-12 16.5t-5.5 18
t-1.5 25v257q0 38 8.5 49t31.5 11t31.5 -11t8.5 -49v-209q0 -35 4 -49.5t15 -23.5l73 -58q18 -14 31.5 -19.5t28.5 -5.5t28.5 5.5t31.5 19.5l73 58q11 9 15 23.5t4 49.5v209q0 38 8.5 49t31.5 11t31.5 -11t8.5 -49v-257z" />
    <glyph glyph-name="z" unicode="z" horiz-adv-x="598" 
d="M48 680q0 56 4 88t20 48t48 20t88 4h265q28 0 42 -6.5t17.5 -18t-0.5 -26t-13 -29.5l-350 -640q-12 -21 -10 -30.5t28 -9.5h111q26 0 42 2.5t24.5 11t11 24.5t2.5 42v40q0 26 2.5 42t11 24.5t24.5 11t42 2.5h20q26 0 42 -2.5t24.5 -11t11 -24.5t2.5 -42v-120
q0 -26 -2.5 -42t-11 -24.5t-24.5 -11t-42 -2.5h-375q-28 0 -42 6.5t-18 18t0 26t13 29.5l351 640q12 21 10 30.5t-28 9.5h-181q-26 0 -42 -2.5t-24.5 -11t-11 -24.5t-2.5 -42v-50q0 -38 -8.5 -49t-31.5 -11t-31.5 11t-8.5 49v50z" />
    <glyph glyph-name="braceleft" unicode="{" horiz-adv-x="430" 
d="M90 380q-20 0 -32 1.5t-18 6t-8 12t-2 20.5t2 20.5t8 12t18 6t32 1.5q26 0 42 2.5t24.5 11t11 24.5t2.5 42v160q0 56 4 88t20 48t48 20t88 4q38 0 49 -8.5t11 -31.5t-11 -31.5t-49 -8.5q-26 0 -42 -2.5t-24.5 -11t-11 -24.5t-2.5 -42v-190q0 -36 -10 -59t-40 -31
q30 -8 40 -31t10 -59v-270q0 -26 2.5 -42t11 -24.5t24.5 -11t42 -2.5q38 0 49 -8.5t11 -31.5t-11 -31.5t-49 -8.5q-56 0 -88 4t-48 20t-20 48t-4 88v240q0 26 -2.5 42t-11 24.5t-24.5 11t-42 2.5z" />
    <glyph glyph-name="bar" unicode="|" horiz-adv-x="160" 
d="M80 -20q-23 0 -31.5 11t-8.5 49v760q0 38 8.5 49t31.5 11t31.5 -11t8.5 -49v-760q0 -38 -8.5 -49t-31.5 -11z" />
    <glyph glyph-name="braceright" unicode="}" horiz-adv-x="430" 
d="M340 380q-26 0 -42 -2.5t-24.5 -11t-11 -24.5t-2.5 -42v-240q0 -56 -4 -88t-20 -48t-48 -20t-88 -4q-38 0 -49 8.5t-11 31.5t11 31.5t49 8.5q26 0 42 2.5t24.5 11t11 24.5t2.5 42v270q0 36 10 59t40 31q-30 8 -40 31t-10 59v190q0 26 -2.5 42t-11 24.5t-24.5 11t-42 2.5
q-38 0 -49 8.5t-11 31.5t11 31.5t49 8.5q56 0 88 -4t48 -20t20 -48t4 -88v-160q0 -26 2.5 -42t11 -24.5t24.5 -11t42 -2.5q20 0 32 -1.5t18 -6t8 -12t2 -20.5t-2 -20.5t-8 -12t-18 -6t-32 -1.5z" />
    <glyph glyph-name="asciitilde" unicode="~" horiz-adv-x="596" 
d="M80 390q0 37 5 59t19 33.5t39.5 14.5t66.5 3q34 0 54 -2t31.5 -6.5t17.5 -12.5t14 -19q8 -12 14 -21.5t12.5 -16t14 -9.5t18.5 -3q26 0 38 8.5t12 31.5q0 17 1.5 27t6 15.5t12.5 7t20 1.5t20 -1.5t12.5 -7t6 -15.5t1.5 -27q0 -38 -5 -59.5t-19 -33t-39.5 -14.5t-66.5 -3
q-34 0 -54 2t-31.5 6.5t-18 12.5t-13.5 19q-8 12 -14 21.5t-12 16t-13.5 9.5t-18.5 3q-26 0 -38.5 -8.5t-12.5 -31.5q0 -17 -1.5 -27.5t-6 -15.5t-12.5 -6.5t-20 -1.5t-20 1.5t-12.5 6.5t-6 15.5t-1.5 27.5z" />
    <glyph glyph-name="exclamdown" unicode="&#xa1;" horiz-adv-x="269" 
d="M242 7q2 -13 3 -27.5t1 -26.5q0 -53 -29.5 -85t-78.5 -32t-80 32t-31 85q0 12 1.5 29t4.5 32l72 392q5 38 34 38q14 0 23.5 -10.5t12.5 -27.5zM233 564q0 -26 -2.5 -42t-11 -24.5t-24.5 -11t-42 -2.5h-30q-26 0 -42 2.5t-24.5 11t-11 24.5t-2.5 42v30q0 26 2.5 42
t11 24.5t24.5 11t42 2.5h30q26 0 42 -2.5t24.5 -11t11 -24.5t2.5 -42v-30z" />
    <glyph glyph-name="cent" unicode="&#xa2;" horiz-adv-x="540" 
d="M250 -80q-11 0 -17 2.5t-9 9t-3.5 18t-0.5 30.5v20h-20q-56 0 -88 4t-48 20t-20 48t-4 88v360q0 56 4 88t20 48t48 20t88 4h20v20q0 19 0.5 30.5t3.5 18t9 9t17 2.5q22 0 26 -11.5t4 -48.5v-20h60q56 0 88 -4t48 -20t20 -48t4 -88v-50q0 -23 -2.5 -36.5t-10 -21t-21 -10
t-35.5 -2.5h-11q-23 0 -36.5 2.5t-21 10t-10 21t-2.5 36.5v49q0 25 -2.5 40.5t-10 24.5t-21 12.5t-36.5 3.5v-500v-20h60q26 0 42 2.5t24.5 11t11 24.5t2.5 42v60q0 38 10.5 49t28.5 11t29.5 -11t11.5 -49v-60q0 -56 -4 -88t-20 -48t-48 -20t-88 -4h-60v-20
q0 -19 -0.5 -30.5t-3.5 -18t-9 -9t-17 -2.5zM120 160q0 -26 2.5 -42t11 -24.5t24.5 -11t42 -2.5h20v20v500h-20q-26 0 -42 -2.5t-24.5 -11t-11 -24.5t-2.5 -42v-360z" />
    <glyph glyph-name="sterling" unicode="&#xa3;" horiz-adv-x="650" 
d="M410 599q0 27 -2.5 43t-11 24.5t-24.5 11t-42 2.5h-30q-26 0 -42 -2.5t-24.5 -11t-11 -24.5t-2.5 -42v-100q0 -26 2.5 -42t11 -24.5t24.5 -11t42 -2.5h110q20 0 32 -3t18 -8t8 -12.5t2 -16.5t-2 -16.5t-8 -12.5t-18 -8t-32 -3h-110q-26 0 -42 -2.5t-24.5 -11.5t-11 -25
t-2.5 -43v-98q0 -26 2.5 -42t11 -24.5t24.5 -11t42 -2.5h150q26 0 42 2.5t24.5 11t11 24.5t2.5 42v60q0 38 10.5 49t28.5 11t29.5 -11t11.5 -49v-60q0 -56 -4 -88t-20 -48t-48 -20t-88 -4h-330q-26 0 -42 2.5t-24.5 11t-11 24.5t-2.5 42v270q0 19 4 30.5t10.5 19t15.5 12
t20 8.5q10 4 19.5 8t16 11.5t10.5 19.5t4 31v110q0 56 4 88t20 48t48 20t88 4h130q56 0 88 -4t48 -20t20 -48t4 -88v-20q0 -23 -2.5 -36.5t-10 -21t-21 -10t-35.5 -2.5h-41q-23 0 -36.5 2.5t-21 10t-10 21t-2.5 36.5v19z" />
    <glyph glyph-name="yen" unicode="&#xa5;" horiz-adv-x="544" 
d="M52 200q0 23 11 31.5t49 8.5h30q14 0 22 1t12 5t5 12t1 22q0 26 -9.5 45t-32.5 36l-59 44q-14 10 -22 18.5t-12 16.5t-5.5 18t-1.5 25v217q0 38 8.5 49t31.5 11t31.5 -11t8.5 -49v-169q0 -35 4 -49.5t15 -23.5l73 -58q18 -14 31.5 -19.5t28.5 -5.5t28.5 5.5t31.5 19.5
l73 58q11 9 15 23.5t4 49.5v169q0 38 8.5 49t31.5 11t31.5 -11t8.5 -49v-217q0 -15 -1.5 -25t-5.5 -18t-12.5 -16.5t-21.5 -18.5l-59 -44q-23 -17 -32.5 -36t-9.5 -45q0 -14 1 -22t5 -12t12 -5t22 -1h30q38 0 49 -8.5t11 -31.5t-11 -31.5t-49 -8.5h-30q-14 0 -22 -1t-12 -5
t-5 -12t-1 -22v-40q0 -26 -2.5 -42t-11 -24.5t-24.5 -11t-42 -2.5h-20q-26 0 -42 2.5t-24.5 11t-11 24.5t-2.5 42v40q0 28 -6 34t-34 6h-30q-37 0 -48.5 8.5t-11.5 31.5z" />
    <glyph glyph-name="brokenbar" unicode="&#xa6;" horiz-adv-x="160" 
d="M80 500q-23 0 -31.5 11t-8.5 49v240q0 38 8.5 49t31.5 11t31.5 -11t8.5 -49v-240q0 -38 -8.5 -49t-31.5 -11zM80 -20q-23 0 -31.5 11t-8.5 49v240q0 38 8.5 49t31.5 11t31.5 -11t8.5 -49v-240q0 -38 -8.5 -49t-31.5 -11z" />
    <glyph glyph-name="section" unicode="&#xa7;" horiz-adv-x="311" 
d="M40 150q0 22 2 36.5t14 23.5q-12 9 -14 23t-2 37v50q0 28 2 44t10 24t24 10t44 2h60q28 0 44 -2t24 -10t10 -24t2 -44q0 -20 -4 -25t-21 -5t-21 4.5t-4 25.5q0 19 -7 24.5t-33 5.5h-40q-26 0 -33 -7t-7 -33v-30q0 -26 7 -33t33 -7h60q28 0 44 -2t24 -10t10 -24.5t2 -44.5
v-60q0 -23 -2 -37.5t-14 -22.5q11 -9 13.5 -23.5t2.5 -36.5v-50q0 -28 -1.5 -43.5t-10 -23.5t-24.5 -10t-44 -2h-70q-28 0 -44 2t-24 10t-10 24t-2 44v10q0 26 7 33t33 7t33 -7t7 -33v-2q0 -26 7 -33t33 -7h20q26 0 33 7t7 33v31q0 27 -7 34t-33 7h-60q-28 0 -44 2t-24 10
t-10 24t-2 44v60zM130 190q-27 0 -33.5 -8.5t-6.5 -31.5v-50q0 -26 7 -33t33 -7h50q26 0 33 6.5t7 31.5v51q0 27 -7 34t-33 7h-50z" />
    <glyph glyph-name="dieresis" unicode="&#xa8;" horiz-adv-x="534" 
d="M132 777q0 16 1.5 25.5t6.5 14.5t14.5 6.5t25.5 1.5h8q31 0 39.5 -8.5t8.5 -39.5v-38q0 -16 -1.5 -25.5t-6.5 -14.5t-14.5 -6.5t-25.5 -1.5h-8q-16 0 -25.5 1.5t-14.5 6.5t-6.5 14.5t-1.5 25.5v38zM307 777q0 16 1.5 25.5t6.5 14.5t14.5 6.5t25.5 1.5h8q31 0 39.5 -8.5
t8.5 -39.5v-38q0 -16 -1.5 -25.5t-6.5 -14.5t-14.5 -6.5t-25.5 -1.5h-8q-16 0 -25.5 1.5t-14.5 6.5t-6.5 14.5t-1.5 25.5v38z" />
    <glyph glyph-name="ordfeminine" unicode="&#xaa;" horiz-adv-x="323" 
d="M137 540q0 -26 -7 -33t-33 -7h-20q-26 0 -33 7t-7 33v85q0 19 7 25t18 10t18 10t7 25v65q0 28 2 44t10 24t24 10t44 2h35q28 0 44 -2t24 -10t10 -24t2 -44v-230q0 -20 -7 -25.5t-18 -5.5t-18 5.5t-7 25.5v70q0 26 -7 33t-33 7h-15q-26 0 -33 -7t-7 -34v-59zM232 750
q0 26 -7 33t-33 7h-15q-26 0 -33 -7t-7 -33v-20q0 -26 7 -33t33 -7h15q26 0 33 7t7 33v20zM50 420q0 23 11 31.5t49 8.5h100q38 0 49 -8.5t11 -31.5t-11 -31.5t-49 -8.5h-100q-38 0 -49 8.5t-11 31.5z" />
    <glyph glyph-name="guillemotleft" unicode="&#xab;" horiz-adv-x="372" 
d="M38 341q-9 9 -9 19q0 9 9 18l100 116q10 13 21 13q6 0 9.5 -3.5t3.5 -14.5v-258q0 -11 -4 -14.5t-10 -3.5q-10 0 -20 12zM198 341q-9 9 -9 19q0 9 9 18l100 116q10 13 21 13q6 0 9.5 -3.5t3.5 -14.5v-258q0 -11 -4 -14.5t-10 -3.5q-10 0 -20 12z" />
    <glyph glyph-name="uni00AD" unicode="&#xad;" horiz-adv-x="400" 
d="M40 420q0 23 11 31.5t49 8.5h200q38 0 49 -8.5t11 -31.5t-11 -31.5t-49 -8.5h-200q-38 0 -49 8.5t-11 31.5z" />
    <glyph glyph-name="macron" unicode="&#xaf;" horiz-adv-x="640" 
d="M150 720q0 23 11 31.5t49 8.5h300q38 0 49 -8.5t11 -31.5t-11 -31.5t-49 -8.5h-300q-38 0 -49 8.5t-11 31.5z" />
    <glyph glyph-name="plusminus" unicode="&#xb1;" horiz-adv-x="640" 
d="M40 160q0 23 11 31.5t49 8.5h140q14 0 22 1t12 5t5 12t1 22v100q0 14 -1 22t-5 12t-12 5t-22 1h-140q-38 0 -49 8.5t-11 31.5t11 31.5t49 8.5h140q14 0 22 1t12 5t5 12t1 22v140q0 38 8.5 49t31.5 11t31.5 -11t8.5 -49v-140q0 -14 1 -22t5 -12t12 -5t22 -1h140
q38 0 49 -8.5t11 -31.5t-11 -31.5t-49 -8.5h-140q-14 0 -22 -1t-12 -5t-5 -12t-1 -22v-100q0 -14 1 -22t5 -12t12 -5t22 -1h140q38 0 49 -8.5t11 -31.5t-11 -31.5t-49 -8.5h-440q-38 0 -49 8.5t-11 31.5z" />
    <glyph glyph-name="twosuperior" unicode="&#xb2;" horiz-adv-x="441" 
d="M130 470h60q20 0 24.5 -8t4.5 -17t-4.5 -17t-24.5 -8h-70q-28 0 -44 2t-24 10t-10 23.5t-2 43.5v70q0 28 2 44.5t10 24.5t24 10t44 2h10q26 0 33 7t7 33v60q0 26 -7 33t-33 7h-50q-20 0 -25 8t-5 17t5 17t25 8h60q28 0 44 -2t24 -10t10 -24t2 -44v-81q0 -28 -2 -44
t-10 -24t-24 -10t-44 -2h-10q-26 0 -33 -7t-7 -34v-48q0 -26 7 -33t33 -7z" />
    <glyph glyph-name="threesuperior" unicode="&#xb3;" horiz-adv-x="530" 
d="M80 605q-19 0 -24.5 8t-5.5 17t5.5 17t24.5 8h55q26 0 33 7t7 33v55q0 26 -7 33t-33 7h-55q-19 0 -24.5 8t-5.5 17t5.5 17t24.5 8h65q28 0 44 -2t24 -10t10 -24t2 -44v-90q0 -19 4.5 -27.5t15.5 -12.5t20.5 -13t9.5 -28v-89q0 -28 -2 -44t-10 -24t-24 -10t-44 -2h-115
q-19 0 -24.5 8t-5.5 17t5.5 17t24.5 8h55q26 0 33 7t7 33v55q0 26 -7 33t-33 7h-55z" />
    <glyph glyph-name="acute" unicode="&#xb4;" horiz-adv-x="604" 
d="M353 790q13 0 22.5 -3t9.5 -14q0 -13 -15 -32l-26 -35q-12 -16 -20 -21t-31 -5h-6q-16 0 -21.5 7t-5.5 27v42q0 20 9 27t26 7h58z" />
    <glyph glyph-name="mu" unicode="&#xb5;" 
d="M300 0q-26 0 -42 -2.5t-24.5 -11t-11 -24.5t-2.5 -42t-2.5 -42t-11 -24.5t-24.5 -11t-42 -2.5h-20q-26 0 -42 2.5t-24.5 11t-11 24.5t-2.5 42v580q0 38 8.5 49t31.5 11t31.5 -11t8.5 -49v-340q0 -26 2.5 -42t11 -24.5t24.5 -11t42 -2.5h60q26 0 42 2.5t24.5 11t11 24.5
t2.5 42v320q0 26 2.5 42t11 24.5t24.5 11t42 2.5h20q26 0 42 -2.5t24.5 -11t11 -24.5t2.5 -42v-300q0 -26 5 -42t13 -25.5t18 -14t21 -8.5q21 -8 32 -17.5t11 -32.5t-11 -31.5t-49 -8.5h-260z" />
    <glyph glyph-name="periodcentered" unicode="&#xb7;" horiz-adv-x="248" 
d="M29 406q0 26 2.5 42t11 24.5t24.5 11t42 2.5h30q26 0 42 -2.5t24.5 -11t11 -24.5t2.5 -42v-30q0 -26 -2.5 -42t-11 -24.5t-24.5 -11t-42 -2.5h-30q-26 0 -42 2.5t-24.5 11t-11 24.5t-2.5 42v30z" />
    <glyph glyph-name="cedilla" unicode="&#xb8;" horiz-adv-x="533" 
d="M240 20q0 11 6 18t14 7t14 -7t6 -18v-10q0 -26 7 -33t33 -7q28 0 44 -2t24 -9t10 -21t2 -39q0 -28 -2 -42t-10 -20t-24 -6.5t-44 -0.5h-40q-28 0 -44 1.5t-23.5 7.5t-9 18t-1.5 33q0 19 6 24.5t33 5.5t33 -6t6 -26q0 -11 7 -15.5t33 -4.5t33 5.5t7 25.5t-7 25.5t-33 5.5
q-28 0 -44 2t-24 10t-10 24t-2 44v10z" />
    <glyph glyph-name="onesuperior" unicode="&#xb9;" horiz-adv-x="400" 
d="M40 579.5q0 9.5 2.25 14.5t5.75 8t8.25 4.25t10.25 3.25q5 2 9.5 3.25t7.5 4.25t4.75 8t1.75 14.5v100.5q0 9.5 -2 14.5t-5.75 8t-8.5 4.25t-9.75 3.25q-5.5 2 -9.75 4t-7.5 5.75t-5 9.5t-1.75 15.75q0 11 1.25 18t5.5 10.75t12.25 5t21 1.25h10q13 0 21 -1.25
t12.25 -5.5t5.5 -12.25t1.25 -21v-150q0 -13.5 1.25 -21.25t5 -12t10.5 -5.5t18.25 -1.25q11 0 18 -1.5t10.75 -5.75t5 -12t1.25 -20.75v-110q0 -13 -1.25 -21t-5.5 -12.25t-12.25 -5.5t-21 -1.25h-80q-13 0 -21 1.25t-12.25 5.5t-5.5 12.25t-1.25 21v119.5z" />
    <glyph glyph-name="ordmasculine" unicode="&#xba;" horiz-adv-x="332" 
d="M40 760q0 28 2 44t10 24t24 10t44 2h80q28 0 44 -2t24 -10t10 -24t2 -44v-180q0 -28 -2 -44t-10 -24t-24 -10t-44 -2h-80q-28 0 -44 2t-24 10t-10 24t-2 44v180zM180 660q0 19 7 25t18 10t18 10t7 25v20q0 26 -7 33t-33 7h-60q-26 0 -33 -7t-7 -33v-160q0 -26 7 -33
t34 -7h9q26 0 33 7t7 33v70zM50 420q0 23 11 31.5t49 8.5h100q38 0 49 -8.5t11 -31.5t-11 -31.5t-49 -8.5h-100q-38 0 -49 8.5t-11 31.5z" />
    <glyph glyph-name="guillemotright" unicode="&#xbb;" horiz-adv-x="372" 
d="M323 378q9 -9 9 -19q0 -9 -9 -18l-100 -116q-10 -13 -21 -13q-6 0 -9.5 3.5t-3.5 14.5v258q0 11 4 14.5t10 3.5q9 0 20 -12zM163 378q9 -9 9 -19q0 -9 -9 -18l-100 -116q-10 -13 -21 -13q-6 0 -9.5 3.5t-3.5 14.5v258q0 11 4 14.5t10 3.5q9 0 20 -12z" />
    <glyph glyph-name="onequarter" unicode="&#xbc;" horiz-adv-x="790" 
d="M60 579.5q0 9.5 2.25 14.5t5.75 8t8.25 4.25t10.25 3.25q5 2 9.5 3.25t7.5 4.25t4.75 8t1.75 14.5v100.5q0 9.5 -2 14.5t-5.75 8t-8.5 4.25t-9.75 3.25q-5.5 2 -9.75 4t-7.5 5.75t-5 9.5t-1.75 15.75q0 11 1.25 18t5.5 10.75t12.25 5t21 1.25h10q13 0 21 -1.25
t12.25 -5.5t5.5 -12.25t1.25 -21v-150q0 -13.5 1.25 -21.25t5 -12t10.5 -5.5t18.25 -1.25q11 0 18 -1.5t10.75 -5.75t5 -12t1.25 -20.75v-110q0 -13 -1.25 -21t-5.5 -12.25t-12.25 -5.5t-21 -1.25h-80q-13 0 -21 1.25t-12.25 5.5t-5.5 12.25t-1.25 21v119.5zM184 24
q-6 -11 -14 -17.5t-19 -6.5q-14 0 -22 9.5t-8 17.5q0 7 2.5 13.5t6.5 13.5l423 749q6 11 14.5 17.5t18.5 6.5q14 0 22 -9.5t8 -17.5q0 -7 -2.5 -13.5t-6.5 -13.5zM660 60q0 13 -1.25 21t-5.5 12.25t-12.25 5.5t-21 1.25h-60q-28 0 -44 2t-24 10t-10 24t-2 44v200
q0 13 1.25 21t5.5 12.25t12.25 5.5t21 1.25h10q13 0 21 -1.25t12.25 -5.5t5.5 -12.25t1.25 -21v-200q0 -13 1.25 -21t5.5 -12.25t12.25 -5.5t21 -1.25h29q10 0 14.25 3t5.75 7.5t2.5 9.5t4.25 9.5t10.75 7.5t22.5 3h11q13 0 21 -1.25t12.25 -5.5t5.5 -12.25t1.25 -21v-100.5
q0 -13 -1.25 -20.75t-5.5 -12t-12.25 -5.5t-21 -1.25h-10q-13 0 -21 1.25t-12.25 5.5t-5.5 12.25t-1.25 21v20z" />
    <glyph glyph-name="onehalf" unicode="&#xbd;" horiz-adv-x="700" 
d="M570 50h60q20 0 24.5 -8t4.5 -17t-4.5 -17t-24.5 -8h-70q-28 0 -44 2t-24 10t-10 23.5t-2 43.5v70q0 28 2 44.5t10 24.5t24 10t44 2h10q26 0 33 7t7 33v60q0 26 -7 33t-33 7h-50q-20 0 -25 8t-5 17t5 17t25 8h60q28 0 44 -2t24 -10t10 -24t2 -44v-81q0 -28 -2 -44
t-10 -24t-24 -10t-44 -2h-10q-26 0 -33 -7t-7 -34v-48q0 -26 7 -33t33 -7zM60 579q0 19 7.5 22.5t18.5 7.5t17.5 7.5t6.5 22.5v101q0 19 -7.5 22.5t-18.5 7.5t-17.5 9.5t-6.5 25.5q0 23 7 29t33 6h10q26 0 33 -7t7 -33v-150q0 -27 6 -33.5t29 -6.5t29 -7t6 -33v-110
q0 -26 -7 -33t-33 -7h-80q-26 0 -33 7t-7 33v119zM164 24q-6 -11 -14 -17.5t-19 -6.5q-14 0 -22 9.5t-8 17.5q0 7 2.5 13.5t6.5 13.5l423 749q6 11 14.5 17.5t18.5 6.5q14 0 22 -9.5t8 -17.5q0 -7 -2.5 -13.5t-6.5 -13.5z" />
    <glyph glyph-name="threequarters" unicode="&#xbe;" horiz-adv-x="780" 
d="M80 605q-19 0 -24.5 8t-5.5 17t5.5 17t24.5 8h55q26 0 33 7t7 33v55q0 26 -7 33t-33 7h-55q-19 0 -24.5 8t-5.5 17t5.5 17t24.5 8h65q28 0 44 -2t24 -10t10 -24t2 -44v-90q0 -19 4.5 -27.5t15.5 -12.5t20.5 -13t9.5 -28v-89q0 -28 -2 -44t-10 -24t-24 -10t-44 -2h-115
q-19 0 -24.5 8t-5.5 17t5.5 17t24.5 8h55q26 0 33 7t7 33v55q0 26 -7 33t-33 7h-55zM174 24q-6 -11 -14 -17.5t-19 -6.5q-14 0 -22 9.5t-8 17.5q0 7 2.5 13.5t6.5 13.5l423 749q6 11 14.5 17.5t18.5 6.5q14 0 22 -9.5t8 -17.5q0 -7 -2.5 -13.5t-6.5 -13.5zM650 60
q0 26 -7 33t-33 7h-60q-28 0 -44 2t-24 10t-10 24t-2 44v200q0 26 7 33t33 7h10q26 0 33 -7t7 -33v-200q0 -26 7 -33t33 -7h29q15 0 18 6t4.5 13.5t8 14t29.5 6.5h11q26 0 33 -7t7 -33v-101q0 -26 -7 -32.5t-33 -6.5h-10q-26 0 -33 7t-7 33v20z" />
    <glyph glyph-name="questiondown" unicode="&#xbf;" horiz-adv-x="540" 
d="M376 580q0 -26 -2.5 -42t-11 -24.5t-24.5 -11t-42 -2.5h-30q-26 0 -42 2.5t-24.5 11t-11 24.5t-2.5 42v30q0 26 2.5 42t11 24.5t24.5 11t42 2.5h30q26 0 42 -2.5t24.5 -11t11 -24.5t2.5 -42v-30zM120 6q0 -26 2.5 -42t11 -24.5t24.5 -11t43 -2.5h139q26 0 42 2.5t24.5 11
t11 23.5t2.5 40v73q0 38 8.5 49t31.5 11t31.5 -11t8.5 -49v-70q0 -56 -4 -88t-20 -48t-48 -20t-88 -4h-139q-57 0 -89 4t-48 20t-20 48t-4 88v80q0 42 1.5 65.5t10 38t27.5 25t54 27.5l63 30q16 8 25 13t13.5 12.5t5 20t0.5 35.5v33q0 38 8.5 49t31.5 11t31.5 -11t8.5 -49
v-33q0 -42 -1.5 -65t-9.5 -37.5t-26.5 -25t-51.5 -26.5l-63 -30q-18 -9 -28 -14.5t-14.5 -13.5t-5 -20.5t-0.5 -34.5v-80z" />
    <glyph glyph-name="Agrave" unicode="&#xc0;" horiz-adv-x="630" 
d="M220 80q0 -26 -2.5 -42t-11 -24.5t-24.5 -11t-42 -2.5h-20q-26 0 -42 2.5t-24.5 11t-11 24.5t-2.5 42v250q0 19 4 30.5t10.5 19t15.5 12t20 8.5q10 4 19.5 8t16 11.5t10.5 19.5t4 31v210q0 56 4 88t20 48t48 20t88 4h130q56 0 88 -4t48 -20t20 -48t4 -88v-620
q0 -38 -8.5 -49.5t-31.5 -11.5t-31.5 11.5t-8.5 49.5v240q0 26 -2.5 42t-11 24.5t-24.5 11t-42 2.5h-130q-26 0 -42 -2.5t-24.5 -11.5t-11 -25t-2.5 -43v-218zM510 680q0 26 -2.5 42t-11 24.5t-24.5 11t-42 2.5h-130q-26 0 -42 -2.5t-24.5 -11t-11 -24.5t-2.5 -42v-140
q0 -26 2.5 -42t11 -24.5t24.5 -11t42 -2.5h130q26 0 42 2.5t24.5 11t11 24.5t2.5 42v140zM371 990q17 0 26 -7t9 -27v-42q0 -20 -5.5 -27t-21.5 -7h-6q-23 0 -31 5t-20 21l-26 35q-15 19 -15 32q0 11 9.5 14t22.5 3h58z" />
    <glyph glyph-name="Aacute" unicode="&#xc1;" horiz-adv-x="630" 
d="M220 80q0 -26 -2.5 -42t-11 -24.5t-24.5 -11t-42 -2.5h-20q-26 0 -42 2.5t-24.5 11t-11 24.5t-2.5 42v250q0 19 4 30.5t10.5 19t15.5 12t20 8.5q10 4 19.5 8t16 11.5t10.5 19.5t4 31v210q0 56 4 88t20 48t48 20t88 4h130q56 0 88 -4t48 -20t20 -48t4 -88v-620
q0 -38 -8.5 -49.5t-31.5 -11.5t-31.5 11.5t-8.5 49.5v240q0 26 -2.5 42t-11 24.5t-24.5 11t-42 2.5h-130q-26 0 -42 -2.5t-24.5 -11.5t-11 -25t-2.5 -43v-218zM510 680q0 26 -2.5 42t-11 24.5t-24.5 11t-42 2.5h-130q-26 0 -42 -2.5t-24.5 -11t-11 -24.5t-2.5 -42v-140
q0 -26 2.5 -42t11 -24.5t24.5 -11t42 -2.5h130q26 0 42 2.5t24.5 11t11 24.5t2.5 42v140zM418 990q13 0 22.5 -3t9.5 -14q0 -13 -15 -32l-26 -35q-12 -16 -20 -21t-31 -5h-6q-16 0 -21.5 7t-5.5 27v42q0 20 9 27t26 7h58z" />
    <glyph glyph-name="Acircumflex" unicode="&#xc2;" horiz-adv-x="630" 
d="M220 80q0 -26 -2.5 -42t-11 -24.5t-24.5 -11t-42 -2.5h-20q-26 0 -42 2.5t-24.5 11t-11 24.5t-2.5 42v250q0 19 4 30.5t10.5 19t15.5 12t20 8.5q10 4 19.5 8t16 11.5t10.5 19.5t4 31v210q0 56 4 88t20 48t48 20t88 4h130q56 0 88 -4t48 -20t20 -48t4 -88v-620
q0 -38 -8.5 -49.5t-31.5 -11.5t-31.5 11.5t-8.5 49.5v240q0 26 -2.5 42t-11 24.5t-24.5 11t-42 2.5h-130q-26 0 -42 -2.5t-24.5 -11.5t-11 -25t-2.5 -43v-218zM510 680q0 26 -2.5 42t-11 24.5t-24.5 11t-42 2.5h-130q-26 0 -42 -2.5t-24.5 -11t-11 -24.5t-2.5 -42v-140
q0 -26 2.5 -42t11 -24.5t24.5 -11t42 -2.5h130q26 0 42 2.5t24.5 11t11 24.5t2.5 42v140zM348 987q16 15 31 0l97 -84q14 -11 11 -19.5t-19 -8.5h-208q-16 0 -18.5 8.5t10.5 19.5z" />
    <glyph glyph-name="Atilde" unicode="&#xc3;" horiz-adv-x="630" 
d="M220 80q0 -26 -2.5 -42t-11 -24.5t-24.5 -11t-42 -2.5h-20q-26 0 -42 2.5t-24.5 11t-11 24.5t-2.5 42v250q0 19 4 30.5t10.5 19t15.5 12t20 8.5q10 4 19.5 8t16 11.5t10.5 19.5t4 31v210q0 56 4 88t20 48t48 20t88 4h130q56 0 88 -4t48 -20t20 -48t4 -88v-620
q0 -38 -8.5 -49.5t-31.5 -11.5t-31.5 11.5t-8.5 49.5v240q0 26 -2.5 42t-11 24.5t-24.5 11t-42 2.5h-130q-26 0 -42 -2.5t-24.5 -11.5t-11 -25t-2.5 -43v-218zM510 680q0 26 -2.5 42t-11 24.5t-24.5 11t-42 2.5h-130q-26 0 -42 -2.5t-24.5 -11t-11 -24.5t-2.5 -42v-140
q0 -26 2.5 -42t11 -24.5t24.5 -11t42 -2.5h130q26 0 42 2.5t24.5 11t11 24.5t2.5 42v140zM195 920q0 30 4.5 48t16.5 27t33.5 12t55.5 3q30 0 47.5 -6t27.5 -15t15.5 -19t11 -19t14 -15t24.5 -6q23 0 31.5 7.5t8.5 22.5q0 27 5 36t30 9t30 -9t5 -36q0 -30 -4.5 -48
t-16.5 -27t-33.5 -12t-55.5 -3q-30 0 -47 6t-27.5 15t-16 19t-11 19t-13.5 15t-24 6q-23 0 -32 -7.5t-9 -22.5q0 -27 -5 -36t-30 -9t-30 9t-5 36z" />
    <glyph glyph-name="Adieresis" unicode="&#xc4;" horiz-adv-x="630" 
d="M220 80q0 -26 -2.5 -42t-11 -24.5t-24.5 -11t-42 -2.5h-20q-26 0 -42 2.5t-24.5 11t-11 24.5t-2.5 42v250q0 19 4 30.5t10.5 19t15.5 12t20 8.5q10 4 19.5 8t16 11.5t10.5 19.5t4 31v210q0 56 4 88t20 48t48 20t88 4h130q56 0 88 -4t48 -20t20 -48t4 -88v-620
q0 -38 -8.5 -49.5t-31.5 -11.5t-31.5 11.5t-8.5 49.5v240q0 26 -2.5 42t-11 24.5t-24.5 11t-42 2.5h-130q-26 0 -42 -2.5t-24.5 -11.5t-11 -25t-2.5 -43v-218zM510 680q0 26 -2.5 42t-11 24.5t-24.5 11t-42 2.5h-130q-26 0 -42 -2.5t-24.5 -11t-11 -24.5t-2.5 -42v-140
q0 -26 2.5 -42t11 -24.5t24.5 -11t42 -2.5h130q26 0 42 2.5t24.5 11t11 24.5t2.5 42v140zM222 957q0 16 1.5 25.5t6.5 14.5t14.5 6.5t25.5 1.5h8q31 0 39.5 -8.5t8.5 -39.5v-38q0 -16 -1.5 -25.5t-6.5 -14.5t-14.5 -6.5t-25.5 -1.5h-8q-16 0 -25.5 1.5t-14.5 6.5t-6.5 14.5
t-1.5 25.5v38zM397 957q0 16 1.5 25.5t6.5 14.5t14.5 6.5t25.5 1.5h8q31 0 39.5 -8.5t8.5 -39.5v-38q0 -16 -1.5 -25.5t-6.5 -14.5t-14.5 -6.5t-25.5 -1.5h-8q-16 0 -25.5 1.5t-14.5 6.5t-6.5 14.5t-1.5 25.5v38z" />
    <glyph glyph-name="Aring" unicode="&#xc5;" horiz-adv-x="630" 
d="M220 80q0 -26 -2.5 -42t-11 -24.5t-24.5 -11t-42 -2.5h-20q-26 0 -42 2.5t-24.5 11t-11 24.5t-2.5 42v250q0 19 4 30.5t10.5 19t15.5 12t20 8.5q10 4 19.5 8t16 11.5t10.5 19.5t4 31v210q0 56 4 88t20 48t48 20t88 4h130q56 0 88 -4t48 -20t20 -48t4 -88v-620
q0 -38 -8.5 -49.5t-31.5 -11.5t-31.5 11.5t-8.5 49.5v240q0 26 -2.5 42t-11 24.5t-24.5 11t-42 2.5h-130q-26 0 -42 -2.5t-24.5 -11.5t-11 -25t-2.5 -43v-218zM510 680q0 26 -2.5 42t-11 24.5t-24.5 11t-42 2.5h-130q-26 0 -42 -2.5t-24.5 -11t-11 -24.5t-2.5 -42v-140
q0 -26 2.5 -42t11 -24.5t24.5 -11t42 -2.5h130q26 0 42 2.5t24.5 11t11 24.5t2.5 42v140zM291 950q0 26 2.5 42t11 24.5t24.5 11t42 2.5t42 -2.5t24.5 -11t11 -24.5t2.5 -42t-2.5 -42t-11 -24.5t-24.5 -11t-42 -2.5t-42 2.5t-24.5 11t-11 24.5t-2.5 42zM335 950
q0 -23 6.5 -29.5t29.5 -6.5t29.5 6.5t6.5 29.5t-6.5 29.5t-29.5 6.5t-29.5 -6.5t-6.5 -29.5z" />
    <glyph glyph-name="AE" unicode="&#xc6;" horiz-adv-x="950" 
d="M220 80q0 -26 -2.5 -42t-11 -24.5t-24.5 -11t-42 -2.5h-20q-26 0 -42 2.5t-24.5 11t-11 24.5t-2.5 42v250q0 19 4 30.5t10.5 19t15.5 12t20 8.5q10 4 19.5 8t16 11.5t10.5 19.5t4 31v210q0 56 4 88t20 48t48 20t88 4h110q45 0 73.5 -5t46.5 -28q17 23 46 28t74 5h200
q38 0 49 -8.5t11 -31.5t-11 -31.5t-49 -8.5h-200q-26 0 -42 -2.5t-24.5 -11t-11 -24.5t-2.5 -42v-140q0 -26 2.5 -42t11 -24.5t24.5 -11t42 -2.5h200q38 0 49 -8.5t11 -31.5t-11 -31.5t-49 -8.5h-100q-26 0 -42 -2.5t-24.5 -11t-11 -24.5t-2.5 -42v-140q0 -26 2.5 -42
t11 -24.5t24.5 -11t42 -2.5h100q38 0 49 -8.5t11 -31.5t-11 -31.5t-49 -8.5h-200q-56 0 -88 4t-48 20t-20 48t-4 88v140q0 26 -2.5 42t-11 24.5t-24.5 11t-42 2.5h-110q-26 0 -42 -2.5t-24.5 -11.5t-11 -25t-2.5 -43v-218zM490 680v15q-1 21 -4.5 34t-12.5 19.5t-24 9
t-39 2.5h-110q-26 0 -42 -2.5t-24.5 -11t-11 -24.5t-2.5 -42v-140q0 -26 2.5 -42t11 -24.5t24.5 -11t42 -2.5h110q24 0 39.5 2.5t24.5 11t12.5 24.5t3.5 42v140z" />
    <glyph glyph-name="Ccedilla" unicode="&#xc7;" horiz-adv-x="540" 
d="M40 680q0 56 4 88t20 48t48 20t88 4h140q56 0 88 -4t48 -20t20 -48t4 -88v-50q0 -23 -2.5 -36.5t-10 -21t-21 -10t-35.5 -2.5h-41q-23 0 -36.5 2.5t-21 10t-10 21t-2.5 36.5v49q0 27 -2.5 43t-11 24.5t-24.5 11t-42 2.5h-40q-26 0 -42 -2.5t-24.5 -11t-11 -24.5t-2.5 -42
v-520q0 -26 2.5 -42t11 -24.5t24.5 -11t42 -2.5h140q26 0 42 2.5t24.5 11t11 24.5t2.5 42v60q0 19 1.5 30.5t5.5 18t11.5 9t20.5 2.5q26 0 33.5 -11t7.5 -49v-60q0 -56 -4 -88t-20 -48t-48 -20t-88 -4h-91q1 -20 8.5 -25t31.5 -5q28 0 44 -2t24 -9t10 -21t2 -39
q0 -28 -2 -42t-10 -20t-24 -6.5t-44 -0.5h-40q-28 0 -44 1.5t-23.5 7.5t-9 18t-1.5 33q0 19 6 24.5t33 5.5t33 -6t6 -26q0 -11 7 -15.5t33 -4.5t33 5.5t7 25.5t-7 25.5t-33 5.5q-27 0 -43 2t-24 9t-10.5 21t-2.5 38h-9q-56 0 -88 4t-48 20t-20 48t-4 88v520z" />
    <glyph glyph-name="Egrave" unicode="&#xc8;" horiz-adv-x="520" 
d="M40 680q0 56 4 88t20 48t48 20t88 4h220q38 0 49 -8.5t11 -31.5t-11 -31.5t-49 -8.5h-220q-26 0 -42 -2.5t-24.5 -11t-11 -24.5t-2.5 -42v-140q0 -26 2.5 -42t11 -24.5t24.5 -11t42 -2.5h220q38 0 49 -8.5t11 -31.5t-11 -31.5t-49 -8.5h-120q-26 0 -42 -2.5t-24.5 -11
t-11 -24.5t-2.5 -42v-140q0 -26 2.5 -42t11 -24.5t24.5 -11t42 -2.5h120q38 0 49 -8.5t11 -31.5t-11 -31.5t-49 -8.5h-220q-56 0 -88 4t-48 20t-20 48t-4 88v520zM299 990q17 0 26 -7t9 -27v-42q0 -20 -5.5 -27t-21.5 -7h-6q-23 0 -31 5t-20 21l-26 35q-15 19 -15 32
q0 11 9.5 14t22.5 3h58z" />
    <glyph glyph-name="Eacute" unicode="&#xc9;" horiz-adv-x="520" 
d="M40 680q0 56 4 88t20 48t48 20t88 4h220q38 0 49 -8.5t11 -31.5t-11 -31.5t-49 -8.5h-220q-26 0 -42 -2.5t-24.5 -11t-11 -24.5t-2.5 -42v-140q0 -26 2.5 -42t11 -24.5t24.5 -11t42 -2.5h220q38 0 49 -8.5t11 -31.5t-11 -31.5t-49 -8.5h-120q-26 0 -42 -2.5t-24.5 -11
t-11 -24.5t-2.5 -42v-140q0 -26 2.5 -42t11 -24.5t24.5 -11t42 -2.5h120q38 0 49 -8.5t11 -31.5t-11 -31.5t-49 -8.5h-220q-56 0 -88 4t-48 20t-20 48t-4 88v520zM334 990q13 0 22.5 -3t9.5 -14q0 -13 -15 -32l-26 -35q-12 -16 -20 -21t-31 -5h-6q-16 0 -21.5 7t-5.5 27v42
q0 20 9 27t26 7h58z" />
    <glyph glyph-name="Ecircumflex" unicode="&#xca;" horiz-adv-x="520" 
d="M40 680q0 56 4 88t20 48t48 20t88 4h220q38 0 49 -8.5t11 -31.5t-11 -31.5t-49 -8.5h-220q-26 0 -42 -2.5t-24.5 -11t-11 -24.5t-2.5 -42v-140q0 -26 2.5 -42t11 -24.5t24.5 -11t42 -2.5h220q38 0 49 -8.5t11 -31.5t-11 -31.5t-49 -8.5h-120q-26 0 -42 -2.5t-24.5 -11
t-11 -24.5t-2.5 -42v-140q0 -26 2.5 -42t11 -24.5t24.5 -11t42 -2.5h120q38 0 49 -8.5t11 -31.5t-11 -31.5t-49 -8.5h-220q-56 0 -88 4t-48 20t-20 48t-4 88v520zM245 987q16 15 31 0l97 -84q14 -11 11 -19.5t-19 -8.5h-208q-16 0 -18.5 8.5t10.5 19.5z" />
    <glyph glyph-name="Edieresis" unicode="&#xcb;" horiz-adv-x="520" 
d="M40 680q0 56 4 88t20 48t48 20t88 4h220q38 0 49 -8.5t11 -31.5t-11 -31.5t-49 -8.5h-220q-26 0 -42 -2.5t-24.5 -11t-11 -24.5t-2.5 -42v-140q0 -26 2.5 -42t11 -24.5t24.5 -11t42 -2.5h220q38 0 49 -8.5t11 -31.5t-11 -31.5t-49 -8.5h-120q-26 0 -42 -2.5t-24.5 -11
t-11 -24.5t-2.5 -42v-140q0 -26 2.5 -42t11 -24.5t24.5 -11t42 -2.5h120q38 0 49 -8.5t11 -31.5t-11 -31.5t-49 -8.5h-220q-56 0 -88 4t-48 20t-20 48t-4 88v520zM132 957q0 16 1.5 25.5t6.5 14.5t14.5 6.5t25.5 1.5h8q31 0 39.5 -8.5t8.5 -39.5v-38q0 -16 -1.5 -25.5
t-6.5 -14.5t-14.5 -6.5t-25.5 -1.5h-8q-16 0 -25.5 1.5t-14.5 6.5t-6.5 14.5t-1.5 25.5v38zM307 957q0 16 1.5 25.5t6.5 14.5t14.5 6.5t25.5 1.5h8q31 0 39.5 -8.5t8.5 -39.5v-38q0 -16 -1.5 -25.5t-6.5 -14.5t-14.5 -6.5t-25.5 -1.5h-8q-16 0 -25.5 1.5t-14.5 6.5
t-6.5 14.5t-1.5 25.5v38z" />
    <glyph glyph-name="Igrave" unicode="&#xcc;" horiz-adv-x="260" 
d="M40 320q0 19 4 30.5t10.5 19t15.5 12t20 8.5q10 4 19.5 8t16 11.5t10.5 19.5t4 31v320q0 38 8.5 49t31.5 11t31.5 -11t8.5 -49v-700q0 -26 -2.5 -42t-11 -24.5t-24.5 -11t-42 -2.5h-20q-26 0 -42 2.5t-24.5 11t-11 24.5t-2.5 42v240zM180 990q17 0 26 -7t9 -27v-42
q0 -20 -5.5 -27t-21.5 -7h-6q-23 0 -31 5t-20 21l-26 35q-15 19 -15 32q0 11 9.5 14t22.5 3h58z" />
    <glyph glyph-name="Iacute" unicode="&#xcd;" horiz-adv-x="260" 
d="M40 320q0 19 4 30.5t10.5 19t15.5 12t20 8.5q10 4 19.5 8t16 11.5t10.5 19.5t4 31v320q0 38 8.5 49t31.5 11t31.5 -11t8.5 -49v-700q0 -26 -2.5 -42t-11 -24.5t-24.5 -11t-42 -2.5h-20q-26 0 -42 2.5t-24.5 11t-11 24.5t-2.5 42v240zM234 990q13 0 22.5 -3t9.5 -14
q0 -13 -15 -32l-26 -35q-12 -16 -20 -21t-31 -5h-6q-16 0 -21.5 7t-5.5 27v42q0 20 9 27t26 7h58z" />
    <glyph glyph-name="Icircumflex" unicode="&#xce;" horiz-adv-x="260" 
d="M40 320q0 19 4 30.5t10.5 19t15.5 12t20 8.5q10 4 19.5 8t16 11.5t10.5 19.5t4 31v320q0 38 8.5 49t31.5 11t31.5 -11t8.5 -49v-700q0 -26 -2.5 -42t-11 -24.5t-24.5 -11t-42 -2.5h-20q-26 0 -42 2.5t-24.5 11t-11 24.5t-2.5 42v240zM165 987q16 15 31 0l97 -84
q14 -11 11 -19.5t-19 -8.5h-208q-16 0 -18.5 8.5t10.5 19.5z" />
    <glyph glyph-name="Idieresis" unicode="&#xcf;" horiz-adv-x="260" 
d="M69 957q0 16 1.5 25.5t6.5 14.5t14.5 6.5t25.5 1.5q31 0 39.5 -8.5t8.5 -39.5v-38q0 -16 -1.5 -25.5t-6.5 -14.5t-14.5 -6.5t-25.5 -1.5t-25.5 1.5t-14.5 6.5t-6.5 14.5t-1.5 25.5v38zM196 957q0 16 1.5 25.5t6.5 14.5t14.5 6.5t25.5 1.5q31 0 39.5 -8.5t8.5 -39.5v-38
q0 -16 -1.5 -25.5t-6.5 -14.5t-14.5 -6.5t-25.5 -1.5t-25.5 1.5t-14.5 6.5t-6.5 14.5t-1.5 25.5v38zM40 320q0 19 4 30.5t10.5 19t15.5 12t20 8.5q10 4 19.5 8t16 11.5t10.5 19.5t4 31v320q0 38 8.5 49t31.5 11t31.5 -11t8.5 -49v-700q0 -26 -2.5 -42t-11 -24.5t-24.5 -11
t-42 -2.5h-20q-26 0 -42 2.5t-24.5 11t-11 24.5t-2.5 42v240z" />
    <glyph glyph-name="Eth" unicode="&#xd0;" horiz-adv-x="680" 
d="M0 420q0 23 11 31.5t49 8.5q14 0 22 1t12 5t5 12t1 22v260q0 26 2.5 42t11 24.5t24.5 11t42 2.5h200q67 0 116.5 -12t81 -40.5t47 -74.5t15.5 -113v-360q0 -68 -15.5 -113.5t-47 -74t-81 -40.5t-116.5 -12h-200q-26 0 -42 2.5t-24.5 11t-11 24.5t-2.5 42v260q0 28 -6 34
t-34 6q-38 0 -49 8.5t-11 31.5zM560 600q0 41 -8.5 71.5t-29 50t-55.5 29t-87 9.5h-20q-26 0 -42 -2.5t-24.5 -11t-11 -24.5t-2.5 -43v-179q0 -14 1 -22t5 -12t12 -5t22 -1h60q38 0 49 -8.5t11 -31.5t-11 -31.5t-49 -8.5h-60q-14 0 -22 -1t-12 -5t-5 -12t-1 -22v-180
q0 -26 2.5 -42t11 -24.5t24 -11t42.5 -2.5h20q52 0 87 9.5t55.5 29t29 50t8.5 71.5v360z" />
    <glyph glyph-name="Ntilde" unicode="&#xd1;" horiz-adv-x="640" 
d="M520 240q0 28 -0.5 44t-4.5 28t-12 23.5t-23 29.5l-301 366q-11 13 -18.5 18t-18.5 5t-16.5 -7t-5.5 -27v-660q0 -38 -8.5 -49t-31.5 -11t-31.5 11t-8.5 49v700q0 26 2.5 42t11 24.5t24.5 11t42 2.5h20q18 0 29 -1t20.5 -6.5t21 -17.5t29.5 -34l231 -282q17 -20 29 -20
q20 0 20 41v260q0 38 8.5 49t31.5 11t31.5 -11t8.5 -49v-720q0 -38 -8.5 -49t-31.5 -11t-31.5 11t-8.5 49v180zM230 166q0 26 2.5 42t11 24.5t24.5 11t42 2.5h20q26 0 42 -2.5t24.5 -11t11 -24.5t2.5 -42v-90q0 -26 -2.5 -42t-11 -24.5t-24.5 -11t-42 -2.5h-20
q-26 0 -42 2.5t-24.5 11t-11 24.5t-2.5 42v90zM141 920q0 30 4.5 48t16.5 27t33.5 12t55.5 3q30 0 47.5 -6t27.5 -15t15.5 -19t11 -19t14 -15t24.5 -6q23 0 31.5 7.5t8.5 22.5q0 27 5 36t30 9t30 -9t5 -36q0 -30 -4.5 -48t-16.5 -27t-33.5 -12t-55.5 -3q-30 0 -47 6
t-27.5 15t-16 19t-11 19t-13.5 15t-24 6q-23 0 -32 -7.5t-9 -22.5q0 -27 -5 -36t-30 -9t-30 9t-5 36z" />
    <glyph glyph-name="Ograve" unicode="&#xd2;" 
d="M40 680q0 56 4 88t20 48t48 20t88 4h220q56 0 88 -4t48 -20t20 -48t4 -88v-520q0 -56 -4 -88t-20 -48t-48 -20t-88 -4h-220q-56 0 -88 4t-48 20t-20 48t-4 88v520zM400 410q0 19 4 30.5t10.5 19t15.5 12t20 8.5q10 4 19.5 8t16 11.5t10.5 19.5t4 31v130q0 26 -2.5 42
t-11 24.5t-24.5 11t-42 2.5h-220q-26 0 -42 -2.5t-24.5 -11t-11 -24.5t-2.5 -42v-520q0 -26 2.5 -42t11.5 -24.5t25.5 -11t43.5 -2.5h117q26 0 42 2.5t24.5 11t11 24.5t2.5 42v250zM330 990q17 0 26 -7t9 -27v-42q0 -20 -5.5 -27t-21.5 -7h-6q-23 0 -31 5t-20 21l-26 35
q-15 19 -15 32q0 11 9.5 14t22.5 3h58z" />
    <glyph glyph-name="Oacute" unicode="&#xd3;" 
d="M40 680q0 56 4 88t20 48t48 20t88 4h220q56 0 88 -4t48 -20t20 -48t4 -88v-520q0 -56 -4 -88t-20 -48t-48 -20t-88 -4h-220q-56 0 -88 4t-48 20t-20 48t-4 88v520zM400 410q0 19 4 30.5t10.5 19t15.5 12t20 8.5q10 4 19.5 8t16 11.5t10.5 19.5t4 31v130q0 26 -2.5 42
t-11 24.5t-24.5 11t-42 2.5h-220q-26 0 -42 -2.5t-24.5 -11t-11 -24.5t-2.5 -42v-520q0 -26 2.5 -42t11.5 -24.5t25.5 -11t43.5 -2.5h117q26 0 42 2.5t24.5 11t11 24.5t2.5 42v250zM373 990q13 0 22.5 -3t9.5 -14q0 -13 -15 -32l-26 -35q-12 -16 -20 -21t-31 -5h-6
q-16 0 -21.5 7t-5.5 27v42q0 20 9 27t26 7h58z" />
    <glyph glyph-name="Ocircumflex" unicode="&#xd4;" 
d="M40 680q0 56 4 88t20 48t48 20t88 4h220q56 0 88 -4t48 -20t20 -48t4 -88v-520q0 -56 -4 -88t-20 -48t-48 -20t-88 -4h-220q-56 0 -88 4t-48 20t-20 48t-4 88v520zM400 410q0 19 4 30.5t10.5 19t15.5 12t20 8.5q10 4 19.5 8t16 11.5t10.5 19.5t4 31v130q0 26 -2.5 42
t-11 24.5t-24.5 11t-42 2.5h-220q-26 0 -42 -2.5t-24.5 -11t-11 -24.5t-2.5 -42v-520q0 -26 2.5 -42t11.5 -24.5t25.5 -11t43.5 -2.5h117q26 0 42 2.5t24.5 11t11 24.5t2.5 42v250zM303 987q16 15 31 0l97 -84q14 -11 11 -19.5t-19 -8.5h-208q-16 0 -18.5 8.5t10.5 19.5z
" />
    <glyph glyph-name="Otilde" unicode="&#xd5;" 
d="M40 680q0 56 4 88t20 48t48 20t88 4h220q56 0 88 -4t48 -20t20 -48t4 -88v-520q0 -56 -4 -88t-20 -48t-48 -20t-88 -4h-220q-56 0 -88 4t-48 20t-20 48t-4 88v520zM400 410q0 19 4 30.5t10.5 19t15.5 12t20 8.5q10 4 19.5 8t16 11.5t10.5 19.5t4 31v130q0 26 -2.5 42
t-11 24.5t-24.5 11t-42 2.5h-220q-26 0 -42 -2.5t-24.5 -11t-11 -24.5t-2.5 -42v-520q0 -26 2.5 -42t11.5 -24.5t25.5 -11t43.5 -2.5h117q26 0 42 2.5t24.5 11t11 24.5t2.5 42v250zM141 920q0 30 4.5 48t16.5 27t33.5 12t55.5 3q30 0 47.5 -6t27.5 -15t15.5 -19t11 -19
t14 -15t24.5 -6q23 0 31.5 7.5t8.5 22.5q0 27 5 36t30 9t30 -9t5 -36q0 -30 -4.5 -48t-16.5 -27t-33.5 -12t-55.5 -3q-30 0 -47 6t-27.5 15t-16 19t-11 19t-13.5 15t-24 6q-23 0 -32 -7.5t-9 -22.5q0 -27 -5 -36t-30 -9t-30 9t-5 36z" />
    <glyph glyph-name="Odieresis" unicode="&#xd6;" 
d="M40 680q0 56 4 88t20 48t48 20t88 4h220q56 0 88 -4t48 -20t20 -48t4 -88v-520q0 -56 -4 -88t-20 -48t-48 -20t-88 -4h-220q-56 0 -88 4t-48 20t-20 48t-4 88v520zM400 410q0 19 4 30.5t10.5 19t15.5 12t20 8.5q10 4 19.5 8t16 11.5t10.5 19.5t4 31v130q0 26 -2.5 42
t-11 24.5t-24.5 11t-42 2.5h-220q-26 0 -42 -2.5t-24.5 -11t-11 -24.5t-2.5 -42v-520q0 -26 2.5 -42t11.5 -24.5t25.5 -11t43.5 -2.5h117q26 0 42 2.5t24.5 11t11 24.5t2.5 42v250zM172 957q0 16 1.5 25.5t6.5 14.5t14.5 6.5t25.5 1.5h8q31 0 39.5 -8.5t8.5 -39.5v-38
q0 -16 -1.5 -25.5t-6.5 -14.5t-14.5 -6.5t-25.5 -1.5h-8q-16 0 -25.5 1.5t-14.5 6.5t-6.5 14.5t-1.5 25.5v38zM347 957q0 16 1.5 25.5t6.5 14.5t14.5 6.5t25.5 1.5h8q31 0 39.5 -8.5t8.5 -39.5v-38q0 -16 -1.5 -25.5t-6.5 -14.5t-14.5 -6.5t-25.5 -1.5h-8q-16 0 -25.5 1.5
t-14.5 6.5t-6.5 14.5t-1.5 25.5v38z" />
    <glyph glyph-name="multiply" unicode="&#xd7;" horiz-adv-x="640" 
d="M518 222q-14 -14 -26 -14q-8 0 -19 6.5t-26 21.5l-99 99q-19 19 -28 19q-6 0 -12 -4.5t-16 -14.5l-99 -99q-28 -28 -45 -28q-12 0 -26 14t-14 26q0 17 28 45l99 99q10 10 14.5 16t4.5 12q0 9 -19 28l-99 99q-15 15 -21.5 26t-6.5 19q0 6 4 13t10 13t13 10t13 4
q8 0 19 -6.5t26 -21.5l99 -99q10 -10 16 -15t12 -5q8 0 28 20l99 99q15 15 26 21.5t19 6.5q12 0 26 -14t14 -26q0 -8 -6.5 -19t-21.5 -26l-99 -99q-20 -20 -20 -28q0 -6 5 -12t15 -16l99 -99q15 -15 21.5 -26t6.5 -19q0 -12 -14 -26z" />
    <glyph glyph-name="Oslash" unicode="&#xd8;" 
d="M40 680q0 56 4 88t20 48t48 20t88 4h220q56 0 88 -4t48 -20t20 -48t4 -88v-520q0 -56 -4 -88t-20 -48t-48 -20t-88 -4h-220q-56 0 -88 4t-48 20t-20 48t-4 88v520zM420 760h-220q-26 0 -42 -2.5t-24.5 -11t-11 -24.5t-2.5 -42v-540l347 616q-15 4 -47 4zM400 350
q0 19 4 30.5t10.5 19t15.5 12t20 8.5q10 4 19.5 8t16 11.5t10.5 19.5t4 31v198l-342 -606q9 -2 20 -2h25h117q26 0 42 2.5t24.5 11t11 24.5t2.5 42v190z" />
    <glyph glyph-name="Ugrave" unicode="&#xd9;" horiz-adv-x="560" 
d="M40 780q0 38 8.5 49t31.5 11t31.5 -11t8.5 -49v-620q0 -27 2.5 -42.5t11 -24t24.5 -11t42 -2.5h60q26 0 42 2.5t24.5 11t11 24t2.5 42.5v600q0 26 2.5 42t11 24.5t24.5 11t42 2.5h20q26 0 42 -2.5t24.5 -11t11 -24.5t2.5 -42v-600q0 -56 -4 -88t-20 -48t-48 -20t-88 -4
h-160q-56 0 -88 4t-48 20t-20 48t-4 88v620zM266 990q17 0 26 -7t9 -27v-42q0 -20 -5.5 -27t-21.5 -7h-6q-23 0 -31 5t-20 21l-26 35q-15 19 -15 32q0 11 9.5 14t22.5 3h58z" />
    <glyph glyph-name="Uacute" unicode="&#xda;" horiz-adv-x="560" 
d="M40 780q0 38 8.5 49t31.5 11t31.5 -11t8.5 -49v-620q0 -27 2.5 -42.5t11 -24t24.5 -11t42 -2.5h60q26 0 42 2.5t24.5 11t11 24t2.5 42.5v600q0 26 2.5 42t11 24.5t24.5 11t42 2.5h20q26 0 42 -2.5t24.5 -11t11 -24.5t2.5 -42v-600q0 -56 -4 -88t-20 -48t-48 -20t-88 -4
h-160q-56 0 -88 4t-48 20t-20 48t-4 88v620zM304 990q13 0 22.5 -3t9.5 -14q0 -13 -15 -32l-26 -35q-12 -16 -20 -21t-31 -5h-6q-16 0 -21.5 7t-5.5 27v42q0 20 9 27t26 7h58z" />
    <glyph glyph-name="Ucircumflex" unicode="&#xdb;" horiz-adv-x="560" 
d="M40 780q0 38 8.5 49t31.5 11t31.5 -11t8.5 -49v-620q0 -27 2.5 -42.5t11 -24t24.5 -11t42 -2.5h60q26 0 42 2.5t24.5 11t11 24t2.5 42.5v600q0 26 2.5 42t11 24.5t24.5 11t42 2.5h20q26 0 42 -2.5t24.5 -11t11 -24.5t2.5 -42v-600q0 -56 -4 -88t-20 -48t-48 -20t-88 -4
h-160q-56 0 -88 4t-48 20t-20 48t-4 88v620zM265 987q16 15 31 0l97 -84q14 -11 11 -19.5t-19 -8.5h-208q-16 0 -18.5 8.5t10.5 19.5z" />
    <glyph glyph-name="Udieresis" unicode="&#xdc;" horiz-adv-x="560" 
d="M40 780q0 38 8.5 49t31.5 11t31.5 -11t8.5 -49v-620q0 -27 2.5 -42.5t11 -24t24.5 -11t42 -2.5h60q26 0 42 2.5t24.5 11t11 24t2.5 42.5v600q0 26 2.5 42t11 24.5t24.5 11t42 2.5h20q26 0 42 -2.5t24.5 -11t11 -24.5t2.5 -42v-600q0 -56 -4 -88t-20 -48t-48 -20t-88 -4
h-160q-56 0 -88 4t-48 20t-20 48t-4 88v620zM143 957q0 16 1.5 25.5t6.5 14.5t14.5 6.5t25.5 1.5h8q31 0 39.5 -8.5t8.5 -39.5v-38q0 -16 -1.5 -25.5t-6.5 -14.5t-14.5 -6.5t-25.5 -1.5h-8q-16 0 -25.5 1.5t-14.5 6.5t-6.5 14.5t-1.5 25.5v38zM318 957q0 16 1.5 25.5
t6.5 14.5t14.5 6.5t25.5 1.5h8q31 0 39.5 -8.5t8.5 -39.5v-38q0 -16 -1.5 -25.5t-6.5 -14.5t-14.5 -6.5t-25.5 -1.5h-8q-16 0 -25.5 1.5t-14.5 6.5t-6.5 14.5t-1.5 25.5v38z" />
    <glyph glyph-name="Yacute" unicode="&#xdd;" horiz-adv-x="544" 
d="M504 523q0 -15 -1.5 -25t-5.5 -18t-12.5 -16.5t-21.5 -18.5l-59 -44q-23 -17 -32 -37.5t-10 -44.5v-239q0 -26 -2.5 -42t-11 -24.5t-24.5 -11t-42 -2.5h-20q-26 0 -42 2.5t-24.5 11t-11 24.5t-2.5 42v234q0 26 -9.5 48t-32.5 39l-59 44q-14 10 -22 18.5t-12 16.5t-5.5 18
t-1.5 25v257q0 38 8.5 49t31.5 11t31.5 -11t8.5 -49v-209q0 -35 4 -49.5t15 -23.5l73 -58q18 -14 31.5 -19.5t28.5 -5.5t28.5 5.5t31.5 19.5l73 58q11 9 15 23.5t4 49.5v209q0 38 8.5 49t31.5 11t31.5 -11t8.5 -49v-257zM336 990q13 0 22.5 -3t9.5 -14q0 -13 -15 -32
l-26 -35q-12 -16 -20 -21t-31 -5h-6q-16 0 -21.5 7t-5.5 27v42q0 20 9 27t26 7h58z" />
    <glyph glyph-name="Thorn" unicode="&#xde;" horiz-adv-x="600" 
d="M40 760q0 26 2.5 42t11 24.5t24.5 11t42 2.5h20q26 0 42 -2.5t24.5 -11t11 -24.5t2.5 -42v-30q0 -26 2.5 -42t11 -24.5t24.5 -11t42 -2.5h100q56 0 88 -4t48 -20t20 -48t4 -88v-140q0 -56 -4 -88t-20 -48t-48 -20t-88 -4h-100q-26 0 -42 -2.5t-24.5 -11t-11 -24.5
t-2.5 -42v-30q0 -26 -2.5 -42t-11 -24.5t-24.5 -11t-42 -2.5h-20q-26 0 -42 2.5t-24.5 11t-11 24.5t-2.5 42v680zM120 350q0 -26 2.5 -42t11 -24.5t24.5 -11t42 -2.5h200q26 0 42 2.5t24.5 11t11 24.5t2.5 42v140q0 26 -2.5 42t-11 24.5t-24.5 11t-42 2.5h-200
q-26 0 -42 -2.5t-24.5 -11t-11 -24.5t-2.5 -42v-140z" />
    <glyph glyph-name="germandbls" unicode="&#xdf;" horiz-adv-x="580" 
d="M120 60q0 -38 -8.5 -49t-31.5 -11t-31.5 11t-8.5 49v620q0 56 4 88t20 48t48 20t88 4h80q56 0 88 -4t48 -20t20 -48t4 -88v-149q0 -38 9.5 -55.5t30.5 -25.5t40.5 -25.5t19.5 -55.5v-209q0 -56 -4 -88t-20 -48t-48 -20t-88 -4h-120q-38 0 -49 11t-11 29t11 29t49 11h20
q26 0 42 2.5t24.5 11t11 24.5t2.5 42v140q0 26 -2.5 42t-11 24.5t-24.5 11t-42 2.5h-20q-38 0 -49 11t-11 29t11 29t49 11h20q26 0 42 2.5t24.5 11t11 24.5t2.5 42v140q0 26 -2.5 42t-11 24.5t-24.5 11t-42 2.5h-80q-26 0 -42 -2.5t-24.5 -11t-11 -24.5t-2.5 -42v-620z" />
    <glyph glyph-name="agrave" unicode="&#xe0;" horiz-adv-x="630" 
d="M220 80q0 -26 -2.5 -42t-11 -24.5t-24.5 -11t-42 -2.5h-20q-26 0 -42 2.5t-24.5 11t-11 24.5t-2.5 42v250q0 19 4 30.5t10.5 19t15.5 12t20 8.5q10 4 19.5 8t16 11.5t10.5 19.5t4 31v210q0 56 4 88t20 48t48 20t88 4h130q56 0 88 -4t48 -20t20 -48t4 -88v-620
q0 -38 -8.5 -49.5t-31.5 -11.5t-31.5 11.5t-8.5 49.5v240q0 26 -2.5 42t-11 24.5t-24.5 11t-42 2.5h-130q-26 0 -42 -2.5t-24.5 -11.5t-11 -25t-2.5 -43v-218zM510 680q0 26 -2.5 42t-11 24.5t-24.5 11t-42 2.5h-130q-26 0 -42 -2.5t-24.5 -11t-11 -24.5t-2.5 -42v-140
q0 -26 2.5 -42t11 -24.5t24.5 -11t42 -2.5h130q26 0 42 2.5t24.5 11t11 24.5t2.5 42v140zM371 990q17 0 26 -7t9 -27v-42q0 -20 -5.5 -27t-21.5 -7h-6q-23 0 -31 5t-20 21l-26 35q-15 19 -15 32q0 11 9.5 14t22.5 3h58z" />
    <glyph glyph-name="aacute" unicode="&#xe1;" horiz-adv-x="630" 
d="M220 80q0 -26 -2.5 -42t-11 -24.5t-24.5 -11t-42 -2.5h-20q-26 0 -42 2.5t-24.5 11t-11 24.5t-2.5 42v250q0 19 4 30.5t10.5 19t15.5 12t20 8.5q10 4 19.5 8t16 11.5t10.5 19.5t4 31v210q0 56 4 88t20 48t48 20t88 4h130q56 0 88 -4t48 -20t20 -48t4 -88v-620
q0 -38 -8.5 -49.5t-31.5 -11.5t-31.5 11.5t-8.5 49.5v240q0 26 -2.5 42t-11 24.5t-24.5 11t-42 2.5h-130q-26 0 -42 -2.5t-24.5 -11.5t-11 -25t-2.5 -43v-218zM510 680q0 26 -2.5 42t-11 24.5t-24.5 11t-42 2.5h-130q-26 0 -42 -2.5t-24.5 -11t-11 -24.5t-2.5 -42v-140
q0 -26 2.5 -42t11 -24.5t24.5 -11t42 -2.5h130q26 0 42 2.5t24.5 11t11 24.5t2.5 42v140zM418 990q13 0 22.5 -3t9.5 -14q0 -13 -15 -32l-26 -35q-12 -16 -20 -21t-31 -5h-6q-16 0 -21.5 7t-5.5 27v42q0 20 9 27t26 7h58z" />
    <glyph glyph-name="acircumflex" unicode="&#xe2;" horiz-adv-x="630" 
d="M220 80q0 -26 -2.5 -42t-11 -24.5t-24.5 -11t-42 -2.5h-20q-26 0 -42 2.5t-24.5 11t-11 24.5t-2.5 42v250q0 19 4 30.5t10.5 19t15.5 12t20 8.5q10 4 19.5 8t16 11.5t10.5 19.5t4 31v210q0 56 4 88t20 48t48 20t88 4h130q56 0 88 -4t48 -20t20 -48t4 -88v-620
q0 -38 -8.5 -49.5t-31.5 -11.5t-31.5 11.5t-8.5 49.5v240q0 26 -2.5 42t-11 24.5t-24.5 11t-42 2.5h-130q-26 0 -42 -2.5t-24.5 -11.5t-11 -25t-2.5 -43v-218zM510 680q0 26 -2.5 42t-11 24.5t-24.5 11t-42 2.5h-130q-26 0 -42 -2.5t-24.5 -11t-11 -24.5t-2.5 -42v-140
q0 -26 2.5 -42t11 -24.5t24.5 -11t42 -2.5h130q26 0 42 2.5t24.5 11t11 24.5t2.5 42v140zM348 987q16 15 31 0l97 -84q14 -11 11 -19.5t-19 -8.5h-208q-16 0 -18.5 8.5t10.5 19.5z" />
    <glyph glyph-name="atilde" unicode="&#xe3;" horiz-adv-x="630" 
d="M220 80q0 -26 -2.5 -42t-11 -24.5t-24.5 -11t-42 -2.5h-20q-26 0 -42 2.5t-24.5 11t-11 24.5t-2.5 42v250q0 19 4 30.5t10.5 19t15.5 12t20 8.5q10 4 19.5 8t16 11.5t10.5 19.5t4 31v210q0 56 4 88t20 48t48 20t88 4h130q56 0 88 -4t48 -20t20 -48t4 -88v-620
q0 -38 -8.5 -49.5t-31.5 -11.5t-31.5 11.5t-8.5 49.5v240q0 26 -2.5 42t-11 24.5t-24.5 11t-42 2.5h-130q-26 0 -42 -2.5t-24.5 -11.5t-11 -25t-2.5 -43v-218zM510 680q0 26 -2.5 42t-11 24.5t-24.5 11t-42 2.5h-130q-26 0 -42 -2.5t-24.5 -11t-11 -24.5t-2.5 -42v-140
q0 -26 2.5 -42t11 -24.5t24.5 -11t42 -2.5h130q26 0 42 2.5t24.5 11t11 24.5t2.5 42v140zM195 920q0 30 4.5 48t16.5 27t33.5 12t55.5 3q30 0 47.5 -6t27.5 -15t15.5 -19t11 -19t14 -15t24.5 -6q23 0 31.5 7.5t8.5 22.5q0 27 5 36t30 9t30 -9t5 -36q0 -30 -4.5 -48
t-16.5 -27t-33.5 -12t-55.5 -3q-30 0 -47 6t-27.5 15t-16 19t-11 19t-13.5 15t-24 6q-23 0 -32 -7.5t-9 -22.5q0 -27 -5 -36t-30 -9t-30 9t-5 36z" />
    <glyph glyph-name="adieresis" unicode="&#xe4;" horiz-adv-x="630" 
d="M220 80q0 -26 -2.5 -42t-11 -24.5t-24.5 -11t-42 -2.5h-20q-26 0 -42 2.5t-24.5 11t-11 24.5t-2.5 42v250q0 19 4 30.5t10.5 19t15.5 12t20 8.5q10 4 19.5 8t16 11.5t10.5 19.5t4 31v210q0 56 4 88t20 48t48 20t88 4h130q56 0 88 -4t48 -20t20 -48t4 -88v-620
q0 -38 -8.5 -49.5t-31.5 -11.5t-31.5 11.5t-8.5 49.5v240q0 26 -2.5 42t-11 24.5t-24.5 11t-42 2.5h-130q-26 0 -42 -2.5t-24.5 -11.5t-11 -25t-2.5 -43v-218zM510 680q0 26 -2.5 42t-11 24.5t-24.5 11t-42 2.5h-130q-26 0 -42 -2.5t-24.5 -11t-11 -24.5t-2.5 -42v-140
q0 -26 2.5 -42t11 -24.5t24.5 -11t42 -2.5h130q26 0 42 2.5t24.5 11t11 24.5t2.5 42v140zM222 957q0 16 1.5 25.5t6.5 14.5t14.5 6.5t25.5 1.5h8q31 0 39.5 -8.5t8.5 -39.5v-38q0 -16 -1.5 -25.5t-6.5 -14.5t-14.5 -6.5t-25.5 -1.5h-8q-16 0 -25.5 1.5t-14.5 6.5t-6.5 14.5
t-1.5 25.5v38zM397 957q0 16 1.5 25.5t6.5 14.5t14.5 6.5t25.5 1.5h8q31 0 39.5 -8.5t8.5 -39.5v-38q0 -16 -1.5 -25.5t-6.5 -14.5t-14.5 -6.5t-25.5 -1.5h-8q-16 0 -25.5 1.5t-14.5 6.5t-6.5 14.5t-1.5 25.5v38z" />
    <glyph glyph-name="aring" unicode="&#xe5;" horiz-adv-x="630" 
d="M220 80q0 -26 -2.5 -42t-11 -24.5t-24.5 -11t-42 -2.5h-20q-26 0 -42 2.5t-24.5 11t-11 24.5t-2.5 42v250q0 19 4 30.5t10.5 19t15.5 12t20 8.5q10 4 19.5 8t16 11.5t10.5 19.5t4 31v210q0 56 4 88t20 48t48 20t88 4h130q56 0 88 -4t48 -20t20 -48t4 -88v-620
q0 -38 -8.5 -49.5t-31.5 -11.5t-31.5 11.5t-8.5 49.5v240q0 26 -2.5 42t-11 24.5t-24.5 11t-42 2.5h-130q-26 0 -42 -2.5t-24.5 -11.5t-11 -25t-2.5 -43v-218zM510 680q0 26 -2.5 42t-11 24.5t-24.5 11t-42 2.5h-130q-26 0 -42 -2.5t-24.5 -11t-11 -24.5t-2.5 -42v-140
q0 -26 2.5 -42t11 -24.5t24.5 -11t42 -2.5h130q26 0 42 2.5t24.5 11t11 24.5t2.5 42v140zM291 950q0 26 2.5 42t11 24.5t24.5 11t42 2.5t42 -2.5t24.5 -11t11 -24.5t2.5 -42t-2.5 -42t-11 -24.5t-24.5 -11t-42 -2.5t-42 2.5t-24.5 11t-11 24.5t-2.5 42zM335 950
q0 -23 6.5 -29.5t29.5 -6.5t29.5 6.5t6.5 29.5t-6.5 29.5t-29.5 6.5t-29.5 -6.5t-6.5 -29.5z" />
    <glyph glyph-name="ae" unicode="&#xe6;" horiz-adv-x="950" 
d="M220 80q0 -26 -2.5 -42t-11 -24.5t-24.5 -11t-42 -2.5h-20q-26 0 -42 2.5t-24.5 11t-11 24.5t-2.5 42v250q0 19 4 30.5t10.5 19t15.5 12t20 8.5q10 4 19.5 8t16 11.5t10.5 19.5t4 31v210q0 56 4 88t20 48t48 20t88 4h110q45 0 73.5 -5t46.5 -28q17 23 46 28t74 5h200
q38 0 49 -8.5t11 -31.5t-11 -31.5t-49 -8.5h-200q-26 0 -42 -2.5t-24.5 -11t-11 -24.5t-2.5 -42v-140q0 -26 2.5 -42t11 -24.5t24.5 -11t42 -2.5h200q38 0 49 -8.5t11 -31.5t-11 -31.5t-49 -8.5h-100q-26 0 -42 -2.5t-24.5 -11t-11 -24.5t-2.5 -42v-140q0 -26 2.5 -42
t11 -24.5t24.5 -11t42 -2.5h100q38 0 49 -8.5t11 -31.5t-11 -31.5t-49 -8.5h-200q-56 0 -88 4t-48 20t-20 48t-4 88v140q0 26 -2.5 42t-11 24.5t-24.5 11t-42 2.5h-110q-26 0 -42 -2.5t-24.5 -11.5t-11 -25t-2.5 -43v-218zM490 680v15q-1 21 -4.5 34t-12.5 19.5t-24 9
t-39 2.5h-110q-26 0 -42 -2.5t-24.5 -11t-11 -24.5t-2.5 -42v-140q0 -26 2.5 -42t11 -24.5t24.5 -11t42 -2.5h110q24 0 39.5 2.5t24.5 11t12.5 24.5t3.5 42v140z" />
    <glyph glyph-name="ccedilla" unicode="&#xe7;" horiz-adv-x="540" 
d="M40 680q0 56 4 88t20 48t48 20t88 4h140q56 0 88 -4t48 -20t20 -48t4 -88v-50q0 -23 -2.5 -36.5t-10 -21t-21 -10t-35.5 -2.5h-41q-23 0 -36.5 2.5t-21 10t-10 21t-2.5 36.5v49q0 27 -2.5 43t-11 24.5t-24.5 11t-42 2.5h-40q-26 0 -42 -2.5t-24.5 -11t-11 -24.5t-2.5 -42
v-520q0 -26 2.5 -42t11 -24.5t24.5 -11t42 -2.5h140q26 0 42 2.5t24.5 11t11 24.5t2.5 42v60q0 19 1.5 30.5t5.5 18t11.5 9t20.5 2.5q26 0 33.5 -11t7.5 -49v-60q0 -56 -4 -88t-20 -48t-48 -20t-88 -4h-91q1 -20 8.5 -25t31.5 -5q28 0 44 -2t24 -9t10 -21t2 -39
q0 -28 -2 -42t-10 -20t-24 -6.5t-44 -0.5h-40q-28 0 -44 1.5t-23.5 7.5t-9 18t-1.5 33q0 19 6 24.5t33 5.5t33 -6t6 -26q0 -11 7 -15.5t33 -4.5t33 5.5t7 25.5t-7 25.5t-33 5.5q-27 0 -43 2t-24 9t-10.5 21t-2.5 38h-9q-56 0 -88 4t-48 20t-20 48t-4 88v520z" />
    <glyph glyph-name="egrave" unicode="&#xe8;" horiz-adv-x="520" 
d="M40 680q0 56 4 88t20 48t48 20t88 4h220q38 0 49 -8.5t11 -31.5t-11 -31.5t-49 -8.5h-220q-26 0 -42 -2.5t-24.5 -11t-11 -24.5t-2.5 -42v-140q0 -26 2.5 -42t11 -24.5t24.5 -11t42 -2.5h220q38 0 49 -8.5t11 -31.5t-11 -31.5t-49 -8.5h-120q-26 0 -42 -2.5t-24.5 -11
t-11 -24.5t-2.5 -42v-140q0 -26 2.5 -42t11 -24.5t24.5 -11t42 -2.5h120q38 0 49 -8.5t11 -31.5t-11 -31.5t-49 -8.5h-220q-56 0 -88 4t-48 20t-20 48t-4 88v520zM299 990q17 0 26 -7t9 -27v-42q0 -20 -5.5 -27t-21.5 -7h-6q-23 0 -31 5t-20 21l-26 35q-15 19 -15 32
q0 11 9.5 14t22.5 3h58z" />
    <glyph glyph-name="eacute" unicode="&#xe9;" horiz-adv-x="520" 
d="M40 680q0 56 4 88t20 48t48 20t88 4h220q38 0 49 -8.5t11 -31.5t-11 -31.5t-49 -8.5h-220q-26 0 -42 -2.5t-24.5 -11t-11 -24.5t-2.5 -42v-140q0 -26 2.5 -42t11 -24.5t24.5 -11t42 -2.5h220q38 0 49 -8.5t11 -31.5t-11 -31.5t-49 -8.5h-120q-26 0 -42 -2.5t-24.5 -11
t-11 -24.5t-2.5 -42v-140q0 -26 2.5 -42t11 -24.5t24.5 -11t42 -2.5h120q38 0 49 -8.5t11 -31.5t-11 -31.5t-49 -8.5h-220q-56 0 -88 4t-48 20t-20 48t-4 88v520zM334 990q13 0 22.5 -3t9.5 -14q0 -13 -15 -32l-26 -35q-12 -16 -20 -21t-31 -5h-6q-16 0 -21.5 7t-5.5 27v42
q0 20 9 27t26 7h58z" />
    <glyph glyph-name="ecircumflex" unicode="&#xea;" horiz-adv-x="520" 
d="M40 680q0 56 4 88t20 48t48 20t88 4h220q38 0 49 -8.5t11 -31.5t-11 -31.5t-49 -8.5h-220q-26 0 -42 -2.5t-24.5 -11t-11 -24.5t-2.5 -42v-140q0 -26 2.5 -42t11 -24.5t24.5 -11t42 -2.5h220q38 0 49 -8.5t11 -31.5t-11 -31.5t-49 -8.5h-120q-26 0 -42 -2.5t-24.5 -11
t-11 -24.5t-2.5 -42v-140q0 -26 2.5 -42t11 -24.5t24.5 -11t42 -2.5h120q38 0 49 -8.5t11 -31.5t-11 -31.5t-49 -8.5h-220q-56 0 -88 4t-48 20t-20 48t-4 88v520zM245 987q16 15 31 0l97 -84q14 -11 11 -19.5t-19 -8.5h-208q-16 0 -18.5 8.5t10.5 19.5z" />
    <glyph glyph-name="edieresis" unicode="&#xeb;" horiz-adv-x="520" 
d="M40 680q0 56 4 88t20 48t48 20t88 4h220q38 0 49 -8.5t11 -31.5t-11 -31.5t-49 -8.5h-220q-26 0 -42 -2.5t-24.5 -11t-11 -24.5t-2.5 -42v-140q0 -26 2.5 -42t11 -24.5t24.5 -11t42 -2.5h220q38 0 49 -8.5t11 -31.5t-11 -31.5t-49 -8.5h-120q-26 0 -42 -2.5t-24.5 -11
t-11 -24.5t-2.5 -42v-140q0 -26 2.5 -42t11 -24.5t24.5 -11t42 -2.5h120q38 0 49 -8.5t11 -31.5t-11 -31.5t-49 -8.5h-220q-56 0 -88 4t-48 20t-20 48t-4 88v520zM132 957q0 16 1.5 25.5t6.5 14.5t14.5 6.5t25.5 1.5h8q31 0 39.5 -8.5t8.5 -39.5v-38q0 -16 -1.5 -25.5
t-6.5 -14.5t-14.5 -6.5t-25.5 -1.5h-8q-16 0 -25.5 1.5t-14.5 6.5t-6.5 14.5t-1.5 25.5v38zM307 957q0 16 1.5 25.5t6.5 14.5t14.5 6.5t25.5 1.5h8q31 0 39.5 -8.5t8.5 -39.5v-38q0 -16 -1.5 -25.5t-6.5 -14.5t-14.5 -6.5t-25.5 -1.5h-8q-16 0 -25.5 1.5t-14.5 6.5
t-6.5 14.5t-1.5 25.5v38z" />
    <glyph glyph-name="igrave" unicode="&#xec;" horiz-adv-x="260" 
d="M40 320q0 19 4 30.5t10.5 19t15.5 12t20 8.5q10 4 19.5 8t16 11.5t10.5 19.5t4 31v320q0 38 8.5 49t31.5 11t31.5 -11t8.5 -49v-700q0 -26 -2.5 -42t-11 -24.5t-24.5 -11t-42 -2.5h-20q-26 0 -42 2.5t-24.5 11t-11 24.5t-2.5 42v240zM180 990q17 0 26 -7t9 -27v-42
q0 -20 -5.5 -27t-21.5 -7h-6q-23 0 -31 5t-20 21l-26 35q-15 19 -15 32q0 11 9.5 14t22.5 3h58z" />
    <glyph glyph-name="iacute" unicode="&#xed;" horiz-adv-x="260" 
d="M40 320q0 19 4 30.5t10.5 19t15.5 12t20 8.5q10 4 19.5 8t16 11.5t10.5 19.5t4 31v320q0 38 8.5 49t31.5 11t31.5 -11t8.5 -49v-700q0 -26 -2.5 -42t-11 -24.5t-24.5 -11t-42 -2.5h-20q-26 0 -42 2.5t-24.5 11t-11 24.5t-2.5 42v240zM234 990q13 0 22.5 -3t9.5 -14
q0 -13 -15 -32l-26 -35q-12 -16 -20 -21t-31 -5h-6q-16 0 -21.5 7t-5.5 27v42q0 20 9 27t26 7h58z" />
    <glyph glyph-name="icircumflex" unicode="&#xee;" horiz-adv-x="260" 
d="M40 320q0 19 4 30.5t10.5 19t15.5 12t20 8.5q10 4 19.5 8t16 11.5t10.5 19.5t4 31v320q0 38 8.5 49t31.5 11t31.5 -11t8.5 -49v-700q0 -26 -2.5 -42t-11 -24.5t-24.5 -11t-42 -2.5h-20q-26 0 -42 2.5t-24.5 11t-11 24.5t-2.5 42v240zM165 987q16 15 31 0l97 -84
q14 -11 11 -19.5t-19 -8.5h-208q-16 0 -18.5 8.5t10.5 19.5z" />
    <glyph glyph-name="idieresis" unicode="&#xef;" horiz-adv-x="260" 
d="M69 957q0 16 1.5 25.5t6.5 14.5t14.5 6.5t25.5 1.5q31 0 39.5 -8.5t8.5 -39.5v-38q0 -16 -1.5 -25.5t-6.5 -14.5t-14.5 -6.5t-25.5 -1.5t-25.5 1.5t-14.5 6.5t-6.5 14.5t-1.5 25.5v38zM196 957q0 16 1.5 25.5t6.5 14.5t14.5 6.5t25.5 1.5q31 0 39.5 -8.5t8.5 -39.5v-38
q0 -16 -1.5 -25.5t-6.5 -14.5t-14.5 -6.5t-25.5 -1.5t-25.5 1.5t-14.5 6.5t-6.5 14.5t-1.5 25.5v38zM40 320q0 19 4 30.5t10.5 19t15.5 12t20 8.5q10 4 19.5 8t16 11.5t10.5 19.5t4 31v320q0 38 8.5 49t31.5 11t31.5 -11t8.5 -49v-700q0 -26 -2.5 -42t-11 -24.5t-24.5 -11
t-42 -2.5h-20q-26 0 -42 2.5t-24.5 11t-11 24.5t-2.5 42v240z" />
    <glyph glyph-name="eth" unicode="&#xf0;" horiz-adv-x="680" 
d="M0 420q0 23 11 31.5t49 8.5q14 0 22 1t12 5t5 12t1 22v260q0 26 2.5 42t11 24.5t24.5 11t42 2.5h200q67 0 116.5 -12t81 -40.5t47 -74.5t15.5 -113v-360q0 -68 -15.5 -113.5t-47 -74t-81 -40.5t-116.5 -12h-200q-26 0 -42 2.5t-24.5 11t-11 24.5t-2.5 42v260q0 28 -6 34
t-34 6q-38 0 -49 8.5t-11 31.5zM560 600q0 41 -8.5 71.5t-29 50t-55.5 29t-87 9.5h-20q-26 0 -42 -2.5t-24.5 -11t-11 -24.5t-2.5 -43v-179q0 -14 1 -22t5 -12t12 -5t22 -1h60q38 0 49 -8.5t11 -31.5t-11 -31.5t-49 -8.5h-60q-14 0 -22 -1t-12 -5t-5 -12t-1 -22v-180
q0 -26 2.5 -42t11 -24.5t24 -11t42.5 -2.5h20q52 0 87 9.5t55.5 29t29 50t8.5 71.5v360z" />
    <glyph glyph-name="ntilde" unicode="&#xf1;" horiz-adv-x="640" 
d="M520 240q0 28 -0.5 44t-4.5 28t-12 23.5t-23 29.5l-301 366q-11 13 -18.5 18t-18.5 5t-16.5 -7t-5.5 -27v-660q0 -38 -8.5 -49t-31.5 -11t-31.5 11t-8.5 49v700q0 26 2.5 42t11 24.5t24.5 11t42 2.5h20q18 0 29 -1t20.5 -6.5t21 -17.5t29.5 -34l231 -282q17 -20 29 -20
q20 0 20 41v260q0 38 8.5 49t31.5 11t31.5 -11t8.5 -49v-720q0 -38 -8.5 -49t-31.5 -11t-31.5 11t-8.5 49v180zM230 166q0 26 2.5 42t11 24.5t24.5 11t42 2.5h20q26 0 42 -2.5t24.5 -11t11 -24.5t2.5 -42v-90q0 -26 -2.5 -42t-11 -24.5t-24.5 -11t-42 -2.5h-20
q-26 0 -42 2.5t-24.5 11t-11 24.5t-2.5 42v90zM141 920q0 30 4.5 48t16.5 27t33.5 12t55.5 3q30 0 47.5 -6t27.5 -15t15.5 -19t11 -19t14 -15t24.5 -6q23 0 31.5 7.5t8.5 22.5q0 27 5 36t30 9t30 -9t5 -36q0 -30 -4.5 -48t-16.5 -27t-33.5 -12t-55.5 -3q-30 0 -47 6
t-27.5 15t-16 19t-11 19t-13.5 15t-24 6q-23 0 -32 -7.5t-9 -22.5q0 -27 -5 -36t-30 -9t-30 9t-5 36z" />
    <glyph glyph-name="ograve" unicode="&#xf2;" 
d="M40 680q0 56 4 88t20 48t48 20t88 4h220q56 0 88 -4t48 -20t20 -48t4 -88v-520q0 -56 -4 -88t-20 -48t-48 -20t-88 -4h-220q-56 0 -88 4t-48 20t-20 48t-4 88v520zM400 410q0 19 4 30.5t10.5 19t15.5 12t20 8.5q10 4 19.5 8t16 11.5t10.5 19.5t4 31v130q0 26 -2.5 42
t-11 24.5t-24.5 11t-42 2.5h-220q-26 0 -42 -2.5t-24.5 -11t-11 -24.5t-2.5 -42v-520q0 -26 2.5 -42t11.5 -24.5t25.5 -11t43.5 -2.5h117q26 0 42 2.5t24.5 11t11 24.5t2.5 42v250zM330 990q17 0 26 -7t9 -27v-42q0 -20 -5.5 -27t-21.5 -7h-6q-23 0 -31 5t-20 21l-26 35
q-15 19 -15 32q0 11 9.5 14t22.5 3h58z" />
    <glyph glyph-name="oacute" unicode="&#xf3;" 
d="M40 680q0 56 4 88t20 48t48 20t88 4h220q56 0 88 -4t48 -20t20 -48t4 -88v-520q0 -56 -4 -88t-20 -48t-48 -20t-88 -4h-220q-56 0 -88 4t-48 20t-20 48t-4 88v520zM400 410q0 19 4 30.5t10.5 19t15.5 12t20 8.5q10 4 19.5 8t16 11.5t10.5 19.5t4 31v130q0 26 -2.5 42
t-11 24.5t-24.5 11t-42 2.5h-220q-26 0 -42 -2.5t-24.5 -11t-11 -24.5t-2.5 -42v-520q0 -26 2.5 -42t11.5 -24.5t25.5 -11t43.5 -2.5h117q26 0 42 2.5t24.5 11t11 24.5t2.5 42v250zM373 990q13 0 22.5 -3t9.5 -14q0 -13 -15 -32l-26 -35q-12 -16 -20 -21t-31 -5h-6
q-16 0 -21.5 7t-5.5 27v42q0 20 9 27t26 7h58z" />
    <glyph glyph-name="ocircumflex" unicode="&#xf4;" 
d="M40 680q0 56 4 88t20 48t48 20t88 4h220q56 0 88 -4t48 -20t20 -48t4 -88v-520q0 -56 -4 -88t-20 -48t-48 -20t-88 -4h-220q-56 0 -88 4t-48 20t-20 48t-4 88v520zM400 410q0 19 4 30.5t10.5 19t15.5 12t20 8.5q10 4 19.5 8t16 11.5t10.5 19.5t4 31v130q0 26 -2.5 42
t-11 24.5t-24.5 11t-42 2.5h-220q-26 0 -42 -2.5t-24.5 -11t-11 -24.5t-2.5 -42v-520q0 -26 2.5 -42t11.5 -24.5t25.5 -11t43.5 -2.5h117q26 0 42 2.5t24.5 11t11 24.5t2.5 42v250zM303 987q16 15 31 0l97 -84q14 -11 11 -19.5t-19 -8.5h-208q-16 0 -18.5 8.5t10.5 19.5z
" />
    <glyph glyph-name="otilde" unicode="&#xf5;" 
d="M40 680q0 56 4 88t20 48t48 20t88 4h220q56 0 88 -4t48 -20t20 -48t4 -88v-520q0 -56 -4 -88t-20 -48t-48 -20t-88 -4h-220q-56 0 -88 4t-48 20t-20 48t-4 88v520zM400 410q0 19 4 30.5t10.5 19t15.5 12t20 8.5q10 4 19.5 8t16 11.5t10.5 19.5t4 31v130q0 26 -2.5 42
t-11 24.5t-24.5 11t-42 2.5h-220q-26 0 -42 -2.5t-24.5 -11t-11 -24.5t-2.5 -42v-520q0 -26 2.5 -42t11.5 -24.5t25.5 -11t43.5 -2.5h117q26 0 42 2.5t24.5 11t11 24.5t2.5 42v250zM141 920q0 30 4.5 48t16.5 27t33.5 12t55.5 3q30 0 47.5 -6t27.5 -15t15.5 -19t11 -19
t14 -15t24.5 -6q23 0 31.5 7.5t8.5 22.5q0 27 5 36t30 9t30 -9t5 -36q0 -30 -4.5 -48t-16.5 -27t-33.5 -12t-55.5 -3q-30 0 -47 6t-27.5 15t-16 19t-11 19t-13.5 15t-24 6q-23 0 -32 -7.5t-9 -22.5q0 -27 -5 -36t-30 -9t-30 9t-5 36z" />
    <glyph glyph-name="odieresis" unicode="&#xf6;" 
d="M40 680q0 56 4 88t20 48t48 20t88 4h220q56 0 88 -4t48 -20t20 -48t4 -88v-520q0 -56 -4 -88t-20 -48t-48 -20t-88 -4h-220q-56 0 -88 4t-48 20t-20 48t-4 88v520zM400 410q0 19 4 30.5t10.5 19t15.5 12t20 8.5q10 4 19.5 8t16 11.5t10.5 19.5t4 31v130q0 26 -2.5 42
t-11 24.5t-24.5 11t-42 2.5h-220q-26 0 -42 -2.5t-24.5 -11t-11 -24.5t-2.5 -42v-520q0 -26 2.5 -42t11.5 -24.5t25.5 -11t43.5 -2.5h117q26 0 42 2.5t24.5 11t11 24.5t2.5 42v250zM172 957q0 16 1.5 25.5t6.5 14.5t14.5 6.5t25.5 1.5h8q31 0 39.5 -8.5t8.5 -39.5v-38
q0 -16 -1.5 -25.5t-6.5 -14.5t-14.5 -6.5t-25.5 -1.5h-8q-16 0 -25.5 1.5t-14.5 6.5t-6.5 14.5t-1.5 25.5v38zM347 957q0 16 1.5 25.5t6.5 14.5t14.5 6.5t25.5 1.5h8q31 0 39.5 -8.5t8.5 -39.5v-38q0 -16 -1.5 -25.5t-6.5 -14.5t-14.5 -6.5t-25.5 -1.5h-8q-16 0 -25.5 1.5
t-14.5 6.5t-6.5 14.5t-1.5 25.5v38z" />
    <glyph glyph-name="divide" unicode="&#xf7;" horiz-adv-x="640" 
d="M40 420q0 23 11 31.5t49 8.5h440q38 0 49 -8.5t11 -31.5t-11 -31.5t-49 -8.5h-440q-38 0 -49 8.5t-11 31.5zM234 240q0 26 2.5 42t11 24.5t24.5 11t42 2.5h10q26 0 42 -2.5t24.5 -11t11 -24.5t2.5 -42v-10q0 -26 -2.5 -42t-11 -24.5t-24.5 -11t-42 -2.5h-10
q-26 0 -42 2.5t-24.5 11t-11 24.5t-2.5 42v10zM234 610q0 26 2.5 42t11 24.5t24.5 11t42 2.5h10q26 0 42 -2.5t24.5 -11t11 -24.5t2.5 -42v-10q0 -26 -2.5 -42t-11 -24.5t-24.5 -11t-42 -2.5h-10q-26 0 -42 2.5t-24.5 11t-11 24.5t-2.5 42v10z" />
    <glyph glyph-name="oslash" unicode="&#xf8;" 
d="M40 680q0 56 4 88t20 48t48 20t88 4h220q56 0 88 -4t48 -20t20 -48t4 -88v-520q0 -56 -4 -88t-20 -48t-48 -20t-88 -4h-220q-56 0 -88 4t-48 20t-20 48t-4 88v520zM420 760h-220q-26 0 -42 -2.5t-24.5 -11t-11 -24.5t-2.5 -42v-540l347 616q-15 4 -47 4zM400 350
q0 19 4 30.5t10.5 19t15.5 12t20 8.5q10 4 19.5 8t16 11.5t10.5 19.5t4 31v198l-342 -606q9 -2 20 -2h25h117q26 0 42 2.5t24.5 11t11 24.5t2.5 42v190z" />
    <glyph glyph-name="ugrave" unicode="&#xf9;" horiz-adv-x="560" 
d="M40 780q0 38 8.5 49t31.5 11t31.5 -11t8.5 -49v-620q0 -27 2.5 -42.5t11 -24t24.5 -11t42 -2.5h60q26 0 42 2.5t24.5 11t11 24t2.5 42.5v600q0 26 2.5 42t11 24.5t24.5 11t42 2.5h20q26 0 42 -2.5t24.5 -11t11 -24.5t2.5 -42v-600q0 -56 -4 -88t-20 -48t-48 -20t-88 -4
h-160q-56 0 -88 4t-48 20t-20 48t-4 88v620zM266 990q17 0 26 -7t9 -27v-42q0 -20 -5.5 -27t-21.5 -7h-6q-23 0 -31 5t-20 21l-26 35q-15 19 -15 32q0 11 9.5 14t22.5 3h58z" />
    <glyph glyph-name="uacute" unicode="&#xfa;" horiz-adv-x="560" 
d="M40 780q0 38 8.5 49t31.5 11t31.5 -11t8.5 -49v-620q0 -27 2.5 -42.5t11 -24t24.5 -11t42 -2.5h60q26 0 42 2.5t24.5 11t11 24t2.5 42.5v600q0 26 2.5 42t11 24.5t24.5 11t42 2.5h20q26 0 42 -2.5t24.5 -11t11 -24.5t2.5 -42v-600q0 -56 -4 -88t-20 -48t-48 -20t-88 -4
h-160q-56 0 -88 4t-48 20t-20 48t-4 88v620zM304 990q13 0 22.5 -3t9.5 -14q0 -13 -15 -32l-26 -35q-12 -16 -20 -21t-31 -5h-6q-16 0 -21.5 7t-5.5 27v42q0 20 9 27t26 7h58z" />
    <glyph glyph-name="ucircumflex" unicode="&#xfb;" horiz-adv-x="560" 
d="M40 780q0 38 8.5 49t31.5 11t31.5 -11t8.5 -49v-620q0 -27 2.5 -42.5t11 -24t24.5 -11t42 -2.5h60q26 0 42 2.5t24.5 11t11 24t2.5 42.5v600q0 26 2.5 42t11 24.5t24.5 11t42 2.5h20q26 0 42 -2.5t24.5 -11t11 -24.5t2.5 -42v-600q0 -56 -4 -88t-20 -48t-48 -20t-88 -4
h-160q-56 0 -88 4t-48 20t-20 48t-4 88v620zM265 987q16 15 31 0l97 -84q14 -11 11 -19.5t-19 -8.5h-208q-16 0 -18.5 8.5t10.5 19.5z" />
    <glyph glyph-name="udieresis" unicode="&#xfc;" horiz-adv-x="560" 
d="M40 780q0 38 8.5 49t31.5 11t31.5 -11t8.5 -49v-620q0 -27 2.5 -42.5t11 -24t24.5 -11t42 -2.5h60q26 0 42 2.5t24.5 11t11 24t2.5 42.5v600q0 26 2.5 42t11 24.5t24.5 11t42 2.5h20q26 0 42 -2.5t24.5 -11t11 -24.5t2.5 -42v-600q0 -56 -4 -88t-20 -48t-48 -20t-88 -4
h-160q-56 0 -88 4t-48 20t-20 48t-4 88v620zM143 957q0 16 1.5 25.5t6.5 14.5t14.5 6.5t25.5 1.5h8q31 0 39.5 -8.5t8.5 -39.5v-38q0 -16 -1.5 -25.5t-6.5 -14.5t-14.5 -6.5t-25.5 -1.5h-8q-16 0 -25.5 1.5t-14.5 6.5t-6.5 14.5t-1.5 25.5v38zM318 957q0 16 1.5 25.5
t6.5 14.5t14.5 6.5t25.5 1.5h8q31 0 39.5 -8.5t8.5 -39.5v-38q0 -16 -1.5 -25.5t-6.5 -14.5t-14.5 -6.5t-25.5 -1.5h-8q-16 0 -25.5 1.5t-14.5 6.5t-6.5 14.5t-1.5 25.5v38z" />
    <glyph glyph-name="yacute" unicode="&#xfd;" horiz-adv-x="544" 
d="M504 523q0 -15 -1.5 -25t-5.5 -18t-12.5 -16.5t-21.5 -18.5l-59 -44q-23 -17 -32 -37.5t-10 -44.5v-239q0 -26 -2.5 -42t-11 -24.5t-24.5 -11t-42 -2.5h-20q-26 0 -42 2.5t-24.5 11t-11 24.5t-2.5 42v234q0 26 -9.5 48t-32.5 39l-59 44q-14 10 -22 18.5t-12 16.5t-5.5 18
t-1.5 25v257q0 38 8.5 49t31.5 11t31.5 -11t8.5 -49v-209q0 -35 4 -49.5t15 -23.5l73 -58q18 -14 31.5 -19.5t28.5 -5.5t28.5 5.5t31.5 19.5l73 58q11 9 15 23.5t4 49.5v209q0 38 8.5 49t31.5 11t31.5 -11t8.5 -49v-257zM336 990q13 0 22.5 -3t9.5 -14q0 -13 -15 -32
l-26 -35q-12 -16 -20 -21t-31 -5h-6q-16 0 -21.5 7t-5.5 27v42q0 20 9 27t26 7h58z" />
    <glyph glyph-name="thorn" unicode="&#xfe;" horiz-adv-x="600" 
d="M40 760q0 26 2.5 42t11 24.5t24.5 11t42 2.5h20q26 0 42 -2.5t24.5 -11t11 -24.5t2.5 -42v-30q0 -26 2.5 -42t11 -24.5t24.5 -11t42 -2.5h100q56 0 88 -4t48 -20t20 -48t4 -88v-140q0 -56 -4 -88t-20 -48t-48 -20t-88 -4h-100q-26 0 -42 -2.5t-24.5 -11t-11 -24.5
t-2.5 -42v-30q0 -26 -2.5 -42t-11 -24.5t-24.5 -11t-42 -2.5h-20q-26 0 -42 2.5t-24.5 11t-11 24.5t-2.5 42v680zM120 350q0 -26 2.5 -42t11 -24.5t24.5 -11t42 -2.5h200q26 0 42 2.5t24.5 11t11 24.5t2.5 42v140q0 26 -2.5 42t-11 24.5t-24.5 11t-42 2.5h-200
q-26 0 -42 -2.5t-24.5 -11t-11 -24.5t-2.5 -42v-140z" />
    <glyph glyph-name="ydieresis" unicode="&#xff;" horiz-adv-x="544" 
d="M504 523q0 -15 -1.5 -25t-5.5 -18t-12.5 -16.5t-21.5 -18.5l-59 -44q-23 -17 -32 -37.5t-10 -44.5v-239q0 -26 -2.5 -42t-11 -24.5t-24.5 -11t-42 -2.5h-20q-26 0 -42 2.5t-24.5 11t-11 24.5t-2.5 42v234q0 26 -9.5 48t-32.5 39l-59 44q-14 10 -22 18.5t-12 16.5t-5.5 18
t-1.5 25v257q0 38 8.5 49t31.5 11t31.5 -11t8.5 -49v-209q0 -35 4 -49.5t15 -23.5l73 -58q18 -14 31.5 -19.5t28.5 -5.5t28.5 5.5t31.5 19.5l73 58q11 9 15 23.5t4 49.5v209q0 38 8.5 49t31.5 11t31.5 -11t8.5 -49v-257zM132 937q0 16 1.5 25.5t6.5 14.5t14.5 6.5t25.5 1.5
h8q31 0 39.5 -8.5t8.5 -39.5v-38q0 -16 -1.5 -25.5t-6.5 -14.5t-14.5 -6.5t-25.5 -1.5h-8q-16 0 -25.5 1.5t-14.5 6.5t-6.5 14.5t-1.5 25.5v38zM307 937q0 16 1.5 25.5t6.5 14.5t14.5 6.5t25.5 1.5h8q31 0 39.5 -8.5t8.5 -39.5v-38q0 -16 -1.5 -25.5t-6.5 -14.5t-14.5 -6.5
t-25.5 -1.5h-8q-16 0 -25.5 1.5t-14.5 6.5t-6.5 14.5t-1.5 25.5v38z" />
    <glyph glyph-name="Amacron" unicode="&#x100;" horiz-adv-x="630" 
d="M220 80q0 -26 -2.5 -42t-11 -24.5t-24.5 -11t-42 -2.5h-20q-26 0 -42 2.5t-24.5 11t-11 24.5t-2.5 42v250q0 19 4 30.5t10.5 19t15.5 12t20 8.5q10 4 19.5 8t16 11.5t10.5 19.5t4 31v210q0 56 4 88t20 48t48 20t88 4h130q56 0 88 -4t48 -20t20 -48t4 -88v-620
q0 -38 -8.5 -49.5t-31.5 -11.5t-31.5 11.5t-8.5 49.5v240q0 26 -2.5 42t-11 24.5t-24.5 11t-42 2.5h-130q-26 0 -42 -2.5t-24.5 -11.5t-11 -25t-2.5 -43v-218zM510 680q0 26 -2.5 42t-11 24.5t-24.5 11t-42 2.5h-130q-26 0 -42 -2.5t-24.5 -11t-11 -24.5t-2.5 -42v-140
q0 -26 2.5 -42t11 -24.5t24.5 -11t42 -2.5h130q26 0 42 2.5t24.5 11t11 24.5t2.5 42v140zM155 920q0 23 11 31.5t49 8.5h300q38 0 49 -8.5t11 -31.5t-11 -31.5t-49 -8.5h-300q-38 0 -49 8.5t-11 31.5z" />
    <glyph glyph-name="amacron" unicode="&#x101;" horiz-adv-x="630" 
d="M220 80q0 -26 -2.5 -42t-11 -24.5t-24.5 -11t-42 -2.5h-20q-26 0 -42 2.5t-24.5 11t-11 24.5t-2.5 42v250q0 19 4 30.5t10.5 19t15.5 12t20 8.5q10 4 19.5 8t16 11.5t10.5 19.5t4 31v210q0 56 4 88t20 48t48 20t88 4h130q56 0 88 -4t48 -20t20 -48t4 -88v-620
q0 -38 -8.5 -49.5t-31.5 -11.5t-31.5 11.5t-8.5 49.5v240q0 26 -2.5 42t-11 24.5t-24.5 11t-42 2.5h-130q-26 0 -42 -2.5t-24.5 -11.5t-11 -25t-2.5 -43v-218zM510 680q0 26 -2.5 42t-11 24.5t-24.5 11t-42 2.5h-130q-26 0 -42 -2.5t-24.5 -11t-11 -24.5t-2.5 -42v-140
q0 -26 2.5 -42t11 -24.5t24.5 -11t42 -2.5h130q26 0 42 2.5t24.5 11t11 24.5t2.5 42v140zM155 920q0 23 11 31.5t49 8.5h300q38 0 49 -8.5t11 -31.5t-11 -31.5t-49 -8.5h-300q-38 0 -49 8.5t-11 31.5z" />
    <glyph glyph-name="Abreve" unicode="&#x102;" horiz-adv-x="630" 
d="M220 80q0 -26 -2.5 -42t-11 -24.5t-24.5 -11t-42 -2.5h-20q-26 0 -42 2.5t-24.5 11t-11 24.5t-2.5 42v250q0 19 4 30.5t10.5 19t15.5 12t20 8.5q10 4 19.5 8t16 11.5t10.5 19.5t4 31v210q0 56 4 88t20 48t48 20t88 4h130q56 0 88 -4t48 -20t20 -48t4 -88v-620
q0 -38 -8.5 -49.5t-31.5 -11.5t-31.5 11.5t-8.5 49.5v240q0 26 -2.5 42t-11 24.5t-24.5 11t-42 2.5h-130q-26 0 -42 -2.5t-24.5 -11.5t-11 -25t-2.5 -43v-218zM510 680q0 26 -2.5 42t-11 24.5t-24.5 11t-42 2.5h-130q-26 0 -42 -2.5t-24.5 -11t-11 -24.5t-2.5 -42v-140
q0 -26 2.5 -42t11 -24.5t24.5 -11t42 -2.5h130q26 0 42 2.5t24.5 11t11 24.5t2.5 42v140zM464 926q-17 -29 -42.5 -42.5t-54.5 -13.5t-55.5 13.5t-44.5 42.5l-14 22q-4 5 -4 12q0 16 22 16h188q21 0 21 -16q0 -6 -3 -12z" />
    <glyph glyph-name="abreve" unicode="&#x103;" horiz-adv-x="630" 
d="M220 80q0 -26 -2.5 -42t-11 -24.5t-24.5 -11t-42 -2.5h-20q-26 0 -42 2.5t-24.5 11t-11 24.5t-2.5 42v250q0 19 4 30.5t10.5 19t15.5 12t20 8.5q10 4 19.5 8t16 11.5t10.5 19.5t4 31v210q0 56 4 88t20 48t48 20t88 4h130q56 0 88 -4t48 -20t20 -48t4 -88v-620
q0 -38 -8.5 -49.5t-31.5 -11.5t-31.5 11.5t-8.5 49.5v240q0 26 -2.5 42t-11 24.5t-24.5 11t-42 2.5h-130q-26 0 -42 -2.5t-24.5 -11.5t-11 -25t-2.5 -43v-218zM510 680q0 26 -2.5 42t-11 24.5t-24.5 11t-42 2.5h-130q-26 0 -42 -2.5t-24.5 -11t-11 -24.5t-2.5 -42v-140
q0 -26 2.5 -42t11 -24.5t24.5 -11t42 -2.5h130q26 0 42 2.5t24.5 11t11 24.5t2.5 42v140zM464 926q-17 -29 -42.5 -42.5t-54.5 -13.5t-55.5 13.5t-44.5 42.5l-14 22q-4 5 -4 12q0 16 22 16h188q21 0 21 -16q0 -6 -3 -12z" />
    <glyph glyph-name="Aogonek" unicode="&#x104;" horiz-adv-x="630" 
d="M590 70q0 -38 -16 -49t-54 -11h-57q-22 0 -27.5 -7.5t-5.5 -33.5q0 -20 7 -25.5t33 -5.5t33 4.5t7 15.5q0 20 6 26t33 6t33 -5.5t6 -24.5q0 -21 -1.5 -33t-9 -18t-23.5 -7.5t-44 -1.5h-40q-26 0 -42 1t-24.5 7.5t-11 20.5t-2.5 40q0 28 1 45t8 26t22 12t42 3
q16 0 25.5 1.5t14 6.5t6 14t1.5 23v200q0 26 -2.5 42t-11 24.5t-24.5 11t-42 2.5h-130q-26 0 -42 -2.5t-24.5 -11.5t-11 -25t-2.5 -43v-218q0 -26 -2.5 -42t-11 -24.5t-24.5 -11t-42 -2.5h-20q-26 0 -42 2.5t-24.5 11t-11 24.5t-2.5 42v250q0 19 4 30.5t10.5 19t15.5 12
t20 8.5q10 4 19.5 8t16 11.5t10.5 19.5t4 31v210q0 56 4 88t20 48t48 20t88 4h130q56 0 88 -4t48 -20t20 -48t4 -88v-610zM510 680q0 26 -2.5 42t-11 24.5t-24.5 11t-42 2.5h-130q-26 0 -42 -2.5t-24.5 -11t-11 -24.5t-2.5 -42v-140q0 -26 2.5 -42t11 -24.5t24.5 -11
t42 -2.5h130q26 0 42 2.5t24.5 11t11 24.5t2.5 42v140z" />
    <glyph glyph-name="aogonek" unicode="&#x105;" horiz-adv-x="630" 
d="M590 70q0 -38 -16 -49t-54 -11h-57q-22 0 -27.5 -7.5t-5.5 -33.5q0 -20 7 -25.5t33 -5.5t33 4.5t7 15.5q0 20 6 26t33 6t33 -5.5t6 -24.5q0 -21 -1.5 -33t-9 -18t-23.5 -7.5t-44 -1.5h-40q-26 0 -42 1t-24.5 7.5t-11 20.5t-2.5 40q0 28 1 45t8 26t22 12t42 3
q16 0 25.5 1.5t14 6.5t6 14t1.5 23v200q0 26 -2.5 42t-11 24.5t-24.5 11t-42 2.5h-130q-26 0 -42 -2.5t-24.5 -11.5t-11 -25t-2.5 -43v-218q0 -26 -2.5 -42t-11 -24.5t-24.5 -11t-42 -2.5h-20q-26 0 -42 2.5t-24.5 11t-11 24.5t-2.5 42v250q0 19 4 30.5t10.5 19t15.5 12
t20 8.5q10 4 19.5 8t16 11.5t10.5 19.5t4 31v210q0 56 4 88t20 48t48 20t88 4h130q56 0 88 -4t48 -20t20 -48t4 -88v-610zM510 680q0 26 -2.5 42t-11 24.5t-24.5 11t-42 2.5h-130q-26 0 -42 -2.5t-24.5 -11t-11 -24.5t-2.5 -42v-140q0 -26 2.5 -42t11 -24.5t24.5 -11
t42 -2.5h130q26 0 42 2.5t24.5 11t11 24.5t2.5 42v140z" />
    <glyph glyph-name="Cacute" unicode="&#x106;" horiz-adv-x="540" 
d="M40 680q0 56 4 88t20 48t48 20t88 4h140q56 0 88 -4t48 -20t20 -48t4 -88v-50q0 -23 -2.5 -36.5t-10 -21t-21 -10t-35.5 -2.5h-41q-23 0 -36.5 2.5t-21 10t-10 21t-2.5 36.5v49q0 27 -2.5 43t-11 24.5t-24.5 11t-42 2.5h-40q-26 0 -42 -2.5t-24.5 -11t-11 -24.5t-2.5 -42
v-520q0 -26 2.5 -42t11 -24.5t24.5 -11t42 -2.5h140q26 0 42 2.5t24.5 11t11 24.5t2.5 42v60q0 19 1.5 30.5t5.5 18t11.5 9t20.5 2.5q26 0 33.5 -11t7.5 -49v-60q0 -56 -4 -88t-20 -48t-48 -20t-88 -4h-140q-56 0 -88 4t-48 20t-20 48t-4 88v520zM334 990q13 0 22.5 -3
t9.5 -14q0 -13 -15 -32l-26 -35q-12 -16 -20 -21t-31 -5h-6q-16 0 -21.5 7t-5.5 27v42q0 20 9 27t26 7h58z" />
    <glyph glyph-name="cacute" unicode="&#x107;" horiz-adv-x="540" 
d="M40 680q0 56 4 88t20 48t48 20t88 4h140q56 0 88 -4t48 -20t20 -48t4 -88v-50q0 -23 -2.5 -36.5t-10 -21t-21 -10t-35.5 -2.5h-41q-23 0 -36.5 2.5t-21 10t-10 21t-2.5 36.5v49q0 27 -2.5 43t-11 24.5t-24.5 11t-42 2.5h-40q-26 0 -42 -2.5t-24.5 -11t-11 -24.5t-2.5 -42
v-520q0 -26 2.5 -42t11 -24.5t24.5 -11t42 -2.5h140q26 0 42 2.5t24.5 11t11 24.5t2.5 42v60q0 19 1.5 30.5t5.5 18t11.5 9t20.5 2.5q26 0 33.5 -11t7.5 -49v-60q0 -56 -4 -88t-20 -48t-48 -20t-88 -4h-140q-56 0 -88 4t-48 20t-20 48t-4 88v520zM334 990q13 0 22.5 -3
t9.5 -14q0 -13 -15 -32l-26 -35q-12 -16 -20 -21t-31 -5h-6q-16 0 -21.5 7t-5.5 27v42q0 20 9 27t26 7h58z" />
    <glyph glyph-name="Ccircumflex" unicode="&#x108;" horiz-adv-x="540" 
d="M40 680q0 56 4 88t20 48t48 20t88 4h140q56 0 88 -4t48 -20t20 -48t4 -88v-50q0 -23 -2.5 -36.5t-10 -21t-21 -10t-35.5 -2.5h-41q-23 0 -36.5 2.5t-21 10t-10 21t-2.5 36.5v49q0 27 -2.5 43t-11 24.5t-24.5 11t-42 2.5h-40q-26 0 -42 -2.5t-24.5 -11t-11 -24.5t-2.5 -42
v-520q0 -26 2.5 -42t11 -24.5t24.5 -11t42 -2.5h140q26 0 42 2.5t24.5 11t11 24.5t2.5 42v60q0 19 1.5 30.5t5.5 18t11.5 9t20.5 2.5q26 0 33.5 -11t7.5 -49v-60q0 -56 -4 -88t-20 -48t-48 -20t-88 -4h-140q-56 0 -88 4t-48 20t-20 48t-4 88v520zM255 987q16 15 31 0l97 -84
q14 -11 11 -19.5t-19 -8.5h-208q-16 0 -18.5 8.5t10.5 19.5z" />
    <glyph glyph-name="ccircumflex" unicode="&#x109;" horiz-adv-x="540" 
d="M40 680q0 56 4 88t20 48t48 20t88 4h140q56 0 88 -4t48 -20t20 -48t4 -88v-50q0 -23 -2.5 -36.5t-10 -21t-21 -10t-35.5 -2.5h-41q-23 0 -36.5 2.5t-21 10t-10 21t-2.5 36.5v49q0 27 -2.5 43t-11 24.5t-24.5 11t-42 2.5h-40q-26 0 -42 -2.5t-24.5 -11t-11 -24.5t-2.5 -42
v-520q0 -26 2.5 -42t11 -24.5t24.5 -11t42 -2.5h140q26 0 42 2.5t24.5 11t11 24.5t2.5 42v60q0 19 1.5 30.5t5.5 18t11.5 9t20.5 2.5q26 0 33.5 -11t7.5 -49v-60q0 -56 -4 -88t-20 -48t-48 -20t-88 -4h-140q-56 0 -88 4t-48 20t-20 48t-4 88v520zM255 987q16 15 31 0l97 -84
q14 -11 11 -19.5t-19 -8.5h-208q-16 0 -18.5 8.5t10.5 19.5z" />
    <glyph glyph-name="Cdotaccent" unicode="&#x10a;" horiz-adv-x="540" 
d="M40 680q0 56 4 88t20 48t48 20t88 4h140q56 0 88 -4t48 -20t20 -48t4 -88v-50q0 -23 -2.5 -36.5t-10 -21t-21 -10t-35.5 -2.5h-41q-23 0 -36.5 2.5t-21 10t-10 21t-2.5 36.5v49q0 27 -2.5 43t-11 24.5t-24.5 11t-42 2.5h-40q-26 0 -42 -2.5t-24.5 -11t-11 -24.5t-2.5 -42
v-520q0 -26 2.5 -42t11 -24.5t24.5 -11t42 -2.5h140q26 0 42 2.5t24.5 11t11 24.5t2.5 42v60q0 19 1.5 30.5t5.5 18t11.5 9t20.5 2.5q26 0 33.5 -11t7.5 -49v-60q0 -56 -4 -88t-20 -48t-48 -20t-88 -4h-140q-56 0 -88 4t-48 20t-20 48t-4 88v520zM270 1000q37 0 48.5 -11.5
t11.5 -48.5q0 -19 -2.5 -30.5t-9 -18t-18 -9t-30.5 -2.5t-30.5 2.5t-18 9t-9 18t-2.5 30.5t2.5 30.5t9 18t18 9t30.5 2.5z" />
    <glyph glyph-name="cdotaccent" unicode="&#x10b;" horiz-adv-x="540" 
d="M40 680q0 56 4 88t20 48t48 20t88 4h140q56 0 88 -4t48 -20t20 -48t4 -88v-50q0 -23 -2.5 -36.5t-10 -21t-21 -10t-35.5 -2.5h-41q-23 0 -36.5 2.5t-21 10t-10 21t-2.5 36.5v49q0 27 -2.5 43t-11 24.5t-24.5 11t-42 2.5h-40q-26 0 -42 -2.5t-24.5 -11t-11 -24.5t-2.5 -42
v-520q0 -26 2.5 -42t11 -24.5t24.5 -11t42 -2.5h140q26 0 42 2.5t24.5 11t11 24.5t2.5 42v60q0 19 1.5 30.5t5.5 18t11.5 9t20.5 2.5q26 0 33.5 -11t7.5 -49v-60q0 -56 -4 -88t-20 -48t-48 -20t-88 -4h-140q-56 0 -88 4t-48 20t-20 48t-4 88v520zM270 1000q37 0 48.5 -11.5
t11.5 -48.5q0 -19 -2.5 -30.5t-9 -18t-18 -9t-30.5 -2.5t-30.5 2.5t-18 9t-9 18t-2.5 30.5t2.5 30.5t9 18t18 9t30.5 2.5z" />
    <glyph glyph-name="Ccaron" unicode="&#x10c;" horiz-adv-x="540" 
d="M40 680q0 56 4 88t20 48t48 20t88 4h140q56 0 88 -4t48 -20t20 -48t4 -88v-50q0 -23 -2.5 -36.5t-10 -21t-21 -10t-35.5 -2.5h-41q-23 0 -36.5 2.5t-21 10t-10 21t-2.5 36.5v49q0 27 -2.5 43t-11 24.5t-24.5 11t-42 2.5h-40q-26 0 -42 -2.5t-24.5 -11t-11 -24.5t-2.5 -42
v-520q0 -26 2.5 -42t11 -24.5t24.5 -11t42 -2.5h140q26 0 42 2.5t24.5 11t11 24.5t2.5 42v60q0 19 1.5 30.5t5.5 18t11.5 9t20.5 2.5q26 0 33.5 -11t7.5 -49v-60q0 -56 -4 -88t-20 -48t-48 -20t-88 -4h-140q-56 0 -88 4t-48 20t-20 48t-4 88v520zM287 864q-16 -15 -31 0
l-97 84q-14 11 -11 19.5t19 8.5h208q16 0 18.5 -8.5t-10.5 -19.5z" />
    <glyph glyph-name="ccaron" unicode="&#x10d;" horiz-adv-x="540" 
d="M40 680q0 56 4 88t20 48t48 20t88 4h140q56 0 88 -4t48 -20t20 -48t4 -88v-50q0 -23 -2.5 -36.5t-10 -21t-21 -10t-35.5 -2.5h-41q-23 0 -36.5 2.5t-21 10t-10 21t-2.5 36.5v49q0 27 -2.5 43t-11 24.5t-24.5 11t-42 2.5h-40q-26 0 -42 -2.5t-24.5 -11t-11 -24.5t-2.5 -42
v-520q0 -26 2.5 -42t11 -24.5t24.5 -11t42 -2.5h140q26 0 42 2.5t24.5 11t11 24.5t2.5 42v60q0 19 1.5 30.5t5.5 18t11.5 9t20.5 2.5q26 0 33.5 -11t7.5 -49v-60q0 -56 -4 -88t-20 -48t-48 -20t-88 -4h-140q-56 0 -88 4t-48 20t-20 48t-4 88v520zM287 864q-16 -15 -31 0
l-97 84q-14 11 -11 19.5t19 8.5h208q16 0 18.5 -8.5t-10.5 -19.5z" />
    <glyph glyph-name="Dcaron" unicode="&#x10e;" 
d="M40 760q0 26 2.5 42t11 24.5t24.5 11t42 2.5h200q67 0 116.5 -12t81 -40.5t47 -74.5t15.5 -113v-360q0 -68 -15.5 -113.5t-47 -74t-81 -40.5t-116.5 -12h-200q-26 0 -42 2.5t-24.5 11t-11 24.5t-2.5 42v680zM500 600q0 41 -8.5 71.5t-29 50t-55.5 29t-87 9.5h-20
q-26 0 -42 -2.5t-24.5 -11t-11 -24.5t-2.5 -43v-519q0 -26 2.5 -42t11 -24.5t24 -11t42.5 -2.5h20q52 0 87 9.5t55.5 29t29 50t8.5 71.5v360zM326 864q-16 -15 -31 0l-97 84q-14 11 -11 19.5t19 8.5h208q16 0 18.5 -8.5t-10.5 -19.5z" />
    <glyph glyph-name="dcaron" unicode="&#x10f;" 
d="M40 760q0 26 2.5 42t11 24.5t24.5 11t42 2.5h200q67 0 116.5 -12t81 -40.5t47 -74.5t15.5 -113v-360q0 -68 -15.5 -113.5t-47 -74t-81 -40.5t-116.5 -12h-200q-26 0 -42 2.5t-24.5 11t-11 24.5t-2.5 42v680zM500 600q0 41 -8.5 71.5t-29 50t-55.5 29t-87 9.5h-20
q-26 0 -42 -2.5t-24.5 -11t-11 -24.5t-2.5 -43v-519q0 -26 2.5 -42t11 -24.5t24 -11t42.5 -2.5h20q52 0 87 9.5t55.5 29t29 50t8.5 71.5v360zM326 864q-16 -15 -31 0l-97 84q-14 11 -11 19.5t19 8.5h208q16 0 18.5 -8.5t-10.5 -19.5z" />
    <glyph glyph-name="Dcroat" unicode="&#x110;" horiz-adv-x="680" 
d="M0 420q0 23 11 31.5t49 8.5q14 0 22 1t12 5t5 12t1 22v260q0 26 2.5 42t11 24.5t24.5 11t42 2.5h200q67 0 116.5 -12t81 -40.5t47 -74.5t15.5 -113v-360q0 -68 -15.5 -113.5t-47 -74t-81 -40.5t-116.5 -12h-200q-26 0 -42 2.5t-24.5 11t-11 24.5t-2.5 42v260q0 28 -6 34
t-34 6q-38 0 -49 8.5t-11 31.5zM560 600q0 41 -8.5 71.5t-29 50t-55.5 29t-87 9.5h-20q-26 0 -42 -2.5t-24.5 -11t-11 -24.5t-2.5 -43v-179q0 -14 1 -22t5 -12t12 -5t22 -1h60q38 0 49 -8.5t11 -31.5t-11 -31.5t-49 -8.5h-60q-14 0 -22 -1t-12 -5t-5 -12t-1 -22v-180
q0 -26 2.5 -42t11 -24.5t24 -11t42.5 -2.5h20q52 0 87 9.5t55.5 29t29 50t8.5 71.5v360z" />
    <glyph glyph-name="dcroat" unicode="&#x111;" horiz-adv-x="680" 
d="M0 420q0 23 11 31.5t49 8.5q14 0 22 1t12 5t5 12t1 22v260q0 26 2.5 42t11 24.5t24.5 11t42 2.5h200q67 0 116.5 -12t81 -40.5t47 -74.5t15.5 -113v-360q0 -68 -15.5 -113.5t-47 -74t-81 -40.5t-116.5 -12h-200q-26 0 -42 2.5t-24.5 11t-11 24.5t-2.5 42v260q0 28 -6 34
t-34 6q-38 0 -49 8.5t-11 31.5zM560 600q0 41 -8.5 71.5t-29 50t-55.5 29t-87 9.5h-20q-26 0 -42 -2.5t-24.5 -11t-11 -24.5t-2.5 -43v-179q0 -14 1 -22t5 -12t12 -5t22 -1h60q38 0 49 -8.5t11 -31.5t-11 -31.5t-49 -8.5h-60q-14 0 -22 -1t-12 -5t-5 -12t-1 -22v-180
q0 -26 2.5 -42t11 -24.5t24 -11t42.5 -2.5h20q52 0 87 9.5t55.5 29t29 50t8.5 71.5v360z" />
    <glyph glyph-name="Emacron" unicode="&#x112;" horiz-adv-x="520" 
d="M40 680q0 56 4 88t20 48t48 20t88 4h220q38 0 49 -8.5t11 -31.5t-11 -31.5t-49 -8.5h-220q-26 0 -42 -2.5t-24.5 -11t-11 -24.5t-2.5 -42v-140q0 -26 2.5 -42t11 -24.5t24.5 -11t42 -2.5h220q38 0 49 -8.5t11 -31.5t-11 -31.5t-49 -8.5h-120q-26 0 -42 -2.5t-24.5 -11
t-11 -24.5t-2.5 -42v-140q0 -26 2.5 -42t11 -24.5t24.5 -11t42 -2.5h120q38 0 49 -8.5t11 -31.5t-11 -31.5t-49 -8.5h-220q-56 0 -88 4t-48 20t-20 48t-4 88v520zM51 920q0 23 11 31.5t49 8.5h300q38 0 49 -8.5t11 -31.5t-11 -31.5t-49 -8.5h-300q-38 0 -49 8.5t-11 31.5z
" />
    <glyph glyph-name="emacron" unicode="&#x113;" horiz-adv-x="520" 
d="M40 680q0 56 4 88t20 48t48 20t88 4h220q38 0 49 -8.5t11 -31.5t-11 -31.5t-49 -8.5h-220q-26 0 -42 -2.5t-24.5 -11t-11 -24.5t-2.5 -42v-140q0 -26 2.5 -42t11 -24.5t24.5 -11t42 -2.5h220q38 0 49 -8.5t11 -31.5t-11 -31.5t-49 -8.5h-120q-26 0 -42 -2.5t-24.5 -11
t-11 -24.5t-2.5 -42v-140q0 -26 2.5 -42t11 -24.5t24.5 -11t42 -2.5h120q38 0 49 -8.5t11 -31.5t-11 -31.5t-49 -8.5h-220q-56 0 -88 4t-48 20t-20 48t-4 88v520zM51 920q0 23 11 31.5t49 8.5h300q38 0 49 -8.5t11 -31.5t-11 -31.5t-49 -8.5h-300q-38 0 -49 8.5t-11 31.5z
" />
    <glyph glyph-name="Ebreve" unicode="&#x114;" horiz-adv-x="520" 
d="M40 680q0 56 4 88t20 48t48 20t88 4h220q38 0 49 -8.5t11 -31.5t-11 -31.5t-49 -8.5h-220q-26 0 -42 -2.5t-24.5 -11t-11 -24.5t-2.5 -42v-140q0 -26 2.5 -42t11 -24.5t24.5 -11t42 -2.5h220q38 0 49 -8.5t11 -31.5t-11 -31.5t-49 -8.5h-120q-26 0 -42 -2.5t-24.5 -11
t-11 -24.5t-2.5 -42v-140q0 -26 2.5 -42t11 -24.5t24.5 -11t42 -2.5h120q38 0 49 -8.5t11 -31.5t-11 -31.5t-49 -8.5h-220q-56 0 -88 4t-48 20t-20 48t-4 88v520zM371 926q-17 -29 -42.5 -42.5t-54.5 -13.5t-55.5 13.5t-44.5 42.5l-14 22q-4 5 -4 12q0 16 22 16h188
q21 0 21 -16q0 -6 -3 -12z" />
    <glyph glyph-name="ebreve" unicode="&#x115;" horiz-adv-x="520" 
d="M40 680q0 56 4 88t20 48t48 20t88 4h220q38 0 49 -8.5t11 -31.5t-11 -31.5t-49 -8.5h-220q-26 0 -42 -2.5t-24.5 -11t-11 -24.5t-2.5 -42v-140q0 -26 2.5 -42t11 -24.5t24.5 -11t42 -2.5h220q38 0 49 -8.5t11 -31.5t-11 -31.5t-49 -8.5h-120q-26 0 -42 -2.5t-24.5 -11
t-11 -24.5t-2.5 -42v-140q0 -26 2.5 -42t11 -24.5t24.5 -11t42 -2.5h120q38 0 49 -8.5t11 -31.5t-11 -31.5t-49 -8.5h-220q-56 0 -88 4t-48 20t-20 48t-4 88v520zM371 926q-17 -29 -42.5 -42.5t-54.5 -13.5t-55.5 13.5t-44.5 42.5l-14 22q-4 5 -4 12q0 16 22 16h188
q21 0 21 -16q0 -6 -3 -12z" />
    <glyph glyph-name="Edotaccent" unicode="&#x116;" horiz-adv-x="520" 
d="M40 680q0 56 4 88t20 48t48 20t88 4h220q38 0 49 -8.5t11 -31.5t-11 -31.5t-49 -8.5h-220q-26 0 -42 -2.5t-24.5 -11t-11 -24.5t-2.5 -42v-140q0 -26 2.5 -42t11 -24.5t24.5 -11t42 -2.5h220q38 0 49 -8.5t11 -31.5t-11 -31.5t-49 -8.5h-120q-26 0 -42 -2.5t-24.5 -11
t-11 -24.5t-2.5 -42v-140q0 -26 2.5 -42t11 -24.5t24.5 -11t42 -2.5h120q38 0 49 -8.5t11 -31.5t-11 -31.5t-49 -8.5h-220q-56 0 -88 4t-48 20t-20 48t-4 88v520zM260 1000q37 0 48.5 -11.5t11.5 -48.5q0 -19 -2.5 -30.5t-9 -18t-18 -9t-30.5 -2.5t-30.5 2.5t-18 9t-9 18
t-2.5 30.5t2.5 30.5t9 18t18 9t30.5 2.5z" />
    <glyph glyph-name="edotaccent" unicode="&#x117;" horiz-adv-x="520" 
d="M40 680q0 56 4 88t20 48t48 20t88 4h220q38 0 49 -8.5t11 -31.5t-11 -31.5t-49 -8.5h-220q-26 0 -42 -2.5t-24.5 -11t-11 -24.5t-2.5 -42v-140q0 -26 2.5 -42t11 -24.5t24.5 -11t42 -2.5h220q38 0 49 -8.5t11 -31.5t-11 -31.5t-49 -8.5h-120q-26 0 -42 -2.5t-24.5 -11
t-11 -24.5t-2.5 -42v-140q0 -26 2.5 -42t11 -24.5t24.5 -11t42 -2.5h120q38 0 49 -8.5t11 -31.5t-11 -31.5t-49 -8.5h-220q-56 0 -88 4t-48 20t-20 48t-4 88v520zM260 1000q37 0 48.5 -11.5t11.5 -48.5q0 -19 -2.5 -30.5t-9 -18t-18 -9t-30.5 -2.5t-30.5 2.5t-18 9t-9 18
t-2.5 30.5t2.5 30.5t9 18t18 9t30.5 2.5z" />
    <glyph glyph-name="Eogonek" unicode="&#x118;" horiz-adv-x="520" 
d="M40 680q0 56 4 88t20 48t48 20t88 4h220q38 0 49 -8.5t11 -31.5t-11 -31.5t-49 -8.5h-220q-26 0 -42 -2.5t-24.5 -11t-11 -24.5t-2.5 -42v-140q0 -26 2.5 -42t11 -24.5t24.5 -11t42 -2.5h220q38 0 49 -8.5t11 -31.5t-11 -31.5t-49 -8.5h-120q-26 0 -42 -2.5t-24.5 -11
t-11 -24.5t-2.5 -42v-140q0 -26 2.5 -42t11 -24.5t24.5 -11t42 -2.5h120q38 0 49 -8.5t11 -31.5q0 -11 -3 -19t-12 -12.5t-27 -6.5t-48 -2q-25 0 -39 -1.5t-21 -5t-8.5 -9.5t-1.5 -15q0 -20 7 -25.5t33 -5.5t33 4.5t7 15.5q0 20 6 26t33 6t33 -8t6 -27t-2.5 -30t-10.5 -16.5
t-23.5 -7t-41.5 -1.5h-40q-28 0 -44 2t-24 8.5t-10 20.5t-2 38v17.5t1 13.5h-81q-56 0 -88 4t-48 20t-20 48t-4 88v520z" />
    <glyph glyph-name="eogonek" unicode="&#x119;" horiz-adv-x="520" 
d="M40 680q0 56 4 88t20 48t48 20t88 4h220q38 0 49 -8.5t11 -31.5t-11 -31.5t-49 -8.5h-220q-26 0 -42 -2.5t-24.5 -11t-11 -24.5t-2.5 -42v-140q0 -26 2.5 -42t11 -24.5t24.5 -11t42 -2.5h220q38 0 49 -8.5t11 -31.5t-11 -31.5t-49 -8.5h-120q-26 0 -42 -2.5t-24.5 -11
t-11 -24.5t-2.5 -42v-140q0 -26 2.5 -42t11 -24.5t24.5 -11t42 -2.5h120q38 0 49 -8.5t11 -31.5q0 -11 -3 -19t-12 -12.5t-27 -6.5t-48 -2q-25 0 -39 -1.5t-21 -5t-8.5 -9.5t-1.5 -15q0 -20 7 -25.5t33 -5.5t33 4.5t7 15.5q0 20 6 26t33 6t33 -8t6 -27t-2.5 -30t-10.5 -16.5
t-23.5 -7t-41.5 -1.5h-40q-28 0 -44 2t-24 8.5t-10 20.5t-2 38v17.5t1 13.5h-81q-56 0 -88 4t-48 20t-20 48t-4 88v520z" />
    <glyph glyph-name="Ecaron" unicode="&#x11a;" horiz-adv-x="520" 
d="M40 680q0 56 4 88t20 48t48 20t88 4h220q38 0 49 -8.5t11 -31.5t-11 -31.5t-49 -8.5h-220q-26 0 -42 -2.5t-24.5 -11t-11 -24.5t-2.5 -42v-140q0 -26 2.5 -42t11 -24.5t24.5 -11t42 -2.5h220q38 0 49 -8.5t11 -31.5t-11 -31.5t-49 -8.5h-120q-26 0 -42 -2.5t-24.5 -11
t-11 -24.5t-2.5 -42v-140q0 -26 2.5 -42t11 -24.5t24.5 -11t42 -2.5h120q38 0 49 -8.5t11 -31.5t-11 -31.5t-49 -8.5h-220q-56 0 -88 4t-48 20t-20 48t-4 88v520zM297 864q-16 -15 -31 0l-97 84q-14 11 -11 19.5t19 8.5h208q16 0 18.5 -8.5t-10.5 -19.5z" />
    <glyph glyph-name="ecaron" unicode="&#x11b;" horiz-adv-x="520" 
d="M40 680q0 56 4 88t20 48t48 20t88 4h220q38 0 49 -8.5t11 -31.5t-11 -31.5t-49 -8.5h-220q-26 0 -42 -2.5t-24.5 -11t-11 -24.5t-2.5 -42v-140q0 -26 2.5 -42t11 -24.5t24.5 -11t42 -2.5h220q38 0 49 -8.5t11 -31.5t-11 -31.5t-49 -8.5h-120q-26 0 -42 -2.5t-24.5 -11
t-11 -24.5t-2.5 -42v-140q0 -26 2.5 -42t11 -24.5t24.5 -11t42 -2.5h120q38 0 49 -8.5t11 -31.5t-11 -31.5t-49 -8.5h-220q-56 0 -88 4t-48 20t-20 48t-4 88v520zM297 864q-16 -15 -31 0l-97 84q-14 11 -11 19.5t19 8.5h208q16 0 18.5 -8.5t-10.5 -19.5z" />
    <glyph glyph-name="Gcircumflex" unicode="&#x11c;" horiz-adv-x="630" 
d="M400 380q-30 0 -40 8.5t-10 31.5t10 31.5t40 8.5h30q56 0 88 -4t48 -20t20 -48t4 -88v-140q0 -56 -4 -88t-19.5 -48t-47.5 -20t-88 -4h-231q-56 0 -88 4t-48 20t-20 48t-4 88v520q0 56 4 88t20 48t48 20t88 4h222q55 0 87 -4t47.5 -20t19.5 -48t4 -88v-10
q0 -23 -2.5 -36.5t-11 -21t-24.5 -10t-42 -2.5t-42 2.5t-24.5 10t-11 21t-2.5 36.5v18q0 26 -2.5 42t-11 24.5t-24.5 11t-42 2.5h-40q-26 0 -42 -2.5t-24.5 -11t-11 -24.5t-2.5 -42v-528q0 -26 2.5 -42t11 -24.5t24.5 -11t42 -2.5h130q26 0 42 2.5t24.5 11t11 24.5t2.5 42
v140q0 26 -2.5 42t-11 24.5t-24.5 11t-42 2.5h-30zM303 987q16 15 31 0l97 -84q14 -11 11 -19.5t-19 -8.5h-208q-16 0 -18.5 8.5t10.5 19.5z" />
    <glyph glyph-name="gcircumflex" unicode="&#x11d;" horiz-adv-x="630" 
d="M400 380q-30 0 -40 8.5t-10 31.5t10 31.5t40 8.5h30q56 0 88 -4t48 -20t20 -48t4 -88v-140q0 -56 -4 -88t-19.5 -48t-47.5 -20t-88 -4h-231q-56 0 -88 4t-48 20t-20 48t-4 88v520q0 56 4 88t20 48t48 20t88 4h222q55 0 87 -4t47.5 -20t19.5 -48t4 -88v-10
q0 -23 -2.5 -36.5t-11 -21t-24.5 -10t-42 -2.5t-42 2.5t-24.5 10t-11 21t-2.5 36.5v18q0 26 -2.5 42t-11 24.5t-24.5 11t-42 2.5h-40q-26 0 -42 -2.5t-24.5 -11t-11 -24.5t-2.5 -42v-528q0 -26 2.5 -42t11 -24.5t24.5 -11t42 -2.5h130q26 0 42 2.5t24.5 11t11 24.5t2.5 42
v140q0 26 -2.5 42t-11 24.5t-24.5 11t-42 2.5h-30zM303 987q16 15 31 0l97 -84q14 -11 11 -19.5t-19 -8.5h-208q-16 0 -18.5 8.5t10.5 19.5z" />
    <glyph glyph-name="Gbreve" unicode="&#x11e;" horiz-adv-x="630" 
d="M400 380q-30 0 -40 8.5t-10 31.5t10 31.5t40 8.5h30q56 0 88 -4t48 -20t20 -48t4 -88v-140q0 -56 -4 -88t-19.5 -48t-47.5 -20t-88 -4h-231q-56 0 -88 4t-48 20t-20 48t-4 88v520q0 56 4 88t20 48t48 20t88 4h222q55 0 87 -4t47.5 -20t19.5 -48t4 -88v-10
q0 -23 -2.5 -36.5t-11 -21t-24.5 -10t-42 -2.5t-42 2.5t-24.5 10t-11 21t-2.5 36.5v18q0 26 -2.5 42t-11 24.5t-24.5 11t-42 2.5h-40q-26 0 -42 -2.5t-24.5 -11t-11 -24.5t-2.5 -42v-528q0 -26 2.5 -42t11 -24.5t24.5 -11t42 -2.5h130q26 0 42 2.5t24.5 11t11 24.5t2.5 42
v140q0 26 -2.5 42t-11 24.5t-24.5 11t-42 2.5h-30zM419 926q-17 -29 -42.5 -42.5t-54.5 -13.5t-55.5 13.5t-44.5 42.5l-14 22q-4 5 -4 12q0 16 22 16h188q21 0 21 -16q0 -6 -3 -12z" />
    <glyph glyph-name="gbreve" unicode="&#x11f;" horiz-adv-x="630" 
d="M400 380q-30 0 -40 8.5t-10 31.5t10 31.5t40 8.5h30q56 0 88 -4t48 -20t20 -48t4 -88v-140q0 -56 -4 -88t-19.5 -48t-47.5 -20t-88 -4h-231q-56 0 -88 4t-48 20t-20 48t-4 88v520q0 56 4 88t20 48t48 20t88 4h222q55 0 87 -4t47.5 -20t19.5 -48t4 -88v-10
q0 -23 -2.5 -36.5t-11 -21t-24.5 -10t-42 -2.5t-42 2.5t-24.5 10t-11 21t-2.5 36.5v18q0 26 -2.5 42t-11 24.5t-24.5 11t-42 2.5h-40q-26 0 -42 -2.5t-24.5 -11t-11 -24.5t-2.5 -42v-528q0 -26 2.5 -42t11 -24.5t24.5 -11t42 -2.5h130q26 0 42 2.5t24.5 11t11 24.5t2.5 42
v140q0 26 -2.5 42t-11 24.5t-24.5 11t-42 2.5h-30zM419 926q-17 -29 -42.5 -42.5t-54.5 -13.5t-55.5 13.5t-44.5 42.5l-14 22q-4 5 -4 12q0 16 22 16h188q21 0 21 -16q0 -6 -3 -12z" />
    <glyph glyph-name="Gdotaccent" unicode="&#x120;" horiz-adv-x="630" 
d="M400 380q-30 0 -40 8.5t-10 31.5t10 31.5t40 8.5h30q56 0 88 -4t48 -20t20 -48t4 -88v-140q0 -56 -4 -88t-19.5 -48t-47.5 -20t-88 -4h-231q-56 0 -88 4t-48 20t-20 48t-4 88v520q0 56 4 88t20 48t48 20t88 4h222q55 0 87 -4t47.5 -20t19.5 -48t4 -88v-10
q0 -23 -2.5 -36.5t-11 -21t-24.5 -10t-42 -2.5t-42 2.5t-24.5 10t-11 21t-2.5 36.5v18q0 26 -2.5 42t-11 24.5t-24.5 11t-42 2.5h-40q-26 0 -42 -2.5t-24.5 -11t-11 -24.5t-2.5 -42v-528q0 -26 2.5 -42t11 -24.5t24.5 -11t42 -2.5h130q26 0 42 2.5t24.5 11t11 24.5t2.5 42
v140q0 26 -2.5 42t-11 24.5t-24.5 11t-42 2.5h-30zM320 1000q37 0 48.5 -11.5t11.5 -48.5q0 -19 -2.5 -30.5t-9 -18t-18 -9t-30.5 -2.5t-30.5 2.5t-18 9t-9 18t-2.5 30.5t2.5 30.5t9 18t18 9t30.5 2.5z" />
    <glyph glyph-name="gdotaccent" unicode="&#x121;" horiz-adv-x="630" 
d="M400 380q-30 0 -40 8.5t-10 31.5t10 31.5t40 8.5h30q56 0 88 -4t48 -20t20 -48t4 -88v-140q0 -56 -4 -88t-19.5 -48t-47.5 -20t-88 -4h-231q-56 0 -88 4t-48 20t-20 48t-4 88v520q0 56 4 88t20 48t48 20t88 4h222q55 0 87 -4t47.5 -20t19.5 -48t4 -88v-10
q0 -23 -2.5 -36.5t-11 -21t-24.5 -10t-42 -2.5t-42 2.5t-24.5 10t-11 21t-2.5 36.5v18q0 26 -2.5 42t-11 24.5t-24.5 11t-42 2.5h-40q-26 0 -42 -2.5t-24.5 -11t-11 -24.5t-2.5 -42v-528q0 -26 2.5 -42t11 -24.5t24.5 -11t42 -2.5h130q26 0 42 2.5t24.5 11t11 24.5t2.5 42
v140q0 26 -2.5 42t-11 24.5t-24.5 11t-42 2.5h-30zM320 1000q37 0 48.5 -11.5t11.5 -48.5q0 -19 -2.5 -30.5t-9 -18t-18 -9t-30.5 -2.5t-30.5 2.5t-18 9t-9 18t-2.5 30.5t2.5 30.5t9 18t18 9t30.5 2.5z" />
    <glyph glyph-name="uni0122" unicode="&#x122;" horiz-adv-x="630" 
d="M282 -65q0 21 5.5 26.5t26.5 5.5h12q21 0 26.5 -5.5t5.5 -26.5v-46q0 -24 -17 -41.5t-43 -17.5q-14 0 -14 8q0 7 4.5 10.5t10 7t10 8.5t4.5 16q0 8 -2.5 10t-14.5 7q-11 4 -12.5 7t-1.5 15v16zM400 380q-30 0 -40 8.5t-10 31.5t10 31.5t40 8.5h30q56 0 88 -4t48 -20
t20 -48t4 -88v-140q0 -56 -4 -88t-19.5 -48t-47.5 -20t-88 -4h-231q-56 0 -88 4t-48 20t-20 48t-4 88v520q0 56 4 88t20 48t48 20t88 4h222q55 0 87 -4t47.5 -20t19.5 -48t4 -88v-10q0 -23 -2.5 -36.5t-11 -21t-24.5 -10t-42 -2.5t-42 2.5t-24.5 10t-11 21t-2.5 36.5v18
q0 26 -2.5 42t-11 24.5t-24.5 11t-42 2.5h-40q-26 0 -42 -2.5t-24.5 -11t-11 -24.5t-2.5 -42v-528q0 -26 2.5 -42t11 -24.5t24.5 -11t42 -2.5h130q26 0 42 2.5t24.5 11t11 24.5t2.5 42v140q0 26 -2.5 42t-11 24.5t-24.5 11t-42 2.5h-30z" />
    <glyph glyph-name="uni0123" unicode="&#x123;" horiz-adv-x="630" 
d="M282 -65q0 21 5.5 26.5t26.5 5.5h12q21 0 26.5 -5.5t5.5 -26.5v-46q0 -24 -17 -41.5t-43 -17.5q-14 0 -14 8q0 7 4.5 10.5t10 7t10 8.5t4.5 16q0 8 -2.5 10t-14.5 7q-11 4 -12.5 7t-1.5 15v16zM400 380q-30 0 -40 8.5t-10 31.5t10 31.5t40 8.5h30q56 0 88 -4t48 -20
t20 -48t4 -88v-140q0 -56 -4 -88t-19.5 -48t-47.5 -20t-88 -4h-231q-56 0 -88 4t-48 20t-20 48t-4 88v520q0 56 4 88t20 48t48 20t88 4h222q55 0 87 -4t47.5 -20t19.5 -48t4 -88v-10q0 -23 -2.5 -36.5t-11 -21t-24.5 -10t-42 -2.5t-42 2.5t-24.5 10t-11 21t-2.5 36.5v18
q0 26 -2.5 42t-11 24.5t-24.5 11t-42 2.5h-40q-26 0 -42 -2.5t-24.5 -11t-11 -24.5t-2.5 -42v-528q0 -26 2.5 -42t11 -24.5t24.5 -11t42 -2.5h130q26 0 42 2.5t24.5 11t11 24.5t2.5 42v140q0 26 -2.5 42t-11 24.5t-24.5 11t-42 2.5h-30z" />
    <glyph glyph-name="Hcircumflex" unicode="&#x124;" horiz-adv-x="600" 
d="M480 300q0 26 -2.5 42t-11 24.5t-24.5 11t-42 2.5h-100q-26 0 -42 -2.5t-24.5 -11t-11 -24.5t-2.5 -42v-220q0 -26 -2.5 -42t-11 -24.5t-24.5 -11t-42 -2.5h-20q-26 0 -42 2.5t-24.5 11t-11 24.5t-2.5 42v710q0 30 8.5 40t31.5 10t31.5 -10t8.5 -40v-250q0 -26 2.5 -42
t11 -24.5t24.5 -11t43 -2.5h199q26 0 42 2.5t24.5 11t11 24.5t2.5 42v250q0 30 8.5 40t31.5 10t31.5 -10t8.5 -40v-730q0 -38 -8.5 -49t-31.5 -11t-31.5 11t-8.5 49v240zM284 987q16 15 31 0l97 -84q14 -11 11 -19.5t-19 -8.5h-208q-16 0 -18.5 8.5t10.5 19.5z" />
    <glyph glyph-name="hcircumflex" unicode="&#x125;" horiz-adv-x="600" 
d="M480 300q0 26 -2.5 42t-11 24.5t-24.5 11t-42 2.5h-100q-26 0 -42 -2.5t-24.5 -11t-11 -24.5t-2.5 -42v-220q0 -26 -2.5 -42t-11 -24.5t-24.5 -11t-42 -2.5h-20q-26 0 -42 2.5t-24.5 11t-11 24.5t-2.5 42v710q0 30 8.5 40t31.5 10t31.5 -10t8.5 -40v-250q0 -26 2.5 -42
t11 -24.5t24.5 -11t43 -2.5h199q26 0 42 2.5t24.5 11t11 24.5t2.5 42v250q0 30 8.5 40t31.5 10t31.5 -10t8.5 -40v-730q0 -38 -8.5 -49t-31.5 -11t-31.5 11t-8.5 49v240zM284 987q16 15 31 0l97 -84q14 -11 11 -19.5t-19 -8.5h-208q-16 0 -18.5 8.5t10.5 19.5z" />
    <glyph glyph-name="Hbar" unicode="&#x126;" horiz-adv-x="600" 
d="M480 300q0 26 -2.5 42t-11 24.5t-24.5 11t-42 2.5h-100q-26 0 -42 -2.5t-24.5 -11t-11 -24.5t-2.5 -42v-220q0 -26 -2.5 -42t-11 -24.5t-24.5 -11t-42 -2.5h-20q-26 0 -42 2.5t-24.5 11t-11 24.5t-2.5 42v540q-38 0 -49 8.5t-11 31.5t11 31.5t49 8.5v90q0 30 8.5 40
t31.5 10t31.5 -10t8.5 -40v-90h360v90q0 30 8.5 40t31.5 10t31.5 -10t8.5 -40v-90q38 0 49 -8.5t11 -31.5t-11 -31.5t-49 -8.5v-560q0 -38 -8.5 -49t-31.5 -11t-31.5 11t-8.5 49v240zM201 460h199q26 0 42 2.5t24.5 11t11 24.5t2.5 42v80h-360v-80q0 -26 2.5 -42t11 -24.5
t24.5 -11t43 -2.5z" />
    <glyph glyph-name="hbar" unicode="&#x127;" horiz-adv-x="600" 
d="M480 300q0 26 -2.5 42t-11 24.5t-24.5 11t-42 2.5h-100q-26 0 -42 -2.5t-24.5 -11t-11 -24.5t-2.5 -42v-220q0 -26 -2.5 -42t-11 -24.5t-24.5 -11t-42 -2.5h-20q-26 0 -42 2.5t-24.5 11t-11 24.5t-2.5 42v540q-38 0 -49 8.5t-11 31.5t11 31.5t49 8.5v90q0 30 8.5 40
t31.5 10t31.5 -10t8.5 -40v-90h360v90q0 30 8.5 40t31.5 10t31.5 -10t8.5 -40v-90q38 0 49 -8.5t11 -31.5t-11 -31.5t-49 -8.5v-560q0 -38 -8.5 -49t-31.5 -11t-31.5 11t-8.5 49v240zM201 460h199q26 0 42 2.5t24.5 11t11 24.5t2.5 42v80h-360v-80q0 -26 2.5 -42t11 -24.5
t24.5 -11t43 -2.5z" />
    <glyph glyph-name="Itilde" unicode="&#x128;" horiz-adv-x="260" 
d="M12 924q0 24 3.5 38t13.5 21.5t27 10t44 2.5q24 0 36 -4.5t17.5 -12t7 -15.5t3 -15.5t6.5 -12t18 -4.5q18 0 21 6t3 18q0 22 4 29t24 7t24 -7t4 -29q0 -24 -3.5 -38.5t-13.5 -22t-27 -9.5t-44 -2q-35 0 -46 10t-14 22l-5.5 22t-21.5 10t-22 -6t-3 -18q0 -22 -4 -29
t-24 -7t-24 7t-4 29zM40 320q0 19 4 30.5t10.5 19t15.5 12t20 8.5q10 4 19.5 8t16 11.5t10.5 19.5t4 31v320q0 38 8.5 49t31.5 11t31.5 -11t8.5 -49v-700q0 -26 -2.5 -42t-11 -24.5t-24.5 -11t-42 -2.5h-20q-26 0 -42 2.5t-24.5 11t-11 24.5t-2.5 42v240z" />
    <glyph glyph-name="itilde" unicode="&#x129;" horiz-adv-x="260" 
d="M12 924q0 24 3.5 38t13.5 21.5t27 10t44 2.5q24 0 36 -4.5t17.5 -12t7 -15.5t3 -15.5t6.5 -12t18 -4.5q18 0 21 6t3 18q0 22 4 29t24 7t24 -7t4 -29q0 -24 -3.5 -38.5t-13.5 -22t-27 -9.5t-44 -2q-35 0 -46 10t-14 22l-5.5 22t-21.5 10t-22 -6t-3 -18q0 -22 -4 -29
t-24 -7t-24 7t-4 29zM40 320q0 19 4 30.5t10.5 19t15.5 12t20 8.5q10 4 19.5 8t16 11.5t10.5 19.5t4 31v320q0 38 8.5 49t31.5 11t31.5 -11t8.5 -49v-700q0 -26 -2.5 -42t-11 -24.5t-24.5 -11t-42 -2.5h-20q-26 0 -42 2.5t-24.5 11t-11 24.5t-2.5 42v240z" />
    <glyph glyph-name="Imacron" unicode="&#x12a;" horiz-adv-x="260" 
d="M10 920q0 23 11 31.5t49 8.5h120q38 0 49 -8.5t11 -31.5t-11 -31.5t-49 -8.5h-120q-38 0 -49 8.5t-11 31.5zM40 320q0 19 4 30.5t10.5 19t15.5 12t20 8.5q10 4 19.5 8t16 11.5t10.5 19.5t4 31v320q0 38 8.5 49t31.5 11t31.5 -11t8.5 -49v-700q0 -26 -2.5 -42t-11 -24.5
t-24.5 -11t-42 -2.5h-20q-26 0 -42 2.5t-24.5 11t-11 24.5t-2.5 42v240z" />
    <glyph glyph-name="imacron" unicode="&#x12b;" horiz-adv-x="260" 
d="M10 920q0 23 11 31.5t49 8.5h120q38 0 49 -8.5t11 -31.5t-11 -31.5t-49 -8.5h-120q-38 0 -49 8.5t-11 31.5zM40 320q0 19 4 30.5t10.5 19t15.5 12t20 8.5q10 4 19.5 8t16 11.5t10.5 19.5t4 31v320q0 38 8.5 49t31.5 11t31.5 -11t8.5 -49v-700q0 -26 -2.5 -42t-11 -24.5
t-24.5 -11t-42 -2.5h-20q-26 0 -42 2.5t-24.5 11t-11 24.5t-2.5 42v240z" />
    <glyph glyph-name="Iogonek" unicode="&#x12e;" horiz-adv-x="260" 
d="M40 320q0 19 4 30.5t10.5 19t15.5 12t20 8.5q10 4 19.5 8t16 11.5t10.5 19.5t4 31v320q0 38 8.5 49t31.5 11t31.5 -11t8.5 -49v-700q0 -26 -2.5 -42t-9 -24.5t-18 -11t-30.5 -2.5h-50q-20 -1 -25 -7t-5 -24q0 -20 5.5 -25.5t24.5 -5.5t24.5 4.5t5.5 15.5q0 20 6 26t33 6
t33 -5.5t6 -24.5q0 -21 -1.5 -33t-9 -18t-23.5 -7.5t-44 -1.5h-20q-28 0 -44 2t-24 8.5t-10 20.5t-2 38v351z" />
    <glyph glyph-name="iogonek" unicode="&#x12f;" horiz-adv-x="260" 
d="M40 320q0 19 4 30.5t10.5 19t15.5 12t20 8.5q10 4 19.5 8t16 11.5t10.5 19.5t4 31v320q0 38 8.5 49t31.5 11t31.5 -11t8.5 -49v-700q0 -26 -2.5 -42t-9 -24.5t-18 -11t-30.5 -2.5h-50q-20 -1 -25 -7t-5 -24q0 -20 5.5 -25.5t24.5 -5.5t24.5 4.5t5.5 15.5q0 20 6 26t33 6
t33 -5.5t6 -24.5q0 -21 -1.5 -33t-9 -18t-23.5 -7.5t-44 -1.5h-20q-28 0 -44 2t-24 8.5t-10 20.5t-2 38v351z" />
    <glyph glyph-name="Idotaccent" unicode="&#x130;" horiz-adv-x="260" 
d="M40 320q0 19 4 30.5t10.5 19t15.5 12t20 8.5q10 4 19.5 8t16 11.5t10.5 19.5t4 31v320q0 38 8.5 49t31.5 11t31.5 -11t8.5 -49v-700q0 -26 -2.5 -42t-11 -24.5t-24.5 -11t-42 -2.5h-20q-26 0 -42 2.5t-24.5 11t-11 24.5t-2.5 42v240zM180 1000q37 0 48.5 -11.5
t11.5 -48.5q0 -19 -2.5 -30.5t-9 -18t-18 -9t-30.5 -2.5t-30.5 2.5t-18 9t-9 18t-2.5 30.5t2.5 30.5t9 18t18 9t30.5 2.5z" />
    <glyph glyph-name="dotlessi" unicode="&#x131;" horiz-adv-x="260" 
d="M40 320q0 19 4 30.5t10.5 19t15.5 12t20 8.5q10 4 19.5 8t16 11.5t10.5 19.5t4 31v320q0 38 8.5 49t31.5 11t31.5 -11t8.5 -49v-700q0 -26 -2.5 -42t-11 -24.5t-24.5 -11t-42 -2.5h-20q-26 0 -42 2.5t-24.5 11t-11 24.5t-2.5 42v240z" />
    <glyph glyph-name="Jcircumflex" unicode="&#x134;" horiz-adv-x="640" 
d="M460 840q23 0 31.5 -11t8.5 -49v-250q0 -19 4 -31t10.5 -19.5t15.5 -11.5t20 -8q10 -4 19.5 -8.5t16 -12t10.5 -19t4 -30.5v-230q0 -56 -4 -88t-20 -48t-48 -20t-88 -4h-240q-56 0 -88 4t-48 20t-20 48t-4 88v40v10q0 22 2.5 36t11 21.5t24.5 10t42 2.5t42 -2.5t24.5 -10
t11 -21.5t2.5 -36v-10v-39q0 -27 2.5 -43.5t11 -25t24.5 -11t42 -2.5l60 1q26 0 42 2.5t24.5 11t11 24t2.5 42.5v620q0 38 8.5 49t31.5 11zM443 987q16 15 31 0l97 -84q14 -11 11 -19.5t-19 -8.5h-208q-16 0 -18.5 8.5t10.5 19.5z" />
    <glyph glyph-name="jcircumflex" unicode="&#x135;" horiz-adv-x="640" 
d="M460 840q23 0 31.5 -11t8.5 -49v-250q0 -19 4 -31t10.5 -19.5t15.5 -11.5t20 -8q10 -4 19.5 -8.5t16 -12t10.5 -19t4 -30.5v-230q0 -56 -4 -88t-20 -48t-48 -20t-88 -4h-240q-56 0 -88 4t-48 20t-20 48t-4 88v40v10q0 22 2.5 36t11 21.5t24.5 10t42 2.5t42 -2.5t24.5 -10
t11 -21.5t2.5 -36v-10v-39q0 -27 2.5 -43.5t11 -25t24.5 -11t42 -2.5l60 1q26 0 42 2.5t24.5 11t11 24t2.5 42.5v620q0 38 8.5 49t31.5 11zM443 987q16 15 31 0l97 -84q14 -11 11 -19.5t-19 -8.5h-208q-16 0 -18.5 8.5t10.5 19.5z" />
    <glyph glyph-name="uni0136" unicode="&#x136;" horiz-adv-x="650" 
d="M282 -75q0 21 5.5 26.5t26.5 5.5h12q21 0 26.5 -5.5t5.5 -26.5v-46q0 -24 -17 -41.5t-43 -17.5q-14 0 -14 8q0 7 4.5 10.5t10 7t10 8.5t4.5 16q0 8 -2.5 10t-14.5 7q-11 4 -12.5 7t-1.5 15v16zM430 300q0 26 -2.5 42t-11 24.5t-24.5 11t-42 2.5h-50q-26 0 -42 -2.5
t-24.5 -11t-11 -24.5t-2.5 -42v-220q0 -26 -2.5 -42t-11 -24.5t-24.5 -11t-42 -2.5h-20q-26 0 -42 2.5t-24.5 11t-11 24.5t-2.5 42v700q0 38 8.5 49t31.5 11t31.5 -11t8.5 -49v-240q0 -38 18 -43.5t48 23.5l294 281q11 10 19.5 17.5t18 11.5t21 6t28.5 2q23 0 30.5 -6.5
t7.5 -14.5q0 -12 -19 -31l-279 -266q-32 -30 -30 -45t48 -15h205q26 0 41.5 -2.5t24 -11t11.5 -24.5t3 -42v-300q0 -26 -2.5 -42t-11 -24.5t-24.5 -11t-42 -2.5h-20q-26 0 -42 2.5t-24.5 11t-11 24.5t-2.5 42v220z" />
    <glyph glyph-name="uni0137" unicode="&#x137;" horiz-adv-x="650" 
d="M282 -75q0 21 5.5 26.5t26.5 5.5h12q21 0 26.5 -5.5t5.5 -26.5v-46q0 -24 -17 -41.5t-43 -17.5q-14 0 -14 8q0 7 4.5 10.5t10 7t10 8.5t4.5 16q0 8 -2.5 10t-14.5 7q-11 4 -12.5 7t-1.5 15v16zM430 300q0 26 -2.5 42t-11 24.5t-24.5 11t-42 2.5h-50q-26 0 -42 -2.5
t-24.5 -11t-11 -24.5t-2.5 -42v-220q0 -26 -2.5 -42t-11 -24.5t-24.5 -11t-42 -2.5h-20q-26 0 -42 2.5t-24.5 11t-11 24.5t-2.5 42v700q0 38 8.5 49t31.5 11t31.5 -11t8.5 -49v-240q0 -38 18 -43.5t48 23.5l294 281q11 10 19.5 17.5t18 11.5t21 6t28.5 2q23 0 30.5 -6.5
t7.5 -14.5q0 -12 -19 -31l-279 -266q-32 -30 -30 -45t48 -15h205q26 0 41.5 -2.5t24 -11t11.5 -24.5t3 -42v-300q0 -26 -2.5 -42t-11 -24.5t-24.5 -11t-42 -2.5h-20q-26 0 -42 2.5t-24.5 11t-11 24.5t-2.5 42v220z" />
    <glyph glyph-name="kgreenlandic" unicode="&#x138;" horiz-adv-x="650" 
d="M430 300q0 26 -2.5 42t-11 24.5t-24.5 11t-42 2.5h-50q-26 0 -42 -2.5t-24.5 -11t-11 -24.5t-2.5 -42v-220q0 -26 -2.5 -42t-11 -24.5t-24.5 -11t-42 -2.5h-20q-26 0 -42 2.5t-24.5 11t-11 24.5t-2.5 42v700q0 38 8.5 49t31.5 11t31.5 -11t8.5 -49v-240q0 -38 18 -43.5
t48 23.5l294 281q11 10 19.5 17.5t18 11.5t21 6t28.5 2q23 0 30.5 -6.5t7.5 -14.5q0 -12 -19 -31l-279 -266q-32 -30 -30 -45t48 -15h205q26 0 41.5 -2.5t24 -11t11.5 -24.5t3 -42v-300q0 -26 -2.5 -42t-11 -24.5t-24.5 -11t-42 -2.5h-20q-26 0 -42 2.5t-24.5 11t-11 24.5
t-2.5 42v220z" />
    <glyph glyph-name="Lacute" unicode="&#x139;" horiz-adv-x="510" 
d="M120 0q-26 0 -42 2.5t-24.5 11t-11 24.5t-2.5 42v240q0 19 4 30.5t10.5 19t15.5 12t20 8.5q10 4 19.5 8t16 11.5t10.5 19.5t4 31v320q0 38 8.5 49t31.5 11t31.5 -11t8.5 -49v-620q0 -26 2.5 -42t11 -24.5t24.5 -11t42 -2.5h120q38 0 49 -9t11 -33q0 -21 -11 -29.5
t-49 -8.5h-300zM239 990q13 0 22.5 -3t9.5 -14q0 -13 -15 -32l-26 -35q-12 -16 -20 -21t-31 -5h-6q-16 0 -21.5 7t-5.5 27v42q0 20 9 27t26 7h58z" />
    <glyph glyph-name="lacute" unicode="&#x13a;" horiz-adv-x="510" 
d="M120 0q-26 0 -42 2.5t-24.5 11t-11 24.5t-2.5 42v240q0 19 4 30.5t10.5 19t15.5 12t20 8.5q10 4 19.5 8t16 11.5t10.5 19.5t4 31v320q0 38 8.5 49t31.5 11t31.5 -11t8.5 -49v-620q0 -26 2.5 -42t11 -24.5t24.5 -11t42 -2.5h120q38 0 49 -9t11 -33q0 -21 -11 -29.5
t-49 -8.5h-300zM239 990q13 0 22.5 -3t9.5 -14q0 -13 -15 -32l-26 -35q-12 -16 -20 -21t-31 -5h-6q-16 0 -21.5 7t-5.5 27v42q0 20 9 27t26 7h58z" />
    <glyph glyph-name="uni013B" unicode="&#x13b;" horiz-adv-x="510" 
d="M222 -75q0 21 5.5 26.5t26.5 5.5h12q21 0 26.5 -5.5t5.5 -26.5v-46q0 -24 -17 -41.5t-43 -17.5q-14 0 -14 8q0 7 4.5 10.5t10 7t10 8.5t4.5 16q0 8 -2.5 10t-14.5 7q-11 4 -12.5 7t-1.5 15v16zM120 0q-26 0 -42 2.5t-24.5 11t-11 24.5t-2.5 42v240q0 19 4 30.5t10.5 19
t15.5 12t20 8.5q10 4 19.5 8t16 11.5t10.5 19.5t4 31v320q0 38 8.5 49t31.5 11t31.5 -11t8.5 -49v-620q0 -26 2.5 -42t11 -24.5t24.5 -11t42 -2.5h120q38 0 49 -9t11 -33q0 -21 -11 -29.5t-49 -8.5h-300z" />
    <glyph glyph-name="uni013C" unicode="&#x13c;" horiz-adv-x="510" 
d="M222 -75q0 21 5.5 26.5t26.5 5.5h12q21 0 26.5 -5.5t5.5 -26.5v-46q0 -24 -17 -41.5t-43 -17.5q-14 0 -14 8q0 7 4.5 10.5t10 7t10 8.5t4.5 16q0 8 -2.5 10t-14.5 7q-11 4 -12.5 7t-1.5 15v16zM120 0q-26 0 -42 2.5t-24.5 11t-11 24.5t-2.5 42v240q0 19 4 30.5t10.5 19
t15.5 12t20 8.5q10 4 19.5 8t16 11.5t10.5 19.5t4 31v320q0 38 8.5 49t31.5 11t31.5 -11t8.5 -49v-620q0 -26 2.5 -42t11 -24.5t24.5 -11t42 -2.5h120q38 0 49 -9t11 -33q0 -21 -11 -29.5t-49 -8.5h-300z" />
    <glyph glyph-name="Lcaron" unicode="&#x13d;" horiz-adv-x="510" 
d="M120 0q-26 0 -42 2.5t-24.5 11t-11 24.5t-2.5 42v240q0 19 4 30.5t10.5 19t15.5 12t20 8.5q10 4 19.5 8t16 11.5t10.5 19.5t4 31v320q0 38 8.5 49t31.5 11t31.5 -11t8.5 -49v-620q0 -26 2.5 -42t11 -24.5t24.5 -11t42 -2.5h120q38 0 49 -9t11 -33q0 -21 -11 -29.5
t-49 -8.5h-300zM279 697q0 21 2 33.5t9 19.5t19.5 9t33.5 2h24q21 0 33.5 -2t19.5 -9t9 -19.5t2 -33.5v-93q0 -24 -9 -45t-25.5 -37t-38.5 -25.5t-47 -9.5q-28 0 -28 16q0 13 9 20t20 14t20 17.5t9 31.5q0 15 -4.5 20.5t-28.5 13.5q-11 4 -16.5 6.5t-8.5 7t-3.5 11.5
t-0.5 19v33z" />
    <glyph glyph-name="lcaron" unicode="&#x13e;" horiz-adv-x="510" 
d="M120 0q-26 0 -42 2.5t-24.5 11t-11 24.5t-2.5 42v240q0 19 4 30.5t10.5 19t15.5 12t20 8.5q10 4 19.5 8t16 11.5t10.5 19.5t4 31v320q0 38 8.5 49t31.5 11t31.5 -11t8.5 -49v-620q0 -26 2.5 -42t11 -24.5t24.5 -11t42 -2.5h120q38 0 49 -9t11 -33q0 -21 -11 -29.5
t-49 -8.5h-300zM279 697q0 21 2 33.5t9 19.5t19.5 9t33.5 2h24q21 0 33.5 -2t19.5 -9t9 -19.5t2 -33.5v-93q0 -24 -9 -45t-25.5 -37t-38.5 -25.5t-47 -9.5q-28 0 -28 16q0 13 9 20t20 14t20 17.5t9 31.5q0 15 -4.5 20.5t-28.5 13.5q-11 4 -16.5 6.5t-8.5 7t-3.5 11.5
t-0.5 19v33z" />
    <glyph glyph-name="Ldot" unicode="&#x13f;" horiz-adv-x="510" 
d="M120 0q-26 0 -42 2.5t-24.5 11t-11 24.5t-2.5 42v240q0 19 4 30.5t10.5 19t15.5 12t20 8.5q10 4 19.5 8t16 11.5t10.5 19.5t4 31v320q0 38 8.5 49t31.5 11t31.5 -11t8.5 -49v-620q0 -26 2.5 -42t11 -24.5t24.5 -11t42 -2.5h120q38 0 49 -9t11 -33q0 -21 -11 -29.5
t-49 -8.5h-300zM260 446q0 26 2.5 42t11 24.5t24.5 11t42 2.5h30q26 0 42 -2.5t24.5 -11t11 -24.5t2.5 -42v-30q0 -26 -2.5 -42t-11 -24.5t-24.5 -11t-42 -2.5h-30q-26 0 -42 2.5t-24.5 11t-11 24.5t-2.5 42v30z" />
    <glyph glyph-name="ldot" unicode="&#x140;" horiz-adv-x="510" 
d="M120 0q-26 0 -42 2.5t-24.5 11t-11 24.5t-2.5 42v240q0 19 4 30.5t10.5 19t15.5 12t20 8.5q10 4 19.5 8t16 11.5t10.5 19.5t4 31v320q0 38 8.5 49t31.5 11t31.5 -11t8.5 -49v-620q0 -26 2.5 -42t11 -24.5t24.5 -11t42 -2.5h120q38 0 49 -9t11 -33q0 -21 -11 -29.5
t-49 -8.5h-300zM260 446q0 26 2.5 42t11 24.5t24.5 11t42 2.5h30q26 0 42 -2.5t24.5 -11t11 -24.5t2.5 -42v-30q0 -26 -2.5 -42t-11 -24.5t-24.5 -11t-42 -2.5h-30q-26 0 -42 2.5t-24.5 11t-11 24.5t-2.5 42v30z" />
    <glyph glyph-name="Lslash" unicode="&#x141;" horiz-adv-x="515" 
d="M5 475q-8 21 -1 33.5t42 26.5l99 40v205q0 38 8.5 49t31.5 11t31.5 -11t8.5 -49v-173l140 57q34 13 48 9.5t23 -24.5q8 -21 1 -33.5t-42 -26.5l-170 -69v-360q0 -26 2.5 -42t11 -24.5t24.5 -11t42 -2.5h120q38 0 49 -9t11 -33q0 -21 -11 -29.5t-49 -8.5h-300
q-26 0 -42 2.5t-24.5 11t-11 24.5t-2.5 42v220q0 19 4 30.5t10.5 19t15.5 12t20 8.5q10 4 19.5 8t16 11.5t10.5 19.5t4 31v48l-69 -28q-17 -7 -28.5 -9.5t-19.5 -0.5t-13.5 8t-9.5 17z" />
    <glyph glyph-name="lslash" unicode="&#x142;" horiz-adv-x="515" 
d="M5 475q-8 21 -1 33.5t42 26.5l99 40v205q0 38 8.5 49t31.5 11t31.5 -11t8.5 -49v-173l140 57q34 13 48 9.5t23 -24.5q8 -21 1 -33.5t-42 -26.5l-170 -69v-360q0 -26 2.5 -42t11 -24.5t24.5 -11t42 -2.5h120q38 0 49 -9t11 -33q0 -21 -11 -29.5t-49 -8.5h-300
q-26 0 -42 2.5t-24.5 11t-11 24.5t-2.5 42v220q0 19 4 30.5t10.5 19t15.5 12t20 8.5q10 4 19.5 8t16 11.5t10.5 19.5t4 31v48l-69 -28q-17 -7 -28.5 -9.5t-19.5 -0.5t-13.5 8t-9.5 17z" />
    <glyph glyph-name="Nacute" unicode="&#x143;" horiz-adv-x="640" 
d="M520 240q0 28 -0.5 44t-4.5 28t-12 23.5t-23 29.5l-301 366q-11 13 -18.5 18t-18.5 5t-16.5 -7t-5.5 -27v-660q0 -38 -8.5 -49t-31.5 -11t-31.5 11t-8.5 49v700q0 26 2.5 42t11 24.5t24.5 11t42 2.5h20q18 0 29 -1t20.5 -6.5t21 -17.5t29.5 -34l231 -282q17 -20 29 -20
q20 0 20 41v260q0 38 8.5 49t31.5 11t31.5 -11t8.5 -49v-720q0 -38 -8.5 -49t-31.5 -11t-31.5 11t-8.5 49v180zM230 166q0 26 2.5 42t11 24.5t24.5 11t42 2.5h20q26 0 42 -2.5t24.5 -11t11 -24.5t2.5 -42v-90q0 -26 -2.5 -42t-11 -24.5t-24.5 -11t-42 -2.5h-20
q-26 0 -42 2.5t-24.5 11t-11 24.5t-2.5 42v90zM423 990q13 0 22.5 -3t9.5 -14q0 -13 -15 -32l-26 -35q-12 -16 -20 -21t-31 -5h-6q-16 0 -21.5 7t-5.5 27v42q0 20 9 27t26 7h58z" />
    <glyph glyph-name="nacute" unicode="&#x144;" horiz-adv-x="640" 
d="M520 240q0 28 -0.5 44t-4.5 28t-12 23.5t-23 29.5l-301 366q-11 13 -18.5 18t-18.5 5t-16.5 -7t-5.5 -27v-660q0 -38 -8.5 -49t-31.5 -11t-31.5 11t-8.5 49v700q0 26 2.5 42t11 24.5t24.5 11t42 2.5h20q18 0 29 -1t20.5 -6.5t21 -17.5t29.5 -34l231 -282q17 -20 29 -20
q20 0 20 41v260q0 38 8.5 49t31.5 11t31.5 -11t8.5 -49v-720q0 -38 -8.5 -49t-31.5 -11t-31.5 11t-8.5 49v180zM230 166q0 26 2.5 42t11 24.5t24.5 11t42 2.5h20q26 0 42 -2.5t24.5 -11t11 -24.5t2.5 -42v-90q0 -26 -2.5 -42t-11 -24.5t-24.5 -11t-42 -2.5h-20
q-26 0 -42 2.5t-24.5 11t-11 24.5t-2.5 42v90zM423 990q13 0 22.5 -3t9.5 -14q0 -13 -15 -32l-26 -35q-12 -16 -20 -21t-31 -5h-6q-16 0 -21.5 7t-5.5 27v42q0 20 9 27t26 7h58z" />
    <glyph glyph-name="uni0145" unicode="&#x145;" horiz-adv-x="640" 
d="M282 -75q0 21 5.5 26.5t26.5 5.5h12q21 0 26.5 -5.5t5.5 -26.5v-46q0 -24 -17 -41.5t-43 -17.5q-14 0 -14 8q0 7 4.5 10.5t10 7t10 8.5t4.5 16q0 8 -2.5 10t-14.5 7q-11 4 -12.5 7t-1.5 15v16zM520 240q0 28 -0.5 44t-4.5 28t-12 23.5t-23 29.5l-301 366q-11 13 -18.5 18
t-18.5 5t-16.5 -7t-5.5 -27v-660q0 -38 -8.5 -49t-31.5 -11t-31.5 11t-8.5 49v700q0 26 2.5 42t11 24.5t24.5 11t42 2.5h20q18 0 29 -1t20.5 -6.5t21 -17.5t29.5 -34l231 -282q17 -20 29 -20q20 0 20 41v260q0 38 8.5 49t31.5 11t31.5 -11t8.5 -49v-720q0 -38 -8.5 -49
t-31.5 -11t-31.5 11t-8.5 49v180zM230 166q0 26 2.5 42t11 24.5t24.5 11t42 2.5h20q26 0 42 -2.5t24.5 -11t11 -24.5t2.5 -42v-90q0 -26 -2.5 -42t-11 -24.5t-24.5 -11t-42 -2.5h-20q-26 0 -42 2.5t-24.5 11t-11 24.5t-2.5 42v90z" />
    <glyph glyph-name="uni0146" unicode="&#x146;" horiz-adv-x="640" 
d="M282 -75q0 21 5.5 26.5t26.5 5.5h12q21 0 26.5 -5.5t5.5 -26.5v-46q0 -24 -17 -41.5t-43 -17.5q-14 0 -14 8q0 7 4.5 10.5t10 7t10 8.5t4.5 16q0 8 -2.5 10t-14.5 7q-11 4 -12.5 7t-1.5 15v16zM520 240q0 28 -0.5 44t-4.5 28t-12 23.5t-23 29.5l-301 366q-11 13 -18.5 18
t-18.5 5t-16.5 -7t-5.5 -27v-660q0 -38 -8.5 -49t-31.5 -11t-31.5 11t-8.5 49v700q0 26 2.5 42t11 24.5t24.5 11t42 2.5h20q18 0 29 -1t20.5 -6.5t21 -17.5t29.5 -34l231 -282q17 -20 29 -20q20 0 20 41v260q0 38 8.5 49t31.5 11t31.5 -11t8.5 -49v-720q0 -38 -8.5 -49
t-31.5 -11t-31.5 11t-8.5 49v180zM230 166q0 26 2.5 42t11 24.5t24.5 11t42 2.5h20q26 0 42 -2.5t24.5 -11t11 -24.5t2.5 -42v-90q0 -26 -2.5 -42t-11 -24.5t-24.5 -11t-42 -2.5h-20q-26 0 -42 2.5t-24.5 11t-11 24.5t-2.5 42v90z" />
    <glyph glyph-name="Ncaron" unicode="&#x147;" horiz-adv-x="640" 
d="M520 240q0 28 -0.5 44t-4.5 28t-12 23.5t-23 29.5l-301 366q-11 13 -18.5 18t-18.5 5t-16.5 -7t-5.5 -27v-660q0 -38 -8.5 -49t-31.5 -11t-31.5 11t-8.5 49v700q0 26 2.5 42t11 24.5t24.5 11t42 2.5h20q18 0 29 -1t20.5 -6.5t21 -17.5t29.5 -34l231 -282q17 -20 29 -20
q20 0 20 41v260q0 38 8.5 49t31.5 11t31.5 -11t8.5 -49v-720q0 -38 -8.5 -49t-31.5 -11t-31.5 11t-8.5 49v180zM230 166q0 26 2.5 42t11 24.5t24.5 11t42 2.5h20q26 0 42 -2.5t24.5 -11t11 -24.5t2.5 -42v-90q0 -26 -2.5 -42t-11 -24.5t-24.5 -11t-42 -2.5h-20
q-26 0 -42 2.5t-24.5 11t-11 24.5t-2.5 42v90zM336 864q-16 -15 -31 0l-97 84q-14 11 -11 19.5t19 8.5h208q16 0 18.5 -8.5t-10.5 -19.5z" />
    <glyph glyph-name="ncaron" unicode="&#x148;" horiz-adv-x="640" 
d="M520 240q0 28 -0.5 44t-4.5 28t-12 23.5t-23 29.5l-301 366q-11 13 -18.5 18t-18.5 5t-16.5 -7t-5.5 -27v-660q0 -38 -8.5 -49t-31.5 -11t-31.5 11t-8.5 49v700q0 26 2.5 42t11 24.5t24.5 11t42 2.5h20q18 0 29 -1t20.5 -6.5t21 -17.5t29.5 -34l231 -282q17 -20 29 -20
q20 0 20 41v260q0 38 8.5 49t31.5 11t31.5 -11t8.5 -49v-720q0 -38 -8.5 -49t-31.5 -11t-31.5 11t-8.5 49v180zM230 166q0 26 2.5 42t11 24.5t24.5 11t42 2.5h20q26 0 42 -2.5t24.5 -11t11 -24.5t2.5 -42v-90q0 -26 -2.5 -42t-11 -24.5t-24.5 -11t-42 -2.5h-20
q-26 0 -42 2.5t-24.5 11t-11 24.5t-2.5 42v90zM336 864q-16 -15 -31 0l-97 84q-14 11 -11 19.5t19 8.5h208q16 0 18.5 -8.5t-10.5 -19.5z" />
    <glyph glyph-name="napostrophe" unicode="&#x149;" horiz-adv-x="718" 
d="M0 805q0 21 5.5 26.5t26.5 5.5h12q21 0 26.5 -5.5t5.5 -26.5v-46q0 -24 -17 -41.5t-43 -17.5q-14 0 -14 8q0 7 4.5 10.5t10 7t10 8.5t4.5 16q0 8 -2.5 10t-14.5 7q-11 4 -12.5 7t-1.5 15v16zM598 240q0 28 -0.5 44t-4.5 28t-12 23.5t-23 29.5l-301 366q-11 13 -18.5 18
t-18.5 5t-16.5 -7t-5.5 -27v-660q0 -38 -8.5 -49t-31.5 -11t-31.5 11t-8.5 49v700q0 26 2.5 42t11 24.5t24.5 11t42 2.5h20q18 0 29 -1t20.5 -6.5t21 -17.5t29.5 -34l231 -282q17 -20 29 -20q20 0 20 41v260q0 38 8.5 49t31.5 11t31.5 -11t8.5 -49v-720q0 -38 -8.5 -49
t-31.5 -11t-31.5 11t-8.5 49v180z" />
    <glyph glyph-name="Omacron" unicode="&#x14c;" 
d="M40 680q0 56 4 88t20 48t48 20t88 4h220q56 0 88 -4t48 -20t20 -48t4 -88v-520q0 -56 -4 -88t-20 -48t-48 -20t-88 -4h-220q-56 0 -88 4t-48 20t-20 48t-4 88v520zM400 410q0 19 4 30.5t10.5 19t15.5 12t20 8.5q10 4 19.5 8t16 11.5t10.5 19.5t4 31v130q0 26 -2.5 42
t-11 24.5t-24.5 11t-42 2.5h-220q-26 0 -42 -2.5t-24.5 -11t-11 -24.5t-2.5 -42v-520q0 -26 2.5 -42t11.5 -24.5t25.5 -11t43.5 -2.5h117q26 0 42 2.5t24.5 11t11 24.5t2.5 42v250zM101 920q0 23 11 31.5t49 8.5h300q38 0 49 -8.5t11 -31.5t-11 -31.5t-49 -8.5h-300
q-38 0 -49 8.5t-11 31.5z" />
    <glyph glyph-name="omacron" unicode="&#x14d;" 
d="M40 680q0 56 4 88t20 48t48 20t88 4h220q56 0 88 -4t48 -20t20 -48t4 -88v-520q0 -56 -4 -88t-20 -48t-48 -20t-88 -4h-220q-56 0 -88 4t-48 20t-20 48t-4 88v520zM400 410q0 19 4 30.5t10.5 19t15.5 12t20 8.5q10 4 19.5 8t16 11.5t10.5 19.5t4 31v130q0 26 -2.5 42
t-11 24.5t-24.5 11t-42 2.5h-220q-26 0 -42 -2.5t-24.5 -11t-11 -24.5t-2.5 -42v-520q0 -26 2.5 -42t11.5 -24.5t25.5 -11t43.5 -2.5h117q26 0 42 2.5t24.5 11t11 24.5t2.5 42v250zM101 920q0 23 11 31.5t49 8.5h300q38 0 49 -8.5t11 -31.5t-11 -31.5t-49 -8.5h-300
q-38 0 -49 8.5t-11 31.5z" />
    <glyph glyph-name="Obreve" unicode="&#x14e;" 
d="M40 680q0 56 4 88t20 48t48 20t88 4h220q56 0 88 -4t48 -20t20 -48t4 -88v-520q0 -56 -4 -88t-20 -48t-48 -20t-88 -4h-220q-56 0 -88 4t-48 20t-20 48t-4 88v520zM400 410q0 19 4 30.5t10.5 19t15.5 12t20 8.5q10 4 19.5 8t16 11.5t10.5 19.5t4 31v130q0 26 -2.5 42
t-11 24.5t-24.5 11t-42 2.5h-220q-26 0 -42 -2.5t-24.5 -11t-11 -24.5t-2.5 -42v-520q0 -26 2.5 -42t11.5 -24.5t25.5 -11t43.5 -2.5h117q26 0 42 2.5t24.5 11t11 24.5t2.5 42v250zM410 926q-17 -29 -42.5 -42.5t-54.5 -13.5t-55.5 13.5t-44.5 42.5l-14 22q-4 5 -4 12
q0 16 22 16h188q21 0 21 -16q0 -6 -3 -12z" />
    <glyph glyph-name="obreve" unicode="&#x14f;" 
d="M40 680q0 56 4 88t20 48t48 20t88 4h220q56 0 88 -4t48 -20t20 -48t4 -88v-520q0 -56 -4 -88t-20 -48t-48 -20t-88 -4h-220q-56 0 -88 4t-48 20t-20 48t-4 88v520zM400 410q0 19 4 30.5t10.5 19t15.5 12t20 8.5q10 4 19.5 8t16 11.5t10.5 19.5t4 31v130q0 26 -2.5 42
t-11 24.5t-24.5 11t-42 2.5h-220q-26 0 -42 -2.5t-24.5 -11t-11 -24.5t-2.5 -42v-520q0 -26 2.5 -42t11.5 -24.5t25.5 -11t43.5 -2.5h117q26 0 42 2.5t24.5 11t11 24.5t2.5 42v250zM410 926q-17 -29 -42.5 -42.5t-54.5 -13.5t-55.5 13.5t-44.5 42.5l-14 22q-4 5 -4 12
q0 16 22 16h188q21 0 21 -16q0 -6 -3 -12z" />
    <glyph glyph-name="Ohungarumlaut" unicode="&#x150;" 
d="M40 680q0 56 4 88t20 48t48 20t88 4h220q56 0 88 -4t48 -20t20 -48t4 -88v-520q0 -56 -4 -88t-20 -48t-48 -20t-88 -4h-220q-56 0 -88 4t-48 20t-20 48t-4 88v520zM400 410q0 19 4 30.5t10.5 19t15.5 12t20 8.5q10 4 19.5 8t16 11.5t10.5 19.5t4 31v130q0 26 -2.5 42
t-11 24.5t-24.5 11t-42 2.5h-220q-26 0 -42 -2.5t-24.5 -11t-11 -24.5t-2.5 -42v-520q0 -26 2.5 -42t11.5 -24.5t25.5 -11t43.5 -2.5h117q26 0 42 2.5t24.5 11t11 24.5t2.5 42v250zM260 989q6 0 12.5 -1t10 -6t3 -14.5t-8.5 -27.5l-16 -35q-8 -18 -15.5 -22t-25.5 -4h-16
q-16 0 -21.5 7t-5.5 27v42q0 20 9 27t26 7h48zM445 989q6 0 12.5 -1t10 -6t3 -14.5t-8.5 -27.5l-16 -35q-8 -18 -15.5 -22t-25.5 -4h-16q-16 0 -21.5 7t-5.5 27v42q0 20 9 27t26 7h48z" />
    <glyph glyph-name="ohungarumlaut" unicode="&#x151;" 
d="M40 680q0 56 4 88t20 48t48 20t88 4h220q56 0 88 -4t48 -20t20 -48t4 -88v-520q0 -56 -4 -88t-20 -48t-48 -20t-88 -4h-220q-56 0 -88 4t-48 20t-20 48t-4 88v520zM400 410q0 19 4 30.5t10.5 19t15.5 12t20 8.5q10 4 19.5 8t16 11.5t10.5 19.5t4 31v130q0 26 -2.5 42
t-11 24.5t-24.5 11t-42 2.5h-220q-26 0 -42 -2.5t-24.5 -11t-11 -24.5t-2.5 -42v-520q0 -26 2.5 -42t11.5 -24.5t25.5 -11t43.5 -2.5h117q26 0 42 2.5t24.5 11t11 24.5t2.5 42v250zM260 989q6 0 12.5 -1t10 -6t3 -14.5t-8.5 -27.5l-16 -35q-8 -18 -15.5 -22t-25.5 -4h-16
q-16 0 -21.5 7t-5.5 27v42q0 20 9 27t26 7h48zM445 989q6 0 12.5 -1t10 -6t3 -14.5t-8.5 -27.5l-16 -35q-8 -18 -15.5 -22t-25.5 -4h-16q-16 0 -21.5 7t-5.5 27v42q0 20 9 27t26 7h48z" />
    <glyph glyph-name="OE" unicode="&#x152;" horiz-adv-x="930" 
d="M40 680q0 56 4 88t20 48t48 20t88 4h190q45 0 73.5 -5t46.5 -28q17 23 46 28t74 5h200q38 0 49 -8.5t11 -31.5t-11 -31.5t-49 -8.5h-200q-26 0 -42 -2.5t-24.5 -11t-11 -24.5t-2.5 -42v-140q0 -26 2.5 -42t11 -24.5t24.5 -11t42 -2.5h200q38 0 49 -8.5t11 -31.5
t-11 -31.5t-49 -8.5h-100q-26 0 -42 -2.5t-24.5 -11t-11 -24.5t-2.5 -42v-140q0 -26 2.5 -42t11 -24.5t24.5 -11t42 -2.5h100q38 0 49 -8.5t11 -31.5t-11 -31.5t-49 -8.5h-630q-56 0 -88 4t-48 20t-20 48t-4 88v520zM370 400q0 19 4 30.5t10.5 19t15.5 12t20 8.5
q10 4 19.5 8t16 11.5t10.5 19.5t4 31v140q0 26 -2.5 42t-11 24.5t-24.5 11t-42 2.5h-190q-26 0 -42 -2.5t-24.5 -11t-11 -24.5t-2.5 -42v-520q0 -26 2.5 -42t11.5 -24.5t25.5 -11t43.5 -2.5h87q26 0 42 2.5t24.5 11t11 24.5t2.5 42v240z" />
    <glyph glyph-name="oe" unicode="&#x153;" horiz-adv-x="930" 
d="M40 680q0 56 4 88t20 48t48 20t88 4h190q45 0 73.5 -5t46.5 -28q17 23 46 28t74 5h200q38 0 49 -8.5t11 -31.5t-11 -31.5t-49 -8.5h-200q-26 0 -42 -2.5t-24.5 -11t-11 -24.5t-2.5 -42v-140q0 -26 2.5 -42t11 -24.5t24.5 -11t42 -2.5h200q38 0 49 -8.5t11 -31.5
t-11 -31.5t-49 -8.5h-100q-26 0 -42 -2.5t-24.5 -11t-11 -24.5t-2.5 -42v-140q0 -26 2.5 -42t11 -24.5t24.5 -11t42 -2.5h100q38 0 49 -8.5t11 -31.5t-11 -31.5t-49 -8.5h-630q-56 0 -88 4t-48 20t-20 48t-4 88v520zM370 400q0 19 4 30.5t10.5 19t15.5 12t20 8.5
q10 4 19.5 8t16 11.5t10.5 19.5t4 31v140q0 26 -2.5 42t-11 24.5t-24.5 11t-42 2.5h-190q-26 0 -42 -2.5t-24.5 -11t-11 -24.5t-2.5 -42v-520q0 -26 2.5 -42t11.5 -24.5t25.5 -11t43.5 -2.5h87q26 0 42 2.5t24.5 11t11 24.5t2.5 42v240z" />
    <glyph glyph-name="Racute" unicode="&#x154;" horiz-adv-x="660" 
d="M440 298q0 27 -2.5 43t-11 25t-24.5 11.5t-42 2.5h-60q-26 0 -42 -2.5t-24.5 -11t-11 -24.5t-2.5 -42v-220q0 -26 -2.5 -42t-11 -24.5t-24.5 -11t-42 -2.5h-20q-26 0 -42 2.5t-24.5 11t-11 24.5t-2.5 42v600q0 56 4 88t20 48t48 20t88 4h160q56 0 88 -4t48 -20t20 -48
t4 -88v-140q0 -19 4 -31t10.5 -19.5t15.5 -11.5t20 -8q10 -4 19.5 -8.5t16 -12t10.5 -19t4 -30.5v-320q0 -26 -2.5 -42t-11 -24.5t-24.5 -11t-42 -2.5h-20q-26 0 -42 2.5t-24.5 11t-11 24.5t-2.5 42v218zM120 540q0 -26 2.5 -42t11 -24.5t24.5 -11t42 -2.5h160q26 0 42 2.5
t24.5 11t11 24.5t2.5 42v140q0 26 -2.5 42t-11 24.5t-24.5 11t-42 2.5h-160q-26 0 -42 -2.5t-24.5 -11t-11 -24.5t-2.5 -42v-140zM334 990q13 0 22.5 -3t9.5 -14q0 -13 -15 -32l-26 -35q-12 -16 -20 -21t-31 -5h-6q-16 0 -21.5 7t-5.5 27v42q0 20 9 27t26 7h58z" />
    <glyph glyph-name="racute" unicode="&#x155;" horiz-adv-x="660" 
d="M440 298q0 27 -2.5 43t-11 25t-24.5 11.5t-42 2.5h-60q-26 0 -42 -2.5t-24.5 -11t-11 -24.5t-2.5 -42v-220q0 -26 -2.5 -42t-11 -24.5t-24.5 -11t-42 -2.5h-20q-26 0 -42 2.5t-24.5 11t-11 24.5t-2.5 42v600q0 56 4 88t20 48t48 20t88 4h160q56 0 88 -4t48 -20t20 -48
t4 -88v-140q0 -19 4 -31t10.5 -19.5t15.5 -11.5t20 -8q10 -4 19.5 -8.5t16 -12t10.5 -19t4 -30.5v-320q0 -26 -2.5 -42t-11 -24.5t-24.5 -11t-42 -2.5h-20q-26 0 -42 2.5t-24.5 11t-11 24.5t-2.5 42v218zM120 540q0 -26 2.5 -42t11 -24.5t24.5 -11t42 -2.5h160q26 0 42 2.5
t24.5 11t11 24.5t2.5 42v140q0 26 -2.5 42t-11 24.5t-24.5 11t-42 2.5h-160q-26 0 -42 -2.5t-24.5 -11t-11 -24.5t-2.5 -42v-140zM334 990q13 0 22.5 -3t9.5 -14q0 -13 -15 -32l-26 -35q-12 -16 -20 -21t-31 -5h-6q-16 0 -21.5 7t-5.5 27v42q0 20 9 27t26 7h58z" />
    <glyph glyph-name="uni0156" unicode="&#x156;" horiz-adv-x="660" 
d="M292 -75q0 21 5.5 26.5t26.5 5.5h12q21 0 26.5 -5.5t5.5 -26.5v-46q0 -24 -17 -41.5t-43 -17.5q-14 0 -14 8q0 7 4.5 10.5t10 7t10 8.5t4.5 16q0 8 -2.5 10t-14.5 7q-11 4 -12.5 7t-1.5 15v16zM440 298q0 27 -2.5 43t-11 25t-24.5 11.5t-42 2.5h-60q-26 0 -42 -2.5
t-24.5 -11t-11 -24.5t-2.5 -42v-220q0 -26 -2.5 -42t-11 -24.5t-24.5 -11t-42 -2.5h-20q-26 0 -42 2.5t-24.5 11t-11 24.5t-2.5 42v600q0 56 4 88t20 48t48 20t88 4h160q56 0 88 -4t48 -20t20 -48t4 -88v-140q0 -19 4 -31t10.5 -19.5t15.5 -11.5t20 -8q10 -4 19.5 -8.5
t16 -12t10.5 -19t4 -30.5v-320q0 -26 -2.5 -42t-11 -24.5t-24.5 -11t-42 -2.5h-20q-26 0 -42 2.5t-24.5 11t-11 24.5t-2.5 42v218zM120 540q0 -26 2.5 -42t11 -24.5t24.5 -11t42 -2.5h160q26 0 42 2.5t24.5 11t11 24.5t2.5 42v140q0 26 -2.5 42t-11 24.5t-24.5 11t-42 2.5
h-160q-26 0 -42 -2.5t-24.5 -11t-11 -24.5t-2.5 -42v-140z" />
    <glyph glyph-name="uni0157" unicode="&#x157;" horiz-adv-x="660" 
d="M292 -75q0 21 5.5 26.5t26.5 5.5h12q21 0 26.5 -5.5t5.5 -26.5v-46q0 -24 -17 -41.5t-43 -17.5q-14 0 -14 8q0 7 4.5 10.5t10 7t10 8.5t4.5 16q0 8 -2.5 10t-14.5 7q-11 4 -12.5 7t-1.5 15v16zM440 298q0 27 -2.5 43t-11 25t-24.5 11.5t-42 2.5h-60q-26 0 -42 -2.5
t-24.5 -11t-11 -24.5t-2.5 -42v-220q0 -26 -2.5 -42t-11 -24.5t-24.5 -11t-42 -2.5h-20q-26 0 -42 2.5t-24.5 11t-11 24.5t-2.5 42v600q0 56 4 88t20 48t48 20t88 4h160q56 0 88 -4t48 -20t20 -48t4 -88v-140q0 -19 4 -31t10.5 -19.5t15.5 -11.5t20 -8q10 -4 19.5 -8.5
t16 -12t10.5 -19t4 -30.5v-320q0 -26 -2.5 -42t-11 -24.5t-24.5 -11t-42 -2.5h-20q-26 0 -42 2.5t-24.5 11t-11 24.5t-2.5 42v218zM120 540q0 -26 2.5 -42t11 -24.5t24.5 -11t42 -2.5h160q26 0 42 2.5t24.5 11t11 24.5t2.5 42v140q0 26 -2.5 42t-11 24.5t-24.5 11t-42 2.5
h-160q-26 0 -42 -2.5t-24.5 -11t-11 -24.5t-2.5 -42v-140z" />
    <glyph glyph-name="Rcaron" unicode="&#x158;" horiz-adv-x="660" 
d="M440 298q0 27 -2.5 43t-11 25t-24.5 11.5t-42 2.5h-60q-26 0 -42 -2.5t-24.5 -11t-11 -24.5t-2.5 -42v-220q0 -26 -2.5 -42t-11 -24.5t-24.5 -11t-42 -2.5h-20q-26 0 -42 2.5t-24.5 11t-11 24.5t-2.5 42v600q0 56 4 88t20 48t48 20t88 4h160q56 0 88 -4t48 -20t20 -48
t4 -88v-140q0 -19 4 -31t10.5 -19.5t15.5 -11.5t20 -8q10 -4 19.5 -8.5t16 -12t10.5 -19t4 -30.5v-320q0 -26 -2.5 -42t-11 -24.5t-24.5 -11t-42 -2.5h-20q-26 0 -42 2.5t-24.5 11t-11 24.5t-2.5 42v218zM120 540q0 -26 2.5 -42t11 -24.5t24.5 -11t42 -2.5h160q26 0 42 2.5
t24.5 11t11 24.5t2.5 42v140q0 26 -2.5 42t-11 24.5t-24.5 11t-42 2.5h-160q-26 0 -42 -2.5t-24.5 -11t-11 -24.5t-2.5 -42v-140zM296 864q-16 -15 -31 0l-97 84q-14 11 -11 19.5t19 8.5h208q16 0 18.5 -8.5t-10.5 -19.5z" />
    <glyph glyph-name="rcaron" unicode="&#x159;" horiz-adv-x="660" 
d="M440 298q0 27 -2.5 43t-11 25t-24.5 11.5t-42 2.5h-60q-26 0 -42 -2.5t-24.5 -11t-11 -24.5t-2.5 -42v-220q0 -26 -2.5 -42t-11 -24.5t-24.5 -11t-42 -2.5h-20q-26 0 -42 2.5t-24.5 11t-11 24.5t-2.5 42v600q0 56 4 88t20 48t48 20t88 4h160q56 0 88 -4t48 -20t20 -48
t4 -88v-140q0 -19 4 -31t10.5 -19.5t15.5 -11.5t20 -8q10 -4 19.5 -8.5t16 -12t10.5 -19t4 -30.5v-320q0 -26 -2.5 -42t-11 -24.5t-24.5 -11t-42 -2.5h-20q-26 0 -42 2.5t-24.5 11t-11 24.5t-2.5 42v218zM120 540q0 -26 2.5 -42t11 -24.5t24.5 -11t42 -2.5h160q26 0 42 2.5
t24.5 11t11 24.5t2.5 42v140q0 26 -2.5 42t-11 24.5t-24.5 11t-42 2.5h-160q-26 0 -42 -2.5t-24.5 -11t-11 -24.5t-2.5 -42v-140zM296 864q-16 -15 -31 0l-97 84q-14 11 -11 19.5t19 8.5h208q16 0 18.5 -8.5t-10.5 -19.5z" />
    <glyph glyph-name="Sacute" unicode="&#x15a;" horiz-adv-x="541" 
d="M40 680q0 56 4 88t20 48t48 20t88 4h140q56 0 88 -4t48 -20t20 -48t4 -88v-40q0 -20 -3 -32t-8 -18t-12.5 -8t-16.5 -2t-16.5 1.5t-12.5 7.5t-8 18t-3 32v41q0 26 -2.5 42t-11 24.5t-24.5 11t-42 2.5h-140q-26 0 -42 -2.5t-24.5 -11t-11 -24.5t-2.5 -42v-140
q0 -26 2.5 -42t11 -24.5t24.5 -11t42 -2.5h140q56 0 88 -4t48 -20t20 -48t4 -89v-140q0 -56 -3.5 -88t-19.5 -47.5t-48.5 -19.5t-88.5 -4h-140q-56 0 -88 4t-48 20t-20 48t-4 88v20q0 26 2.5 42t11 24.5t24.5 11t42 2.5t42 -2.5t24.5 -11t11 -24.5t2.5 -42v-20
q0 -26 2.5 -42t11 -24.5t24.5 -11t42 -2.5h60q26 0 42 2.5t24.5 11t11 24t2.5 42.5v139q0 27 -2.5 43t-11 24.5t-24.5 11t-42 2.5h-140q-56 0 -88 4t-48 20t-20 48t-4 88v140zM335 990q13 0 22.5 -3t9.5 -14q0 -13 -15 -32l-26 -35q-12 -16 -20 -21t-31 -5h-6q-16 0 -21.5 7
t-5.5 27v42q0 20 9 27t26 7h58z" />
    <glyph glyph-name="sacute" unicode="&#x15b;" horiz-adv-x="541" 
d="M40 680q0 56 4 88t20 48t48 20t88 4h140q56 0 88 -4t48 -20t20 -48t4 -88v-40q0 -20 -3 -32t-8 -18t-12.5 -8t-16.5 -2t-16.5 1.5t-12.5 7.5t-8 18t-3 32v41q0 26 -2.5 42t-11 24.5t-24.5 11t-42 2.5h-140q-26 0 -42 -2.5t-24.5 -11t-11 -24.5t-2.5 -42v-140
q0 -26 2.5 -42t11 -24.5t24.5 -11t42 -2.5h140q56 0 88 -4t48 -20t20 -48t4 -89v-140q0 -56 -3.5 -88t-19.5 -47.5t-48.5 -19.5t-88.5 -4h-140q-56 0 -88 4t-48 20t-20 48t-4 88v20q0 26 2.5 42t11 24.5t24.5 11t42 2.5t42 -2.5t24.5 -11t11 -24.5t2.5 -42v-20
q0 -26 2.5 -42t11 -24.5t24.5 -11t42 -2.5h60q26 0 42 2.5t24.5 11t11 24t2.5 42.5v139q0 27 -2.5 43t-11 24.5t-24.5 11t-42 2.5h-140q-56 0 -88 4t-48 20t-20 48t-4 88v140zM335 990q13 0 22.5 -3t9.5 -14q0 -13 -15 -32l-26 -35q-12 -16 -20 -21t-31 -5h-6q-16 0 -21.5 7
t-5.5 27v42q0 20 9 27t26 7h58z" />
    <glyph glyph-name="Scircumflex" unicode="&#x15c;" horiz-adv-x="541" 
d="M40 680q0 56 4 88t20 48t48 20t88 4h140q56 0 88 -4t48 -20t20 -48t4 -88v-40q0 -20 -3 -32t-8 -18t-12.5 -8t-16.5 -2t-16.5 1.5t-12.5 7.5t-8 18t-3 32v41q0 26 -2.5 42t-11 24.5t-24.5 11t-42 2.5h-140q-26 0 -42 -2.5t-24.5 -11t-11 -24.5t-2.5 -42v-140
q0 -26 2.5 -42t11 -24.5t24.5 -11t42 -2.5h140q56 0 88 -4t48 -20t20 -48t4 -89v-140q0 -56 -3.5 -88t-19.5 -47.5t-48.5 -19.5t-88.5 -4h-140q-56 0 -88 4t-48 20t-20 48t-4 88v20q0 26 2.5 42t11 24.5t24.5 11t42 2.5t42 -2.5t24.5 -11t11 -24.5t2.5 -42v-20
q0 -26 2.5 -42t11 -24.5t24.5 -11t42 -2.5h60q26 0 42 2.5t24.5 11t11 24t2.5 42.5v139q0 27 -2.5 43t-11 24.5t-24.5 11t-42 2.5h-140q-56 0 -88 4t-48 20t-20 48t-4 88v140zM255 987q16 15 31 0l97 -84q14 -11 11 -19.5t-19 -8.5h-208q-16 0 -18.5 8.5t10.5 19.5z" />
    <glyph glyph-name="scircumflex" unicode="&#x15d;" horiz-adv-x="541" 
d="M40 680q0 56 4 88t20 48t48 20t88 4h140q56 0 88 -4t48 -20t20 -48t4 -88v-40q0 -20 -3 -32t-8 -18t-12.5 -8t-16.5 -2t-16.5 1.5t-12.5 7.5t-8 18t-3 32v41q0 26 -2.5 42t-11 24.5t-24.5 11t-42 2.5h-140q-26 0 -42 -2.5t-24.5 -11t-11 -24.5t-2.5 -42v-140
q0 -26 2.5 -42t11 -24.5t24.5 -11t42 -2.5h140q56 0 88 -4t48 -20t20 -48t4 -89v-140q0 -56 -3.5 -88t-19.5 -47.5t-48.5 -19.5t-88.5 -4h-140q-56 0 -88 4t-48 20t-20 48t-4 88v20q0 26 2.5 42t11 24.5t24.5 11t42 2.5t42 -2.5t24.5 -11t11 -24.5t2.5 -42v-20
q0 -26 2.5 -42t11 -24.5t24.5 -11t42 -2.5h60q26 0 42 2.5t24.5 11t11 24t2.5 42.5v139q0 27 -2.5 43t-11 24.5t-24.5 11t-42 2.5h-140q-56 0 -88 4t-48 20t-20 48t-4 88v140zM255 987q16 15 31 0l97 -84q14 -11 11 -19.5t-19 -8.5h-208q-16 0 -18.5 8.5t10.5 19.5z" />
    <glyph glyph-name="Scedilla" unicode="&#x15e;" horiz-adv-x="541" 
d="M40 680q0 56 4 88t20 48t48 20t88 4h140q56 0 88 -4t48 -20t20 -48t4 -88v-40q0 -20 -3 -32t-8 -18t-12.5 -8t-16.5 -2t-16.5 1.5t-12.5 7.5t-8 18t-3 32v41q0 26 -2.5 42t-11 24.5t-24.5 11t-42 2.5h-140q-26 0 -42 -2.5t-24.5 -11t-11 -24.5t-2.5 -42v-140
q0 -26 2.5 -42t11 -24.5t24.5 -11t42 -2.5h140q56 0 88 -4t48 -20t20 -48t4 -89v-140q0 -56 -3.5 -88t-19.5 -47.5t-48.5 -19.5t-88.5 -4h-60q1 -20 8.5 -25t31.5 -5q28 0 44 -2t24 -9t10 -21t2 -39q0 -28 -2 -42t-10 -20t-24 -6.5t-44 -0.5h-40q-28 0 -44 1.5t-23.5 7.5
t-9 18t-1.5 33q0 19 6 24.5t33 5.5t33 -6t6 -26q0 -11 7 -15.5t33 -4.5t33 5.5t7 25.5t-7 25.5t-33 5.5q-27 0 -43 2t-24 9t-10.5 21t-2.5 38h-40q-56 0 -88 4t-48 20t-20 48t-4 88v20q0 26 2.5 42t11 24.5t24.5 11t42 2.5t42 -2.5t24.5 -11t11 -24.5t2.5 -42v-24
q0 -26 2.5 -42t11 -24.5t24.5 -11t42 -2.5h60q26 0 42 2.5t24.5 11t11 24.5t2.5 43v142q0 27 -2.5 43t-11 24.5t-24.5 11t-42 2.5h-140q-56 0 -88 4t-48 20t-20 48t-4 88v140z" />
    <glyph glyph-name="scedilla" unicode="&#x15f;" horiz-adv-x="541" 
d="M40 680q0 56 4 88t20 48t48 20t88 4h140q56 0 88 -4t48 -20t20 -48t4 -88v-40q0 -20 -3 -32t-8 -18t-12.5 -8t-16.5 -2t-16.5 1.5t-12.5 7.5t-8 18t-3 32v41q0 26 -2.5 42t-11 24.5t-24.5 11t-42 2.5h-140q-26 0 -42 -2.5t-24.5 -11t-11 -24.5t-2.5 -42v-140
q0 -26 2.5 -42t11 -24.5t24.5 -11t42 -2.5h140q56 0 88 -4t48 -20t20 -48t4 -89v-140q0 -56 -3.5 -88t-19.5 -47.5t-48.5 -19.5t-88.5 -4h-60q1 -20 8.5 -25t31.5 -5q28 0 44 -2t24 -9t10 -21t2 -39q0 -28 -2 -42t-10 -20t-24 -6.5t-44 -0.5h-40q-28 0 -44 1.5t-23.5 7.5
t-9 18t-1.5 33q0 19 6 24.5t33 5.5t33 -6t6 -26q0 -11 7 -15.5t33 -4.5t33 5.5t7 25.5t-7 25.5t-33 5.5q-27 0 -43 2t-24 9t-10.5 21t-2.5 38h-40q-56 0 -88 4t-48 20t-20 48t-4 88v20q0 26 2.5 42t11 24.5t24.5 11t42 2.5t42 -2.5t24.5 -11t11 -24.5t2.5 -42v-24
q0 -26 2.5 -42t11 -24.5t24.5 -11t42 -2.5h60q26 0 42 2.5t24.5 11t11 24.5t2.5 43v142q0 27 -2.5 43t-11 24.5t-24.5 11t-42 2.5h-140q-56 0 -88 4t-48 20t-20 48t-4 88v140z" />
    <glyph glyph-name="Scaron" unicode="&#x160;" horiz-adv-x="541" 
d="M40 680q0 56 4 88t20 48t48 20t88 4h140q56 0 88 -4t48 -20t20 -48t4 -88v-40q0 -20 -3 -32t-8 -18t-12.5 -8t-16.5 -2t-16.5 1.5t-12.5 7.5t-8 18t-3 32v41q0 26 -2.5 42t-11 24.5t-24.5 11t-42 2.5h-140q-26 0 -42 -2.5t-24.5 -11t-11 -24.5t-2.5 -42v-140
q0 -26 2.5 -42t11 -24.5t24.5 -11t42 -2.5h140q56 0 88 -4t48 -20t20 -48t4 -89v-140q0 -56 -3.5 -88t-19.5 -47.5t-48.5 -19.5t-88.5 -4h-140q-56 0 -88 4t-48 20t-20 48t-4 88v20q0 26 2.5 42t11 24.5t24.5 11t42 2.5t42 -2.5t24.5 -11t11 -24.5t2.5 -42v-20
q0 -26 2.5 -42t11 -24.5t24.5 -11t42 -2.5h60q26 0 42 2.5t24.5 11t11 24t2.5 42.5v139q0 27 -2.5 43t-11 24.5t-24.5 11t-42 2.5h-140q-56 0 -88 4t-48 20t-20 48t-4 88v140zM286 864q-16 -15 -31 0l-97 84q-14 11 -11 19.5t19 8.5h208q16 0 18.5 -8.5t-10.5 -19.5z" />
    <glyph glyph-name="scaron" unicode="&#x161;" horiz-adv-x="541" 
d="M40 680q0 56 4 88t20 48t48 20t88 4h140q56 0 88 -4t48 -20t20 -48t4 -88v-40q0 -20 -3 -32t-8 -18t-12.5 -8t-16.5 -2t-16.5 1.5t-12.5 7.5t-8 18t-3 32v41q0 26 -2.5 42t-11 24.5t-24.5 11t-42 2.5h-140q-26 0 -42 -2.5t-24.5 -11t-11 -24.5t-2.5 -42v-140
q0 -26 2.5 -42t11 -24.5t24.5 -11t42 -2.5h140q56 0 88 -4t48 -20t20 -48t4 -89v-140q0 -56 -3.5 -88t-19.5 -47.5t-48.5 -19.5t-88.5 -4h-140q-56 0 -88 4t-48 20t-20 48t-4 88v20q0 26 2.5 42t11 24.5t24.5 11t42 2.5t42 -2.5t24.5 -11t11 -24.5t2.5 -42v-20
q0 -26 2.5 -42t11 -24.5t24.5 -11t42 -2.5h60q26 0 42 2.5t24.5 11t11 24t2.5 42.5v139q0 27 -2.5 43t-11 24.5t-24.5 11t-42 2.5h-140q-56 0 -88 4t-48 20t-20 48t-4 88v140zM286 864q-16 -15 -31 0l-97 84q-14 11 -11 19.5t19 8.5h208q16 0 18.5 -8.5t-10.5 -19.5z" />
    <glyph glyph-name="uni0162" unicode="&#x162;" 
d="M282 -65q0 21 5.5 26.5t26.5 5.5h12q21 0 26.5 -5.5t5.5 -26.5v-46q0 -24 -17 -41.5t-43 -17.5q-14 0 -14 8q0 7 4.5 10.5t10 7t10 8.5t4.5 16q0 8 -2.5 10t-14.5 7q-11 4 -12.5 7t-1.5 15v16zM30 799q0 23 11 32t49 9h440q38 0 49 -9t11 -32q0 -22 -11 -30.5t-49 -8.5
h-40q-26 0 -42 -2.5t-24.5 -11t-11 -24.5t-2.5 -42v-600q0 -26 -2.5 -42t-11.5 -24.5t-26.5 -11t-47.5 -2.5q-31 0 -49 2.5t-27.5 11t-12.5 24.5t-3 42v600q0 26 -2.5 42t-11 24.5t-24.5 11t-42 2.5h-60q-38 0 -49 8.5t-11 30.5z" />
    <glyph glyph-name="uni0163" unicode="&#x163;" 
d="M282 -65q0 21 5.5 26.5t26.5 5.5h12q21 0 26.5 -5.5t5.5 -26.5v-46q0 -24 -17 -41.5t-43 -17.5q-14 0 -14 8q0 7 4.5 10.5t10 7t10 8.5t4.5 16q0 8 -2.5 10t-14.5 7q-11 4 -12.5 7t-1.5 15v16zM30 799q0 23 11 32t49 9h440q38 0 49 -9t11 -32q0 -22 -11 -30.5t-49 -8.5
h-40q-26 0 -42 -2.5t-24.5 -11t-11 -24.5t-2.5 -42v-600q0 -26 -2.5 -42t-11.5 -24.5t-26.5 -11t-47.5 -2.5q-31 0 -49 2.5t-27.5 11t-12.5 24.5t-3 42v600q0 26 -2.5 42t-11 24.5t-24.5 11t-42 2.5h-60q-38 0 -49 8.5t-11 30.5z" />
    <glyph glyph-name="Tcaron" unicode="&#x164;" 
d="M30 799q0 23 11 32t49 9h440q38 0 49 -9t11 -32q0 -22 -11 -30.5t-49 -8.5h-40q-26 0 -42 -2.5t-24.5 -11t-11 -24.5t-2.5 -42v-600q0 -26 -2.5 -42t-11.5 -24.5t-26.5 -11t-47.5 -2.5q-31 0 -49 2.5t-27.5 11t-12.5 24.5t-3 42v600q0 26 -2.5 42t-11 24.5t-24.5 11
t-42 2.5h-60q-38 0 -49 8.5t-11 30.5zM336 864q-16 -15 -31 0l-97 84q-14 11 -11 19.5t19 8.5h208q16 0 18.5 -8.5t-10.5 -19.5z" />
    <glyph glyph-name="tcaron" unicode="&#x165;" 
d="M30 799q0 23 11 32t49 9h440q38 0 49 -9t11 -32q0 -22 -11 -30.5t-49 -8.5h-40q-26 0 -42 -2.5t-24.5 -11t-11 -24.5t-2.5 -42v-600q0 -26 -2.5 -42t-11.5 -24.5t-26.5 -11t-47.5 -2.5q-31 0 -49 2.5t-27.5 11t-12.5 24.5t-3 42v600q0 26 -2.5 42t-11 24.5t-24.5 11
t-42 2.5h-60q-38 0 -49 8.5t-11 30.5zM336 864q-16 -15 -31 0l-97 84q-14 11 -11 19.5t19 8.5h208q16 0 18.5 -8.5t-10.5 -19.5z" />
    <glyph glyph-name="Tbar" unicode="&#x166;" 
d="M100 600q0 23 11 31.5t49 8.5h70v40q0 26 -2.5 42t-11 24.5t-24.5 11t-42 2.5h-60q-38 0 -49 8.5t-11 30.5q0 23 11 32t49 9h440q38 0 49 -9t11 -32q0 -22 -11 -30.5t-49 -8.5h-40q-26 0 -42 -2.5t-24.5 -11t-11 -24.5t-2.5 -42v-40h70q38 0 49 -8.5t11 -31.5t-11 -31.5
t-49 -8.5h-70v-480q0 -26 -2.5 -42t-11.5 -24.5t-26.5 -11t-47.5 -2.5q-31 0 -49 2.5t-27.5 11t-12.5 24.5t-3 42v480h-70q-38 0 -49 8.5t-11 31.5z" />
    <glyph glyph-name="tbar" unicode="&#x167;" 
d="M100 600q0 23 11 31.5t49 8.5h70v40q0 26 -2.5 42t-11 24.5t-24.5 11t-42 2.5h-60q-38 0 -49 8.5t-11 30.5q0 23 11 32t49 9h440q38 0 49 -9t11 -32q0 -22 -11 -30.5t-49 -8.5h-40q-26 0 -42 -2.5t-24.5 -11t-11 -24.5t-2.5 -42v-40h70q38 0 49 -8.5t11 -31.5t-11 -31.5
t-49 -8.5h-70v-480q0 -26 -2.5 -42t-11.5 -24.5t-26.5 -11t-47.5 -2.5q-31 0 -49 2.5t-27.5 11t-12.5 24.5t-3 42v480h-70q-38 0 -49 8.5t-11 31.5z" />
    <glyph glyph-name="Utilde" unicode="&#x168;" horiz-adv-x="560" 
d="M40 780q0 38 8.5 49t31.5 11t31.5 -11t8.5 -49v-620q0 -27 2.5 -42.5t11 -24t24.5 -11t42 -2.5h60q26 0 42 2.5t24.5 11t11 24t2.5 42.5v600q0 26 2.5 42t11 24.5t24.5 11t42 2.5h20q26 0 42 -2.5t24.5 -11t11 -24.5t2.5 -42v-600q0 -56 -4 -88t-20 -48t-48 -20t-88 -4
h-160q-56 0 -88 4t-48 20t-20 48t-4 88v620zM101 920q0 30 4.5 48t16.5 27t33.5 12t55.5 3q30 0 47.5 -6t27.5 -15t15.5 -19t11 -19t14 -15t24.5 -6q23 0 31.5 7.5t8.5 22.5q0 27 5 36t30 9t30 -9t5 -36q0 -30 -4.5 -48t-16.5 -27t-33.5 -12t-55.5 -3q-30 0 -47 6t-27.5 15
t-16 19t-11 19t-13.5 15t-24 6q-23 0 -32 -7.5t-9 -22.5q0 -27 -5 -36t-30 -9t-30 9t-5 36z" />
    <glyph glyph-name="utilde" unicode="&#x169;" horiz-adv-x="560" 
d="M40 780q0 38 8.5 49t31.5 11t31.5 -11t8.5 -49v-620q0 -27 2.5 -42.5t11 -24t24.5 -11t42 -2.5h60q26 0 42 2.5t24.5 11t11 24t2.5 42.5v600q0 26 2.5 42t11 24.5t24.5 11t42 2.5h20q26 0 42 -2.5t24.5 -11t11 -24.5t2.5 -42v-600q0 -56 -4 -88t-20 -48t-48 -20t-88 -4
h-160q-56 0 -88 4t-48 20t-20 48t-4 88v620zM101 920q0 30 4.5 48t16.5 27t33.5 12t55.5 3q30 0 47.5 -6t27.5 -15t15.5 -19t11 -19t14 -15t24.5 -6q23 0 31.5 7.5t8.5 22.5q0 27 5 36t30 9t30 -9t5 -36q0 -30 -4.5 -48t-16.5 -27t-33.5 -12t-55.5 -3q-30 0 -47 6t-27.5 15
t-16 19t-11 19t-13.5 15t-24 6q-23 0 -32 -7.5t-9 -22.5q0 -27 -5 -36t-30 -9t-30 9t-5 36z" />
    <glyph glyph-name="Umacron" unicode="&#x16a;" horiz-adv-x="560" 
d="M40 780q0 38 8.5 49t31.5 11t31.5 -11t8.5 -49v-620q0 -27 2.5 -42.5t11 -24t24.5 -11t42 -2.5h60q26 0 42 2.5t24.5 11t11 24t2.5 42.5v600q0 26 2.5 42t11 24.5t24.5 11t42 2.5h20q26 0 42 -2.5t24.5 -11t11 -24.5t2.5 -42v-600q0 -56 -4 -88t-20 -48t-48 -20t-88 -4
h-160q-56 0 -88 4t-48 20t-20 48t-4 88v620zM71 920q0 23 11 31.5t49 8.5h300q38 0 49 -8.5t11 -31.5t-11 -31.5t-49 -8.5h-300q-38 0 -49 8.5t-11 31.5z" />
    <glyph glyph-name="umacron" unicode="&#x16b;" horiz-adv-x="560" 
d="M40 780q0 38 8.5 49t31.5 11t31.5 -11t8.5 -49v-620q0 -27 2.5 -42.5t11 -24t24.5 -11t42 -2.5h60q26 0 42 2.5t24.5 11t11 24t2.5 42.5v600q0 26 2.5 42t11 24.5t24.5 11t42 2.5h20q26 0 42 -2.5t24.5 -11t11 -24.5t2.5 -42v-600q0 -56 -4 -88t-20 -48t-48 -20t-88 -4
h-160q-56 0 -88 4t-48 20t-20 48t-4 88v620zM71 920q0 23 11 31.5t49 8.5h300q38 0 49 -8.5t11 -31.5t-11 -31.5t-49 -8.5h-300q-38 0 -49 8.5t-11 31.5z" />
    <glyph glyph-name="Ubreve" unicode="&#x16c;" horiz-adv-x="560" 
d="M40 780q0 38 8.5 49t31.5 11t31.5 -11t8.5 -49v-620q0 -27 2.5 -42.5t11 -24t24.5 -11t42 -2.5h60q26 0 42 2.5t24.5 11t11 24t2.5 42.5v600q0 26 2.5 42t11 24.5t24.5 11t42 2.5h20q26 0 42 -2.5t24.5 -11t11 -24.5t2.5 -42v-600q0 -56 -4 -88t-20 -48t-48 -20t-88 -4
h-160q-56 0 -88 4t-48 20t-20 48t-4 88v620zM361 926q-17 -29 -42.5 -42.5t-54.5 -13.5t-55.5 13.5t-44.5 42.5l-14 22q-4 5 -4 12q0 16 22 16h188q21 0 21 -16q0 -6 -3 -12z" />
    <glyph glyph-name="ubreve" unicode="&#x16d;" horiz-adv-x="560" 
d="M40 780q0 38 8.5 49t31.5 11t31.5 -11t8.5 -49v-620q0 -27 2.5 -42.5t11 -24t24.5 -11t42 -2.5h60q26 0 42 2.5t24.5 11t11 24t2.5 42.5v600q0 26 2.5 42t11 24.5t24.5 11t42 2.5h20q26 0 42 -2.5t24.5 -11t11 -24.5t2.5 -42v-600q0 -56 -4 -88t-20 -48t-48 -20t-88 -4
h-160q-56 0 -88 4t-48 20t-20 48t-4 88v620zM361 926q-17 -29 -42.5 -42.5t-54.5 -13.5t-55.5 13.5t-44.5 42.5l-14 22q-4 5 -4 12q0 16 22 16h188q21 0 21 -16q0 -6 -3 -12z" />
    <glyph glyph-name="Uring" unicode="&#x16e;" horiz-adv-x="560" 
d="M40 780q0 38 8.5 49t31.5 11t31.5 -11t8.5 -49v-620q0 -27 2.5 -42.5t11 -24t24.5 -11t42 -2.5h60q26 0 42 2.5t24.5 11t11 24t2.5 42.5v600q0 26 2.5 42t11 24.5t24.5 11t42 2.5h20q26 0 42 -2.5t24.5 -11t11 -24.5t2.5 -42v-600q0 -56 -4 -88t-20 -48t-48 -20t-88 -4
h-160q-56 0 -88 4t-48 20t-20 48t-4 88v620zM181 940q0 26 2.5 42t11 24.5t24.5 11t42 2.5t42 -2.5t24.5 -11t11 -24.5t2.5 -42t-2.5 -42t-11 -24.5t-24.5 -11t-42 -2.5t-42 2.5t-24.5 11t-11 24.5t-2.5 42zM225 940q0 -23 6.5 -29.5t29.5 -6.5t29.5 6.5t6.5 29.5t-6.5 29.5
t-29.5 6.5t-29.5 -6.5t-6.5 -29.5z" />
    <glyph glyph-name="uring" unicode="&#x16f;" horiz-adv-x="560" 
d="M40 780q0 38 8.5 49t31.5 11t31.5 -11t8.5 -49v-620q0 -27 2.5 -42.5t11 -24t24.5 -11t42 -2.5h60q26 0 42 2.5t24.5 11t11 24t2.5 42.5v600q0 26 2.5 42t11 24.5t24.5 11t42 2.5h20q26 0 42 -2.5t24.5 -11t11 -24.5t2.5 -42v-600q0 -56 -4 -88t-20 -48t-48 -20t-88 -4
h-160q-56 0 -88 4t-48 20t-20 48t-4 88v620zM181 940q0 26 2.5 42t11 24.5t24.5 11t42 2.5t42 -2.5t24.5 -11t11 -24.5t2.5 -42t-2.5 -42t-11 -24.5t-24.5 -11t-42 -2.5t-42 2.5t-24.5 11t-11 24.5t-2.5 42zM225 940q0 -23 6.5 -29.5t29.5 -6.5t29.5 6.5t6.5 29.5t-6.5 29.5
t-29.5 6.5t-29.5 -6.5t-6.5 -29.5z" />
    <glyph glyph-name="Uhungarumlaut" unicode="&#x170;" horiz-adv-x="560" 
d="M40 780q0 38 8.5 49t31.5 11t31.5 -11t8.5 -49v-620q0 -27 2.5 -42.5t11 -24t24.5 -11t42 -2.5h60q26 0 42 2.5t24.5 11t11 24t2.5 42.5v600q0 26 2.5 42t11 24.5t24.5 11t42 2.5h20q26 0 42 -2.5t24.5 -11t11 -24.5t2.5 -42v-600q0 -56 -4 -88t-20 -48t-48 -20t-88 -4
h-160q-56 0 -88 4t-48 20t-20 48t-4 88v620zM211 989q6 0 12.5 -1t10 -6t3 -14.5t-8.5 -27.5l-16 -35q-8 -18 -15.5 -22t-25.5 -4h-16q-16 0 -21.5 7t-5.5 27v42q0 20 9 27t26 7h48zM396 989q6 0 12.5 -1t10 -6t3 -14.5t-8.5 -27.5l-16 -35q-8 -18 -15.5 -22t-25.5 -4h-16
q-16 0 -21.5 7t-5.5 27v42q0 20 9 27t26 7h48z" />
    <glyph glyph-name="uhungarumlaut" unicode="&#x171;" horiz-adv-x="560" 
d="M40 780q0 38 8.5 49t31.5 11t31.5 -11t8.5 -49v-620q0 -27 2.5 -42.5t11 -24t24.5 -11t42 -2.5h60q26 0 42 2.5t24.5 11t11 24t2.5 42.5v600q0 26 2.5 42t11 24.5t24.5 11t42 2.5h20q26 0 42 -2.5t24.5 -11t11 -24.5t2.5 -42v-600q0 -56 -4 -88t-20 -48t-48 -20t-88 -4
h-160q-56 0 -88 4t-48 20t-20 48t-4 88v620zM211 989q6 0 12.5 -1t10 -6t3 -14.5t-8.5 -27.5l-16 -35q-8 -18 -15.5 -22t-25.5 -4h-16q-16 0 -21.5 7t-5.5 27v42q0 20 9 27t26 7h48zM396 989q6 0 12.5 -1t10 -6t3 -14.5t-8.5 -27.5l-16 -35q-8 -18 -15.5 -22t-25.5 -4h-16
q-16 0 -21.5 7t-5.5 27v42q0 20 9 27t26 7h48z" />
    <glyph glyph-name="Uogonek" unicode="&#x172;" horiz-adv-x="560" 
d="M40 780q0 38 8.5 49t31.5 11t31.5 -11t8.5 -49v-620q0 -27 2.5 -43t11 -24.5t24.5 -11t42 -2.5l60 1q26 0 42 2.5t24.5 11t11 24t2.5 42.5v600q0 26 2.5 42t11 24.5t24.5 11t42 2.5h20q26 0 42 -2.5t24.5 -11t11 -24.5t2.5 -42v-600q0 -56 -4 -88t-20 -48t-48 -20t-88 -4
q-27 0 -33.5 -6.5t-6.5 -24.5q0 -20 7 -25.5t33 -5.5t33 4.5t7 15.5q0 20 6 26t33 6t33 -5.5t6 -24.5q0 -21 -1.5 -33t-9 -18t-23.5 -7.5t-44 -1.5h-40q-28 0 -44 0.5t-24 6.5t-10 20t-2 42v17.5t1 13.5h-81q-56 0 -88 4t-48 20t-20 48t-4 88v620z" />
    <glyph glyph-name="uogonek" unicode="&#x173;" horiz-adv-x="560" 
d="M40 780q0 38 8.5 49t31.5 11t31.5 -11t8.5 -49v-620q0 -27 2.5 -43t11 -24.5t24.5 -11t42 -2.5l60 1q26 0 42 2.5t24.5 11t11 24t2.5 42.5v600q0 26 2.5 42t11 24.5t24.5 11t42 2.5h20q26 0 42 -2.5t24.5 -11t11 -24.5t2.5 -42v-600q0 -56 -4 -88t-20 -48t-48 -20t-88 -4
q-27 0 -33.5 -6.5t-6.5 -24.5q0 -20 7 -25.5t33 -5.5t33 4.5t7 15.5q0 20 6 26t33 6t33 -5.5t6 -24.5q0 -21 -1.5 -33t-9 -18t-23.5 -7.5t-44 -1.5h-40q-28 0 -44 0.5t-24 6.5t-10 20t-2 42v17.5t1 13.5h-81q-56 0 -88 4t-48 20t-20 48t-4 88v620z" />
    <glyph glyph-name="Wcircumflex" unicode="&#x174;" horiz-adv-x="730" 
d="M255 80q-8 -28 -15.5 -44t-17 -24t-24 -10t-36.5 -2h-42q-26 0 -42 2.5t-24.5 11t-11 24.5t-2.5 42v680q0 26 2.5 42t11 24.5t24.5 11t42 2.5h20q26 0 42 -2.5t24.5 -11t11 -24.5t2.5 -42v-460q0 -24 9 -24q5 0 8 4t7 18l46 154q8 29 22 42t30 13q14 0 28 -11t24 -32
l165 -355q13 -27 30 -27q9 0 15 9t6 29v660q0 38 8.5 49t31.5 11t31.5 -11t8.5 -49v-700q0 -26 -2.5 -42t-11 -24.5t-24.5 -11t-42 -2.5h-34q-21 0 -32.5 1.5t-19 7.5t-14 17.5t-15.5 32.5l-140 301q-5 8 -10 8t-8 -9zM255 80q-8 -28 -15.5 -44t-17 -24t-24 -10t-36.5 -2
h-42q-26 0 -42 2.5t-24.5 11t-11 24.5t-2.5 42v680q0 26 2.5 42t11 24.5t24.5 11t42 2.5h20q26 0 42 -2.5t24.5 -11t11 -24.5t2.5 -42v-460q0 -24 9 -24q5 0 8 4t7 18l46 154q8 29 22 42t30 13q14 0 28 -11t24 -32l165 -355q13 -27 30 -27q9 0 15 9t6 29v660q0 38 8.5 49
t31.5 11t31.5 -11t8.5 -49v-700q0 -26 -2.5 -42t-11 -24.5t-24.5 -11t-42 -2.5h-34q-21 0 -32.5 1.5t-19 7.5t-14 17.5t-15.5 32.5l-140 301q-5 8 -10 8t-8 -9zM378 987q16 15 31 0l97 -84q14 -11 11 -19.5t-19 -8.5h-208q-16 0 -18.5 8.5t10.5 19.5z" />
    <glyph glyph-name="wcircumflex" unicode="&#x175;" horiz-adv-x="730" 
d="M255 80q-8 -28 -15.5 -44t-17 -24t-24 -10t-36.5 -2h-42q-26 0 -42 2.5t-24.5 11t-11 24.5t-2.5 42v680q0 26 2.5 42t11 24.5t24.5 11t42 2.5h20q26 0 42 -2.5t24.5 -11t11 -24.5t2.5 -42v-460q0 -24 9 -24q5 0 8 4t7 18l46 154q8 29 22 42t30 13q14 0 28 -11t24 -32
l165 -355q13 -27 30 -27q9 0 15 9t6 29v660q0 38 8.5 49t31.5 11t31.5 -11t8.5 -49v-700q0 -26 -2.5 -42t-11 -24.5t-24.5 -11t-42 -2.5h-34q-21 0 -32.5 1.5t-19 7.5t-14 17.5t-15.5 32.5l-140 301q-5 8 -10 8t-8 -9zM255 80q-8 -28 -15.5 -44t-17 -24t-24 -10t-36.5 -2
h-42q-26 0 -42 2.5t-24.5 11t-11 24.5t-2.5 42v680q0 26 2.5 42t11 24.5t24.5 11t42 2.5h20q26 0 42 -2.5t24.5 -11t11 -24.5t2.5 -42v-460q0 -24 9 -24q5 0 8 4t7 18l46 154q8 29 22 42t30 13q14 0 28 -11t24 -32l165 -355q13 -27 30 -27q9 0 15 9t6 29v660q0 38 8.5 49
t31.5 11t31.5 -11t8.5 -49v-700q0 -26 -2.5 -42t-11 -24.5t-24.5 -11t-42 -2.5h-34q-21 0 -32.5 1.5t-19 7.5t-14 17.5t-15.5 32.5l-140 301q-5 8 -10 8t-8 -9zM378 987q16 15 31 0l97 -84q14 -11 11 -19.5t-19 -8.5h-208q-16 0 -18.5 8.5t10.5 19.5z" />
    <glyph glyph-name="Ycircumflex" unicode="&#x176;" horiz-adv-x="544" 
d="M504 523q0 -15 -1.5 -25t-5.5 -18t-12.5 -16.5t-21.5 -18.5l-59 -44q-23 -17 -32 -37.5t-10 -44.5v-239q0 -26 -2.5 -42t-11 -24.5t-24.5 -11t-42 -2.5h-20q-26 0 -42 2.5t-24.5 11t-11 24.5t-2.5 42v234q0 26 -9.5 48t-32.5 39l-59 44q-14 10 -22 18.5t-12 16.5t-5.5 18
t-1.5 25v257q0 38 8.5 49t31.5 11t31.5 -11t8.5 -49v-209q0 -35 4 -49.5t15 -23.5l73 -58q18 -14 31.5 -19.5t28.5 -5.5t28.5 5.5t31.5 19.5l73 58q11 9 15 23.5t4 49.5v209q0 38 8.5 49t31.5 11t31.5 -11t8.5 -49v-257zM257 987q16 15 31 0l97 -84q14 -11 11 -19.5
t-19 -8.5h-208q-16 0 -18.5 8.5t10.5 19.5z" />
    <glyph glyph-name="ycircumflex" unicode="&#x177;" horiz-adv-x="544" 
d="M504 523q0 -15 -1.5 -25t-5.5 -18t-12.5 -16.5t-21.5 -18.5l-59 -44q-23 -17 -32 -37.5t-10 -44.5v-239q0 -26 -2.5 -42t-11 -24.5t-24.5 -11t-42 -2.5h-20q-26 0 -42 2.5t-24.5 11t-11 24.5t-2.5 42v234q0 26 -9.5 48t-32.5 39l-59 44q-14 10 -22 18.5t-12 16.5t-5.5 18
t-1.5 25v257q0 38 8.5 49t31.5 11t31.5 -11t8.5 -49v-209q0 -35 4 -49.5t15 -23.5l73 -58q18 -14 31.5 -19.5t28.5 -5.5t28.5 5.5t31.5 19.5l73 58q11 9 15 23.5t4 49.5v209q0 38 8.5 49t31.5 11t31.5 -11t8.5 -49v-257zM257 987q16 15 31 0l97 -84q14 -11 11 -19.5
t-19 -8.5h-208q-16 0 -18.5 8.5t10.5 19.5z" />
    <glyph glyph-name="Ydieresis" unicode="&#x178;" horiz-adv-x="544" 
d="M504 523q0 -15 -1.5 -25t-5.5 -18t-12.5 -16.5t-21.5 -18.5l-59 -44q-23 -17 -32 -37.5t-10 -44.5v-239q0 -26 -2.5 -42t-11 -24.5t-24.5 -11t-42 -2.5h-20q-26 0 -42 2.5t-24.5 11t-11 24.5t-2.5 42v234q0 26 -9.5 48t-32.5 39l-59 44q-14 10 -22 18.5t-12 16.5t-5.5 18
t-1.5 25v257q0 38 8.5 49t31.5 11t31.5 -11t8.5 -49v-209q0 -35 4 -49.5t15 -23.5l73 -58q18 -14 31.5 -19.5t28.5 -5.5t28.5 5.5t31.5 19.5l73 58q11 9 15 23.5t4 49.5v209q0 38 8.5 49t31.5 11t31.5 -11t8.5 -49v-257zM132 937q0 16 1.5 25.5t6.5 14.5t14.5 6.5t25.5 1.5
h8q31 0 39.5 -8.5t8.5 -39.5v-38q0 -16 -1.5 -25.5t-6.5 -14.5t-14.5 -6.5t-25.5 -1.5h-8q-16 0 -25.5 1.5t-14.5 6.5t-6.5 14.5t-1.5 25.5v38zM307 937q0 16 1.5 25.5t6.5 14.5t14.5 6.5t25.5 1.5h8q31 0 39.5 -8.5t8.5 -39.5v-38q0 -16 -1.5 -25.5t-6.5 -14.5t-14.5 -6.5
t-25.5 -1.5h-8q-16 0 -25.5 1.5t-14.5 6.5t-6.5 14.5t-1.5 25.5v38z" />
    <glyph glyph-name="Zacute" unicode="&#x179;" horiz-adv-x="598" 
d="M48 680q0 56 4 88t20 48t48 20t88 4h265q28 0 42 -6.5t17.5 -18t-0.5 -26t-13 -29.5l-350 -640q-12 -21 -10 -30.5t28 -9.5h111q26 0 42 2.5t24.5 11t11 24.5t2.5 42v40q0 26 2.5 42t11 24.5t24.5 11t42 2.5h20q26 0 42 -2.5t24.5 -11t11 -24.5t2.5 -42v-120
q0 -26 -2.5 -42t-11 -24.5t-24.5 -11t-42 -2.5h-375q-28 0 -42 6.5t-18 18t0 26t13 29.5l351 640q12 21 10 30.5t-28 9.5h-181q-26 0 -42 -2.5t-24.5 -11t-11 -24.5t-2.5 -42v-50q0 -38 -8.5 -49t-31.5 -11t-31.5 11t-8.5 49v50zM362 990q13 0 22.5 -3t9.5 -14
q0 -13 -15 -32l-26 -35q-12 -16 -20 -21t-31 -5h-6q-16 0 -21.5 7t-5.5 27v42q0 20 9 27t26 7h58z" />
    <glyph glyph-name="zacute" unicode="&#x17a;" horiz-adv-x="598" 
d="M48 680q0 56 4 88t20 48t48 20t88 4h265q28 0 42 -6.5t17.5 -18t-0.5 -26t-13 -29.5l-350 -640q-12 -21 -10 -30.5t28 -9.5h111q26 0 42 2.5t24.5 11t11 24.5t2.5 42v40q0 26 2.5 42t11 24.5t24.5 11t42 2.5h20q26 0 42 -2.5t24.5 -11t11 -24.5t2.5 -42v-120
q0 -26 -2.5 -42t-11 -24.5t-24.5 -11t-42 -2.5h-375q-28 0 -42 6.5t-18 18t0 26t13 29.5l351 640q12 21 10 30.5t-28 9.5h-181q-26 0 -42 -2.5t-24.5 -11t-11 -24.5t-2.5 -42v-50q0 -38 -8.5 -49t-31.5 -11t-31.5 11t-8.5 49v50zM362 990q13 0 22.5 -3t9.5 -14
q0 -13 -15 -32l-26 -35q-12 -16 -20 -21t-31 -5h-6q-16 0 -21.5 7t-5.5 27v42q0 20 9 27t26 7h58z" />
    <glyph glyph-name="Zdotaccent" unicode="&#x17b;" horiz-adv-x="598" 
d="M48 680q0 56 4 88t20 48t48 20t88 4h265q28 0 42 -6.5t17.5 -18t-0.5 -26t-13 -29.5l-350 -640q-12 -21 -10 -30.5t28 -9.5h111q26 0 42 2.5t24.5 11t11 24.5t2.5 42v40q0 26 2.5 42t11 24.5t24.5 11t42 2.5h20q26 0 42 -2.5t24.5 -11t11 -24.5t2.5 -42v-120
q0 -26 -2.5 -42t-11 -24.5t-24.5 -11t-42 -2.5h-375q-28 0 -42 6.5t-18 18t0 26t13 29.5l351 640q12 21 10 30.5t-28 9.5h-181q-26 0 -42 -2.5t-24.5 -11t-11 -24.5t-2.5 -42v-50q0 -38 -8.5 -49t-31.5 -11t-31.5 11t-8.5 49v50zM299 1000q37 0 48.5 -11.5t11.5 -48.5
q0 -19 -2.5 -30.5t-9 -18t-18 -9t-30.5 -2.5t-30.5 2.5t-18 9t-9 18t-2.5 30.5t2.5 30.5t9 18t18 9t30.5 2.5z" />
    <glyph glyph-name="zdotaccent" unicode="&#x17c;" horiz-adv-x="598" 
d="M48 680q0 56 4 88t20 48t48 20t88 4h265q28 0 42 -6.5t17.5 -18t-0.5 -26t-13 -29.5l-350 -640q-12 -21 -10 -30.5t28 -9.5h111q26 0 42 2.5t24.5 11t11 24.5t2.5 42v40q0 26 2.5 42t11 24.5t24.5 11t42 2.5h20q26 0 42 -2.5t24.5 -11t11 -24.5t2.5 -42v-120
q0 -26 -2.5 -42t-11 -24.5t-24.5 -11t-42 -2.5h-375q-28 0 -42 6.5t-18 18t0 26t13 29.5l351 640q12 21 10 30.5t-28 9.5h-181q-26 0 -42 -2.5t-24.5 -11t-11 -24.5t-2.5 -42v-50q0 -38 -8.5 -49t-31.5 -11t-31.5 11t-8.5 49v50zM299 1000q37 0 48.5 -11.5t11.5 -48.5
q0 -19 -2.5 -30.5t-9 -18t-18 -9t-30.5 -2.5t-30.5 2.5t-18 9t-9 18t-2.5 30.5t2.5 30.5t9 18t18 9t30.5 2.5z" />
    <glyph glyph-name="Zcaron" unicode="&#x17d;" horiz-adv-x="598" 
d="M48 680q0 56 4 88t20 48t48 20t88 4h265q28 0 42 -6.5t17.5 -18t-0.5 -26t-13 -29.5l-350 -640q-12 -21 -10 -30.5t28 -9.5h111q26 0 42 2.5t24.5 11t11 24.5t2.5 42v40q0 26 2.5 42t11 24.5t24.5 11t42 2.5h20q26 0 42 -2.5t24.5 -11t11 -24.5t2.5 -42v-120
q0 -26 -2.5 -42t-11 -24.5t-24.5 -11t-42 -2.5h-375q-28 0 -42 6.5t-18 18t0 26t13 29.5l351 640q12 21 10 30.5t-28 9.5h-181q-26 0 -42 -2.5t-24.5 -11t-11 -24.5t-2.5 -42v-50q0 -38 -8.5 -49t-31.5 -11t-31.5 11t-8.5 49v50zM315 864q-16 -15 -31 0l-97 84
q-14 11 -11 19.5t19 8.5h208q16 0 18.5 -8.5t-10.5 -19.5z" />
    <glyph glyph-name="zcaron" unicode="&#x17e;" horiz-adv-x="598" 
d="M48 680q0 56 4 88t20 48t48 20t88 4h265q28 0 42 -6.5t17.5 -18t-0.5 -26t-13 -29.5l-350 -640q-12 -21 -10 -30.5t28 -9.5h111q26 0 42 2.5t24.5 11t11 24.5t2.5 42v40q0 26 2.5 42t11 24.5t24.5 11t42 2.5h20q26 0 42 -2.5t24.5 -11t11 -24.5t2.5 -42v-120
q0 -26 -2.5 -42t-11 -24.5t-24.5 -11t-42 -2.5h-375q-28 0 -42 6.5t-18 18t0 26t13 29.5l351 640q12 21 10 30.5t-28 9.5h-181q-26 0 -42 -2.5t-24.5 -11t-11 -24.5t-2.5 -42v-50q0 -38 -8.5 -49t-31.5 -11t-31.5 11t-8.5 49v50zM315 864q-16 -15 -31 0l-97 84
q-14 11 -11 19.5t19 8.5h208q16 0 18.5 -8.5t-10.5 -19.5z" />
    <glyph glyph-name="uni0218" unicode="&#x218;" horiz-adv-x="541" 
d="M242 -65q0 21 5.5 26.5t26.5 5.5h12q21 0 26.5 -5.5t5.5 -26.5v-46q0 -24 -17 -41.5t-43 -17.5q-14 0 -14 8q0 7 4.5 10.5t10 7t10 8.5t4.5 16q0 8 -2.5 10t-14.5 7q-11 4 -12.5 7t-1.5 15v16zM40 680q0 56 4 88t20 48t48 20t88 4h140q56 0 88 -4t48 -20t20 -48t4 -88
v-40q0 -20 -3 -32t-8 -18t-12.5 -8t-16.5 -2t-16.5 1.5t-12.5 7.5t-8 18t-3 32v41q0 26 -2.5 42t-11 24.5t-24.5 11t-42 2.5h-140q-26 0 -42 -2.5t-24.5 -11t-11 -24.5t-2.5 -42v-140q0 -26 2.5 -42t11 -24.5t24.5 -11t42 -2.5h140q56 0 88 -4t48 -20t20 -48t4 -89v-140
q0 -56 -3.5 -88t-19.5 -47.5t-48.5 -19.5t-88.5 -4h-140q-56 0 -88 4t-48 20t-20 48t-4 88v20q0 26 2.5 42t11 24.5t24.5 11t42 2.5t42 -2.5t24.5 -11t11 -24.5t2.5 -42v-20q0 -26 2.5 -42t11 -24.5t24.5 -11t42 -2.5h60q26 0 42 2.5t24.5 11t11 24t2.5 42.5v139
q0 27 -2.5 43t-11 24.5t-24.5 11t-42 2.5h-140q-56 0 -88 4t-48 20t-20 48t-4 88v140z" />
    <glyph glyph-name="uni0219" unicode="&#x219;" horiz-adv-x="541" 
d="M242 -65q0 21 5.5 26.5t26.5 5.5h12q21 0 26.5 -5.5t5.5 -26.5v-46q0 -24 -17 -41.5t-43 -17.5q-14 0 -14 8q0 7 4.5 10.5t10 7t10 8.5t4.5 16q0 8 -2.5 10t-14.5 7q-11 4 -12.5 7t-1.5 15v16zM40 680q0 56 4 88t20 48t48 20t88 4h140q56 0 88 -4t48 -20t20 -48t4 -88
v-40q0 -20 -3 -32t-8 -18t-12.5 -8t-16.5 -2t-16.5 1.5t-12.5 7.5t-8 18t-3 32v41q0 26 -2.5 42t-11 24.5t-24.5 11t-42 2.5h-140q-26 0 -42 -2.5t-24.5 -11t-11 -24.5t-2.5 -42v-140q0 -26 2.5 -42t11 -24.5t24.5 -11t42 -2.5h140q56 0 88 -4t48 -20t20 -48t4 -89v-140
q0 -56 -3.5 -88t-19.5 -47.5t-48.5 -19.5t-88.5 -4h-140q-56 0 -88 4t-48 20t-20 48t-4 88v20q0 26 2.5 42t11 24.5t24.5 11t42 2.5t42 -2.5t24.5 -11t11 -24.5t2.5 -42v-20q0 -26 2.5 -42t11 -24.5t24.5 -11t42 -2.5h60q26 0 42 2.5t24.5 11t11 24t2.5 42.5v139
q0 27 -2.5 43t-11 24.5t-24.5 11t-42 2.5h-140q-56 0 -88 4t-48 20t-20 48t-4 88v140z" />
    <glyph glyph-name="uni021A" unicode="&#x21a;" 
d="M282 -65q0 21 5.5 26.5t26.5 5.5h12q21 0 26.5 -5.5t5.5 -26.5v-46q0 -24 -17 -41.5t-43 -17.5q-14 0 -14 8q0 7 4.5 10.5t10 7t10 8.5t4.5 16q0 8 -2.5 10t-14.5 7q-11 4 -12.5 7t-1.5 15v16zM30 799q0 23 11 32t49 9h440q38 0 49 -9t11 -32q0 -22 -11 -30.5t-49 -8.5
h-40q-26 0 -42 -2.5t-24.5 -11t-11 -24.5t-2.5 -42v-600q0 -26 -2.5 -42t-11.5 -24.5t-26.5 -11t-47.5 -2.5q-31 0 -49 2.5t-27.5 11t-12.5 24.5t-3 42v600q0 26 -2.5 42t-11 24.5t-24.5 11t-42 2.5h-60q-38 0 -49 8.5t-11 30.5z" />
    <glyph glyph-name="uni021B" unicode="&#x21b;" 
d="M282 -65q0 21 5.5 26.5t26.5 5.5h12q21 0 26.5 -5.5t5.5 -26.5v-46q0 -24 -17 -41.5t-43 -17.5q-14 0 -14 8q0 7 4.5 10.5t10 7t10 8.5t4.5 16q0 8 -2.5 10t-14.5 7q-11 4 -12.5 7t-1.5 15v16zM30 799q0 23 11 32t49 9h440q38 0 49 -9t11 -32q0 -22 -11 -30.5t-49 -8.5
h-40q-26 0 -42 -2.5t-24.5 -11t-11 -24.5t-2.5 -42v-600q0 -26 -2.5 -42t-11.5 -24.5t-26.5 -11t-47.5 -2.5q-31 0 -49 2.5t-27.5 11t-12.5 24.5t-3 42v600q0 26 -2.5 42t-11 24.5t-24.5 11t-42 2.5h-60q-38 0 -49 8.5t-11 30.5z" />
    <glyph glyph-name="circumflex" unicode="&#x2c6;" horiz-adv-x="604" 
d="M284 787q16 15 31 0l97 -84q14 -11 11 -19.5t-19 -8.5h-208q-16 0 -18.5 8.5t10.5 19.5z" />
    <glyph glyph-name="caron" unicode="&#x2c7;" horiz-adv-x="535" 
d="M287 664q-16 -15 -31 0l-97 84q-14 11 -11 19.5t19 8.5h208q16 0 18.5 -8.5t-10.5 -19.5z" />
    <glyph glyph-name="uni02C9" unicode="&#x2c9;" horiz-adv-x="640" 
d="M150 720q0 23 11 31.5t49 8.5h300q38 0 49 -8.5t11 -31.5t-11 -31.5t-49 -8.5h-300q-38 0 -49 8.5t-11 31.5z" />
    <glyph glyph-name="breve" unicode="&#x2d8;" horiz-adv-x="535" 
d="M410 726q-17 -29 -42.5 -42.5t-54.5 -13.5t-55.5 13.5t-44.5 42.5l-14 22q-4 5 -4 12q0 16 22 16h188q21 0 21 -16q0 -6 -3 -12z" />
    <glyph glyph-name="dotaccent" unicode="&#x2d9;" horiz-adv-x="375" 
d="M180 800q37 0 48.5 -11.5t11.5 -48.5q0 -19 -2.5 -30.5t-9 -18t-18 -9t-30.5 -2.5t-30.5 2.5t-18 9t-9 18t-2.5 30.5t2.5 30.5t9 18t18 9t30.5 2.5z" />
    <glyph glyph-name="ring" unicode="&#x2da;" horiz-adv-x="604" 
d="M320 740q0 26 2.5 42t11 24.5t24.5 11t42 2.5t42 -2.5t24.5 -11t11 -24.5t2.5 -42t-2.5 -42t-11 -24.5t-24.5 -11t-42 -2.5t-42 2.5t-24.5 11t-11 24.5t-2.5 42zM364 740q0 -23 6.5 -29.5t29.5 -6.5t29.5 6.5t6.5 29.5t-6.5 29.5t-29.5 6.5t-29.5 -6.5t-6.5 -29.5z" />
    <glyph glyph-name="ogonek" unicode="&#x2db;" horiz-adv-x="533" 
d="M240 0q-26 0 -33 -5.5t-7 -25.5t7 -25.5t33 -5.5t33 4.5t7 15.5q0 20 6 26t33 6t33 -5.5t6 -24.5q0 -21 -1.5 -33t-9 -18t-23.5 -7.5t-44 -1.5h-40q-28 0 -44 0.5t-24 6.5t-10 20t-2 42q0 25 2 39t10 21t24 9t44 2v-40z" />
    <glyph glyph-name="tilde" unicode="&#x2dc;" horiz-adv-x="604" 
d="M190 720q0 30 4.5 48t16.5 27t33.5 12t55.5 3q30 0 47.5 -6t27.5 -15t15.5 -19t11 -19t14 -15t24.5 -6q23 0 31.5 7.5t8.5 22.5q0 27 5 36t30 9t30 -9t5 -36q0 -30 -4.5 -48t-16.5 -27t-33.5 -12t-55.5 -3q-30 0 -47 6t-27.5 15t-16 19t-11 19t-13.5 15t-24 6
q-23 0 -32 -7.5t-9 -22.5q0 -27 -5 -36t-30 -9t-30 9t-5 36z" />
    <glyph glyph-name="hungarumlaut" unicode="&#x2dd;" horiz-adv-x="534" 
d="M213 789q6 0 12.5 -1t10 -6t3 -14.5t-8.5 -27.5l-16 -35q-8 -18 -15.5 -22t-25.5 -4h-16q-16 0 -21.5 7t-5.5 27v42q0 20 9 27t26 7h48zM398 789q6 0 12.5 -1t10 -6t3 -14.5t-8.5 -27.5l-16 -35q-8 -18 -15.5 -22t-25.5 -4h-16q-16 0 -21.5 7t-5.5 27v42q0 20 9 27t26 7
h48z" />
    <glyph glyph-name="uni03BC" unicode="&#x3bc;" 
d="M300 0q-26 0 -42 -2.5t-24.5 -11t-11 -24.5t-2.5 -42t-2.5 -42t-11 -24.5t-24.5 -11t-42 -2.5h-20q-26 0 -42 2.5t-24.5 11t-11 24.5t-2.5 42v580q0 38 8.5 49t31.5 11t31.5 -11t8.5 -49v-340q0 -26 2.5 -42t11 -24.5t24.5 -11t42 -2.5h60q26 0 42 2.5t24.5 11t11 24.5
t2.5 42v320q0 26 2.5 42t11 24.5t24.5 11t42 2.5h20q26 0 42 -2.5t24.5 -11t11 -24.5t2.5 -42v-300q0 -26 5 -42t13 -25.5t18 -14t21 -8.5q21 -8 32 -17.5t11 -32.5t-11 -31.5t-49 -8.5h-260z" />
    <glyph glyph-name="Wgrave" unicode="&#x1e80;" horiz-adv-x="730" 
d="M255 80q-8 -28 -15.5 -44t-17 -24t-24 -10t-36.5 -2h-42q-26 0 -42 2.5t-24.5 11t-11 24.5t-2.5 42v680q0 26 2.5 42t11 24.5t24.5 11t42 2.5h20q26 0 42 -2.5t24.5 -11t11 -24.5t2.5 -42v-460q0 -24 9 -24q5 0 8 4t7 18l46 154q8 29 22 42t30 13q14 0 28 -11t24 -32
l165 -355q13 -27 30 -27q9 0 15 9t6 29v660q0 38 8.5 49t31.5 11t31.5 -11t8.5 -49v-700q0 -26 -2.5 -42t-11 -24.5t-24.5 -11t-42 -2.5h-34q-21 0 -32.5 1.5t-19 7.5t-14 17.5t-15.5 32.5l-140 301q-5 8 -10 8t-8 -9zM410 990q17 0 26 -7t9 -27v-42q0 -20 -5.5 -27
t-21.5 -7h-6q-23 0 -31 5t-20 21l-26 35q-15 19 -15 32q0 11 9.5 14t22.5 3h58z" />
    <glyph glyph-name="wgrave" unicode="&#x1e81;" horiz-adv-x="730" 
d="M255 80q-8 -28 -15.5 -44t-17 -24t-24 -10t-36.5 -2h-42q-26 0 -42 2.5t-24.5 11t-11 24.5t-2.5 42v680q0 26 2.5 42t11 24.5t24.5 11t42 2.5h20q26 0 42 -2.5t24.5 -11t11 -24.5t2.5 -42v-460q0 -24 9 -24q5 0 8 4t7 18l46 154q8 29 22 42t30 13q14 0 28 -11t24 -32
l165 -355q13 -27 30 -27q9 0 15 9t6 29v660q0 38 8.5 49t31.5 11t31.5 -11t8.5 -49v-700q0 -26 -2.5 -42t-11 -24.5t-24.5 -11t-42 -2.5h-34q-21 0 -32.5 1.5t-19 7.5t-14 17.5t-15.5 32.5l-140 301q-5 8 -10 8t-8 -9zM410 990q17 0 26 -7t9 -27v-42q0 -20 -5.5 -27
t-21.5 -7h-6q-23 0 -31 5t-20 21l-26 35q-15 19 -15 32q0 11 9.5 14t22.5 3h58z" />
    <glyph glyph-name="Wacute" unicode="&#x1e82;" horiz-adv-x="730" 
d="M255 80q-8 -28 -15.5 -44t-17 -24t-24 -10t-36.5 -2h-42q-26 0 -42 2.5t-24.5 11t-11 24.5t-2.5 42v680q0 26 2.5 42t11 24.5t24.5 11t42 2.5h20q26 0 42 -2.5t24.5 -11t11 -24.5t2.5 -42v-460q0 -24 9 -24q5 0 8 4t7 18l46 154q8 29 22 42t30 13q14 0 28 -11t24 -32
l165 -355q13 -27 30 -27q9 0 15 9t6 29v660q0 38 8.5 49t31.5 11t31.5 -11t8.5 -49v-700q0 -26 -2.5 -42t-11 -24.5t-24.5 -11t-42 -2.5h-34q-21 0 -32.5 1.5t-19 7.5t-14 17.5t-15.5 32.5l-140 301q-5 8 -10 8t-8 -9zM453 990q13 0 22.5 -3t9.5 -14q0 -13 -15 -32l-26 -35
q-12 -16 -20 -21t-31 -5h-6q-16 0 -21.5 7t-5.5 27v42q0 20 9 27t26 7h58z" />
    <glyph glyph-name="wacute" unicode="&#x1e83;" horiz-adv-x="730" 
d="M255 80q-8 -28 -15.5 -44t-17 -24t-24 -10t-36.5 -2h-42q-26 0 -42 2.5t-24.5 11t-11 24.5t-2.5 42v680q0 26 2.5 42t11 24.5t24.5 11t42 2.5h20q26 0 42 -2.5t24.5 -11t11 -24.5t2.5 -42v-460q0 -24 9 -24q5 0 8 4t7 18l46 154q8 29 22 42t30 13q14 0 28 -11t24 -32
l165 -355q13 -27 30 -27q9 0 15 9t6 29v660q0 38 8.5 49t31.5 11t31.5 -11t8.5 -49v-700q0 -26 -2.5 -42t-11 -24.5t-24.5 -11t-42 -2.5h-34q-21 0 -32.5 1.5t-19 7.5t-14 17.5t-15.5 32.5l-140 301q-5 8 -10 8t-8 -9zM453 990q13 0 22.5 -3t9.5 -14q0 -13 -15 -32l-26 -35
q-12 -16 -20 -21t-31 -5h-6q-16 0 -21.5 7t-5.5 27v42q0 20 9 27t26 7h58z" />
    <glyph glyph-name="Wdieresis" unicode="&#x1e84;" horiz-adv-x="730" 
d="M255 80q-8 -28 -15.5 -44t-17 -24t-24 -10t-36.5 -2h-42q-26 0 -42 2.5t-24.5 11t-11 24.5t-2.5 42v680q0 26 2.5 42t11 24.5t24.5 11t42 2.5h20q26 0 42 -2.5t24.5 -11t11 -24.5t2.5 -42v-460q0 -24 9 -24q5 0 8 4t7 18l46 154q8 29 22 42t30 13q14 0 28 -11t24 -32
l165 -355q13 -27 30 -27q9 0 15 9t6 29v660q0 38 8.5 49t31.5 11t31.5 -11t8.5 -49v-700q0 -26 -2.5 -42t-11 -24.5t-24.5 -11t-42 -2.5h-34q-21 0 -32.5 1.5t-19 7.5t-14 17.5t-15.5 32.5l-140 301q-5 8 -10 8t-8 -9zM265 957q0 16 1.5 25.5t6.5 14.5t14.5 6.5t25.5 1.5h8
q31 0 39.5 -8.5t8.5 -39.5v-38q0 -16 -1.5 -25.5t-6.5 -14.5t-14.5 -6.5t-25.5 -1.5h-8q-16 0 -25.5 1.5t-14.5 6.5t-6.5 14.5t-1.5 25.5v38zM440 957q0 16 1.5 25.5t6.5 14.5t14.5 6.5t25.5 1.5h8q31 0 39.5 -8.5t8.5 -39.5v-38q0 -16 -1.5 -25.5t-6.5 -14.5t-14.5 -6.5
t-25.5 -1.5h-8q-16 0 -25.5 1.5t-14.5 6.5t-6.5 14.5t-1.5 25.5v38z" />
    <glyph glyph-name="wdieresis" unicode="&#x1e85;" horiz-adv-x="730" 
d="M255 80q-8 -28 -15.5 -44t-17 -24t-24 -10t-36.5 -2h-42q-26 0 -42 2.5t-24.5 11t-11 24.5t-2.5 42v680q0 26 2.5 42t11 24.5t24.5 11t42 2.5h20q26 0 42 -2.5t24.5 -11t11 -24.5t2.5 -42v-460q0 -24 9 -24q5 0 8 4t7 18l46 154q8 29 22 42t30 13q14 0 28 -11t24 -32
l165 -355q13 -27 30 -27q9 0 15 9t6 29v660q0 38 8.5 49t31.5 11t31.5 -11t8.5 -49v-700q0 -26 -2.5 -42t-11 -24.5t-24.5 -11t-42 -2.5h-34q-21 0 -32.5 1.5t-19 7.5t-14 17.5t-15.5 32.5l-140 301q-5 8 -10 8t-8 -9zM265 957q0 16 1.5 25.5t6.5 14.5t14.5 6.5t25.5 1.5h8
q31 0 39.5 -8.5t8.5 -39.5v-38q0 -16 -1.5 -25.5t-6.5 -14.5t-14.5 -6.5t-25.5 -1.5h-8q-16 0 -25.5 1.5t-14.5 6.5t-6.5 14.5t-1.5 25.5v38zM440 957q0 16 1.5 25.5t6.5 14.5t14.5 6.5t25.5 1.5h8q31 0 39.5 -8.5t8.5 -39.5v-38q0 -16 -1.5 -25.5t-6.5 -14.5t-14.5 -6.5
t-25.5 -1.5h-8q-16 0 -25.5 1.5t-14.5 6.5t-6.5 14.5t-1.5 25.5v38z" />
    <glyph glyph-name="endash" unicode="&#x2013;" horiz-adv-x="640" 
d="M40 420q0 23 11 31.5t49 8.5h440q38 0 49 -8.5t11 -31.5t-11 -31.5t-49 -8.5h-440q-38 0 -49 8.5t-11 31.5z" />
    <glyph glyph-name="emdash" unicode="&#x2014;" horiz-adv-x="740" 
d="M40 420q0 23 11 31.5t49 8.5h540q38 0 49 -8.5t11 -31.5t-11 -31.5t-49 -8.5h-540q-38 0 -49 8.5t-11 31.5z" />
    <glyph glyph-name="quoteleft" unicode="&#x2018;" horiz-adv-x="232" 
d="M192 620q0 -21 -2 -33.5t-9 -19.5t-19.5 -9t-33.5 -2h-24q-21 0 -33.5 2t-19.5 9t-9 19.5t-2 33.5v93q0 24 9 45t25.5 37t38 25.5t47.5 9.5q28 0 28 -16q0 -13 -9 -20t-20 -14t-20 -17.5t-9 -31.5q0 -15 4.5 -20.5t28.5 -13.5q10 -4 16 -6.5t9 -7t3.5 -11.5t0.5 -19v-33z
" />
    <glyph glyph-name="quoteright" unicode="&#x2019;" horiz-adv-x="232" 
d="M40 776q0 21 2 33.5t9 19.5t19.5 9t33.5 2h24q21 0 33.5 -2t19.5 -9t9 -19.5t2 -33.5v-93q0 -24 -9 -45t-25.5 -37t-38.5 -25.5t-47 -9.5q-28 0 -28 16q0 13 9 20t20 14t20 17.5t9 31.5q0 15 -4.5 20.5t-28.5 13.5q-11 4 -16.5 6.5t-8.5 7t-3.5 11.5t-0.5 19v33z" />
    <glyph glyph-name="quotesinglbase" unicode="&#x201a;" horiz-adv-x="232" 
d="M40 102q0 21 2 33.5t9 19.5t19.5 9t33.5 2h24q21 0 33.5 -2t19.5 -9t9 -19.5t2 -33.5v-93q0 -24 -9 -45t-25.5 -37t-38.5 -25.5t-47 -9.5q-28 0 -28 16q0 13 9 20t20 14t20 17.5t9 31.5q0 15 -4.5 20.5t-28.5 13.5q-11 4 -16.5 6.5t-8.5 7t-3.5 11.5t-0.5 19v33z" />
    <glyph glyph-name="quotedblleft" unicode="&#x201c;" horiz-adv-x="432" 
d="M392 620q0 -21 -2 -33.5t-9 -19.5t-19.5 -9t-33.5 -2h-24q-21 0 -33.5 2t-19.5 9t-9 19.5t-2 33.5v93q0 24 9 45t25.5 37t38 25.5t47.5 9.5q28 0 28 -16q0 -13 -9 -20t-20 -14t-20 -17.5t-9 -31.5q0 -15 4.5 -20.5t28.5 -13.5q10 -4 16 -6.5t9 -7t3.5 -11.5t0.5 -19v-33z
M192 620q0 -21 -2 -33.5t-9 -19.5t-19.5 -9t-33.5 -2h-24q-21 0 -33.5 2t-19.5 9t-9 19.5t-2 33.5v93q0 24 9 45t25.5 37t38 25.5t47.5 9.5q28 0 28 -16q0 -13 -9 -20t-20 -14t-20 -17.5t-9 -31.5q0 -15 4.5 -20.5t28.5 -13.5q10 -4 16 -6.5t9 -7t3.5 -11.5t0.5 -19v-33z
" />
    <glyph glyph-name="quotedblright" unicode="&#x201d;" horiz-adv-x="432" 
d="M40 776q0 21 2 33.5t9 19.5t19.5 9t33.5 2h24q21 0 33.5 -2t19.5 -9t9 -19.5t2 -33.5v-93q0 -24 -9 -45t-25.5 -37t-38.5 -25.5t-47 -9.5q-28 0 -28 16q0 13 9 20t20 14t20 17.5t9 31.5q0 15 -4.5 20.5t-28.5 13.5q-11 4 -16.5 6.5t-8.5 7t-3.5 11.5t-0.5 19v33zM240 776
q0 21 2 33.5t9 19.5t19.5 9t33.5 2h24q21 0 33.5 -2t19.5 -9t9 -19.5t2 -33.5v-93q0 -24 -9 -45t-25.5 -37t-38.5 -25.5t-47 -9.5q-28 0 -28 16q0 13 9 20t20 14t20 17.5t9 31.5q0 15 -4.5 20.5t-28.5 13.5q-11 4 -16.5 6.5t-8.5 7t-3.5 11.5t-0.5 19v33z" />
    <glyph glyph-name="quotedblbase" unicode="&#x201e;" horiz-adv-x="432" 
d="M40 102q0 21 2 33.5t9 19.5t19.5 9t33.5 2h24q21 0 33.5 -2t19.5 -9t9 -19.5t2 -33.5v-93q0 -24 -9 -45t-25.5 -37t-38.5 -25.5t-47 -9.5q-28 0 -28 16q0 13 9 20t20 14t20 17.5t9 31.5q0 15 -4.5 20.5t-28.5 13.5q-11 4 -16.5 6.5t-8.5 7t-3.5 11.5t-0.5 19v33zM240 102
q0 21 2 33.5t9 19.5t19.5 9t33.5 2h24q21 0 33.5 -2t19.5 -9t9 -19.5t2 -33.5v-93q0 -24 -9 -45t-25.5 -37t-38.5 -25.5t-47 -9.5q-28 0 -28 16q0 13 9 20t20 14t20 17.5t9 31.5q0 15 -4.5 20.5t-28.5 13.5q-11 4 -16.5 6.5t-8.5 7t-3.5 11.5t-0.5 19v33z" />
    <glyph glyph-name="dagger" unicode="&#x2020;" horiz-adv-x="440" 
d="M220 -130q-23 0 -31.5 11t-8.5 49v410q0 14 -1 22t-5 12t-12 5t-22 1h-40q-38 0 -49 8.5t-11 31.5t11 31.5t49 8.5h40q14 0 22 1t12 5t5 12t1 22v140q0 38 8.5 49t31.5 11t31.5 -11t8.5 -49v-140q0 -14 1 -22t5 -12t12 -5t22 -1h40q38 0 49 -8.5t11 -31.5t-11 -31.5
t-49 -8.5h-40q-14 0 -22 -1t-12 -5t-5 -12t-1 -22v-410q0 -38 -8.5 -49t-31.5 -11z" />
    <glyph glyph-name="daggerdbl" unicode="&#x2021;" horiz-adv-x="440" 
d="M220 -130q-23 0 -31.5 11t-8.5 49v230q0 14 -1 22t-5 12t-12 5t-22 1h-20q-38 0 -49 8.5t-11 31.5t11 31.5t49 8.5h20q14 0 22 1t12 5t5 12t1 22v20q0 14 -1 22t-5 12t-12 5t-22 1h-40q-38 0 -49 8.5t-11 31.5t11 31.5t49 8.5h40q14 0 22 1t12 5t5 12t1 22v140
q0 38 8.5 49t31.5 11t31.5 -11t8.5 -49v-140q0 -14 1 -22t5 -12t12 -5t22 -1h40q38 0 49 -8.5t11 -31.5t-11 -31.5t-49 -8.5h-40q-14 0 -22 -1t-12 -5t-5 -12t-1 -22v-20q0 -14 1 -22t5 -12t12 -5t22 -1h20q38 0 49 -8.5t11 -31.5t-11 -31.5t-49 -8.5h-20q-14 0 -22 -1
t-12 -5t-5 -12t-1 -22v-230q0 -38 -8.5 -49t-31.5 -11z" />
    <glyph glyph-name="bullet" unicode="&#x2022;" horiz-adv-x="268" 
d="M29 426q0 26 2.5 42t11 24.5t24.5 11t42 2.5h50q26 0 42 -2.5t24.5 -11t11 -24.5t2.5 -42v-50q0 -26 -2.5 -42t-11 -24.5t-24.5 -11t-42 -2.5h-50q-26 0 -42 2.5t-24.5 11t-11 24.5t-2.5 42v50z" />
    <glyph glyph-name="ellipsis" unicode="&#x2026;" horiz-adv-x="744" 
d="M29 106q0 26 2.5 42t11 24.5t24.5 11t42 2.5h30q26 0 42 -2.5t24.5 -11t11 -24.5t2.5 -42v-30q0 -26 -2.5 -42t-11 -24.5t-24.5 -11t-42 -2.5h-30q-26 0 -42 2.5t-24.5 11t-11 24.5t-2.5 42v30zM277 106q0 26 2.5 42t11 24.5t24.5 11t42 2.5h30q26 0 42 -2.5t24.5 -11
t11 -24.5t2.5 -42v-30q0 -26 -2.5 -42t-11 -24.5t-24.5 -11t-42 -2.5h-30q-26 0 -42 2.5t-24.5 11t-11 24.5t-2.5 42v30zM525 106q0 26 2.5 42t11 24.5t24.5 11t42 2.5h30q26 0 42 -2.5t24.5 -11t11 -24.5t2.5 -42v-30q0 -26 -2.5 -42t-11 -24.5t-24.5 -11t-42 -2.5h-30
q-26 0 -42 2.5t-24.5 11t-11 24.5t-2.5 42v30z" />
    <glyph glyph-name="guilsinglleft" unicode="&#x2039;" horiz-adv-x="212" 
d="M38 341q-9 9 -9 19q0 9 9 18l100 116q10 13 21 13q6 0 9.5 -3.5t3.5 -14.5v-258q0 -11 -4 -14.5t-10 -3.5q-10 0 -20 12z" />
    <glyph glyph-name="guilsinglright" unicode="&#x203a;" horiz-adv-x="212" 
d="M163 379q9 -9 9 -19q0 -9 -9 -18l-100 -116q-10 -13 -21 -13q-6 0 -9.5 3.5t-3.5 14.5v258q0 11 4 14.5t10 3.5q9 0 20 -12z" />
    <glyph glyph-name="fraction" unicode="&#x2044;" horiz-adv-x="540" 
d="M94 24q-6 -11 -19 -17.5t-24 -6.5q-14 0 -22 9.5t-8 17.5q0 7 2.5 13.5t6.5 13.5l423 749q6 11 14.5 17.5t18.5 6.5q14 0 22 -9.5t8 -17.5q0 -7 2.5 -13.5t-1.5 -13.5z" />
    <glyph glyph-name="Euro" unicode="&#x20ac;" horiz-adv-x="580" 
d="M240 760q-26 0 -42 -2.5t-24.5 -11t-11 -24.5t-2.5 -42v-150h170q38 0 49 -6t11 -29t-11 -29t-49 -6h-170v-80h170q38 0 49 -6t11 -29t-11 -29t-49 -6h-170v-150q0 -26 2.5 -42t11 -24.5t24.5 -11t42 -2.5h140q26 0 42 2.5t24.5 11t11 24.5t2.5 42v60q0 19 1.5 30.5
t5.5 18t11.5 9t20.5 2.5q26 0 33.5 -11t7.5 -49v-60q0 -56 -4 -88t-20 -48t-48 -20t-88 -4h-140q-56 0 -88 4t-48 20t-20 48t-4 88v150h-20q-38 0 -49 6t-11 29t11 29t49 6h20v80h-20q-38 0 -49 6t-11 29t11 29t49 6h20v150q0 56 4 88t20 48t48 20t88 4h140q56 0 88 -4
t48 -20t20 -48t4 -88v-60q0 -38 -7.5 -49t-33.5 -11q-13 0 -20.5 2.5t-11.5 9t-5.5 18t-1.5 30.5v60q0 26 -2.5 42t-11 24.5t-24.5 11t-42 2.5h-140z" />
    <glyph glyph-name="minus" unicode="&#x2212;" horiz-adv-x="640" 
d="M40 420q0 23 11 31.5t49 8.5h440q38 0 49 -8.5t11 -31.5t-11 -31.5t-49 -8.5h-440q-38 0 -49 8.5t-11 31.5z" />
    <glyph glyph-name="notequal" unicode="&#x2260;" horiz-adv-x="560" 
d="M40 340q0 23 11 31.5t49 8.5h114l44 80h-158q-38 0 -49 8.5t-11 31.5t11 31.5t49 8.5h203l73 130q6 11 14.5 17.5t18.5 6.5q14 0 22 -9.5t8 -17.5q0 -7 -2.5 -13.5t-6.5 -13.5l-56 -100h86q38 0 49 -8.5t11 -31.5t-11 -31.5t-49 -8.5h-131l-45 -80h176q38 0 49 -8.5
t11 -31.5t-11 -31.5t-49 -8.5h-221l-72 -130q-6 -11 -14 -17.5t-19 -6.5q-14 0 -22 9.5t-8 17.5q0 7 2.5 13.5t6.5 13.5l56 100h-69q-38 0 -49 8.5t-11 31.5z" />
    <glyph glyph-name="Walt" horiz-adv-x="730" 
d="M255 80q-8 -28 -15.5 -44t-17 -24t-24 -10t-36.5 -2h-42q-26 0 -42 2.5t-24.5 11t-11 24.5t-2.5 42v680q0 26 2.5 42t11 24.5t24.5 11t42 2.5h20q26 0 42 -2.5t24.5 -11t11 -24.5t2.5 -42v-460q0 -24 9 -24q5 0 8 4t7 18l46 154q8 29 22 42t30 13q14 0 28 -11t24 -32
l165 -355q13 -27 30 -27q9 0 15 9t6 29v660q0 38 8.5 49t31.5 11t31.5 -11t8.5 -49v-700q0 -26 -2.5 -42t-11 -24.5t-24.5 -11t-42 -2.5h-34q-21 0 -32.5 1.5t-19 7.5t-14 17.5t-15.5 32.5l-140 301q-5 8 -10 8t-8 -9z" />
    </font>
</defs>
</svg>
